<svg xmlns="http://www.w3.org/2000/svg" viewBox="0 0 527.24 51.23"><defs><style>.cls-1,.cls-5,.cls-6{fill:#fff;}.cls-10,.cls-2,.cls-7,.cls-8,.cls-9{fill:#515151;}.cls-11,.cls-12,.cls-13,.cls-3,.cls-4{fill:none;}.cls-11,.cls-12,.cls-3,.cls-5,.cls-6,.cls-7,.cls-8{stroke:#515151;}.cls-11,.cls-12,.cls-13,.cls-3,.cls-5,.cls-6,.cls-7,.cls-8,.cls-9{stroke-linecap:round;}.cls-11,.cls-12,.cls-13,.cls-3,.cls-5,.cls-7,.cls-8{stroke-linejoin:round;}.cls-3,.cls-5,.cls-6{stroke-width:0.5px;}.cls-10,.cls-13,.cls-4,.cls-9{stroke:#fff;}.cls-10,.cls-4,.cls-6,.cls-9{stroke-miterlimit:10;}.cls-4{stroke-width:1.65px;}.cls-7{stroke-width:0.93px;}.cls-8{stroke-width:0.65px;}.cls-10,.cls-9{stroke-width:0.42px;}.cls-11,.cls-13{stroke-width:0.49px;}.cls-12{stroke-width:1.16px;}</style></defs><g id="レイヤー_2" data-name="レイヤー 2"><g id="レイヤー_1-2" data-name="レイヤー 1"><rect class="cls-1" x="464.39" width="62.85" height="51.02"/><rect class="cls-1" x="204.74" width="62.85" height="51.02"/><rect class="cls-1" x="269.66" width="62.85" height="51.02"/><rect class="cls-1" x="334.57" width="62.85" height="51.02"/><rect class="cls-1" x="399.48" width="62.85" height="51.02"/><rect class="cls-2" width="198.43" height="51.23"/><path class="cls-1" d="M26.88,17.82a4,4,0,0,0-.77.05v-.8a5,5,0,0,0,.78,0h1.5a5,5,0,0,0,.55-1.37l.72.23a8,8,0,0,1-.55,1.14h.34a5,5,0,0,0,.78,0v.8a4.17,4.17,0,0,0-.78-.05h-.82v.76h.79a5.1,5.1,0,0,0,.77,0v.8a3.86,3.86,0,0,0-.77,0H28.9a3.5,3.5,0,0,0,1,.9,4.7,4.7,0,0,0-.39.69,3.89,3.89,0,0,1-1-1.07,5.8,5.8,0,0,1,0,.73v1a5.28,5.28,0,0,0,0,.75h-.85a5,5,0,0,0,.05-.72v-1a4.94,4.94,0,0,1,0-.67,4.91,4.91,0,0,1-1.56,1.78,2.48,2.48,0,0,0-.4-.74,4.79,4.79,0,0,0,1.63-1.66h-.69a4,4,0,0,0-.78,0v-.8a3.9,3.9,0,0,0,.8,0h1v-.76ZM29.35,15a4,4,0,0,0,.79,0v.8a5.82,5.82,0,0,0-.79,0H27.08a5.61,5.61,0,0,0-.8,0V15a5,5,0,0,0,.82,0h.75v-.17a3.73,3.73,0,0,0,0-.65h.89a2.75,2.75,0,0,0-.05.64V15ZM27.2,17.09A3.76,3.76,0,0,0,26.78,16l.67-.22a5,5,0,0,1,.43,1.12ZM33.42,17a4.85,4.85,0,0,0,.81-.05v.83a4.63,4.63,0,0,0-.74,0h-.26v3.67a5.6,5.6,0,0,0,.05,1H32.4a6.77,6.77,0,0,0,.05-1V17.69H31.33a7.75,7.75,0,0,1-1.14,4.66,2.83,2.83,0,0,0-.72-.5c.87-1.05,1.09-2.21,1.09-5.6a12.3,12.3,0,0,0,0-1.28,6.77,6.77,0,0,0,3-.77l.61.72-.31.1a10.87,10.87,0,0,1-2.45.63V17Z"/><path class="cls-1" d="M36.2,15.25a5.35,5.35,0,0,0-.8,0V14.5a7.27,7.27,0,0,0,.91.05h2.41a5,5,0,0,0,.9-.05v.79a5.11,5.11,0,0,0-.79,0h0v1H39a4.63,4.63,0,0,0,.85,0V17A6.15,6.15,0,0,0,39,17h-.19v1.05a6.43,6.43,0,0,0,0,.65h.7a2.34,2.34,0,0,0,0,.6v.28h1.83a7.25,7.25,0,0,0,1,0v.81a7.61,7.61,0,0,0-1-.05H39.46v1H42a8,8,0,0,0,1,0v.84A7.55,7.55,0,0,0,42,22H36.28a7.39,7.39,0,0,0-1.06.06v-.84a7.57,7.57,0,0,0,1,0h2.43v-1H37a8,8,0,0,0-1,.05v-.81a5.08,5.08,0,0,0,.92,0h1.75V19.3c0-.15,0-.19,0-.34H38c0-.18,0-.56,0-.91V17H37a3.18,3.18,0,0,1-1.24,2.32,2.59,2.59,0,0,0-.59-.6A2.27,2.27,0,0,0,36.23,17H36a4.81,4.81,0,0,0-.84,0v-.8a6.58,6.58,0,0,0,.86,0h.25c0-.27,0-.56,0-1Zm.88,0c0,.52,0,.82,0,1h1v-1Zm3,2.53a4.53,4.53,0,0,0,0-.75v-1.6a4.77,4.77,0,0,0,0-.76H41a5.93,5.93,0,0,0,0,.71v1.71a4.1,4.1,0,0,0,0,.69Zm2.64.43c0,.66-.23.82-1.11.82a7.83,7.83,0,0,1-.81,0,2.32,2.32,0,0,0-.21-.8,6.56,6.56,0,0,0,1,.08c.24,0,.29,0,.29-.2v-3a5.2,5.2,0,0,0-.05-.79h.9a5.11,5.11,0,0,0,0,.84Z"/><path class="cls-1" d="M49.7,20.17V16.35h-5v-.86h5.88v6.22H49.7V21h-5v-.87Z"/><path class="cls-1" d="M54,20.91v.77H53.1V15.44h6.07v6.14h-.91v-.67Zm4.25-4.65H54v3.83h4.25Z"/><path class="cls-1" d="M64.23,14.61h.93v2.26h3v.83h-3A4.47,4.47,0,0,1,62.44,22l-.59-.76a3.63,3.63,0,0,0,2.37-3.51H61.08v-.83h3.15Z"/><path class="cls-1" d="M75.67,15.83l.52.5c-.32,3-1.68,4.77-4.33,5.67l-.49-.8a5,5,0,0,0,3.83-4.56H70.65v1.9h-.93V15.83h2.62V14.45h.94v1.38Z"/><path class="cls-1" d="M81.86,22h-1V17.74A15.55,15.55,0,0,1,78,19.17l-.54-.73a13.41,13.41,0,0,0,5.74-3.87l.81.57a16,16,0,0,1-2.17,2Z"/><path class="cls-1" d="M87.55,15.07v2a5.51,5.51,0,0,1-2,4.66l-.67-.63A4.57,4.57,0,0,0,86.63,17v-2ZM90,14.82v5.73a6.68,6.68,0,0,0,2.56-2.08l.53.76a8.31,8.31,0,0,1-3.53,2.5l-.49-.4V14.82Z"/><path class="cls-1" d="M100.05,21.86a16.18,16.18,0,0,0-2.46-2.68,10.61,10.61,0,0,1-3.52,2.61l-.57-.72a9.2,9.2,0,0,0,5-5.06H94.34v-.85h4.73l.52.6a11.36,11.36,0,0,1-1.47,2.77,15.3,15.3,0,0,1,2.72,2.68Z"/><path class="cls-1" d="M106.26,18.67c0,.1,0,.14,0,.33a5.72,5.72,0,0,0,1-.86,7.58,7.58,0,0,1-.67-2.43h-3.33c0,2.37-.2,3.37-.78,4.28a1.94,1.94,0,0,0-.67-.54,3.12,3.12,0,0,0,.51-1.17,9.49,9.49,0,0,0,.19-2,9.33,9.33,0,0,0-.05-1.27,10.54,10.54,0,0,0,1.06,0h3c0-.17,0-.26,0-.28v-.33a1.12,1.12,0,0,0,0-.22h.85c0,.12,0,.28,0,.42s0,.27,0,.41h1.17a6.55,6.55,0,0,0-.81-.51l.55-.37a5.12,5.12,0,0,1,.91.6l-.39.28a6,6,0,0,0,1,0v.77a9.72,9.72,0,0,0-1,0h-1.32a7.58,7.58,0,0,0,.43,1.79,5.34,5.34,0,0,0,.67-1.39l.7.29c-.09.16-.09.16-.2.39a7.61,7.61,0,0,1-.83,1.39,4.43,4.43,0,0,0,.42.54,1,1,0,0,0,.4.26c.15,0,.27-.39.35-1.08a2.24,2.24,0,0,0,.61.48c-.2,1-.46,1.37-.92,1.37a2,2,0,0,1-1.34-1,5.92,5.92,0,0,1-1.14,1,2.65,2.65,0,0,0-.48-.53h-1.86a4,4,0,0,0-.57,0,.62.62,0,0,0,0-.19c0-.24,0-.31,0-.34v-.86a3.42,3.42,0,0,0,0-.53,4.2,4.2,0,0,0,.58,0h1.54a4.8,4.8,0,0,0,.59,0,3,3,0,0,0,0,.52Zm-2.7,1.43a4.65,4.65,0,0,1-1,2l-.66-.47a3.6,3.6,0,0,0,1-1.81Zm2.9-3.23a3.54,3.54,0,0,0-.6,0h-1.78a3.25,3.25,0,0,0-.6,0v-.69a4.54,4.54,0,0,0,.6,0h1.78a4.64,4.64,0,0,0,.6,0Zm-1.71,4.41c0,.12,0,.15.19.18s.65,0,1,0a5.47,5.47,0,0,0,1-.08c.16-.05.22-.12.25-.32a2.35,2.35,0,0,0,0-.5,3.15,3.15,0,0,0,.75.27,2.21,2.21,0,0,1-.2.87c-.09.2-.29.31-.62.37a14,14,0,0,1-1.59.08c-1.36,0-1.64-.12-1.64-.7v-1a3.48,3.48,0,0,0,0-.63h.85a4.29,4.29,0,0,0,0,.55Zm-.48-2.7h1.32V17.9h-1.32Zm2.1,2.4a5.44,5.44,0,0,0-1.26-1l.51-.41a6.8,6.8,0,0,1,1.29,1Zm2.24-1.1a9.77,9.77,0,0,1,1.17,1.72l-.68.37A8.6,8.6,0,0,0,108,20.16Z"/><path class="cls-1" d="M117.65,18.9a6.4,6.4,0,0,0,1-.06v.8a8.89,8.89,0,0,0-1-.05h-1.94A7.16,7.16,0,0,0,119,21.25a3.84,3.84,0,0,0-.48.73,7.15,7.15,0,0,1-3.31-2.07c0,.43,0,.64,0,.88v.65a4.89,4.89,0,0,0,0,.91h-.92a4.15,4.15,0,0,0,.07-.92V20.8c0-.39,0-.63,0-.88a7.39,7.39,0,0,1-3.16,2,2.79,2.79,0,0,0-.5-.72,7.35,7.35,0,0,0,3.1-1.66H112a9,9,0,0,0-1,.05v-.8a5.87,5.87,0,0,0,1,.06h2.41v-.27a2.45,2.45,0,0,0,0-.58h.9a3.15,3.15,0,0,0,0,.58v.27Zm-6.29-3.34a6.42,6.42,0,0,1,1.41.72l-.45.58a5,5,0,0,0-1.42-.76Zm2.17,1.54a11.55,11.55,0,0,1-1.9,1.34l-.24.14-.39-.7a6.92,6.92,0,0,0,2.31-1.45ZM112,14.33a5.76,5.76,0,0,1,1.44.77l-.44.56a6.32,6.32,0,0,0-1.46-.81Zm4.53.86a7.22,7.22,0,0,0,.75,0,4.84,4.84,0,0,0,0,.72v1.36c0,.22,0,.23.39.23s.42,0,.46-.13a4.42,4.42,0,0,0,.07-1,2.09,2.09,0,0,0,.68.28c-.09,1.41-.17,1.5-1.34,1.5-.49,0-.66,0-.81-.14s-.18-.22-.18-.5V15.88h-.84a3.26,3.26,0,0,1-2.2,2.62,1.93,1.93,0,0,0-.46-.62,2.55,2.55,0,0,0,1.91-2h-.41a6.33,6.33,0,0,0-.89,0v-.77a6.24,6.24,0,0,0,.89,0h.5c0-.17,0-.27,0-.44a2.86,2.86,0,0,0,0-.53h.84a3.33,3.33,0,0,0,0,.44c0,.17,0,.42,0,.52Z"/><path class="cls-1" d="M123.5,16.37a3.62,3.62,0,0,0-.72.05v-.76a10.36,10.36,0,0,1-.76,1.55,2.86,2.86,0,0,1,.86,2,.91.91,0,0,1-.47.89,2.27,2.27,0,0,1-.88.14h-.18a1.65,1.65,0,0,0-.17-.74c.21,0,.35,0,.5,0,.31,0,.43-.13.43-.46a2.7,2.7,0,0,0-.87-1.85,8.34,8.34,0,0,0,.89-2.06h-1.19v6.16c0,.39,0,.64,0,.93h-.87a5.63,5.63,0,0,0,0-.94v-6.1c0-.32,0-.62,0-.77l.66,0h1.34a3.54,3.54,0,0,0,.55,0l.37.5v0s0,0,0,.05l0,.07,0,.08-.06.16a1.8,1.8,0,0,1-.08.21,6.1,6.1,0,0,0,.8.05h1.14V15a3,3,0,0,0-.06-.68h.89a5.63,5.63,0,0,0,0,.68v.68H127a5.18,5.18,0,0,0,.94-.06v.84a7,7,0,0,0-.93-.05h-2.22a2,2,0,0,0,0,.23v.22c0,.12,0,.28,0,.64h1.83a7,7,0,0,0,.79,0,4.47,4.47,0,0,0,0,.64,10.17,10.17,0,0,1-.46,3.62c-.2.36-.48.46-1.16.46h-.4l-.68,0a2.91,2.91,0,0,0-.17-.81,9,9,0,0,0,1.16.1c.43,0,.52-.05.62-.36a11.75,11.75,0,0,0,.28-2.85h-1.84a5.51,5.51,0,0,1-2.3,4.12,2.14,2.14,0,0,0-.63-.64c1.63-1,2.24-2.44,2.25-5.29Z"/><path class="cls-1" d="M135.74,21.15a9.55,9.55,0,0,0,1,0V22a8.38,8.38,0,0,0-1-.06H130a9.13,9.13,0,0,0-1.08.06V21.1a7.87,7.87,0,0,0,1.08,0h.37V16.94a7.38,7.38,0,0,0-.05-1h1a9,9,0,0,0-.05,1v4.21h1.61V15.33a7.64,7.64,0,0,0-.05-1h.95a8.24,8.24,0,0,0,0,1v1.85h1.65a6.81,6.81,0,0,0,1-.06V18a9.31,9.31,0,0,0-1-.05h-1.65v3.2Z"/><path class="cls-1" d="M139.56,15.13a4.47,4.47,0,0,0-.05-.86h.88a4.73,4.73,0,0,0-.06.85v.54h.72a4.79,4.79,0,0,0,.82-.05v.8a4.49,4.49,0,0,0-.73,0,8.8,8.8,0,0,1-.61,2.72,20.29,20.29,0,0,1,1.25,1.76l-.58.63a11.12,11.12,0,0,0-1-1.6,8,8,0,0,1-1.83,2.24,2.62,2.62,0,0,0-.58-.66,6.44,6.44,0,0,0,1.91-2.26,18.5,18.5,0,0,0-1.54-1.7l.55-.53c.83.87.87.92,1.32,1.46a8.71,8.71,0,0,0,.39-2.06h-1.73a4.73,4.73,0,0,0-.81.05v-.81a5.3,5.3,0,0,0,.86.05h.87Zm2.78,2.37a10.21,10.21,0,0,1,1.27,2l-.67.45a8,8,0,0,0-1.25-2.1Zm.52-.62a6.09,6.09,0,0,0-.83,0v-.81a7.83,7.83,0,0,0,.83,0h1.23v-.82a5.26,5.26,0,0,0-.06-1h.9a8.38,8.38,0,0,0-.05,1v.82H145a5.67,5.67,0,0,0,.84,0v.83l-.09,0h-.1a5.21,5.21,0,0,0-.65,0h-.15v4.37c0,.44,0,.6-.21.73s-.43.2-1,.2l-.94,0a2.5,2.5,0,0,0-.24-.82,10.48,10.48,0,0,0,1.12.1c.42,0,.48,0,.48-.21V16.88Z"/><path class="cls-1" d="M148.21,15.62a5.53,5.53,0,0,1-.91,1,2.5,2.5,0,0,0-.53-.55,4,4,0,0,0,1.39-1.87l.79.17-.09.16s-.07.12-.11.21l-.12.2h1.27a5.21,5.21,0,0,0,.87,0v.63a3.61,3.61,0,0,0,.7-1.32l.78.16c-.14.31-.18.39-.28.58h1.89a8.28,8.28,0,0,0,1,0v.76l-.93,0H153a5.78,5.78,0,0,1,.42.75l-.73.22a5.7,5.7,0,0,0-.47-1h-.68a4.51,4.51,0,0,1-.58.71h.18a3.8,3.8,0,0,0,0,.5h2.7a4.07,4.07,0,0,0,.91-.06v.79a7,7,0,0,0-.91,0h-2.7V18h2a7.28,7.28,0,0,0,.83,0,4.55,4.55,0,0,0,0,.74v.8c0,.48-.21.63-.85.63h-.6a2.2,2.2,0,0,0-.16-.66,3.17,3.17,0,0,0,.6.05c.2,0,.27,0,.27-.18V18.7h-2.07v.39a6.84,6.84,0,0,0,3.74,2.25,3.19,3.19,0,0,0-.54.72A7.06,7.06,0,0,1,151.11,20c0,.28,0,.51,0,.68v.77a3.84,3.84,0,0,0,.07.93h-.9a4.69,4.69,0,0,0,.07-.93v-.75c0-.17,0-.42,0-.66a7,7,0,0,1-3,2.07,2.93,2.93,0,0,0-.57-.7,6.9,6.9,0,0,0,3.53-2.27V18.7h-1.86v.86a6.51,6.51,0,0,0,0,.76h-.83c0-.18,0-.52,0-.83v-.76c0-.25,0-.55,0-.73.22,0,.49,0,.8,0h1.87v-.52h-2.48a6.86,6.86,0,0,0-.9,0v-.79a4.59,4.59,0,0,0,.9.06h2.48a2.77,2.77,0,0,0-.05-.5h.58a1.72,1.72,0,0,0-.52-.41l.29-.27a4.67,4.67,0,0,0-.62,0h-.54c.17.27.27.47.4.72l-.72.22a6.4,6.4,0,0,0-.43-.94Z"/><path class="cls-1" d="M157.83,16.49a1.1,1.1,0,0,1,.86-.51,1.16,1.16,0,0,1,.86.46,23.54,23.54,0,0,0,4.15,3.74,2,2,0,0,1-.7.89,30,30,0,0,1-4-3.95.33.33,0,0,0-.58,0,15.35,15.35,0,0,1-2,2.21,2.81,2.81,0,0,1-.59-.72A14.61,14.61,0,0,0,157.83,16.49Z"/><path class="cls-1" d="M168.79,21.19c1.76-.5,2.56-1.47,2.56-2.82A2.39,2.39,0,0,0,169,15.93a9.24,9.24,0,0,1-1,4.19,1.86,1.86,0,0,1-1.7,1.21c-.91,0-1.67-.86-1.67-2.48a3.82,3.82,0,0,1,4-3.74,3.31,3.31,0,0,1,3.61,3.26c0,1.85-1.1,3-3,3.64Zm-3.29-2.35c0,1.15.44,1.57.81,1.57s.6-.15.89-.68a8.5,8.5,0,0,0,.86-3.77A2.86,2.86,0,0,0,165.5,18.84Z"/><path class="cls-1" d="M75.59,36.41a9.2,9.2,0,0,1-3.12.47c-2.09,0-2.93-.73-2.94-2.21a1.53,1.53,0,0,1,.69-.17h.12c.06,1.07.55,1.48,2.12,1.48a8.39,8.39,0,0,0,2.89-.49A1.77,1.77,0,0,1,75.59,36.41ZM72.2,31.29a9.27,9.27,0,0,1-2-.17V31a1.7,1.7,0,0,1,.18-.76,9.22,9.22,0,0,0,1.78.15,14.53,14.53,0,0,0,2.45-.19,2,2,0,0,1,.15.74.81.81,0,0,1,0,.16A17.88,17.88,0,0,1,72.2,31.29Zm3-2a6,6,0,0,1,1,1.45l-.55.3a6.55,6.55,0,0,0-.92-1.47Zm1-.48a6.08,6.08,0,0,1,1,1.41l-.55.3a6.74,6.74,0,0,0-.93-1.44Z"/><path class="cls-1" d="M78.54,30.08a4.85,4.85,0,0,0-.06-.86h.91a4.2,4.2,0,0,0-.06.83v1.37h.1a3,3,0,0,0,.63,0v.81a5.11,5.11,0,0,0-.62,0h-.11v4.12a7.18,7.18,0,0,0,.06,1h-.91a6.93,6.93,0,0,0,.06-1.06v-4.1h-.13a7.25,7.25,0,0,0-.76,0v-.83a3.88,3.88,0,0,0,.76.05h.13Zm3.24,3.3c.35,0,.55,0,.77,0,0,.13,0,.3,0,.53a20.32,20.32,0,0,1-.17,2.27c-.1.57-.24.82-.51.91a2.79,2.79,0,0,1-.67.07h-.33a2.25,2.25,0,0,0-.15-.78,3.68,3.68,0,0,0,.64.07c.19,0,.25-.06.3-.24a11.28,11.28,0,0,0,.19-2.08H81.2A5.37,5.37,0,0,1,80,37.25a3.15,3.15,0,0,0-.54-.64,4,4,0,0,0,1.08-2.52h-.3a2.54,2.54,0,0,0-.46,0v-.77a3,3,0,0,0,.51,0h.3c0-.14,0-.21,0-.29,0-.23,0-.34,0-.46h.78c0,.14,0,.27,0,.52v.22ZM84.46,30a7.64,7.64,0,0,0,.77,0v.15s0,.06,0,.1v.15A4.43,4.43,0,0,1,84.9,32c-.17.29-.42.38-1.08.38-.28,0-.45,0-.85,0a2.23,2.23,0,0,0-.17-.74,6,6,0,0,0,1,.1c.39,0,.44-.11.51-1H82.69a3.66,3.66,0,0,1-2.12,1.94,2.62,2.62,0,0,0-.48-.64,3,3,0,0,0,1.79-1.3h-.77a5.73,5.73,0,0,0-.85,0V30a6.26,6.26,0,0,0,.89.05h.94a3.57,3.57,0,0,0,.08-.64.62.62,0,0,0,0-.18l.87,0v.07c0,.06,0,.19-.08.36a1.23,1.23,0,0,1,0,.18,1.2,1.2,0,0,1,0,.17Zm.43,3.38c.34,0,.54,0,.77,0,0,.21,0,.23,0,.55a8,8,0,0,1-.38,2.9c-.17.26-.4.34-1,.34a3.44,3.44,0,0,1-.4,0,2.4,2.4,0,0,0-.15-.78,4,4,0,0,0,.67.08c.19,0,.27-.05.31-.18a11,11,0,0,0,.21-2.15h-.75a5.4,5.4,0,0,1-1.27,3.17,2.13,2.13,0,0,0-.57-.59,3.87,3.87,0,0,0,1.13-2.58h-.13a2.85,2.85,0,0,0-.49,0v-.77a3.45,3.45,0,0,0,.55,0h.12c0-.13,0-.32,0-.42a3.28,3.28,0,0,0,0-.34h.78c0,.1,0,.25,0,.51,0,.1,0,.13,0,.24Z"/><path class="cls-1" d="M92.82,31a7.61,7.61,0,0,0,1.09,0c0,.3,0,.39,0,.69a35.44,35.44,0,0,1-.23,3.84,2.17,2.17,0,0,1-.38,1.2,1.28,1.28,0,0,1-1,.32,11,11,0,0,1-1.49-.12,4,4,0,0,0-.22-.91,7.31,7.31,0,0,0,1.59.2c.46,0,.58-.21.7-1.12A32,32,0,0,0,93,31.79H90.53c-.29,2.71-1.16,4.11-3.35,5.34a2.43,2.43,0,0,0-.64-.77A4.88,4.88,0,0,0,89,34.21a7.05,7.05,0,0,0,.64-2.42h-1.6a9.77,9.77,0,0,0-1.1.05V31a7.48,7.48,0,0,0,1.11.05H89.7c0-.37,0-.62,0-.93a4.44,4.44,0,0,0-.06-.88h1a6.69,6.69,0,0,0,0,.76c0,.44,0,.71,0,1.05Z"/><path class="cls-1" d="M99.57,36.19c1.76-.5,2.56-1.47,2.56-2.82a2.38,2.38,0,0,0-2.38-2.44,9.37,9.37,0,0,1-1,4.19,1.86,1.86,0,0,1-1.7,1.21c-.91,0-1.67-.86-1.67-2.48a3.82,3.82,0,0,1,4-3.74,3.31,3.31,0,0,1,3.61,3.26c0,1.85-1.1,3-3,3.64Zm-3.29-2.35c0,1.15.44,1.57.81,1.57s.6-.15.89-.68A8.49,8.49,0,0,0,98.85,31,2.86,2.86,0,0,0,96.28,33.84Z"/><path class="cls-1" d="M107.12,36.07c0,.69-.34,1-.87,1a2.24,2.24,0,0,1-1.19-.42c-.6-.38-.81-.75-.81-1.11,0-.53.4-1.3,2-2.06v-1.6c-.61.05-1.21.07-1.75.07a1.93,1.93,0,0,1,0-.42,1.7,1.7,0,0,1,0-.4h.22c.49,0,1,0,1.54-.07,0-.51,0-1,0-1.56a1.64,1.64,0,0,1,.4,0,3.34,3.34,0,0,1,.49,0c0,.52,0,1,0,1.49a13.19,13.19,0,0,0,1.42-.23,1.87,1.87,0,0,1,.12.64.81.81,0,0,1,0,.16,15.39,15.39,0,0,1-1.53.24v1.44a6,6,0,0,1,1.78-.3c1.47,0,2.35.78,2.35,1.83a1.88,1.88,0,0,1-2.12,2,4.68,4.68,0,0,1-.66,0l-.17-.88a3.4,3.4,0,0,0,.74.07c.81,0,1.32-.35,1.32-1.14,0-.6-.45-1-1.48-1a5.49,5.49,0,0,0-1.76.31Zm-.82-1.76c-1,.51-1.18.9-1.18,1.15s.09.3.38.47a1.26,1.26,0,0,0,.6.21c.13,0,.2-.06.2-.23Zm5.42-2.82a1.66,1.66,0,0,1-.55.69,6.2,6.2,0,0,0-1.8-1.35,1.57,1.57,0,0,1,.46-.65A6.43,6.43,0,0,1,111.72,31.49Z"/><path class="cls-1" d="M114.94,31.06a7.52,7.52,0,0,0,.26-.8h-1.42c0,4.19-.17,5.66-.81,6.94a3.58,3.58,0,0,0-.57-.65,5.36,5.36,0,0,0,.47-1.85,33.42,33.42,0,0,0,.18-4.15,9.21,9.21,0,0,0,0-1,7.75,7.75,0,0,0,.93,0h1.87a5.7,5.7,0,0,0,1-.06v.79c-.2,0-.44,0-.85,0a6.83,6.83,0,0,1-.27.8H116a6.26,6.26,0,0,0,.68,0,6,6,0,0,0,0,.68v1.88a5.07,5.07,0,0,0,0,.66l-.58,0h-.34v2.32c0,.56-.16.67-1,.67h-.25a2,2,0,0,0-.14-.74,3.13,3.13,0,0,0,.45.05c.21,0,.24,0,.24-.14V34.23h-.34l-.62,0a5.32,5.32,0,0,0,0-.65v-2a5.22,5.22,0,0,0,0-.62,6.75,6.75,0,0,0,.71,0Zm-1.46,5.55a5.15,5.15,0,0,0,.68-2.08l.61.18a7.79,7.79,0,0,1-.68,2.21Zm1.35-4.3H116v-.62h-1.2Zm0,1.29H116v-.68h-1.2Zm1.74.94A8.52,8.52,0,0,1,117,36l-.6.24a7.12,7.12,0,0,0-.32-1.49Zm1.87,1.58a5.6,5.6,0,0,1-1.69,1.28,2.7,2.7,0,0,0-.53-.61,4.08,4.08,0,0,0,1.67-1.11Zm-.63-5.86c-.34,0-.61,0-.82,0v-.8a4.13,4.13,0,0,0,.91.06h1.88a4.66,4.66,0,0,0,.91-.06v.8a6.39,6.39,0,0,0-.91,0h-.62a5.11,5.11,0,0,1-.31.75h.69a7.61,7.61,0,0,0,.83,0c0,.21,0,.43,0,.81v3c0,.39,0,.71,0,.88-.23,0-.49,0-.75,0h-1.79a6.7,6.7,0,0,0-.72,0c0-.26,0-.52,0-.8v-3c0-.39,0-.68,0-.83a6.61,6.61,0,0,0,.75,0h.23a5.07,5.07,0,0,0,.27-.75Zm0,2.1h1.79v-.69h-1.79Zm0,1.26h1.79V33h-1.79Zm0,1.3h1.79v-.66h-1.79Zm1.49.76a5,5,0,0,0,1.49,1.07,2.7,2.7,0,0,0-.5.65,6.9,6.9,0,0,1-1.53-1.29Z"/><path class="cls-1" d="M125.67,34.43a4.13,4.13,0,0,1-.7,1.68,1,1,0,0,1-.9.46c-.42,0-.88-.22-1.29-1-.49-1-.73-2.47-.73-5.33a1.86,1.86,0,0,1,.42-.05,2.16,2.16,0,0,1,.51.06c0,.38,0,.72,0,1a9,9,0,0,0,.59,3.8c.21.39.36.49.54.49a.33.33,0,0,0,.29-.17,4.45,4.45,0,0,0,.52-1.52Zm1.78-3.61a8.59,8.59,0,0,1,1.92,3.82,2,2,0,0,1-.9.35,8.69,8.69,0,0,0-1.76-3.81A1.43,1.43,0,0,1,127.45,30.82Z"/><path class="cls-2" d="M221.66,9.23a8.35,8.35,0,0,1,1.1.95,7.17,7.17,0,0,0,1.9-2h-4.47V7.47h5l.39.47a8.49,8.49,0,0,1-2.42,2.71q.45.53.84,1.08l-.61.46a10.91,10.91,0,0,0-2.23-2.51Z"/><path class="cls-2" d="M231.6,12.31a12.29,12.29,0,0,0-1.91-2.08,8.21,8.21,0,0,1-2.74,2l-.45-.56a7.07,7.07,0,0,0,3.87-3.94h-3.22V7.1h3.69l.4.47a8.78,8.78,0,0,1-1.15,2.15,12,12,0,0,1,2.13,2.08Z"/><path class="cls-2" d="M237.72,7.6l.38.44a6.93,6.93,0,0,1-3.9,4.44l-.47-.59a6.19,6.19,0,0,0,3.53-3.68h-2.1a7.32,7.32,0,0,1-1.5,1.54l-.49-.43a7,7,0,0,0,2.15-2.81l.7.22a7.16,7.16,0,0,1-.45.87Z"/><path class="cls-2" d="M240.21,7.49a6.13,6.13,0,0,0-.68,0V7a5.77,5.77,0,0,0,.68,0h.91a3.08,3.08,0,0,0-.47-.6l.57-.16a5.93,5.93,0,0,1,.54.76h1.07a5.38,5.38,0,0,0,.53-.75l.61.16a5.61,5.61,0,0,1-.5.59h.94a6,6,0,0,0,.69,0v.54a6.21,6.21,0,0,0-.69,0h-1.84v.36h1.59a3.29,3.29,0,0,0,.63,0v.52a3.71,3.71,0,0,0-.63,0h-1.59v.37h2.1a3.88,3.88,0,0,0,.69,0V9.2a4,4,0,0,0-.69,0h-3.38l-.11.35h2.95a5.92,5.92,0,0,0,.63,0,4.06,4.06,0,0,0,0,.61V12a5.86,5.86,0,0,0,0,.66h-.65v-.28h-2.81v.28h-.64a3.75,3.75,0,0,0,0-.64v-.85c0-.32,0-.44,0-.61a5.56,5.56,0,0,1-1.15,1.59,1.85,1.85,0,0,0-.46-.53,4.17,4.17,0,0,0,1.55-2.45H240a4.12,4.12,0,0,0-.68,0V8.64a3.68,3.68,0,0,0,.68,0h2V8.31h-1.47a3.53,3.53,0,0,0-.63,0V7.82a3.12,3.12,0,0,0,.63,0H242V7.49Zm1.1,2.5v.33h2.82V10Zm0,.77v.34h2.82v-.34Zm0,.78v.36h2.82v-.36Z"/><path class="cls-2" d="M249.57,11.64a6.68,6.68,0,0,0,0,.79h-.68a4.8,4.8,0,0,0,0-.78v-1.2h-1.7a4.44,4.44,0,0,1-.71,2.2,3.08,3.08,0,0,0-.56-.44c.59-.82.73-1.65.73-4.52,0-.57,0-.75,0-1.06a7.64,7.64,0,0,0,.77,0h3.79a7,7,0,0,0,.76,0,6.65,6.65,0,0,0,0,.73v4.55c0,.52-.18.64-.93.64-.21,0-.58,0-.79,0a2.51,2.51,0,0,0-.16-.61A6.77,6.77,0,0,0,251,12c.3,0,.36,0,.36-.19V10.45h-1.8Zm-2.24-2.8v.43c0,.35,0,.39,0,.51v.1H249v-1ZM249,7.25h-1.61v1H249Zm2.41,1v-1h-1.8v1Zm-1.8,1.61h1.8v-1h-1.8Z"/><path class="cls-3" d="M227.87,30.82c0,7.89-2.09,6-4.27,5.15s-4.28-2.79-4.28-5.15a4.28,4.28,0,1,1,8.55,0Z"/><path class="cls-3" d="M244.46,30.82c0,7.89,2.1,6,4.28,5.15S253,33.18,253,30.82a4.28,4.28,0,1,0-8.56,0Z"/><polygon class="cls-1" points="236.17 39.24 244.98 37.95 246.02 32.51 244.98 27.06 236.17 26.02 227.35 27.06 226.32 32.51 227.35 37.95 236.17 39.24"/><polygon class="cls-4" points="236.17 39.24 244.98 37.95 246.02 32.51 244.98 27.06 236.17 26.02 227.35 27.06 226.32 32.51 227.35 37.95 236.17 39.24"/><polygon class="cls-3" points="236.17 39.24 244.98 37.95 246.02 32.51 244.98 27.06 236.17 26.02 227.35 27.06 226.32 32.51 227.35 37.95 236.17 39.24"/><polyline class="cls-3" points="242.91 29.39 236.17 28.62 229.43 29.39"/><line class="cls-3" x1="229.43" y1="32.51" x2="242.91" y2="32.51"/><polyline class="cls-3" points="242.91 35.88 236.17 36.65 229.43 35.88"/><path class="cls-2" d="M279.15,7.42l-.25,0-.24,0c-.42,0-1.1.08-1.6.1a2.08,2.08,0,0,0-.22-.6h.24A18.12,18.12,0,0,0,280,6.72a4.48,4.48,0,0,0,1.29-.36l.47.58a14.73,14.73,0,0,1-2,.41v1h1.45a4.9,4.9,0,0,0,.77,0V9a5.08,5.08,0,0,0-.76,0h-1.46v.93h1.76a6.5,6.5,0,0,0,.76,0v.65a6.79,6.79,0,0,0-.76,0h-1.76v1.45c0,.47-.2.63-.8.63-.3,0-.7,0-1-.05a2.09,2.09,0,0,0-.17-.64,8.12,8.12,0,0,0,1.13.1c.18,0,.24,0,.24-.21V10.42h-1.91a6.64,6.64,0,0,0-.76,0V9.81a6.5,6.5,0,0,0,.76,0h1.91V8.92h-1.54a5.78,5.78,0,0,0-.77,0V8.3a4.75,4.75,0,0,0,.76,0h1.55Z"/><path class="cls-2" d="M283.36,8.1a6.25,6.25,0,0,1,1.15.88l-.34.53A5.7,5.7,0,0,0,283,8.57Zm1.15,2.3a11.34,11.34,0,0,1-.77,1.84l-.07.14-.05.1,0,.08-.53-.48a5.87,5.87,0,0,0,1-2Zm-.85-4a6.47,6.47,0,0,1,1.08.89l-.38.49a5.79,5.79,0,0,0-1.08-.93Zm4.42,1a3.44,3.44,0,0,0,.69,0V8a4.47,4.47,0,0,0-.7,0h-1V9.06h1.31a3.73,3.73,0,0,0,.65,0v.65a3.21,3.21,0,0,0-.64-.05h-.82V11.8c0,.14.07.17.36.17s.48,0,.54-.13a3.66,3.66,0,0,0,.08-1,2.18,2.18,0,0,0,.56.19c0,.85-.09,1.12-.25,1.28s-.39.21-.91.21a1.57,1.57,0,0,1-.8-.12A.45.45,0,0,1,287,12V9.62h-.65a2.92,2.92,0,0,1-1.73,3,1.85,1.85,0,0,0-.4-.54,2.27,2.27,0,0,0,1.56-2.43h-.44a4.12,4.12,0,0,0-.68.05V9a3.67,3.67,0,0,0,.64,0h1.21V8h-.92a4.59,4.59,0,0,1-.6,1,1.47,1.47,0,0,0-.47-.41,3.92,3.92,0,0,0,.93-2l.59.17s0,.08,0,.09L286,7c-.07.22-.12.38-.16.49h.69V7.07a5.17,5.17,0,0,0,0-.69h.65a5.68,5.68,0,0,0,0,.69v.38Z"/><path class="cls-2" d="M292.82,10.42a3.55,3.55,0,0,1-.52,1.31.74.74,0,0,1-.67.35c-.32,0-.66-.17-1-.75a9.86,9.86,0,0,1-.55-4.15,1.66,1.66,0,0,1,.32,0,1.64,1.64,0,0,1,.38,0c0,.3,0,.56,0,.77a7.21,7.21,0,0,0,.43,3c.15.31.27.39.4.39s.14,0,.22-.14a3.55,3.55,0,0,0,.39-1.18Zm1.32-2.81a6.94,6.94,0,0,1,1.44,3,1.38,1.38,0,0,1-.67.27,7.08,7.08,0,0,0-1.32-3A1.11,1.11,0,0,1,294.14,7.61Z"/><path class="cls-2" d="M298.2,9.51a.66.66,0,1,1-.66-.7A.68.68,0,0,1,298.2,9.51Z"/><path class="cls-2" d="M302.32,7.42l-.25,0-.24,0c-.42,0-1.1.08-1.6.1A2.08,2.08,0,0,0,300,7h.24a18.12,18.12,0,0,0,2.91-.25,4.48,4.48,0,0,0,1.29-.36l.47.58a14.73,14.73,0,0,1-2,.41v1h1.45a4.9,4.9,0,0,0,.77,0V9a5.08,5.08,0,0,0-.76,0h-1.46v.93h1.76a6.5,6.5,0,0,0,.76,0v.65a6.79,6.79,0,0,0-.76,0h-1.76v1.45c0,.47-.2.63-.8.63-.3,0-.7,0-1-.05a2.09,2.09,0,0,0-.17-.64,8.12,8.12,0,0,0,1.13.1c.18,0,.24,0,.24-.21V10.42h-1.91a6.64,6.64,0,0,0-.76,0V9.81a6.5,6.5,0,0,0,.76,0h1.91V8.92h-1.54A6,6,0,0,0,300,9V8.3a5,5,0,0,0,.77,0h1.55Z"/><path class="cls-2" d="M307.24,7.06a4.55,4.55,0,0,0,0-.7h.67a4.33,4.33,0,0,0,0,.69v.62H308a4.05,4.05,0,0,0,.52,0v.62a4.05,4.05,0,0,0-.52,0h-.18V9.44l.7-.24,0,.56c-.31.13-.43.17-.72.27v2c0,.43-.19.57-.81.57l-.52,0a2.27,2.27,0,0,0-.13-.62A4.35,4.35,0,0,0,307,12c.17,0,.21,0,.21-.18V10.22l-.6.18-.23.07-.11-.66a1.57,1.57,0,0,0,.3-.05l.64-.16V8.23h-.36a2.82,2.82,0,0,0-.52,0V7.63a2.68,2.68,0,0,0,.52,0h.36Zm2.13.13a6.25,6.25,0,0,0,2.22-.66l.44.52a12,12,0,0,1-2.66.66V8.1c0,.25.1.27,1.14.27.66,0,.89,0,1-.14s.11-.27.13-.69a2.1,2.1,0,0,0,.57.21c-.06.63-.14.85-.36,1s-.51.18-1.64.18a3.67,3.67,0,0,1-1.11-.1.49.49,0,0,1-.32-.53V7a4.18,4.18,0,0,0,0-.67h.65a5.29,5.29,0,0,0,0,.63Zm-.57,2.74a4.13,4.13,0,0,0,0-.56,4.37,4.37,0,0,0,.59,0h1.91a4.07,4.07,0,0,0,.59,0,4,4,0,0,0,0,.58v2a3.72,3.72,0,0,0,0,.7h-.62V12.3h-1.89v.34h-.6a4,4,0,0,0,0-.68Zm.57.64h1.89V9.93h-1.89Zm0,1.2h1.89V11.1h-1.89Z"/><path class="cls-2" d="M313.34,8.09a7.13,7.13,0,0,1,1.16.9l-.35.52a5,5,0,0,0-1.15-1Zm1.18,2.32a11.2,11.2,0,0,1-.81,1.92l-.12.24-.54-.48A6.88,6.88,0,0,0,314,10Zm-.87-4a6,6,0,0,1,1.09.92l-.37.5a4.89,4.89,0,0,0-1.09-1Zm1.64.09A6.55,6.55,0,0,1,316,7.82l-.53.28a5.58,5.58,0,0,0-.71-1.29Zm1.12.44a5.54,5.54,0,0,0,0-.66H317A4.08,4.08,0,0,0,317,7V8.22h1a4.65,4.65,0,0,0,.6,0c0,.1,0,.39,0,.67V12c0,.45-.18.58-.79.58l-.71,0a2.5,2.5,0,0,0-.13-.6,6.85,6.85,0,0,0,.8.07c.19,0,.24,0,.24-.16v-.68h-2.37v.68c0,.28,0,.65,0,.79H315a7.12,7.12,0,0,0,0-.79v-3c0-.36,0-.55,0-.64a5,5,0,0,0,.61,0h.83ZM318,8.77h-2.37v.64H318Zm-2.37,1.85H318V10h-2.37Zm3.08-3.85a8.92,8.92,0,0,1-.7,1.36l-.5-.28a5.43,5.43,0,0,0,.63-1.34Z"/><path class="cls-2" d="M320.89,11.86l-.15.44-.63,0a8.27,8.27,0,0,0,.42-1.41h-.25a3.61,3.61,0,0,0-.62.05v-.59a4,4,0,0,0,.67,0h.31a6.71,6.71,0,0,0,.11-.92v0a3.93,3.93,0,0,0,.61,0h2.8a4.66,4.66,0,0,0,.66,0,2.73,2.73,0,0,0,0,.37c0,.16,0,.33,0,.58h.31a3,3,0,0,0,.61,0v.58a5.92,5.92,0,0,0-.64,0h-.32c0,.19,0,.33-.06.52h.14a2.72,2.72,0,0,0,.57,0v.55a4.82,4.82,0,0,0-.61,0h-.18c-.09.4-.14.53-.28.66a1,1,0,0,1-.7.17l-.54,0a1.59,1.59,0,0,0-.16-.58,4.14,4.14,0,0,0,.73.07c.25,0,.29,0,.36-.29Zm1.45-5a1.89,1.89,0,0,0,0-.55H323a2.51,2.51,0,0,0,0,.55h1.73a4.21,4.21,0,0,0,.72,0v.57a3.79,3.79,0,0,0-.66,0h-1.79v.39h1.53a4.23,4.23,0,0,0,.6,0v.54a3.47,3.47,0,0,0-.6,0h-1.53v.4h2a3.43,3.43,0,0,0,.66,0v.57a3.87,3.87,0,0,0-.7-.05h-4.49a4.12,4.12,0,0,0-.7.05V8.59a3.49,3.49,0,0,0,.67,0h1.93v-.4h-1.42a3.79,3.79,0,0,0-.62,0V7.73a4.81,4.81,0,0,0,.62,0h1.42V7.38h-1.66a3.67,3.67,0,0,0-.67,0V6.84a4.35,4.35,0,0,0,.73,0Zm-1.21,4c0,.21-.07.32-.11.52h1.16c.05-.22.07-.33.1-.52Zm1.23-.5c0-.15,0-.23.05-.46H321.3c0,.15,0,.31-.07.46Zm1.72,1,.06-.52h-1.3c0,.27,0,.37-.08.52Zm.1-1c0-.18,0-.19,0-.46H323c0,.15,0,.3,0,.46Z"/><rect class="cls-5" x="311.39" y="23.49" width="1.31" height="3.6"/><polygon class="cls-5" points="304.16 23.98 303.16 23.27 305.04 20.65 309.96 20.65 309.96 21.87 305.67 21.87 304.16 23.98"/><rect class="cls-5" x="310.72" y="21.83" width="2.66" height="2.59"/><rect class="cls-5" x="310.33" y="26.44" width="3.43" height="5.9"/><path class="cls-5" d="M317.83,44.07V32.63a3.16,3.16,0,0,0-3.15-3.16h-5.26a3.17,3.17,0,0,0-3.16,3.16V44.07Z"/><line class="cls-3" x1="306.26" y1="42.2" x2="317.83" y2="42.2"/><rect class="cls-5" x="308.88" y="32.78" width="6.34" height="5.9"/><rect class="cls-5" x="309.91" y="19.94" width="4.27" height="2.81"/><path class="cls-5" d="M297.05,38.16l5.34-1.79a1.19,1.19,0,0,1,1.55,1.1,1.93,1.93,0,0,1-.26,1.1c-.59.8-7.87,5.26-7.87,5.26h-8.1L286.86,39l2.06-1.21,1.85-1a2.49,2.49,0,0,1,1.68-.39l4.06.59a.89.89,0,0,1,.54.81v.36a.89.89,0,0,1-.89.88h-3.75"/><rect class="cls-5" x="285.51" y="37.95" width="3.04" height="7.55" transform="translate(2.65 98.78) rotate(-19.62)"/><path class="cls-2" d="M304.19,26.83h-.1a.41.41,0,0,1-.3-.5c.07-.3.07-.32.08-.35a.42.42,0,0,1,.52-.26.41.41,0,0,1,.27.52s0,.06-.07.28A.41.41,0,0,1,304.19,26.83Z"/><path class="cls-2" d="M302.77,33h-.1a.42.42,0,0,1-.31-.5l.15-.63a.41.41,0,0,1,.81.18l-.15.64A.42.42,0,0,1,302.77,33Zm.47-2h-.1a.41.41,0,0,1-.3-.5l.14-.64a.42.42,0,0,1,.81.19l-.15.64A.41.41,0,0,1,303.24,30.91Zm.47-2-.09,0a.41.41,0,0,1-.31-.49l.15-.64a.41.41,0,1,1,.8.19l-.15.64A.41.41,0,0,1,303.71,28.87Z"/><path class="cls-2" d="M302.37,34.66h-.09a.41.41,0,0,1-.31-.49l.07-.31a.42.42,0,0,1,.5-.31.41.41,0,0,1,.31.49l-.08.31A.4.4,0,0,1,302.37,34.66Z"/><path class="cls-2" d="M302.51,26.79a.46.46,0,0,1-.22-.06.42.42,0,0,1-.13-.57l.17-.27a.41.41,0,0,1,.57-.14.42.42,0,0,1,.13.57l-.17.27A.39.39,0,0,1,302.51,26.79Z"/><path class="cls-2" d="M298.49,33.28a.46.46,0,0,1-.22-.06.42.42,0,0,1-.13-.57l.31-.51A.42.42,0,0,1,299,32a.41.41,0,0,1,.14.57l-.32.5A.41.41,0,0,1,298.49,33.28Zm1-1.62a.36.36,0,0,1-.22-.07.4.4,0,0,1-.14-.56l.32-.51a.41.41,0,0,1,.57-.14.42.42,0,0,1,.13.57l-.31.51A.42.42,0,0,1,299.5,31.66Zm1-1.63a.46.46,0,0,1-.22-.06.42.42,0,0,1-.13-.57l.31-.5a.42.42,0,0,1,.71.43l-.32.51A.42.42,0,0,1,300.5,30Zm1-1.62a.43.43,0,0,1-.22-.06.4.4,0,0,1-.13-.57l.31-.51a.41.41,0,0,1,.7.44l-.31.51A.43.43,0,0,1,301.51,28.41Z"/><path class="cls-2" d="M297.63,34.66a.46.46,0,0,1-.22-.06.42.42,0,0,1-.13-.57l.17-.27a.41.41,0,1,1,.7.44l-.17.27A.42.42,0,0,1,297.63,34.66Z"/><path class="cls-2" d="M300.49,26.45a.43.43,0,0,1-.28-.11.41.41,0,0,1,0-.59l.22-.23a.42.42,0,0,1,.58,0,.41.41,0,0,1,0,.59l-.22.23A.39.39,0,0,1,300.49,26.45Z"/><path class="cls-2" d="M293.91,33.47a.43.43,0,0,1-.28-.11.42.42,0,0,1,0-.59l.41-.44a.42.42,0,1,1,.61.57l-.42.44A.43.43,0,0,1,293.91,33.47Zm1.32-1.41A.38.38,0,0,1,295,32a.4.4,0,0,1,0-.58l.41-.44a.4.4,0,0,1,.58,0,.41.41,0,0,1,0,.59l-.41.43A.39.39,0,0,1,295.23,32.06Zm1.31-1.4a.43.43,0,0,1-.28-.11.42.42,0,0,1,0-.59l.41-.43a.41.41,0,0,1,.59,0,.42.42,0,0,1,0,.58l-.41.44A.43.43,0,0,1,296.54,30.66Zm1.32-1.4a.43.43,0,0,1-.28-.11.41.41,0,0,1,0-.59l.41-.44a.42.42,0,0,1,.58,0,.41.41,0,0,1,0,.59l-.41.44A.43.43,0,0,1,297.86,29.26Zm1.31-1.41a.38.38,0,0,1-.28-.11.42.42,0,0,1,0-.58l.41-.44a.41.41,0,0,1,.61.56l-.41.44A.43.43,0,0,1,299.17,27.85Z"/><path class="cls-2" d="M292.79,34.66a.38.38,0,0,1-.28-.11.4.4,0,0,1,0-.58l.22-.23a.41.41,0,0,1,.6.56l-.22.23A.39.39,0,0,1,292.79,34.66Z"/><path class="cls-2" d="M353.9,11.86a5.79,5.79,0,0,0,0,.8h-.69a5.92,5.92,0,0,0,0-.82v-2c0-.34,0-.52,0-.8a5.42,5.42,0,0,1-.61.85,3.54,3.54,0,0,0-.28-.66,5.87,5.87,0,0,0,1.49-2.89l.66.18-.28.75a9.39,9.39,0,0,1-.39.88v2.75a6,6,0,0,0,2-2.59H355a5.43,5.43,0,0,0-.71,0V7.69c.15,0,.5,0,.72,0h1.09V7.05a4.33,4.33,0,0,0,0-.66h.69a6,6,0,0,0,0,.66v.68h1.36a5,5,0,0,0,.74-.05v.66a5.64,5.64,0,0,0-.73,0H357a6.06,6.06,0,0,0,2,2.59,2.1,2.1,0,0,0-.42.57,7,7,0,0,1-1.91-2.62c0,.36,0,.55,0,.83v1.1h.55a3.87,3.87,0,0,0,.53,0v.6a4.1,4.1,0,0,0-.52,0h-.56v.6c0,.25,0,.53,0,.73h-.69a4.38,4.38,0,0,0,.05-.74v-.59h-.52a3.94,3.94,0,0,0-.51,0v-.6a4,4,0,0,0,.53,0h.5V9.69c0-.35,0-.47,0-.84a6.36,6.36,0,0,1-1.82,2.57,1.88,1.88,0,0,0-.42-.52Z"/><path class="cls-2" d="M359.6,7.54a2.76,2.76,0,0,0,.55,0h1.15a2.6,2.6,0,0,0,.55,0v.61a2.89,2.89,0,0,0-.51,0h-1.19a3.91,3.91,0,0,0-.55,0Zm3.1.38c0,2.68-.15,3.82-.54,4.71a2.39,2.39,0,0,0-.5-.37c0,.12,0,.19,0,.24h-.53v-.22h-.8v.37h-.58a5.83,5.83,0,0,0,0-.66V11a4.27,4.27,0,0,0,0-.54,4.32,4.32,0,0,0,.46,0h1.44a4,4,0,0,0,0,.5v1.28a2.77,2.77,0,0,0,.29-.9,22.42,22.42,0,0,0,.2-3.54,8.81,8.81,0,0,0,0-1.22,4.33,4.33,0,0,0,.71,0H365a4.13,4.13,0,0,0,.7,0,7,7,0,0,0,0,.74V12c0,.46-.2.61-.81.61l-.66,0a2,2,0,0,0-.12-.6,6.45,6.45,0,0,0,.75.06c.22,0,.27,0,.27-.18V7.15H362.7Zm-2.89.62.45,0h1l.44,0v.55l-.44,0h-1l-.45,0Zm0,1a2.64,2.64,0,0,0,.45,0h1a2.57,2.57,0,0,0,.44,0V10l-.45,0h-1l-.44,0Zm0-2.91a2.54,2.54,0,0,0,.53,0h.83a2.54,2.54,0,0,0,.53,0v.58a3.79,3.79,0,0,0-.53,0h-.83a3.79,3.79,0,0,0-.53,0Zm.51,5.19h.82V11h-.82Zm3-3.46a2.72,2.72,0,0,0-.45,0V7.81a3.25,3.25,0,0,0,.44,0h.26v0a3,3,0,0,0,0-.48h.57a3.35,3.35,0,0,0,0,.52h.28a2.85,2.85,0,0,0,.44,0v.53a2.29,2.29,0,0,0-.44,0h-.28V8.9h.34a1.94,1.94,0,0,0,.45,0v.54a2.63,2.63,0,0,0-.44,0h-1.2a2.69,2.69,0,0,0-.43,0V8.87a1.8,1.8,0,0,0,.43,0h.33V8.31Zm1.33,2.89a1.68,1.68,0,0,0,0,.36h-.15l-.33,0h-.76V12h-.52c0-.1,0-.31,0-.54V10.23c0-.22,0-.33,0-.47a2.86,2.86,0,0,0,.46,0h.81a2.88,2.88,0,0,0,.48,0,2.83,2.83,0,0,0,0,.45Zm-1.22-.15h.73v-.78h-.73Z"/><path class="cls-2" d="M367.67,7.35A3.69,3.69,0,0,1,367,8a1.94,1.94,0,0,0-.44-.41,2.82,2.82,0,0,0,1.06-1.32l.62.14-.24.42h1a3.69,3.69,0,0,0,.6,0v.56a2.27,2.27,0,0,0,.65-1.07l.59.11a2.82,2.82,0,0,1-.21.44h1.49a2.85,2.85,0,0,0,.64,0v.59a3.52,3.52,0,0,0-.62,0h-.74a4.89,4.89,0,0,1,.28.5l-.56.19a3.68,3.68,0,0,0-.34-.69h-.46a5.26,5.26,0,0,1-.41.46,1.85,1.85,0,0,0,0,.24v.09h2a6.91,6.91,0,0,0,.73,0,2.39,2.39,0,0,0,0,.43V9a2.77,2.77,0,0,0,0,.46H372v-.8h-4.59v.8h-.62a2.72,2.72,0,0,0,0-.45V8.56a2.44,2.44,0,0,0,0-.44,6.24,6.24,0,0,0,.71,0h1.81V8.06a1.78,1.78,0,0,0,0-.36h.49a1.21,1.21,0,0,0-.33-.2l.15-.12a2.67,2.67,0,0,0-.47,0h-.48a3,3,0,0,1,.26.5l-.55.21a2.94,2.94,0,0,0-.29-.71Zm0,5.3a5.38,5.38,0,0,0,.05-.74V9.44a2.83,2.83,0,0,0,0-.47,5.46,5.46,0,0,0,.62,0H371a5.06,5.06,0,0,0,.63,0c0,.12,0,.29,0,.47v.49c0,.25,0,.37,0,.53a5.26,5.26,0,0,0-.61,0h-2.68v.38h3a3.22,3.22,0,0,0,.59,0,5,5,0,0,0,0,.59V12a5.76,5.76,0,0,0,0,.64h-.62v-.31h-2.95v.31Zm.63-2.7H371V9.48h-2.69Zm0,1.9h2.95v-.54h-2.95Z"/><path class="cls-2" d="M374.1,7.28a3.85,3.85,0,0,0-.54,0V6.68a3.24,3.24,0,0,0,.61,0h1a3.07,3.07,0,0,0,.59,0v.63a3.64,3.64,0,0,0-.52,0H375V8.74h.21a2,2,0,0,0,.45,0v.6a2.22,2.22,0,0,0-.45,0H375v1.51c.24-.11.39-.17.73-.34l0,.61c-.6.29-.92.44-1.93.84l-.12,0-.17-.66a5,5,0,0,0,.88-.27V9.27h-.28a2.13,2.13,0,0,0-.46,0V8.7a2.05,2.05,0,0,0,.47,0h.27V7.28ZM377.44,11h-.82a5.48,5.48,0,0,0-.7,0v-.61a3.72,3.72,0,0,0,.7,0h.82V9.84h-.68a7.16,7.16,0,0,0-.83,0c0-.1,0-.13,0-.22V7.53a7.9,7.9,0,0,0,0-.9,7,7,0,0,0,.91,0h1.86a5.33,5.33,0,0,0,.88,0c0,.14,0,.41,0,.91V9a7.85,7.85,0,0,0,0,.89l-.78,0H378v.66h.92a4.14,4.14,0,0,0,.71,0v.61a5.81,5.81,0,0,0-.7,0H378v.83h1.17a5.48,5.48,0,0,0,.7,0v.62a6.73,6.73,0,0,0-.74,0h-3a7,7,0,0,0-.74,0v-.62a3.75,3.75,0,0,0,.68,0h1.31Zm-.91-3.84V8h.91V7.2Zm0,1.32v.79h.91V8.52ZM378,8H379V7.2H378Zm0,1.31H379V8.52H378Z"/><path class="cls-2" d="M377.57,38.78a1.88,1.88,0,0,1-.35.34h2.9a10.2,10.2,0,0,0-.5-3Z"/><path class="cls-2" d="M365.53,23.49l1-.42a10.15,10.15,0,0,1,2.4-.7l1.59-.27,2-1.51a4.26,4.26,0,0,0-7.88,2.79Z"/><path class="cls-2" d="M371.74,25.25l.43,0a4.25,4.25,0,0,0,.69-3.69,5.17,5.17,0,0,0-.26-.69l-1.7,1.31Z"/><path class="cls-2" d="M364.63,23.75l0,.15a4.3,4.3,0,0,0,1,1.8.65.65,0,0,1,.11-.12l-.49-1.76Z"/><path class="cls-2" d="M369.91,26.85a4.26,4.26,0,0,0,2-1.23l-.49-.05-2.57.91a1.82,1.82,0,0,1,0,.52,4.23,4.23,0,0,0,1.05-.15"/><path class="cls-2" d="M381,31.51l-4.55-3.44-1.59-1.21a3.31,3.31,0,0,0-3.35-.35l-1.79.75a.94.94,0,0,0-.22.12h0a5.28,5.28,0,0,0-.72.61l-.3.26-.68.59.56-1.68a1.16,1.16,0,0,0,0-.18,1.89,1.89,0,0,0,0-.41,1.33,1.33,0,0,0-1-1.1,1.35,1.35,0,0,0-1.53.92l-2,6.11a1.35,1.35,0,0,0,.73,1.68,1.31,1.31,0,0,0,1.5-.39l.82-.7L369,31.23a.29.29,0,0,1,.43,0,7.89,7.89,0,0,1,1.59,2.59,12.41,12.41,0,0,1,.48,3.43v1.84h3.55a1.77,1.77,0,0,1-.68-1.17,1.75,1.75,0,0,1,.34-1.31l3.13-4.09L375,30.4a.23.23,0,0,1,0-.33.24.24,0,0,1,.33-.05l2.18,1.65,1,.8-.32.41-3.09,4a1.31,1.31,0,0,0,.31,1.87,1.36,1.36,0,0,0,1.82-.35l2.2-2.9,1.78-2.35a1.21,1.21,0,0,0-.23-1.68"/><path class="cls-2" d="M362.7,26.84l2.69-1.09-3.85.36s0,0,0,0a.78.78,0,0,0,0-.16,1.11,1.11,0,0,0-1.35-.79,1.09,1.09,0,0,0-.82,1,1.86,1.86,0,0,0-.33,0,1.33,1.33,0,0,0,.43,2.62.48.48,0,0,0,0,.12.55.55,0,0,0,1,.11,1.09,1.09,0,0,0,1.72-1.16.88.88,0,0,0-.05-.15s0,0,0,0l1.73-.82Z"/><path class="cls-2" d="M361.33,23.23l2.11.43-2.53-1.35s0,0,0,0,0-.07,0-.11a.8.8,0,0,0-.51-1,.82.82,0,0,0-.92.29l-.22-.11a1,1,0,0,0-1.25.62,1,1,0,0,0,.45,1.17.3.3,0,0,0,0,.08.39.39,0,0,0,.25.51.42.42,0,0,0,.33,0,.81.81,0,0,0,1.54,0,.5.5,0,0,0,0-.12s0,0,0,0l1.41.19Z"/><polygon class="cls-2" points="364.65 18.48 364.21 18.65 364.56 18.96 364.09 18.97 364.32 19.38 363.87 19.23 363.95 19.7 363.58 19.4 363.49 19.86 363.24 19.46 363 19.86 362.91 19.4 362.54 19.7 362.61 19.23 362.17 19.38 362.39 18.97 361.92 18.96 362.28 18.65 361.84 18.48 362.28 18.31 361.92 18 362.39 17.99 362.17 17.58 362.61 17.73 362.54 17.26 362.91 17.56 363 17.1 363.24 17.5 363.49 17.1 363.58 17.56 363.95 17.26 363.87 17.73 364.32 17.58 364.09 17.99 364.56 18 364.21 18.31 364.65 18.48"/><polygon class="cls-2" points="355.71 24.86 355.27 25.1 355.61 25.46 355.11 25.53 355.3 25.99 354.82 25.88 354.84 26.38 354.42 26.11 354.27 26.59 353.96 26.19 353.66 26.59 353.51 26.11 353.09 26.38 353.11 25.88 352.62 25.99 352.82 25.53 352.32 25.46 352.66 25.1 352.21 24.86 352.66 24.64 352.32 24.27 352.82 24.2 352.63 23.74 353.11 23.85 353.09 23.35 353.51 23.62 353.66 23.14 353.96 23.54 354.27 23.14 354.42 23.62 354.84 23.35 354.82 23.85 355.3 23.74 355.11 24.2 355.61 24.27 355.27 24.64 355.71 24.86"/><polygon class="cls-2" points="378.62 22.99 378.17 23.27 378.5 23.68 377.99 23.78 378.15 24.28 377.63 24.2 377.62 24.73 377.16 24.48 376.97 24.96 376.62 24.57 376.27 24.96 376.08 24.48 375.62 24.73 375.61 24.2 375.09 24.28 375.25 23.78 374.74 23.68 375.07 23.27 374.62 22.99 375.07 22.72 374.74 22.31 375.25 22.2 375.09 21.71 375.61 21.79 375.62 21.26 376.08 21.51 376.27 21.02 376.62 21.42 376.97 21.02 377.16 21.51 377.62 21.26 377.63 21.79 378.15 21.71 377.99 22.2 378.5 22.31 378.17 22.72 378.62 22.99"/><path class="cls-6" d="M380.36,42.07a.37.37,0,0,0,0-.11h0a.65.65,0,0,0-.68-.37S370.79,41.21,369,41s-5.17-1.39-7.62-1.39h-8.48A2.42,2.42,0,0,0,350.52,42h0v.28h0a2.42,2.42,0,0,0,2.42,2.38h8.48c2.45,0,5.87-1.17,7.62-1.4s10.62-.61,10.62-.61a.65.65,0,0,0,.68-.37h0a.37.37,0,0,0,0-.11v-.06Z"/><rect class="cls-7" x="355.13" y="41" width="8.32" height="2.21"/><path class="cls-8" d="M353.27,39.65A2.37,2.37,0,0,0,350.91,42h0v.28h0a2.37,2.37,0,0,0,2.36,2.31h.27v-4.9Z"/><path class="cls-8" d="M379.94,42.24h0V42h0c-.08-.25-.34-.35-.66-.35l-2.79-.1v1.18l2.79-.1C379.6,42.59,379.86,42.49,379.94,42.24Z"/><path class="cls-1" d="M361.48,41.79a.44.44,0,0,1-.32.13.44.44,0,0,1-.33-.13.41.41,0,0,1-.13-.32.44.44,0,0,1,.46-.46.44.44,0,0,1,.32.13.45.45,0,0,1,.14.33A.42.42,0,0,1,361.48,41.79Zm-.32-.1a.2.2,0,0,0,.15-.06.21.21,0,0,0,.05-.16.25.25,0,0,0-.05-.17.2.2,0,0,0-.15-.06.19.19,0,0,0-.15.06.25.25,0,0,0-.06.17.21.21,0,0,0,.06.16A.19.19,0,0,0,361.16,41.69Zm2.19,1.21a.84.84,0,0,1-.66.3.94.94,0,0,1-.69-.28,1.05,1.05,0,0,1-.28-.77,1.09,1.09,0,0,1,.29-.78.94.94,0,0,1,.69-.29.89.89,0,0,1,.61.27l-.26.3a.5.5,0,0,0-.34-.15.44.44,0,0,0-.35.17.74.74,0,0,0-.14.46.83.83,0,0,0,.13.48.43.43,0,0,0,.35.17.49.49,0,0,0,.37-.18l.28.3Z"/><polygon class="cls-2" points="358.31 38.82 357.13 36.32 358.18 35.91 358.31 38.82"/><polygon class="cls-2" points="359.74 39.06 360.29 36.01 361.44 36.67 359.74 39.06"/><path class="cls-2" d="M413.23,7.17a4.58,4.58,0,0,0-.05-.82H414a4.58,4.58,0,0,0-.05.82V8.76h2a6.47,6.47,0,0,0,.83,0v.73a7.56,7.56,0,0,0-.83,0h-2v2.37a7.09,7.09,0,0,0,.05.9h-.79a7.46,7.46,0,0,0,.05-.9V9.41h-1.85c-.29,0-.64,0-.82,0V8.72a6.3,6.3,0,0,0,.82,0h1.85Z"/><path class="cls-2" d="M419.37,9.35a5,5,0,0,0-.63,0V8.83a6.22,6.22,0,0,1-.91.81,2.35,2.35,0,0,0-.45-.56,5,5,0,0,0,2.11-2.68l.69.25A1.83,1.83,0,0,0,420,7a7.09,7.09,0,0,1-1.18,1.75l.56,0h2.41l.63,0A7,7,0,0,1,421.2,7c0-.06-.11-.21-.16-.28l.65-.26A2.87,2.87,0,0,0,422,7a5.56,5.56,0,0,0,1.95,2.05,2.53,2.53,0,0,0-.44.61,7.57,7.57,0,0,1-.95-.82c0,.12,0,.12,0,.42a8.66,8.66,0,0,1-.3,2.85c-.13.27-.35.35-.86.35l-.79,0a3.08,3.08,0,0,0-.17-.68,5.77,5.77,0,0,0,.89.09c.25,0,.33,0,.38-.17a8.32,8.32,0,0,0,.21-2.12v-.2h-1.43a3.77,3.77,0,0,1-2.28,3.28,1.88,1.88,0,0,0-.42-.55,3,3,0,0,0,2-2.73Z"/><path class="cls-2" d="M426.31,6.42h.05a1.73,1.73,0,0,1,.63.13c-.09.36-.18.71-.29,1.07l.93-.1a1.61,1.61,0,0,1,0,.39c0,.08,0,.15,0,.22-.37.06-.77.1-1.16.14a17.57,17.57,0,0,1-1.33,2.92,1.43,1.43,0,0,1-.6-.34,13.63,13.63,0,0,0,1.22-2.54c-.37,0-.74,0-1.09,0a1.23,1.23,0,0,1,0-.34,1.62,1.62,0,0,1,0-.31H425l1,0C426.12,7.26,426.23,6.84,426.31,6.42Zm4.09,4.9a1.18,1.18,0,0,1-.37.58,5.39,5.39,0,0,0-1.24-.76c0,.1,0,.19,0,.26,0,.75-.51,1.1-1.33,1.1s-1.32-.39-1.32-1,.52-1.11,1.48-1.11l.43,0c-.05-.49-.08-1-.09-1.73a1.87,1.87,0,0,1,.34,0,1.84,1.84,0,0,1,.33,0,14.58,14.58,0,0,0,.09,1.85A5.1,5.1,0,0,1,430.4,11.32Zm-2.75-.38c-.62,0-.86.27-.86.53s.22.42.68.42.69-.21.69-.6a1.57,1.57,0,0,0,0-.29A2.18,2.18,0,0,0,427.65,10.94Zm2.84-2.63a1.62,1.62,0,0,1-.39.57,5.87,5.87,0,0,0-1.57-1,2,2,0,0,1,.31-.53A6.66,6.66,0,0,1,430.49,8.31Z"/><path class="cls-2" d="M432.55,8.84h-.48a4.51,4.51,0,0,0-.58,0,6.27,6.27,0,0,0,0-.7V7.32c0-.29,0-.57,0-.71a5.79,5.79,0,0,0,.65,0h1.08a6.59,6.59,0,0,0,.67,0,5.66,5.66,0,0,0,0,.68v.89a4.78,4.78,0,0,0,0,.68c-.14,0-.22,0-.56,0h-.2v.9h.3a3.86,3.86,0,0,0,.57,0v.6a4.4,4.4,0,0,0-.58,0h-.29v1.21c.35-.1.53-.15.89-.28v.57c-.73.24-1.36.43-2.25.64l-.52.14-.12-.66a3.32,3.32,0,0,0,.43-.05V10a5.28,5.28,0,0,0,0-.61h.61a4.17,4.17,0,0,0,0,.56v1.78l.44-.1Zm-.46-.53h1.2V7.17h-1.2Zm2.81,3.43h1.88a5.16,5.16,0,0,0,.73,0v.66a4.35,4.35,0,0,0-.72,0H434.9v.37h-.65a7.8,7.8,0,0,0,0-.8V7.31c0-.38,0-.54,0-.69a5.77,5.77,0,0,0,.68,0h1.75a6.47,6.47,0,0,0,.73,0v.65a6.88,6.88,0,0,0-.71,0H434.9v1h1.62a3.65,3.65,0,0,0,.63,0c0,.19,0,.35,0,.62V10c0,.36,0,.49,0,.63l-.61,0H434.9ZM436.54,10V8.82H434.9V10Z"/><path class="cls-2" d="M439.6,6.82a1.44,1.44,0,0,0,0-.46h.67a2,2,0,0,0,0,.46v.09h.72a3.91,3.91,0,0,0,.58,0v.57a4.79,4.79,0,0,0-.57,0h-2.08a4.07,4.07,0,0,0-.56,0V6.87a3.91,3.91,0,0,0,.58,0h.74Zm.87,5c0-.18-.05-.23-.08-.33-.26.06-.78.17-1.06.21l-.21.05-.13-.52h.27c.07-.22.15-.52.23-.9H439v1.62a6.1,6.1,0,0,0,0,.73h-.61a6.73,6.73,0,0,0,0-.74V10.5a4.45,4.45,0,0,0,0-.69c.2,0,.4,0,.62,0h.59V9.76l0-.25v0h-.54l-.56,0a3.12,3.12,0,0,0,0-.49V8.06a4.15,4.15,0,0,0,0-.49h.56a2.63,2.63,0,0,0,0,.43v.61a3.74,3.74,0,0,0,.55-.39,5.57,5.57,0,0,0-.45-.35l.3-.3.46.35a2.22,2.22,0,0,0,.32-.42l.36.29c-.14.17-.19.24-.35.41.11.09.17.16.37.34l-.31.36L440,8.51a5.2,5.2,0,0,1-.57.44,1.44,1.44,0,0,0-.31-.33V9h1.63V8c0-.14,0-.33,0-.42h.54a2.62,2.62,0,0,0,0,.42v.54a5.42,5.42,0,0,0,.93-2.24l.61.16a3.91,3.91,0,0,0-.15.41c0,.13-.11.3-.23.58H443a4.78,4.78,0,0,0,.39-1.08l.57.15c0,.08-.08.18-.14.34s-.18.42-.27.59h.19a3,3,0,0,0,.7,0V8a5.37,5.37,0,0,0-.7,0h-.22v.86h.18a2.89,2.89,0,0,0,.6,0v.59a4.6,4.6,0,0,0-.61,0h-.17v.85h.18a4.43,4.43,0,0,0,.6,0v.59a4.86,4.86,0,0,0-.6,0h-.18v1h.33a4.59,4.59,0,0,0,.65,0v.63a5.83,5.83,0,0,0-.7-.05h-1.51v.33h-.59a5.62,5.62,0,0,0,0-.77V9.13c0-.23,0-.33,0-.53a2.41,2.41,0,0,1-.3.46,2.88,2.88,0,0,0-.28-.38V9c0,.14,0,.33,0,.44l-.51,0h-.51l0,.08c0,.22-.05.24-.06.29h.69a5.28,5.28,0,0,0,.63,0,4.62,4.62,0,0,0,0,.58V12c0,.29-.06.44-.23.51a1.5,1.5,0,0,1-.7.09h-.35A2.1,2.1,0,0,0,440,12a4,4,0,0,0,.65.05c.18,0,.22,0,.22-.17v-.29ZM440,10.3c-.11.41-.18.66-.24.84l.49-.08a3.38,3.38,0,0,0-.19-.39l.39-.16a5.92,5.92,0,0,1,.41,1V10.3ZM443,8h-.7v.86h.7Zm-.7,1.39v.85h.7V9.38Zm0,2.41h.7v-1h-.7Z"/><path class="cls-2" d="M448.55,11.79c1.37-.39,2-1.14,2-2.19a1.86,1.86,0,0,0-1.85-1.9,7.33,7.33,0,0,1-.77,3.25,1.44,1.44,0,0,1-1.32.94c-.71,0-1.3-.66-1.3-1.92a3,3,0,0,1,3.15-2.91,2.57,2.57,0,0,1,2.81,2.54A2.89,2.89,0,0,1,449,12.43ZM446,10c0,.9.34,1.22.63,1.22s.47-.11.69-.53A6.59,6.59,0,0,0,448,7.72,2.22,2.22,0,0,0,446,10Z"/><path class="cls-2" d="M426.4,19.6a3.72,3.72,0,0,0,0,.55h-.55v-.32h-.58v.67h-.6a4.2,4.2,0,0,0,0-.68V18.34l0-.61a3.41,3.41,0,0,1-.4.69,2.9,2.9,0,0,0-.27-.63,5.34,5.34,0,0,0,1-2.62H425a3.27,3.27,0,0,0-.59,0v-.63a3.69,3.69,0,0,0,.64.05h.86a3.48,3.48,0,0,0,.63-.05v.62a2.94,2.94,0,0,0-.44,0h-.33a10.71,10.71,0,0,1-.43,1.62H426a2.58,2.58,0,0,0,.42,0,4,4,0,0,0,0,.53v.2a5,5,0,0,0,1.34-1.94h-.56v.73h-.58a2.81,2.81,0,0,0,0-.43v-.52a2.18,2.18,0,0,0,0-.34,3.22,3.22,0,0,0,.54,0h.77a6.5,6.5,0,0,0,.17-.71l.63.08c-.08.27-.14.45-.19.63h1.3a5.25,5.25,0,0,0,.64,0,2.91,2.91,0,0,0,0,.48v.38a2.49,2.49,0,0,0,0,.42h-.61v-.71h-1.53a5.87,5.87,0,0,1-.49,1h.76a4.07,4.07,0,0,0,.28-.76l.57.12a5.15,5.15,0,0,1-.27.64h.54a4.37,4.37,0,0,0,.59,0v.56c-.17,0-.37,0-.58,0h-.68v.59h.56a3.17,3.17,0,0,0,.6,0v.56a5.15,5.15,0,0,0-.59,0h-.57v.58h.56a4.54,4.54,0,0,0,.6,0v.56a4.91,4.91,0,0,0-.59,0h-.57v.61h.74a5.07,5.07,0,0,0,.66,0v.6a4.54,4.54,0,0,0-.66-.05h-2.2v.33H427a4.94,4.94,0,0,0,0-.75V18.16c0-.29,0-.48,0-.56a2.65,2.65,0,0,1-.36.44,2.17,2.17,0,0,0-.28-.48Zm-1.1-.32h.58v-2h-.58Zm3.21-1.63v-.59h-.92v.59Zm-.92,1.08h.92v-.58h-.92Zm0,1.11h.92v-.61h-.92Z"/><path class="cls-2" d="M432,17.79c0-.32,0-.45,0-.79a3.39,3.39,0,0,1-.6.81,3.3,3.3,0,0,0-.31-.65,5.5,5.5,0,0,0,1.49-2.85l.65.2-.13.38a7.48,7.48,0,0,1-.52,1.24v3.72c0,.33,0,.55,0,.8H432a6.34,6.34,0,0,0,0-.81Zm2.9-.94h-.73a6.58,6.58,0,0,0-.72,0,5.43,5.43,0,0,0,0-.65v-.95a5.59,5.59,0,0,0,0-.62,5.12,5.12,0,0,0,.77,0h2.11a5,5,0,0,0,.76,0,5.55,5.55,0,0,0,0,.65v.94a4.74,4.74,0,0,0,0,.63h-1.58v.63h1.28a7,7,0,0,0,.71,0v.65c-.19,0-.5-.05-.7-.05h-1.05a5,5,0,0,0,1.95,1.57,3.78,3.78,0,0,0-.4.61,5.15,5.15,0,0,1-1.82-1.72c0,.27,0,.52,0,.74V20a3.75,3.75,0,0,0,0,.64h-.7a4.4,4.4,0,0,0,0-.65v-.76c0-.15,0-.4,0-.75a5,5,0,0,1-1.82,1.77,1.79,1.79,0,0,0-.4-.57A5.16,5.16,0,0,0,434.64,18h-.94a6.42,6.42,0,0,0-.73.05v-.65a6.62,6.62,0,0,0,.73,0h1.2Zm-.82-.56h2.36v-1h-2.36Z"/><path class="cls-2" d="M443.83,28.11a1.46,1.46,0,1,0-1.46-1.46A1.45,1.45,0,0,0,443.83,28.11Z"/><path class="cls-2" d="M446,28.75a12,12,0,0,0-4.37,0,2.39,2.39,0,0,0-2,2.49l.27,5h1.18V31.46h.36V44.87h1.61l.58-8.3H444l.58,8.3h1.61V31.46h.36v4.81h1.18l.28-5A2.4,2.4,0,0,0,446,28.75Z"/><path class="cls-2" d="M418,28.11a1.46,1.46,0,1,0-1.46-1.46A1.46,1.46,0,0,0,418,28.11Z"/><path class="cls-2" d="M420.17,28.75a12.09,12.09,0,0,0-4.38,0,2.4,2.4,0,0,0-2,2.49l.27,5h1.19V31.46h.36V44.87h1.6l.59-8.3h.29l.58,8.3h1.61V31.46h.36v4.81h1.18l.27-5A2.39,2.39,0,0,0,420.17,28.75Z"/><polygon class="cls-2" points="424.43 35.05 426.4 37.02 425.16 37.02 422.7 34.56 425.16 32.1 426.4 32.1 424.43 34.07 437.38 34.07 435.41 32.1 436.64 32.1 439.1 34.56 436.64 37.02 435.41 37.02 437.38 35.05 424.43 35.05"/><path class="cls-2" d="M476.52,7.09a4.08,4.08,0,0,0,0-.7h.68a4,4,0,0,0,0,.7v.59a3,3,0,0,0,.48,0v.6c-.16,0-.2,0-.48,0V9.37c.28-.12.34-.14.63-.29v.35a1.54,1.54,0,0,0,1.16-1.75h-.63V8.5h-.56c0-.09,0-.28,0-.43v-.5c0-.19,0-.31,0-.46a5.28,5.28,0,0,0,.66,0h1V6.87a3.23,3.23,0,0,0,0-.48h.68a3.53,3.53,0,0,0,0,.48v.27h1.24a5.21,5.21,0,0,0,.65,0,3.62,3.62,0,0,0,0,.48V8a2.31,2.31,0,0,0,0,.41h-.58V7.68h-.82V9c0,.13,0,.14.38.14.54,0,.56,0,.56-.5v-.1a1.91,1.91,0,0,0,.54.15c-.07.9-.17,1-1.16,1-.67,0-.86-.1-.86-.46V7.68h-.5a2.16,2.16,0,0,1-1.4,2.27,2,2,0,0,0-.32-.47v.17c-.28.14-.44.21-.65.3V12c0,.27-.05.4-.17.48a1.24,1.24,0,0,1-.63.11h-.43a2,2,0,0,0-.13-.59,4.4,4.4,0,0,0,.58.05c.14,0,.18,0,.18-.17V10.21l-.23.08-.3.11-.16.07-.14-.64a4.51,4.51,0,0,0,.83-.23V8.24h-.31a3.55,3.55,0,0,0-.46,0V7.65a2.23,2.23,0,0,0,.47,0h.3Zm2.23,3.6a6.94,6.94,0,0,0-.75,0V10.1a4.53,4.53,0,0,0,.75,0h2.16a4.55,4.55,0,0,0,.74,0v.62a6.29,6.29,0,0,0-.73,0H480v1.15h1.15a5.45,5.45,0,0,0,.79,0v.64c-.2,0-.47,0-.78,0h-2.85c-.31,0-.58,0-.78,0V11.8a4.74,4.74,0,0,0,.77,0h1.07V10.69Z"/><path class="cls-2" d="M485.86,8.77c-.75.1-1.45.18-2.24.24a2,2,0,0,1-.08-.53.76.76,0,0,1,0-.15c1-.05,2.1-.13,3.16-.25a1.73,1.73,0,0,1,.23.54c-.53.5-1,1-1.5,1.42l0,0a1,1,0,0,1,.36-.07c.49,0,.74.31.74.89V11c0,.56.16.68.59.68a5.08,5.08,0,0,0,1.32-.18,1.92,1.92,0,0,1,.09.59v.11a5.77,5.77,0,0,1-1.42.16c-.95,0-1.26-.43-1.26-1.24V11c0-.41-.13-.53-.39-.53a1.59,1.59,0,0,0-1,.58c-.41.4-.83.84-1.22,1.26a1.43,1.43,0,0,1-.49-.49l3.06-3ZM487,7a2.07,2.07,0,0,1-.12.65,18.61,18.61,0,0,1-2.45-.48,1.77,1.77,0,0,1,.19-.63A18.93,18.93,0,0,0,487,7Z"/><path class="cls-2" d="M492.84,11.88c1.15-.4,1.7-1.1,1.7-2a1.61,1.61,0,0,0-1.39-1.54,7.64,7.64,0,0,1-1.08,2.42,7.56,7.56,0,0,0,.44.71,1.17,1.17,0,0,1-.56.39l-.36-.6a1.6,1.6,0,0,1-1.2.58,1.06,1.06,0,0,1-1.07-1.16,2.85,2.85,0,0,1,1.19-2.24A14.15,14.15,0,0,1,490.22,7a1.13,1.13,0,0,1,.56-.14h.08a12.73,12.73,0,0,0,.21,1.26,3.69,3.69,0,0,1,1.56-.37c.07-.35.12-.72.17-1.12h.11a1.28,1.28,0,0,1,.57.13c-.05.36-.11.7-.18,1a2.17,2.17,0,0,1,1.93,2.14,2.68,2.68,0,0,1-2,2.52ZM490,10.67c0,.36.18.54.43.54a1.22,1.22,0,0,0,.89-.49,8.9,8.9,0,0,1-.61-1.61A2.22,2.22,0,0,0,490,10.67Zm2.51-2.32a2.61,2.61,0,0,0-1.26.36,8.07,8.07,0,0,0,.52,1.45A6.51,6.51,0,0,0,492.49,8.35Z"/><path class="cls-2" d="M497.82,6.42h.05a1.64,1.64,0,0,1,.62.13c-.08.36-.17.71-.28,1.07l.93-.1a2.34,2.34,0,0,1,0,.39,1.5,1.5,0,0,1,0,.22c-.37.06-.76.1-1.16.14a16.79,16.79,0,0,1-1.32,2.92,1.43,1.43,0,0,1-.6-.34,13,13,0,0,0,1.21-2.54c-.37,0-.73,0-1.09,0a1.79,1.79,0,0,1,0-.34c0-.1,0-.21,0-.31h.33l1,0C497.63,7.26,497.74,6.84,497.82,6.42Zm4.09,4.9a1.28,1.28,0,0,1-.38.58,5.34,5.34,0,0,0-1.23-.76,2.54,2.54,0,0,1,0,.26c0,.75-.51,1.1-1.33,1.1s-1.31-.39-1.31-1,.52-1.11,1.47-1.11a3.25,3.25,0,0,1,.44,0,16.47,16.47,0,0,1-.09-1.73,1.84,1.84,0,0,1,.33,0,1.69,1.69,0,0,1,.33,0,16.71,16.71,0,0,0,.09,1.85A5.25,5.25,0,0,1,501.91,11.32Zm-2.75-.38c-.63,0-.86.27-.86.53s.22.42.68.42.69-.21.69-.6c0-.08,0-.18,0-.29A2.34,2.34,0,0,0,499.16,10.94ZM502,8.31a1.58,1.58,0,0,1-.38.57,5.76,5.76,0,0,0-1.58-1,2,2,0,0,1,.32-.53A6.44,6.44,0,0,1,502,8.31Z"/><path class="cls-2" d="M504.18,8.53a8.21,8.21,0,0,1-1.16.65,1.83,1.83,0,0,0-.35-.58,6,6,0,0,0,2.85-2.2h.68a6.42,6.42,0,0,0,3,2.17,2.45,2.45,0,0,0-.34.63,7.7,7.7,0,0,1-1.23-.67v.55a4.43,4.43,0,0,0-.6,0h-2.27a4.39,4.39,0,0,0-.56,0Zm-.4,1.8a7.18,7.18,0,0,0-.8,0V9.69a5.45,5.45,0,0,0,.8.05H508a5.11,5.11,0,0,0,.79-.05v.68a7.27,7.27,0,0,0-.79,0h-2.4a8.79,8.79,0,0,1-.78,1.46l.82-.06c.73-.06.89-.07,1.56-.16-.26-.29-.45-.49-.74-.78l.52-.28a15.17,15.17,0,0,1,1.61,1.82l-.54.38a7.65,7.65,0,0,0-.44-.63c-1,.13-1.79.21-3.46.35a8.8,8.8,0,0,0-1,.11l-.09-.71.37,0,.65,0a7.68,7.68,0,0,0,.79-1.49ZM507,8.46h.48A6.32,6.32,0,0,1,505.88,7a6.74,6.74,0,0,1-1.58,1.49H507Z"/><path class="cls-2" d="M509.8,7.52a2.73,2.73,0,0,0,.56,0h1.35a3.45,3.45,0,0,0,.55,0v.58a3,3,0,0,0-.51,0h-1.39a4,4,0,0,0-.56,0Zm.23-.94a2.87,2.87,0,0,0,.55,0h1a2.87,2.87,0,0,0,.55,0v.58a3.82,3.82,0,0,0-.55,0h-1a4.11,4.11,0,0,0-.55,0Zm0,1.92a2.74,2.74,0,0,0,.47,0h1.14a2.56,2.56,0,0,0,.45,0v.56a2.9,2.9,0,0,0-.45,0h-1.14a3.11,3.11,0,0,0-.47,0Zm0,1a4.4,4.4,0,0,0,.47,0h1.13a4.32,4.32,0,0,0,.46,0V10l-.47,0h-1.13l-.46,0Zm.61,3.18h-.6a5.43,5.43,0,0,0,0-.65V11a3,3,0,0,0,0-.55,4.06,4.06,0,0,0,.54,0h1a3.93,3.93,0,0,0,.48,0,3.63,3.63,0,0,0,0,.51V12a3,3,0,0,0,0,.54h-.58V12.3h-.89Zm0-.84h.9v-.86h-.9Zm3.11-4.41c-.46.08-.56.09-1.27.16a2.18,2.18,0,0,0-.22-.56,9,9,0,0,0,3.17-.65l.37.55-.13,0-.16.05c-.4.11-.84.23-1.15.29V8.38h.81a4.92,4.92,0,0,0,.76,0V9a5.26,5.26,0,0,0-.76,0h-.81v1h.79a3.45,3.45,0,0,0,.52,0,4.23,4.23,0,0,0,0,.6v1.39a6.37,6.37,0,0,0,0,.71H515v-.33h-1.87v.33h-.64a4.06,4.06,0,0,0,0-.69V10.48a4.37,4.37,0,0,0,0-.56,3.73,3.73,0,0,0,.5,0h.73v-1h-.66a5.08,5.08,0,0,0-.76,0V8.34a5.06,5.06,0,0,0,.77,0h.65Zm-.6,4.36H515V10.49h-1.87Z"/><path class="cls-2" d="M490.15,24.8a.23.23,0,0,0,.17.07.22.22,0,0,0,.13,0l1.09-.67a3.92,3.92,0,0,0,1.67.37c1.81,0,3.28-1.19,3.28-2.66S495,19.2,493.21,19.2s-3.28,1.2-3.28,2.67a2.33,2.33,0,0,0,.71,1.64l-.54,1A.24.24,0,0,0,490.15,24.8Zm0-2.93c0-1.31,1.37-2.37,3-2.37s3,1.06,3,2.37-1.36,2.36-3,2.36a3.66,3.66,0,0,1-1.71-.41.27.27,0,0,0-.12,0,.23.23,0,0,0-.14,0l-.47.29.2-.38a.26.26,0,0,0-.06-.33A2.11,2.11,0,0,1,490.17,21.87Z"/><path class="cls-2" d="M491.82,22.29a.34.34,0,1,0-.33-.33A.33.33,0,0,0,491.82,22.29Z"/><path class="cls-2" d="M493.24,22.29a.34.34,0,1,0-.33-.33A.33.33,0,0,0,493.24,22.29Z"/><path class="cls-2" d="M494.66,22.29a.34.34,0,0,0,0-.67.34.34,0,1,0,0,.67Z"/><path class="cls-2" d="M497.43,24.7c-1.76,0-3.19,1.15-3.19,2.57s1.43,2.57,3.19,2.57a3.76,3.76,0,0,0,1.67-.39l1.14.71.08,0a.18.18,0,0,0,.1,0,.16.16,0,0,0,0-.18l-.57-1.06a2.29,2.29,0,0,0,.73-1.63C500.61,25.85,499.18,24.7,497.43,24.7Zm-1.45,3a.33.33,0,0,1,0-.66.33.33,0,0,1,0,.66Zm1.42,0a.33.33,0,1,1,.33-.33A.33.33,0,0,1,497.4,27.69Zm1.42,0a.33.33,0,1,1,.33-.33A.34.34,0,0,1,498.82,27.69Z"/><path class="cls-9" d="M486.13,32.6l1.32,1.14,1.09.94.37-.43,2-2.37a1.42,1.42,0,0,1,2.07-.1,1.49,1.49,0,0,1,0,2l-2.61,3-.51.59a1.31,1.31,0,0,1-1.84.13l-3.78-3.26"/><path class="cls-10" d="M487.23,35.23a3.7,3.7,0,0,0-7.4,0l.05,9h7Z"/><path class="cls-9" d="M482.66,35.67v4.21l0,4a1.44,1.44,0,0,1-1.51,1.43,1.5,1.5,0,0,1-1.35-1.51V35.67"/><path class="cls-2" d="M484.69,22.92a4.15,4.15,0,1,0,4.15,4.15A4.15,4.15,0,0,0,484.69,22.92Z"/><path class="cls-11" d="M484.69,22.92a4.15,4.15,0,1,0,4.15,4.15A4.15,4.15,0,0,0,484.69,22.92Z"/><path class="cls-12" d="M489,27.3a4.17,4.17,0,0,1-3.39,3.95l-2.26-1.06s.34-.26.58-1.45,0-1.44,0-1.44A13.36,13.36,0,0,0,489,27.3Z"/><path class="cls-1" d="M489,27.3a4.17,4.17,0,0,1-3.39,3.95l-2.26-1.06s.34-.26.58-1.45,0-1.44,0-1.44A13.36,13.36,0,0,0,489,27.3Z"/><path class="cls-13" d="M489,27.3a4.17,4.17,0,0,1-3.39,3.95l-2.26-1.06s.34-.26.58-1.45,0-1.44,0-1.44A13.36,13.36,0,0,0,489,27.3Z"/><path class="cls-13" d="M483.31,30.19l-1.27-2c-.69-1.08-.56-1.72.29-1.44l1.56.51"/><path class="cls-9" d="M505.32,33.77l-.13,1.73-.1,1.43-.58,0-3.1-.26a1.42,1.42,0,0,0-1.53,1.4,1.48,1.48,0,0,0,1.4,1.46l4,.3.77.06a1.32,1.32,0,0,0,1.41-1.21l.37-5"/><path class="cls-10" d="M504.5,35.42a3.71,3.71,0,0,1,7.41,0l-.05,9h-7Z"/><path class="cls-9" d="M509.08,35.86v4.21l0,4a1.44,1.44,0,0,0,1.51,1.43A1.5,1.5,0,0,0,511.91,44V35.86"/><path class="cls-2" d="M507,23.11a4.15,4.15,0,1,0,4.15,4.15A4.15,4.15,0,0,0,507,23.11Z"/><path class="cls-11" d="M507,23.11a4.15,4.15,0,1,0,4.15,4.15A4.15,4.15,0,0,0,507,23.11Z"/><path class="cls-12" d="M502.78,27.49a4.17,4.17,0,0,0,3.38,4l2.27-1.06s-.34-.26-.58-1.45,0-1.44,0-1.44A13.36,13.36,0,0,1,502.78,27.49Z"/><path class="cls-1" d="M502.78,27.49a4.17,4.17,0,0,0,3.38,4l2.27-1.06s-.34-.26-.58-1.45,0-1.44,0-1.44A13.36,13.36,0,0,1,502.78,27.49Z"/><path class="cls-13" d="M502.78,27.49a4.17,4.17,0,0,0,3.38,4l2.27-1.06s-.34-.26-.58-1.45,0-1.44,0-1.44A13.36,13.36,0,0,1,502.78,27.49Z"/><path class="cls-13" d="M508.43,30.38l1.26-2c.7-1.08.57-1.73-.29-1.44l-1.55.51"/></g></g></svg>