<svg xmlns="http://www.w3.org/2000/svg" viewBox="0 0 527.24 51.23"><defs><style>.cls-1,.cls-11,.cls-12,.cls-7,.cls-8{fill:#515151;}.cls-2,.cls-5,.cls-6{fill:#fff;}.cls-10,.cls-13,.cls-14,.cls-15,.cls-3,.cls-4,.cls-9{fill:none;}.cls-10,.cls-13,.cls-14,.cls-3,.cls-5,.cls-6,.cls-7,.cls-8,.cls-9{stroke:#515151;}.cls-11,.cls-13,.cls-14,.cls-15,.cls-3,.cls-5,.cls-6,.cls-7,.cls-8{stroke-linecap:round;}.cls-13,.cls-14,.cls-15,.cls-3,.cls-5,.cls-7,.cls-8{stroke-linejoin:round;}.cls-3,.cls-5,.cls-6,.cls-9{stroke-width:0.5px;}.cls-11,.cls-12,.cls-15,.cls-4{stroke:#fff;}.cls-10,.cls-11,.cls-12,.cls-4,.cls-6,.cls-9{stroke-miterlimit:10;}.cls-4{stroke-width:1.65px;}.cls-7{stroke-width:0.93px;}.cls-8{stroke-width:0.65px;}.cls-10{stroke-width:0.41px;}.cls-11,.cls-12{stroke-width:0.42px;}.cls-13,.cls-15{stroke-width:0.49px;}.cls-14{stroke-width:1.16px;}</style></defs><g id="レイヤー_2" data-name="レイヤー 2"><g id="レイヤー_1-2" data-name="レイヤー 1"><rect class="cls-1" width="198.43" height="51.23"/><path class="cls-2" d="M26.88,17.82a4,4,0,0,0-.77.05v-.8a5,5,0,0,0,.78,0h1.5a5,5,0,0,0,.55-1.37l.72.23a8,8,0,0,1-.55,1.14h.34a5,5,0,0,0,.78,0v.8a4.17,4.17,0,0,0-.78-.05h-.82v.76h.79a5.1,5.1,0,0,0,.77,0v.8a3.86,3.86,0,0,0-.77,0H28.9a3.5,3.5,0,0,0,1,.9,4.7,4.7,0,0,0-.39.69,3.89,3.89,0,0,1-1-1.07,5.8,5.8,0,0,1,0,.73v1a5.28,5.28,0,0,0,0,.75h-.85a5,5,0,0,0,.05-.72v-1a4.94,4.94,0,0,1,0-.67,4.91,4.91,0,0,1-1.56,1.78,2.48,2.48,0,0,0-.4-.74,4.79,4.79,0,0,0,1.63-1.66h-.69a4,4,0,0,0-.78,0v-.8a3.9,3.9,0,0,0,.8,0h1v-.76ZM29.35,15a4,4,0,0,0,.79,0v.8a5.82,5.82,0,0,0-.79,0H27.08a5.61,5.61,0,0,0-.8,0V15a5,5,0,0,0,.82,0h.75v-.17a3.73,3.73,0,0,0,0-.65h.89a2.75,2.75,0,0,0-.05.64V15ZM27.2,17.09A3.76,3.76,0,0,0,26.78,16l.67-.22a5,5,0,0,1,.43,1.12ZM33.42,17a4.85,4.85,0,0,0,.81-.05v.83a4.63,4.63,0,0,0-.74,0h-.26v3.67a5.6,5.6,0,0,0,.05,1H32.4a6.77,6.77,0,0,0,.05-1V17.69H31.33a7.75,7.75,0,0,1-1.14,4.66,2.83,2.83,0,0,0-.72-.5c.87-1.05,1.09-2.21,1.09-5.6a12.3,12.3,0,0,0,0-1.28,6.77,6.77,0,0,0,3-.77l.61.72-.31.1a10.87,10.87,0,0,1-2.45.63V17Z"/><path class="cls-2" d="M36.2,15.25a5.35,5.35,0,0,0-.8,0V14.5a7.27,7.27,0,0,0,.91.05h2.41a5,5,0,0,0,.9-.05v.79a5.11,5.11,0,0,0-.79,0h0v1H39a4.63,4.63,0,0,0,.85,0V17A6.15,6.15,0,0,0,39,17h-.19v1.05a6.43,6.43,0,0,0,0,.65h.7a2.34,2.34,0,0,0,0,.6v.28h1.83a7.25,7.25,0,0,0,1,0v.81a7.61,7.61,0,0,0-1-.05H39.46v1H42a8,8,0,0,0,1,0v.84A7.55,7.55,0,0,0,42,22H36.28a7.39,7.39,0,0,0-1.06.06v-.84a7.57,7.57,0,0,0,1,0h2.43v-1H37a8,8,0,0,0-1,.05v-.81a5.08,5.08,0,0,0,.92,0h1.75V19.3c0-.15,0-.19,0-.34H38c0-.18,0-.56,0-.91V17H37a3.18,3.18,0,0,1-1.24,2.32,2.59,2.59,0,0,0-.59-.6A2.27,2.27,0,0,0,36.23,17H36a4.81,4.81,0,0,0-.84,0v-.8a6.58,6.58,0,0,0,.86,0h.25c0-.27,0-.56,0-1Zm.88,0c0,.52,0,.82,0,1h1v-1Zm3,2.53a4.53,4.53,0,0,0,0-.75v-1.6a4.77,4.77,0,0,0,0-.76H41a5.93,5.93,0,0,0,0,.71v1.71a4.1,4.1,0,0,0,0,.69Zm2.64.43c0,.66-.23.82-1.11.82a7.83,7.83,0,0,1-.81,0,2.32,2.32,0,0,0-.21-.8,6.56,6.56,0,0,0,1,.08c.24,0,.29,0,.29-.2v-3a5.2,5.2,0,0,0-.05-.79h.9a5.11,5.11,0,0,0,0,.84Z"/><path class="cls-2" d="M49.7,20.17V16.35h-5v-.86h5.88v6.22H49.7V21h-5v-.87Z"/><path class="cls-2" d="M54,20.91v.77H53.1V15.44h6.07v6.14h-.91v-.67Zm4.25-4.65H54v3.83h4.25Z"/><path class="cls-2" d="M64.23,14.61h.93v2.26h3v.83h-3A4.47,4.47,0,0,1,62.44,22l-.59-.76a3.63,3.63,0,0,0,2.37-3.51H61.08v-.83h3.15Z"/><path class="cls-2" d="M75.67,15.83l.52.5c-.32,3-1.68,4.77-4.33,5.67l-.49-.8a5,5,0,0,0,3.83-4.56H70.65v1.9h-.93V15.83h2.62V14.45h.94v1.38Z"/><path class="cls-2" d="M81.86,22h-1V17.74A15.55,15.55,0,0,1,78,19.17l-.54-.73a13.41,13.41,0,0,0,5.74-3.87l.81.57a16,16,0,0,1-2.17,2Z"/><path class="cls-2" d="M87.55,15.07v2a5.51,5.51,0,0,1-2,4.66l-.67-.63A4.57,4.57,0,0,0,86.63,17v-2ZM90,14.82v5.73a6.68,6.68,0,0,0,2.56-2.08l.53.76a8.31,8.31,0,0,1-3.53,2.5l-.49-.4V14.82Z"/><path class="cls-2" d="M100.05,21.86a16.18,16.18,0,0,0-2.46-2.68,10.61,10.61,0,0,1-3.52,2.61l-.57-.72a9.2,9.2,0,0,0,5-5.06H94.34v-.85h4.73l.52.6a11.36,11.36,0,0,1-1.47,2.77,15.3,15.3,0,0,1,2.72,2.68Z"/><path class="cls-2" d="M106.26,18.67c0,.1,0,.14,0,.33a5.72,5.72,0,0,0,1-.86,7.58,7.58,0,0,1-.67-2.43h-3.33c0,2.37-.2,3.37-.78,4.28a1.94,1.94,0,0,0-.67-.54,3.12,3.12,0,0,0,.51-1.17,9.49,9.49,0,0,0,.19-2,9.33,9.33,0,0,0-.05-1.27,10.54,10.54,0,0,0,1.06,0h3c0-.17,0-.26,0-.28v-.33a1.12,1.12,0,0,0,0-.22h.85c0,.12,0,.28,0,.42s0,.27,0,.41h1.17a6.55,6.55,0,0,0-.81-.51l.55-.37a5.12,5.12,0,0,1,.91.6l-.39.28a6,6,0,0,0,1,0v.77a9.72,9.72,0,0,0-1,0h-1.32a7.58,7.58,0,0,0,.43,1.79,5.34,5.34,0,0,0,.67-1.39l.7.29c-.09.16-.09.16-.2.39a7.61,7.61,0,0,1-.83,1.39,4.43,4.43,0,0,0,.42.54,1,1,0,0,0,.4.26c.15,0,.27-.39.35-1.08a2.24,2.24,0,0,0,.61.48c-.2,1-.46,1.37-.92,1.37a2,2,0,0,1-1.34-1,5.92,5.92,0,0,1-1.14,1,2.65,2.65,0,0,0-.48-.53h-1.86a4,4,0,0,0-.57,0,.62.62,0,0,0,0-.19c0-.24,0-.31,0-.34v-.86a3.42,3.42,0,0,0,0-.53,4.2,4.2,0,0,0,.58,0h1.54a4.8,4.8,0,0,0,.59,0,3,3,0,0,0,0,.52Zm-2.7,1.43a4.65,4.65,0,0,1-1,2l-.66-.47a3.6,3.6,0,0,0,1-1.81Zm2.9-3.23a3.54,3.54,0,0,0-.6,0h-1.78a3.25,3.25,0,0,0-.6,0v-.69a4.54,4.54,0,0,0,.6,0h1.78a4.64,4.64,0,0,0,.6,0Zm-1.71,4.41c0,.12,0,.15.19.18s.65,0,1,0a5.47,5.47,0,0,0,1-.08c.16-.05.22-.12.25-.32a2.35,2.35,0,0,0,0-.5,3.15,3.15,0,0,0,.75.27,2.21,2.21,0,0,1-.2.87c-.09.2-.29.31-.62.37a14,14,0,0,1-1.59.08c-1.36,0-1.64-.12-1.64-.7v-1a3.48,3.48,0,0,0,0-.63h.85a4.29,4.29,0,0,0,0,.55Zm-.48-2.7h1.32V17.9h-1.32Zm2.1,2.4a5.44,5.44,0,0,0-1.26-1l.51-.41a6.8,6.8,0,0,1,1.29,1Zm2.24-1.1a9.77,9.77,0,0,1,1.17,1.72l-.68.37A8.6,8.6,0,0,0,108,20.16Z"/><path class="cls-2" d="M117.65,18.9a6.4,6.4,0,0,0,1-.06v.8a8.89,8.89,0,0,0-1-.05h-1.94A7.16,7.16,0,0,0,119,21.25a3.84,3.84,0,0,0-.48.73,7.15,7.15,0,0,1-3.31-2.07c0,.43,0,.64,0,.88v.65a4.89,4.89,0,0,0,0,.91h-.92a4.15,4.15,0,0,0,.07-.92V20.8c0-.39,0-.63,0-.88a7.39,7.39,0,0,1-3.16,2,2.79,2.79,0,0,0-.5-.72,7.35,7.35,0,0,0,3.1-1.66H112a9,9,0,0,0-1,.05v-.8a5.87,5.87,0,0,0,1,.06h2.41v-.27a2.45,2.45,0,0,0,0-.58h.9a3.15,3.15,0,0,0,0,.58v.27Zm-6.29-3.34a6.42,6.42,0,0,1,1.41.72l-.45.58a5,5,0,0,0-1.42-.76Zm2.17,1.54a11.55,11.55,0,0,1-1.9,1.34l-.24.14-.39-.7a6.92,6.92,0,0,0,2.31-1.45ZM112,14.33a5.76,5.76,0,0,1,1.44.77l-.44.56a6.32,6.32,0,0,0-1.46-.81Zm4.53.86a7.22,7.22,0,0,0,.75,0,4.84,4.84,0,0,0,0,.72v1.36c0,.22,0,.23.39.23s.42,0,.46-.13a4.42,4.42,0,0,0,.07-1,2.09,2.09,0,0,0,.68.28c-.09,1.41-.17,1.5-1.34,1.5-.49,0-.66,0-.81-.14s-.18-.22-.18-.5V15.88h-.84a3.26,3.26,0,0,1-2.2,2.62,1.93,1.93,0,0,0-.46-.62,2.55,2.55,0,0,0,1.91-2h-.41a6.33,6.33,0,0,0-.89,0v-.77a6.24,6.24,0,0,0,.89,0h.5c0-.17,0-.27,0-.44a2.86,2.86,0,0,0,0-.53h.84a3.33,3.33,0,0,0,0,.44c0,.17,0,.42,0,.52Z"/><path class="cls-2" d="M123.5,16.37a3.62,3.62,0,0,0-.72.05v-.76a10.36,10.36,0,0,1-.76,1.55,2.86,2.86,0,0,1,.86,2,.91.91,0,0,1-.47.89,2.27,2.27,0,0,1-.88.14h-.18a1.65,1.65,0,0,0-.17-.74c.21,0,.35,0,.5,0,.31,0,.43-.13.43-.46a2.7,2.7,0,0,0-.87-1.85,8.34,8.34,0,0,0,.89-2.06h-1.19v6.16c0,.39,0,.64,0,.93h-.87a5.63,5.63,0,0,0,0-.94v-6.1c0-.32,0-.62,0-.77l.66,0h1.34a3.54,3.54,0,0,0,.55,0l.37.5v0s0,0,0,.05l0,.07,0,.08-.06.16a1.8,1.8,0,0,1-.08.21,6.1,6.1,0,0,0,.8.05h1.14V15a3,3,0,0,0-.06-.68h.89a5.63,5.63,0,0,0,0,.68v.68H127a5.18,5.18,0,0,0,.94-.06v.84a7,7,0,0,0-.93-.05h-2.22a2,2,0,0,0,0,.23v.22c0,.12,0,.28,0,.64h1.83a7,7,0,0,0,.79,0,4.47,4.47,0,0,0,0,.64,10.17,10.17,0,0,1-.46,3.62c-.2.36-.48.46-1.16.46h-.4l-.68,0a2.91,2.91,0,0,0-.17-.81,9,9,0,0,0,1.16.1c.43,0,.52-.05.62-.36a11.75,11.75,0,0,0,.28-2.85h-1.84a5.51,5.51,0,0,1-2.3,4.12,2.14,2.14,0,0,0-.63-.64c1.63-1,2.24-2.44,2.25-5.29Z"/><path class="cls-2" d="M135.74,21.15a9.55,9.55,0,0,0,1,0V22a8.38,8.38,0,0,0-1-.06H130a9.13,9.13,0,0,0-1.08.06V21.1a7.87,7.87,0,0,0,1.08,0h.37V16.94a7.38,7.38,0,0,0-.05-1h1a9,9,0,0,0-.05,1v4.21h1.61V15.33a7.64,7.64,0,0,0-.05-1h.95a8.24,8.24,0,0,0,0,1v1.85h1.65a6.81,6.81,0,0,0,1-.06V18a9.31,9.31,0,0,0-1-.05h-1.65v3.2Z"/><path class="cls-2" d="M139.56,15.13a4.47,4.47,0,0,0-.05-.86h.88a4.73,4.73,0,0,0-.06.85v.54h.72a4.79,4.79,0,0,0,.82-.05v.8a4.49,4.49,0,0,0-.73,0,8.8,8.8,0,0,1-.61,2.72,20.29,20.29,0,0,1,1.25,1.76l-.58.63a11.12,11.12,0,0,0-1-1.6,8,8,0,0,1-1.83,2.24,2.62,2.62,0,0,0-.58-.66,6.44,6.44,0,0,0,1.91-2.26,18.5,18.5,0,0,0-1.54-1.7l.55-.53c.83.87.87.92,1.32,1.46a8.71,8.71,0,0,0,.39-2.06h-1.73a4.73,4.73,0,0,0-.81.05v-.81a5.3,5.3,0,0,0,.86.05h.87Zm2.78,2.37a10.21,10.21,0,0,1,1.27,2l-.67.45a8,8,0,0,0-1.25-2.1Zm.52-.62a6.09,6.09,0,0,0-.83,0v-.81a7.83,7.83,0,0,0,.83,0h1.23v-.82a5.26,5.26,0,0,0-.06-1h.9a8.38,8.38,0,0,0-.05,1v.82H145a5.67,5.67,0,0,0,.84,0v.83l-.09,0h-.1a5.21,5.21,0,0,0-.65,0h-.15v4.37c0,.44,0,.6-.21.73s-.43.2-1,.2l-.94,0a2.5,2.5,0,0,0-.24-.82,10.48,10.48,0,0,0,1.12.1c.42,0,.48,0,.48-.21V16.88Z"/><path class="cls-2" d="M148.21,15.62a5.53,5.53,0,0,1-.91,1,2.5,2.5,0,0,0-.53-.55,4,4,0,0,0,1.39-1.87l.79.17-.09.16s-.07.12-.11.21l-.12.2h1.27a5.21,5.21,0,0,0,.87,0v.63a3.61,3.61,0,0,0,.7-1.32l.78.16c-.14.31-.18.39-.28.58h1.89a8.28,8.28,0,0,0,1,0v.76l-.93,0H153a5.78,5.78,0,0,1,.42.75l-.73.22a5.7,5.7,0,0,0-.47-1h-.68a4.51,4.51,0,0,1-.58.71h.18a3.8,3.8,0,0,0,0,.5h2.7a4.07,4.07,0,0,0,.91-.06v.79a7,7,0,0,0-.91,0h-2.7V18h2a7.28,7.28,0,0,0,.83,0,4.55,4.55,0,0,0,0,.74v.8c0,.48-.21.63-.85.63h-.6a2.2,2.2,0,0,0-.16-.66,3.17,3.17,0,0,0,.6.05c.2,0,.27,0,.27-.18V18.7h-2.07v.39a6.84,6.84,0,0,0,3.74,2.25,3.19,3.19,0,0,0-.54.72A7.06,7.06,0,0,1,151.11,20c0,.28,0,.51,0,.68v.77a3.84,3.84,0,0,0,.07.93h-.9a4.69,4.69,0,0,0,.07-.93v-.75c0-.17,0-.42,0-.66a7,7,0,0,1-3,2.07,2.93,2.93,0,0,0-.57-.7,6.9,6.9,0,0,0,3.53-2.27V18.7h-1.86v.86a6.51,6.51,0,0,0,0,.76h-.83c0-.18,0-.52,0-.83v-.76c0-.25,0-.55,0-.73.22,0,.49,0,.8,0h1.87v-.52h-2.48a6.86,6.86,0,0,0-.9,0v-.79a4.59,4.59,0,0,0,.9.06h2.48a2.77,2.77,0,0,0-.05-.5h.58a1.72,1.72,0,0,0-.52-.41l.29-.27a4.67,4.67,0,0,0-.62,0h-.54c.17.27.27.47.4.72l-.72.22a6.4,6.4,0,0,0-.43-.94Z"/><path class="cls-2" d="M157.83,16.49a1.1,1.1,0,0,1,.86-.51,1.16,1.16,0,0,1,.86.46,23.54,23.54,0,0,0,4.15,3.74,2,2,0,0,1-.7.89,30,30,0,0,1-4-3.95.33.33,0,0,0-.58,0,15.35,15.35,0,0,1-2,2.21,2.81,2.81,0,0,1-.59-.72A14.61,14.61,0,0,0,157.83,16.49Z"/><path class="cls-2" d="M168.79,21.19c1.76-.5,2.56-1.47,2.56-2.82A2.39,2.39,0,0,0,169,15.93a9.24,9.24,0,0,1-1,4.19,1.86,1.86,0,0,1-1.7,1.21c-.91,0-1.67-.86-1.67-2.48a3.82,3.82,0,0,1,4-3.74,3.31,3.31,0,0,1,3.61,3.26c0,1.85-1.1,3-3,3.64Zm-3.29-2.35c0,1.15.44,1.57.81,1.57s.6-.15.89-.68a8.5,8.5,0,0,0,.86-3.77A2.86,2.86,0,0,0,165.5,18.84Z"/><path class="cls-2" d="M75.59,36.41a9.2,9.2,0,0,1-3.12.47c-2.09,0-2.93-.73-2.94-2.21a1.53,1.53,0,0,1,.69-.17h.12c.06,1.07.55,1.48,2.12,1.48a8.39,8.39,0,0,0,2.89-.49A1.77,1.77,0,0,1,75.59,36.41ZM72.2,31.29a9.27,9.27,0,0,1-2-.17V31a1.7,1.7,0,0,1,.18-.76,9.22,9.22,0,0,0,1.78.15,14.53,14.53,0,0,0,2.45-.19,2,2,0,0,1,.15.74.81.81,0,0,1,0,.16A17.88,17.88,0,0,1,72.2,31.29Zm3-2a6,6,0,0,1,1,1.45l-.55.3a6.55,6.55,0,0,0-.92-1.47Zm1-.48a6.08,6.08,0,0,1,1,1.41l-.55.3a6.74,6.74,0,0,0-.93-1.44Z"/><path class="cls-2" d="M78.54,30.08a4.85,4.85,0,0,0-.06-.86h.91a4.2,4.2,0,0,0-.06.83v1.37h.1a3,3,0,0,0,.63,0v.81a5.11,5.11,0,0,0-.62,0h-.11v4.12a7.18,7.18,0,0,0,.06,1h-.91a6.93,6.93,0,0,0,.06-1.06v-4.1h-.13a7.25,7.25,0,0,0-.76,0v-.83a3.88,3.88,0,0,0,.76.05h.13Zm3.24,3.3c.35,0,.55,0,.77,0,0,.13,0,.3,0,.53a20.32,20.32,0,0,1-.17,2.27c-.1.57-.24.82-.51.91a2.79,2.79,0,0,1-.67.07h-.33a2.25,2.25,0,0,0-.15-.78,3.68,3.68,0,0,0,.64.07c.19,0,.25-.06.3-.24a11.28,11.28,0,0,0,.19-2.08H81.2A5.37,5.37,0,0,1,80,37.25a3.15,3.15,0,0,0-.54-.64,4,4,0,0,0,1.08-2.52h-.3a2.54,2.54,0,0,0-.46,0v-.77a3,3,0,0,0,.51,0h.3c0-.14,0-.21,0-.29,0-.23,0-.34,0-.46h.78c0,.14,0,.27,0,.52v.22ZM84.46,30a7.64,7.64,0,0,0,.77,0v.15s0,.06,0,.1v.15A4.43,4.43,0,0,1,84.9,32c-.17.29-.42.38-1.08.38-.28,0-.45,0-.85,0a2.23,2.23,0,0,0-.17-.74,6,6,0,0,0,1,.1c.39,0,.44-.11.51-1H82.69a3.66,3.66,0,0,1-2.12,1.94,2.62,2.62,0,0,0-.48-.64,3,3,0,0,0,1.79-1.3h-.77a5.73,5.73,0,0,0-.85,0V30a6.26,6.26,0,0,0,.89.05h.94a3.57,3.57,0,0,0,.08-.64.62.62,0,0,0,0-.18l.87,0v.07c0,.06,0,.19-.08.36a1.23,1.23,0,0,1,0,.18,1.2,1.2,0,0,1,0,.17Zm.43,3.38c.34,0,.54,0,.77,0,0,.21,0,.23,0,.55a8,8,0,0,1-.38,2.9c-.17.26-.4.34-1,.34a3.44,3.44,0,0,1-.4,0,2.4,2.4,0,0,0-.15-.78,4,4,0,0,0,.67.08c.19,0,.27-.05.31-.18a11,11,0,0,0,.21-2.15h-.75a5.4,5.4,0,0,1-1.27,3.17,2.13,2.13,0,0,0-.57-.59,3.87,3.87,0,0,0,1.13-2.58h-.13a2.85,2.85,0,0,0-.49,0v-.77a3.45,3.45,0,0,0,.55,0h.12c0-.13,0-.32,0-.42a3.28,3.28,0,0,0,0-.34h.78c0,.1,0,.25,0,.51,0,.1,0,.13,0,.24Z"/><path class="cls-2" d="M92.82,31a7.61,7.61,0,0,0,1.09,0c0,.3,0,.39,0,.69a35.44,35.44,0,0,1-.23,3.84,2.17,2.17,0,0,1-.38,1.2,1.28,1.28,0,0,1-1,.32,11,11,0,0,1-1.49-.12,4,4,0,0,0-.22-.91,7.31,7.31,0,0,0,1.59.2c.46,0,.58-.21.7-1.12A32,32,0,0,0,93,31.79H90.53c-.29,2.71-1.16,4.11-3.35,5.34a2.43,2.43,0,0,0-.64-.77A4.88,4.88,0,0,0,89,34.21a7.05,7.05,0,0,0,.64-2.42h-1.6a9.77,9.77,0,0,0-1.1.05V31a7.48,7.48,0,0,0,1.11.05H89.7c0-.37,0-.62,0-.93a4.44,4.44,0,0,0-.06-.88h1a6.69,6.69,0,0,0,0,.76c0,.44,0,.71,0,1.05Z"/><path class="cls-2" d="M99.57,36.19c1.76-.5,2.56-1.47,2.56-2.82a2.38,2.38,0,0,0-2.38-2.44,9.37,9.37,0,0,1-1,4.19,1.86,1.86,0,0,1-1.7,1.21c-.91,0-1.67-.86-1.67-2.48a3.82,3.82,0,0,1,4-3.74,3.31,3.31,0,0,1,3.61,3.26c0,1.85-1.1,3-3,3.64Zm-3.29-2.35c0,1.15.44,1.57.81,1.57s.6-.15.89-.68A8.49,8.49,0,0,0,98.85,31,2.86,2.86,0,0,0,96.28,33.84Z"/><path class="cls-2" d="M107.12,36.07c0,.69-.34,1-.87,1a2.24,2.24,0,0,1-1.19-.42c-.6-.38-.81-.75-.81-1.11,0-.53.4-1.3,2-2.06v-1.6c-.61.05-1.21.07-1.75.07a1.93,1.93,0,0,1,0-.42,1.7,1.7,0,0,1,0-.4h.22c.49,0,1,0,1.54-.07,0-.51,0-1,0-1.56a1.64,1.64,0,0,1,.4,0,3.34,3.34,0,0,1,.49,0c0,.52,0,1,0,1.49a13.19,13.19,0,0,0,1.42-.23,1.87,1.87,0,0,1,.12.64.81.81,0,0,1,0,.16,15.39,15.39,0,0,1-1.53.24v1.44a6,6,0,0,1,1.78-.3c1.47,0,2.35.78,2.35,1.83a1.88,1.88,0,0,1-2.12,2,4.68,4.68,0,0,1-.66,0l-.17-.88a3.4,3.4,0,0,0,.74.07c.81,0,1.32-.35,1.32-1.14,0-.6-.45-1-1.48-1a5.49,5.49,0,0,0-1.76.31Zm-.82-1.76c-1,.51-1.18.9-1.18,1.15s.09.3.38.47a1.26,1.26,0,0,0,.6.21c.13,0,.2-.06.2-.23Zm5.42-2.82a1.66,1.66,0,0,1-.55.69,6.2,6.2,0,0,0-1.8-1.35,1.57,1.57,0,0,1,.46-.65A6.43,6.43,0,0,1,111.72,31.49Z"/><path class="cls-2" d="M114.94,31.06a7.52,7.52,0,0,0,.26-.8h-1.42c0,4.19-.17,5.66-.81,6.94a3.58,3.58,0,0,0-.57-.65,5.36,5.36,0,0,0,.47-1.85,33.42,33.42,0,0,0,.18-4.15,9.21,9.21,0,0,0,0-1,7.75,7.75,0,0,0,.93,0h1.87a5.7,5.7,0,0,0,1-.06v.79c-.2,0-.44,0-.85,0a6.83,6.83,0,0,1-.27.8H116a6.26,6.26,0,0,0,.68,0,6,6,0,0,0,0,.68v1.88a5.07,5.07,0,0,0,0,.66l-.58,0h-.34v2.32c0,.56-.16.67-1,.67h-.25a2,2,0,0,0-.14-.74,3.13,3.13,0,0,0,.45.05c.21,0,.24,0,.24-.14V34.23h-.34l-.62,0a5.32,5.32,0,0,0,0-.65v-2a5.22,5.22,0,0,0,0-.62,6.75,6.75,0,0,0,.71,0Zm-1.46,5.55a5.15,5.15,0,0,0,.68-2.08l.61.18a7.79,7.79,0,0,1-.68,2.21Zm1.35-4.3H116v-.62h-1.2Zm0,1.29H116v-.68h-1.2Zm1.74.94A8.52,8.52,0,0,1,117,36l-.6.24a7.12,7.12,0,0,0-.32-1.49Zm1.87,1.58a5.6,5.6,0,0,1-1.69,1.28,2.7,2.7,0,0,0-.53-.61,4.08,4.08,0,0,0,1.67-1.11Zm-.63-5.86c-.34,0-.61,0-.82,0v-.8a4.13,4.13,0,0,0,.91.06h1.88a4.66,4.66,0,0,0,.91-.06v.8a6.39,6.39,0,0,0-.91,0h-.62a5.11,5.11,0,0,1-.31.75h.69a7.61,7.61,0,0,0,.83,0c0,.21,0,.43,0,.81v3c0,.39,0,.71,0,.88-.23,0-.49,0-.75,0h-1.79a6.7,6.7,0,0,0-.72,0c0-.26,0-.52,0-.8v-3c0-.39,0-.68,0-.83a6.61,6.61,0,0,0,.75,0h.23a5.07,5.07,0,0,0,.27-.75Zm0,2.1h1.79v-.69h-1.79Zm0,1.26h1.79V33h-1.79Zm0,1.3h1.79v-.66h-1.79Zm1.49.76a5,5,0,0,0,1.49,1.07,2.7,2.7,0,0,0-.5.65,6.9,6.9,0,0,1-1.53-1.29Z"/><path class="cls-2" d="M125.67,34.43a4.13,4.13,0,0,1-.7,1.68,1,1,0,0,1-.9.46c-.42,0-.88-.22-1.29-1-.49-1-.73-2.47-.73-5.33a1.86,1.86,0,0,1,.42-.05,2.16,2.16,0,0,1,.51.06c0,.38,0,.72,0,1a9,9,0,0,0,.59,3.8c.21.39.36.49.54.49a.33.33,0,0,0,.29-.17,4.45,4.45,0,0,0,.52-1.52Zm1.78-3.61a8.59,8.59,0,0,1,1.92,3.82,2,2,0,0,1-.9.35,8.69,8.69,0,0,0-1.76-3.81A1.43,1.43,0,0,1,127.45,30.82Z"/><rect class="cls-2" x="204.74" width="51.39" height="51.02"/><path class="cls-1" d="M215.93,9.23a9.05,9.05,0,0,1,1.1.95,7.32,7.32,0,0,0,1.9-2h-4.47V7.47h5l.39.47a8.49,8.49,0,0,1-2.42,2.71q.45.53.84,1.08l-.61.46a11.14,11.14,0,0,0-2.23-2.51Z"/><path class="cls-1" d="M225.87,12.31A12.29,12.29,0,0,0,224,10.23a8.21,8.21,0,0,1-2.74,2l-.45-.56a7.07,7.07,0,0,0,3.87-3.94h-3.22V7.1h3.69l.4.47a8.78,8.78,0,0,1-1.15,2.15,12,12,0,0,1,2.13,2.08Z"/><path class="cls-1" d="M232,7.6l.38.44a6.93,6.93,0,0,1-3.9,4.44l-.47-.59a6.19,6.19,0,0,0,3.53-3.68h-2.1a7.32,7.32,0,0,1-1.5,1.54l-.5-.43a6.86,6.86,0,0,0,2.15-2.81l.71.22a7.16,7.16,0,0,1-.45.87Z"/><path class="cls-1" d="M234.48,7.49a6.13,6.13,0,0,0-.68,0V7a5.77,5.77,0,0,0,.68,0h.91a3.52,3.52,0,0,0-.47-.6l.57-.16A7.11,7.11,0,0,1,236,7h1.07a5.38,5.38,0,0,0,.53-.75l.61.16a5.61,5.61,0,0,1-.5.59h.94a6.09,6.09,0,0,0,.69,0v.54a6.21,6.21,0,0,0-.69,0h-1.84v.36h1.59a3.29,3.29,0,0,0,.63,0v.52a3.71,3.71,0,0,0-.63,0h-1.59v.37h2.1a3.88,3.88,0,0,0,.69,0V9.2a4,4,0,0,0-.69,0h-3.38l-.11.35h3a5.92,5.92,0,0,0,.63,0,4.06,4.06,0,0,0,0,.61V12a5.86,5.86,0,0,0,0,.66h-.65v-.28h-2.81v.28h-.64a3.75,3.75,0,0,0,0-.64v-.85c0-.32,0-.44,0-.61a5.56,5.56,0,0,1-1.15,1.59,2,2,0,0,0-.46-.53,4.17,4.17,0,0,0,1.55-2.45h-.72a4,4,0,0,0-.67,0V8.64a3.62,3.62,0,0,0,.67,0h2V8.31h-1.47a3.53,3.53,0,0,0-.63,0V7.82a3.12,3.12,0,0,0,.63,0h1.47V7.49Zm1.1,2.5v.33h2.82V10Zm0,.77v.34h2.82v-.34Zm0,.78v.36h2.82v-.36Z"/><path class="cls-1" d="M243.84,11.64a6.68,6.68,0,0,0,0,.79h-.68a6.36,6.36,0,0,0,0-.78v-1.2h-1.7a4.44,4.44,0,0,1-.71,2.2,3.08,3.08,0,0,0-.56-.44c.59-.82.73-1.65.73-4.52,0-.57,0-.75,0-1.06a7.64,7.64,0,0,0,.77,0h3.79a7,7,0,0,0,.76,0,6.65,6.65,0,0,0,0,.73v4.55c0,.52-.18.64-.93.64-.21,0-.58,0-.79,0a2.51,2.51,0,0,0-.16-.61,6.77,6.77,0,0,0,.91.07c.3,0,.36,0,.36-.19V10.45h-1.8Zm-2.24-2.8v.43c0,.35,0,.39,0,.51v.1h1.66v-1Zm1.63-1.59h-1.61v1h1.62Zm2.41,1v-1h-1.8v1Zm-1.8,1.61h1.8v-1h-1.8Z"/><path class="cls-3" d="M222.14,30.82c0,7.89-2.1,6-4.28,5.15s-4.27-2.79-4.27-5.15a4.28,4.28,0,1,1,8.55,0Z"/><path class="cls-3" d="M238.73,30.82c0,7.89,2.1,6,4.28,5.15s4.28-2.79,4.28-5.15a4.28,4.28,0,1,0-8.56,0Z"/><polygon class="cls-2" points="230.44 39.24 239.25 37.95 240.29 32.51 239.25 27.06 230.44 26.02 221.62 27.06 220.59 32.51 221.62 37.95 230.44 39.24"/><polygon class="cls-4" points="230.44 39.24 239.25 37.95 240.29 32.51 239.25 27.06 230.44 26.02 221.62 27.06 220.59 32.51 221.62 37.95 230.44 39.24"/><polygon class="cls-3" points="230.44 39.24 239.25 37.95 240.29 32.51 239.25 27.06 230.44 26.02 221.62 27.06 220.59 32.51 221.62 37.95 230.44 39.24"/><polyline class="cls-3" points="237.18 29.39 230.44 28.62 223.7 29.39"/><line class="cls-3" x1="223.7" y1="32.51" x2="237.18" y2="32.51"/><polyline class="cls-3" points="237.18 35.88 230.44 36.65 223.7 35.88"/><rect class="cls-2" x="258.97" width="51.39" height="51.02"/><path class="cls-1" d="M265.22,7.42l-.22,0-.21,0c-.38,0-1,.08-1.43.1a2,2,0,0,0-.19-.6h.22A14.29,14.29,0,0,0,266,6.72a3.7,3.7,0,0,0,1.15-.36l.42.58a11.92,11.92,0,0,1-1.78.41v1h1.29a4,4,0,0,0,.69,0V9a4.2,4.2,0,0,0-.68,0h-1.3v.93h1.57a5.06,5.06,0,0,0,.67,0v.65a5.31,5.31,0,0,0-.67,0h-1.57v1.45c0,.47-.17.63-.71.63-.26,0-.61,0-.89-.05a2.38,2.38,0,0,0-.15-.64,6.49,6.49,0,0,0,1,.1c.16,0,.21,0,.21-.21V10.42h-1.69a5.5,5.5,0,0,0-.68,0V9.81a5.24,5.24,0,0,0,.68,0h1.69V8.92h-1.37a4.61,4.61,0,0,0-.68,0V8.3a3.82,3.82,0,0,0,.68,0h1.37Z"/><path class="cls-1" d="M269,8.1A6.15,6.15,0,0,1,270,9l-.31.53a5,5,0,0,0-1-.94Zm1,2.3a12.88,12.88,0,0,1-.69,1.84.9.9,0,0,0-.06.14l0,.1-.05.08-.46-.48a6.23,6.23,0,0,0,.86-2Zm-.76-4a5.31,5.31,0,0,1,.95.89l-.33.49a5.3,5.3,0,0,0-1-.93Zm3.92,1a2.72,2.72,0,0,0,.62,0V8a3.57,3.57,0,0,0-.62,0h-.87V9.06h1.16A3,3,0,0,0,274,9v.65a2.69,2.69,0,0,0-.58-.05h-.72V11.8c0,.14.06.17.32.17s.43,0,.48-.13a3.93,3.93,0,0,0,.07-1,1.82,1.82,0,0,0,.5.19c0,.85-.09,1.12-.22,1.28s-.35.21-.81.21a1.23,1.23,0,0,1-.71-.12.45.45,0,0,1-.14-.38V9.62h-.59c-.06,1.59-.45,2.37-1.53,3a1.85,1.85,0,0,0-.35-.54,2.29,2.29,0,0,0,1.38-2.43h-.39a3.4,3.4,0,0,0-.61.05V9a3,3,0,0,0,.58,0h1.07V8H271a4.41,4.41,0,0,1-.53,1,1.49,1.49,0,0,0-.42-.41,4.14,4.14,0,0,0,.83-2l.53.17a.29.29,0,0,0,0,.09l0,.12c-.06.22-.11.38-.15.49h.62V7.07a5.17,5.17,0,0,0,0-.69h.58a6.09,6.09,0,0,0,0,.69v.38Z"/><path class="cls-1" d="M277.37,10.42a3.87,3.87,0,0,1-.47,1.31.64.64,0,0,1-.59.35c-.28,0-.59-.17-.85-.75A11,11,0,0,1,275,7.18a1.27,1.27,0,0,1,.28,0,1.32,1.32,0,0,1,.34,0c0,.3,0,.56,0,.77a8.13,8.13,0,0,0,.39,3c.14.31.24.39.36.39s.12,0,.19-.14a3.76,3.76,0,0,0,.34-1.18Zm1.17-2.81a7.34,7.34,0,0,1,1.27,3,1.15,1.15,0,0,1-.59.27,7.45,7.45,0,0,0-1.17-3A.94.94,0,0,1,278.54,7.61Z"/><path class="cls-1" d="M282.14,9.51a.59.59,0,1,1-1.17,0,.64.64,0,0,1,.58-.7A.65.65,0,0,1,282.14,9.51Z"/><path class="cls-1" d="M285.8,7.42l-.22,0-.22,0c-.37,0-1,.08-1.42.1a2,2,0,0,0-.19-.6H284a14.31,14.31,0,0,0,2.59-.25,3.9,3.9,0,0,0,1.15-.36l.41.58a11.84,11.84,0,0,1-1.77.41v1h1.29a3.82,3.82,0,0,0,.68,0V9a4,4,0,0,0-.67,0h-1.3v.93h1.56a5.24,5.24,0,0,0,.68,0v.65a5.5,5.5,0,0,0-.68,0h-1.56v1.45c0,.47-.17.63-.71.63-.26,0-.62,0-.9-.05a2.06,2.06,0,0,0-.15-.64,6.49,6.49,0,0,0,1,.1c.16,0,.22,0,.22-.21V10.42h-1.7a5.18,5.18,0,0,0-.67,0V9.81a5.06,5.06,0,0,0,.67,0h1.7V8.92h-1.37a4.66,4.66,0,0,0-.69,0V8.3a3.89,3.89,0,0,0,.68,0h1.38Z"/><path class="cls-1" d="M290.17,7.06a4.55,4.55,0,0,0,0-.7h.6a6,6,0,0,0,0,.69v.62h.16a3,3,0,0,0,.46,0v.62a3.13,3.13,0,0,0-.46,0h-.16V9.44l.63-.24v.56a6.77,6.77,0,0,1-.64.27v2c0,.43-.16.57-.72.57l-.46,0a2.75,2.75,0,0,0-.11-.62A3.46,3.46,0,0,0,290,12c.14,0,.18,0,.18-.18V10.22l-.53.18-.21.07-.1-.66a1.28,1.28,0,0,0,.27-.05l.57-.16V8.23h-.32a2.35,2.35,0,0,0-.47,0V7.63a2.29,2.29,0,0,0,.47,0h.32Zm1.89.13a5.12,5.12,0,0,0,2-.66l.4.52a9.83,9.83,0,0,1-2.37.66V8.1c0,.25.09.27,1,.27.59,0,.8,0,.89-.14s.1-.27.12-.69a1.67,1.67,0,0,0,.51.21c-.06.63-.13.85-.33,1s-.45.18-1.45.18a3,3,0,0,1-1-.1.5.5,0,0,1-.28-.53V7a5.82,5.82,0,0,0,0-.67h.58a5.29,5.29,0,0,0,0,.63Zm-.5,2.74c0-.26,0-.43,0-.56a3.36,3.36,0,0,0,.52,0h1.69a3.25,3.25,0,0,0,.53,0,4.38,4.38,0,0,0,0,.58v2a4,4,0,0,0,0,.7h-.55V12.3h-1.68v.34h-.53a5.43,5.43,0,0,0,0-.68Zm.5.64h1.68V9.93h-1.68Zm0,1.2h1.68V11.1h-1.68Z"/><path class="cls-1" d="M295.58,8.09a6,6,0,0,1,1,.9l-.31.52a4.48,4.48,0,0,0-1-1Zm1.05,2.32a12.36,12.36,0,0,1-.71,1.92,2.6,2.6,0,0,1-.12.24l-.47-.48a7.32,7.32,0,0,0,.86-2.05Zm-.77-4a5.18,5.18,0,0,1,1,.92l-.33.5a4.69,4.69,0,0,0-1-1Zm1.46.09A6.36,6.36,0,0,1,298,7.82l-.46.28a5.75,5.75,0,0,0-.64-1.29Zm1,.44a4,4,0,0,0,0-.66h.59a6,6,0,0,0,0,.66V8.22h.85a3.89,3.89,0,0,0,.55,0,5.14,5.14,0,0,0,0,.67V12c0,.45-.15.58-.69.58l-.63,0a3,3,0,0,0-.12-.6,5.46,5.46,0,0,0,.7.07c.17,0,.22,0,.22-.16v-.68h-2.11v.68c0,.28,0,.65,0,.79H297a7.68,7.68,0,0,0,0-.79v-3c0-.36,0-.55,0-.64a4,4,0,0,0,.54,0h.74Zm1.37,1.79h-2.11v.64h2.11Zm-2.11,1.85h2.11V10h-2.11Zm2.74-3.85a8.38,8.38,0,0,1-.63,1.36l-.44-.28a5.53,5.53,0,0,0,.56-1.34Z"/><path class="cls-1" d="M302.29,11.86c0,.15-.06.21-.13.44l-.56,0a9.77,9.77,0,0,0,.37-1.41h-.22a2.79,2.79,0,0,0-.55.05v-.59a3.18,3.18,0,0,0,.6,0h.26a6.71,6.71,0,0,0,.11-.92v0a3.06,3.06,0,0,0,.54,0h2.48a3.71,3.71,0,0,0,.59,0c0,.1,0,.19,0,.37s0,.33,0,.58H306a2.51,2.51,0,0,0,.55,0v.58a5,5,0,0,0-.58,0h-.28c0,.19,0,.33-.05.52h.12a2.16,2.16,0,0,0,.51,0v.55a3.85,3.85,0,0,0-.54,0h-.16a1.2,1.2,0,0,1-.25.66.82.82,0,0,1-.62.17l-.48,0a2.14,2.14,0,0,0-.14-.58,3.19,3.19,0,0,0,.64.07c.22,0,.26,0,.33-.29Zm1.29-5a2.5,2.5,0,0,0,0-.55h.59a2.65,2.65,0,0,0,0,.55h1.53a3.29,3.29,0,0,0,.64,0v.57a3,3,0,0,0-.59,0h-1.58v.39h1.35a3.51,3.51,0,0,0,.54,0v.54a2.83,2.83,0,0,0-.54,0h-1.35v.4h1.8a2.75,2.75,0,0,0,.59,0v.57a3.06,3.06,0,0,0-.62-.05h-4a3.28,3.28,0,0,0-.62.05V8.59a2.8,2.8,0,0,0,.6,0h1.71v-.4h-1.27a2.83,2.83,0,0,0-.54,0V7.73a3.74,3.74,0,0,0,.54,0h1.27V7.38h-1.47a2.94,2.94,0,0,0-.6,0V6.84a3.41,3.41,0,0,0,.65,0Zm-1.07,4c0,.21-.06.32-.11.52h1c0-.22.06-.33.09-.52Zm1.08-.5c0-.15,0-.23.05-.46h-1c0,.15,0,.31-.07.46Zm1.53,1,.06-.52H304c0,.27,0,.37-.07.52Zm.09-1c0-.18,0-.19,0-.46h-1.11c0,.15,0,.3-.05.46Z"/><rect class="cls-5" x="294.97" y="23.49" width="1.31" height="3.6"/><polygon class="cls-5" points="287.74 23.98 286.74 23.27 288.61 20.65 293.54 20.65 293.54 21.87 289.24 21.87 287.74 23.98"/><rect class="cls-5" x="294.3" y="21.83" width="2.66" height="2.59"/><rect class="cls-5" x="293.91" y="26.44" width="3.43" height="5.9"/><path class="cls-5" d="M301.41,44.07V32.63a3.16,3.16,0,0,0-3.15-3.16H293a3.17,3.17,0,0,0-3.16,3.16V44.07Z"/><line class="cls-3" x1="289.84" y1="42.2" x2="301.41" y2="42.2"/><rect class="cls-5" x="292.46" y="32.78" width="6.34" height="5.9"/><rect class="cls-5" x="293.49" y="19.94" width="4.27" height="2.81"/><path class="cls-5" d="M280.62,38.16,286,36.37a1.19,1.19,0,0,1,1.55,1.1,1.93,1.93,0,0,1-.26,1.1c-.59.8-7.87,5.26-7.87,5.26h-8.1L270.43,39l2.07-1.21,1.85-1a2.49,2.49,0,0,1,1.68-.39l4.05.59a.87.87,0,0,1,.54.81v.36a.88.88,0,0,1-.88.88H276"/><rect class="cls-5" x="269.08" y="37.95" width="3.04" height="7.55" transform="translate(1.7 93.27) rotate(-19.62)"/><path class="cls-1" d="M287.77,26.83h-.1a.41.41,0,0,1-.3-.5c.07-.3.07-.32.08-.35a.42.42,0,0,1,.79.26,1.59,1.59,0,0,0-.07.28A.42.42,0,0,1,287.77,26.83Z"/><path class="cls-1" d="M286.35,33h-.1a.42.42,0,0,1-.31-.5l.15-.63a.41.41,0,0,1,.5-.31.4.4,0,0,1,.3.49l-.14.64A.42.42,0,0,1,286.35,33Zm.47-2h-.1a.42.42,0,0,1-.31-.5l.15-.64a.42.42,0,0,1,.81.19l-.15.64A.41.41,0,0,1,286.82,30.91Zm.47-2-.09,0a.4.4,0,0,1-.31-.49l.15-.64a.41.41,0,0,1,.49-.31.42.42,0,0,1,.31.5l-.15.64A.41.41,0,0,1,287.29,28.87Z"/><path class="cls-1" d="M286,34.66h-.09a.4.4,0,0,1-.31-.49l.07-.31a.41.41,0,0,1,.49-.31.4.4,0,0,1,.31.49l-.07.31A.4.4,0,0,1,286,34.66Z"/><path class="cls-1" d="M286.09,26.79a.46.46,0,0,1-.22-.06.42.42,0,0,1-.13-.57l.17-.27a.41.41,0,0,1,.57-.14.42.42,0,0,1,.13.57l-.17.27A.41.41,0,0,1,286.09,26.79Z"/><path class="cls-1" d="M282.07,33.28a.43.43,0,0,1-.22-.06.42.42,0,0,1-.13-.57l.31-.51a.41.41,0,0,1,.7.44l-.31.5A.41.41,0,0,1,282.07,33.28Zm1-1.62a.33.33,0,0,1-.21-.07.4.4,0,0,1-.14-.56l.32-.51a.41.41,0,0,1,.57-.14.42.42,0,0,1,.13.57l-.31.51A.42.42,0,0,1,283.07,31.66Zm1-1.63a.46.46,0,0,1-.22-.06.42.42,0,0,1-.13-.57l.31-.5a.42.42,0,0,1,.71.43l-.32.51A.42.42,0,0,1,284.08,30Zm1-1.62a.43.43,0,0,1-.22-.06.41.41,0,0,1-.14-.57l.32-.51a.41.41,0,0,1,.7.44l-.31.51A.43.43,0,0,1,285.09,28.41Z"/><path class="cls-1" d="M281.21,34.66a.46.46,0,0,1-.22-.06.42.42,0,0,1-.13-.57l.17-.27a.41.41,0,0,1,.7.44l-.17.27A.42.42,0,0,1,281.21,34.66Z"/><path class="cls-1" d="M284.07,26.45a.43.43,0,0,1-.28-.11.41.41,0,0,1,0-.59l.21-.23a.43.43,0,0,1,.59,0,.42.42,0,0,1,0,.59l-.22.23A.39.39,0,0,1,284.07,26.45Z"/><path class="cls-1" d="M277.49,33.47a.43.43,0,0,1-.28-.11.41.41,0,0,1,0-.59l.41-.44a.43.43,0,0,1,.59,0,.42.42,0,0,1,0,.59l-.41.44A.43.43,0,0,1,277.49,33.47Zm1.32-1.41a.41.41,0,0,1-.3-.69l.41-.44a.4.4,0,0,1,.58,0,.41.41,0,0,1,0,.59l-.41.43A.39.39,0,0,1,278.81,32.06Zm1.31-1.4a.43.43,0,0,1-.28-.11.42.42,0,0,1,0-.59l.41-.43a.41.41,0,0,1,.59,0,.42.42,0,0,1,0,.58l-.42.44A.39.39,0,0,1,280.12,30.66Zm1.32-1.4a.43.43,0,0,1-.28-.11.41.41,0,0,1,0-.59l.41-.44a.42.42,0,0,1,.58,0,.41.41,0,0,1,0,.59l-.41.44A.43.43,0,0,1,281.44,29.26Zm1.31-1.41a.38.38,0,0,1-.28-.11.41.41,0,0,1,0-.58l.41-.44a.41.41,0,0,1,.59,0,.42.42,0,0,1,0,.58l-.41.44A.43.43,0,0,1,282.75,27.85Z"/><path class="cls-1" d="M276.37,34.66a.38.38,0,0,1-.28-.11.4.4,0,0,1,0-.58l.22-.23a.41.41,0,1,1,.6.56l-.22.23A.39.39,0,0,1,276.37,34.66Z"/><rect class="cls-2" x="313.19" width="51.39" height="51.02"/><path class="cls-1" d="M326.59,11.86a8,8,0,0,0,0,.8h-.69a5.92,5.92,0,0,0,0-.82v-2c0-.34,0-.52,0-.8a5.42,5.42,0,0,1-.61.85,3,3,0,0,0-.28-.66,6,6,0,0,0,1.5-2.89l.65.18-.28.75a9.39,9.39,0,0,1-.39.88v2.75a6,6,0,0,0,2-2.59h-.85a5.43,5.43,0,0,0-.71,0V7.69c.15,0,.5,0,.72,0h1.09V7.05a4.33,4.33,0,0,0,0-.66h.7a4.13,4.13,0,0,0,0,.66v.68h1.36a5,5,0,0,0,.74-.05v.66a5.64,5.64,0,0,0-.73,0h-1.11a6.06,6.06,0,0,0,2.05,2.59,2.1,2.1,0,0,0-.42.57,7,7,0,0,1-1.91-2.62c0,.36,0,.55,0,.83v1.1H330a3.87,3.87,0,0,0,.53,0v.6a4.1,4.1,0,0,0-.52,0h-.56v.6a5.35,5.35,0,0,0,0,.73h-.7a4.38,4.38,0,0,0,.05-.74v-.59h-.52a3.94,3.94,0,0,0-.51,0v-.6a4,4,0,0,0,.53,0h.5V9.69c0-.35,0-.47,0-.84A6.36,6.36,0,0,1,327,11.42a1.88,1.88,0,0,0-.42-.52Z"/><path class="cls-1" d="M332.29,7.54a2.76,2.76,0,0,0,.55,0H334a2.6,2.6,0,0,0,.55,0v.61a2.89,2.89,0,0,0-.51,0h-1.19a3.91,3.91,0,0,0-.55,0Zm3.1.38c0,2.68-.15,3.82-.54,4.71a2.39,2.39,0,0,0-.5-.37,2.14,2.14,0,0,0,0,.24h-.54v-.22H333v.37h-.58a5.83,5.83,0,0,0,0-.66V11a4.27,4.27,0,0,0,0-.54,4.32,4.32,0,0,0,.46,0h1.45a2.26,2.26,0,0,0,0,.5v1.28a2.77,2.77,0,0,0,.29-.9,22.42,22.42,0,0,0,.2-3.54,8.81,8.81,0,0,0,0-1.22,4.33,4.33,0,0,0,.71,0h2.14a4.13,4.13,0,0,0,.7,0,7,7,0,0,0,0,.74V12c0,.46-.2.61-.81.61l-.66,0a2,2,0,0,0-.12-.6,6.45,6.45,0,0,0,.75.06c.22,0,.27,0,.27-.18V7.15h-2.36Zm-2.89.62.45,0h1l.44,0v.55l-.44,0h-1l-.45,0Zm0,1a2.64,2.64,0,0,0,.45,0h1a2.57,2.57,0,0,0,.44,0V10l-.45,0h-1l-.44,0Zm0-2.91a2.54,2.54,0,0,0,.53,0h.83a2.54,2.54,0,0,0,.53,0v.58a3.79,3.79,0,0,0-.53,0H333a3.79,3.79,0,0,0-.53,0Zm.51,5.19h.82V11H333Zm3-3.46a2.81,2.81,0,0,0-.45,0V7.81a3.25,3.25,0,0,0,.44,0h.26v0a3,3,0,0,0,0-.48h.57a3.35,3.35,0,0,0,0,.52h.28a2.76,2.76,0,0,0,.44,0v.53a2.29,2.29,0,0,0-.44,0h-.28V8.9h.34a1.9,1.9,0,0,0,.45,0v.54a2.57,2.57,0,0,0-.44,0H336a2.69,2.69,0,0,0-.43,0V8.87a1.8,1.8,0,0,0,.43,0h.33V8.31Zm1.33,2.89a1.68,1.68,0,0,0,0,.36h-.15l-.33,0h-.76V12h-.52c0-.1,0-.31,0-.54V10.23c0-.22,0-.33,0-.47a3,3,0,0,0,.47,0h.8a2.8,2.8,0,0,0,.48,0,2.83,2.83,0,0,0,0,.45Zm-1.22-.15h.73v-.78h-.73Z"/><path class="cls-1" d="M340.36,7.35a3.69,3.69,0,0,1-.65.66,1.94,1.94,0,0,0-.44-.41,2.82,2.82,0,0,0,1.06-1.32l.62.14c-.1.18-.13.25-.24.42h1a3.69,3.69,0,0,0,.6,0v.56A2.27,2.27,0,0,0,343,6.29l.59.11a2.82,2.82,0,0,1-.21.44h1.49a2.85,2.85,0,0,0,.64,0v.59a3.52,3.52,0,0,0-.62,0h-.74a5.36,5.36,0,0,1,.29.5l-.57.19a3.68,3.68,0,0,0-.34-.69h-.46a5.26,5.26,0,0,1-.41.46,1.85,1.85,0,0,0,0,.24v.09h2a6.91,6.91,0,0,0,.73,0,2.39,2.39,0,0,0,0,.43V9a2.77,2.77,0,0,0,0,.46h-.61v-.8h-4.59v.8h-.62a2.72,2.72,0,0,0,0-.45V8.56a2.44,2.44,0,0,0,0-.44,6.24,6.24,0,0,0,.71,0H342V8.06a1.78,1.78,0,0,0,0-.36h.49a1.21,1.21,0,0,0-.33-.2l.15-.12a2.67,2.67,0,0,0-.47,0h-.48a3,3,0,0,1,.26.5l-.55.21a2.94,2.94,0,0,0-.29-.71Zm0,5.3a5.38,5.38,0,0,0,.05-.74V9.44a2.83,2.83,0,0,0,0-.47A5.46,5.46,0,0,0,341,9h2.65a5.06,5.06,0,0,0,.63,0c0,.12,0,.29,0,.47v.49c0,.25,0,.37,0,.53a5.26,5.26,0,0,0-.61,0H341v.38h3a3.22,3.22,0,0,0,.59,0,5,5,0,0,0,0,.59V12a5.76,5.76,0,0,0,0,.64H344v-.31H341v.31ZM341,10h2.68V9.48H341Zm0,1.9H344v-.54H341Z"/><path class="cls-1" d="M346.79,7.28a3.85,3.85,0,0,0-.54,0V6.68a3.24,3.24,0,0,0,.61,0h1a3.07,3.07,0,0,0,.59,0v.63a3.64,3.64,0,0,0-.52,0h-.25V8.74h.2a2,2,0,0,0,.45,0v.6a2.22,2.22,0,0,0-.45,0h-.2v1.51l.72-.34,0,.61c-.6.29-.92.44-1.93.84l-.12,0-.17-.66a5,5,0,0,0,.88-.27V9.27h-.28a2.13,2.13,0,0,0-.46,0V8.7a2.05,2.05,0,0,0,.47,0h.27V7.28ZM350.13,11h-.82a5.48,5.48,0,0,0-.7,0v-.61a3.72,3.72,0,0,0,.7,0h.82V9.84h-.68a7.16,7.16,0,0,0-.83,0c0-.1,0-.13,0-.22V7.53a7.9,7.9,0,0,0,0-.9,7,7,0,0,0,.91,0h1.86a5.33,5.33,0,0,0,.88,0c0,.14,0,.41,0,.91V9a7.85,7.85,0,0,0,0,.89l-.77,0h-.78v.66h.92a4.14,4.14,0,0,0,.71,0v.61a5.81,5.81,0,0,0-.7,0h-.93v.83h1.17a5.48,5.48,0,0,0,.7,0v.62a6.73,6.73,0,0,0-.74,0h-3a7,7,0,0,0-.74,0v-.62a3.75,3.75,0,0,0,.68,0h1.31Zm-.91-3.84V8h.91V7.2Zm0,1.32v.79h.91V8.52ZM350.71,8h.94V7.2h-.94Zm0,1.31h.94V8.52h-.94Z"/><path class="cls-1" d="M350.26,38.78a1.88,1.88,0,0,1-.35.34h2.9a10.2,10.2,0,0,0-.5-3Z"/><path class="cls-1" d="M338.22,23.49l.95-.42a10.15,10.15,0,0,1,2.4-.7l1.6-.27,1.95-1.51a4.26,4.26,0,0,0-7.88,2.79Z"/><path class="cls-1" d="M344.44,25.25l.42,0a4.25,4.25,0,0,0,.69-3.69,5.17,5.17,0,0,0-.26-.69l-1.7,1.31Z"/><path class="cls-1" d="M337.32,23.75l0,.15a4.3,4.3,0,0,0,1,1.8.65.65,0,0,1,.11-.12L338,23.82Z"/><path class="cls-1" d="M342.6,26.85a4.26,4.26,0,0,0,2-1.23l-.48-.05-2.57.91a2.26,2.26,0,0,1,0,.52,4.23,4.23,0,0,0,1.05-.15"/><path class="cls-1" d="M353.69,31.51l-4.55-3.44-1.59-1.21a3.31,3.31,0,0,0-3.35-.35l-1.79.75a.94.94,0,0,0-.22.12h0a5.28,5.28,0,0,0-.72.61l-.3.26-.68.59.56-1.68a1.16,1.16,0,0,0,0-.18,1.89,1.89,0,0,0,0-.41,1.33,1.33,0,0,0-1-1.1,1.35,1.35,0,0,0-1.53.92l-2,6.11a1.35,1.35,0,0,0,.73,1.68,1.31,1.31,0,0,0,1.5-.39l.82-.7,2.17-1.87a.29.29,0,0,1,.43,0,7.89,7.89,0,0,1,1.59,2.59,12.41,12.41,0,0,1,.48,3.43v1.84h3.55A1.77,1.77,0,0,1,347.1,38a1.79,1.79,0,0,1,.34-1.31l3.13-4.09-2.86-2.15a.23.23,0,0,1,0-.33A.24.24,0,0,1,348,30l2.18,1.65,1.05.8-.32.41-3.09,4a1.31,1.31,0,0,0,.31,1.87,1.36,1.36,0,0,0,1.82-.35l2.2-2.9,1.78-2.35a1.21,1.21,0,0,0-.23-1.68"/><path class="cls-1" d="M335.39,26.84l2.69-1.09-3.85.36s0,0,0,0a.78.78,0,0,0,0-.16,1.11,1.11,0,0,0-1.35-.79,1.09,1.09,0,0,0-.82,1,1.86,1.86,0,0,0-.33,0,1.33,1.33,0,0,0,.43,2.62.48.48,0,0,0,0,.12.55.55,0,0,0,1,.11,1.09,1.09,0,0,0,1.72-1.16.88.88,0,0,0-.05-.15s0,0,0,0l1.73-.82Z"/><path class="cls-1" d="M334,23.23l2.11.43-2.53-1.35s0,0,0,0,0-.07,0-.11a.8.8,0,0,0-.51-1,.82.82,0,0,0-.92.29l-.22-.11a1,1,0,0,0-1.25.62,1,1,0,0,0,.45,1.17s0,.05,0,.08a.4.4,0,0,0,.25.51.42.42,0,0,0,.33,0,.81.81,0,0,0,1.54,0l0-.12s0,0,0,0l1.41.19Z"/><polygon class="cls-1" points="337.34 18.48 336.9 18.65 337.25 18.96 336.78 18.97 337.01 19.38 336.56 19.23 336.64 19.7 336.27 19.4 336.18 19.86 335.93 19.46 335.69 19.86 335.6 19.4 335.23 19.7 335.3 19.23 334.86 19.38 335.08 18.97 334.61 18.96 334.97 18.65 334.53 18.48 334.97 18.31 334.61 18 335.08 17.99 334.86 17.58 335.3 17.73 335.23 17.26 335.6 17.56 335.69 17.1 335.93 17.5 336.18 17.1 336.27 17.56 336.64 17.26 336.56 17.73 337.01 17.58 336.78 17.99 337.25 18 336.9 18.31 337.34 18.48"/><polygon class="cls-1" points="328.4 24.86 327.96 25.1 328.3 25.46 327.8 25.53 328 25.99 327.51 25.88 327.53 26.38 327.11 26.11 326.96 26.59 326.65 26.19 326.35 26.59 326.2 26.11 325.78 26.38 325.8 25.88 325.31 25.99 325.51 25.53 325.01 25.46 325.35 25.1 324.91 24.86 325.35 24.64 325.01 24.27 325.51 24.2 325.31 23.74 325.8 23.85 325.78 23.35 326.2 23.62 326.35 23.14 326.65 23.54 326.96 23.14 327.11 23.62 327.53 23.35 327.51 23.85 328 23.74 327.8 24.2 328.3 24.27 327.96 24.64 328.4 24.86"/><polygon class="cls-1" points="351.31 22.99 350.86 23.27 351.19 23.68 350.68 23.78 350.84 24.28 350.32 24.2 350.31 24.73 349.85 24.48 349.66 24.96 349.31 24.57 348.96 24.96 348.77 24.48 348.31 24.73 348.3 24.2 347.78 24.28 347.94 23.78 347.43 23.68 347.76 23.27 347.31 22.99 347.76 22.72 347.43 22.31 347.95 22.2 347.78 21.71 348.3 21.79 348.31 21.26 348.77 21.51 348.96 21.02 349.31 21.42 349.66 21.02 349.85 21.51 350.31 21.26 350.32 21.79 350.84 21.71 350.68 22.2 351.19 22.31 350.86 22.72 351.31 22.99"/><path class="cls-6" d="M353.05,42.07a.37.37,0,0,0,0-.11h0a.65.65,0,0,0-.68-.37s-8.87-.38-10.62-.61-5.17-1.39-7.62-1.39h-8.48A2.42,2.42,0,0,0,323.21,42h0v.28h0a2.42,2.42,0,0,0,2.42,2.38h8.48c2.45,0,5.87-1.17,7.62-1.4s10.62-.61,10.62-.61a.65.65,0,0,0,.68-.37h0a.37.37,0,0,0,0-.11v-.06Z"/><rect class="cls-7" x="327.82" y="41" width="8.32" height="2.21"/><path class="cls-8" d="M326,39.65A2.37,2.37,0,0,0,323.6,42h0v.28h0A2.37,2.37,0,0,0,326,44.55h.27v-4.9Z"/><path class="cls-8" d="M352.63,42.24h0s0-.07,0-.11v-.06s0-.07,0-.11h0c-.08-.25-.34-.35-.66-.35l-2.79-.1v1.18l2.79-.1C352.29,42.59,352.55,42.49,352.63,42.24Z"/><path class="cls-2" d="M334.18,41.79a.48.48,0,0,1-.33.13.44.44,0,0,1-.33-.13.41.41,0,0,1-.13-.32.44.44,0,0,1,.46-.46.44.44,0,0,1,.32.13.45.45,0,0,1,.14.33A.44.44,0,0,1,334.18,41.79Zm-.33-.1a.2.2,0,0,0,.15-.06.21.21,0,0,0,.06-.16.25.25,0,0,0-.06-.17.22.22,0,0,0-.3,0,.25.25,0,0,0-.06.17.21.21,0,0,0,.06.16A.2.2,0,0,0,333.85,41.69ZM336,42.9a.84.84,0,0,1-.66.3.94.94,0,0,1-.69-.28,1.05,1.05,0,0,1-.28-.77,1.09,1.09,0,0,1,.29-.78,1,1,0,0,1,.7-.29.76.76,0,0,1,.33.08.77.77,0,0,1,.27.19l-.26.3a.5.5,0,0,0-.34-.15.44.44,0,0,0-.35.17.74.74,0,0,0-.14.46.83.83,0,0,0,.13.48.43.43,0,0,0,.35.17.49.49,0,0,0,.37-.18l.28.3Z"/><polygon class="cls-1" points="331 38.82 329.82 36.32 330.87 35.91 331 38.82"/><polygon class="cls-1" points="332.43 39.06 332.98 36.01 334.13 36.67 332.43 39.06"/><rect class="cls-2" x="367.41" width="51.39" height="51.02"/><path class="cls-1" d="M375.43,7.17a4.58,4.58,0,0,0-.05-.82h.79a4.58,4.58,0,0,0-.05.82V8.76h2a6.47,6.47,0,0,0,.83,0v.73a7.56,7.56,0,0,0-.83,0h-2v2.37a7.09,7.09,0,0,0,.05.9h-.79a7.46,7.46,0,0,0,.05-.9V9.41h-1.85c-.29,0-.64,0-.82,0V8.72a6.3,6.3,0,0,0,.82,0h1.85Z"/><path class="cls-1" d="M381.57,9.35a5,5,0,0,0-.63,0V8.83a6.22,6.22,0,0,1-.91.81,2.35,2.35,0,0,0-.45-.56,5,5,0,0,0,2.11-2.68l.69.25a1.83,1.83,0,0,0-.18.35A7.09,7.09,0,0,1,381,8.75l.56,0H384l.63,0A7,7,0,0,1,383.4,7c0-.06-.11-.21-.16-.28l.65-.26a2.87,2.87,0,0,0,.26.59,5.56,5.56,0,0,0,2,2.05,2.53,2.53,0,0,0-.44.61,7.57,7.57,0,0,1-1-.82c0,.12,0,.12,0,.42a8.66,8.66,0,0,1-.3,2.85c-.13.27-.35.35-.86.35l-.79,0a3.08,3.08,0,0,0-.17-.68,5.77,5.77,0,0,0,.89.09c.25,0,.33,0,.38-.17a8.32,8.32,0,0,0,.21-2.12v-.2h-1.43a3.77,3.77,0,0,1-2.28,3.28,1.88,1.88,0,0,0-.42-.55A3,3,0,0,0,382,9.35Z"/><path class="cls-1" d="M388.51,6.42h.05a1.73,1.73,0,0,1,.63.13c-.09.36-.18.71-.29,1.07l.93-.1a1.61,1.61,0,0,1,0,.39,1.55,1.55,0,0,1,0,.22c-.37.06-.76.1-1.16.14a17.57,17.57,0,0,1-1.33,2.92,1.49,1.49,0,0,1-.6-.34A13,13,0,0,0,388,8.31c-.37,0-.74,0-1.09,0a1.79,1.79,0,0,1,0-.34c0-.1,0-.21,0-.31h.32l1,0C388.32,7.26,388.43,6.84,388.51,6.42Zm4.09,4.9a1.18,1.18,0,0,1-.37.58,5.39,5.39,0,0,0-1.24-.76c0,.1,0,.19,0,.26,0,.75-.51,1.1-1.33,1.1s-1.32-.39-1.32-1,.53-1.11,1.48-1.11l.43,0c0-.49-.08-1-.09-1.73a2,2,0,0,1,.34,0l.33,0a14.58,14.58,0,0,0,.09,1.85A5.1,5.1,0,0,1,392.6,11.32Zm-2.75-.38c-.62,0-.86.27-.86.53s.22.42.68.42.69-.21.69-.6a1.57,1.57,0,0,0,0-.29A2.18,2.18,0,0,0,389.85,10.94Zm2.84-2.63a1.62,1.62,0,0,1-.39.57,5.87,5.87,0,0,0-1.57-1,2,2,0,0,1,.31-.53A6.66,6.66,0,0,1,392.69,8.31Z"/><path class="cls-1" d="M394.75,8.84h-.48a4.62,4.62,0,0,0-.58,0,6.27,6.27,0,0,0,0-.7V7.32c0-.29,0-.57,0-.71a5.79,5.79,0,0,0,.65,0h1.08a6.59,6.59,0,0,0,.67,0,5.66,5.66,0,0,0,0,.68v.89a4.78,4.78,0,0,0,0,.68c-.14,0-.22,0-.56,0h-.2v.9h.3a3.86,3.86,0,0,0,.57,0v.6a4.4,4.4,0,0,0-.58,0h-.29v1.21c.36-.1.53-.15.89-.28v.57c-.73.24-1.36.43-2.25.64l-.52.14-.12-.66a3.32,3.32,0,0,0,.43-.05V10a5.28,5.28,0,0,0,0-.61h.61a4.17,4.17,0,0,0,0,.56v1.78l.44-.1Zm-.46-.53h1.2V7.17h-1.2Zm2.81,3.43H399a5.16,5.16,0,0,0,.73,0v.66a4.35,4.35,0,0,0-.72,0H397.1v.37h-.65a7.8,7.8,0,0,0,0-.8V7.31c0-.38,0-.54,0-.69a5.77,5.77,0,0,0,.68,0h1.75a6.47,6.47,0,0,0,.73,0v.65a6.81,6.81,0,0,0-.7,0H397.1v1h1.62a3.65,3.65,0,0,0,.63,0c0,.19,0,.35,0,.62V10c0,.36,0,.49,0,.63l-.61,0H397.1ZM398.74,10V8.82H397.1V10Z"/><path class="cls-1" d="M401.8,6.82a1.44,1.44,0,0,0,0-.46h.67a2,2,0,0,0,0,.46v.09h.72a3.91,3.91,0,0,0,.58,0v.57a4.79,4.79,0,0,0-.57,0H401a4.07,4.07,0,0,0-.56,0V6.87a3.91,3.91,0,0,0,.58,0h.74Zm.87,5c0-.18-.05-.23-.08-.33-.26.06-.78.17-1.06.21l-.21.05-.13-.52h.27c.07-.22.15-.52.23-.9h-.51v1.62a6.1,6.1,0,0,0,0,.73h-.61a6.73,6.73,0,0,0,0-.74V10.5a4.45,4.45,0,0,0,0-.69c.2,0,.4,0,.62,0h.59V9.76l0-.25v0h-.54l-.56,0a3.12,3.12,0,0,0,0-.49V8.06a4.15,4.15,0,0,0,0-.49h.56a2.63,2.63,0,0,0,0,.43v.61a3.74,3.74,0,0,0,.55-.39,5.57,5.57,0,0,0-.45-.35l.3-.3.46.35a2.78,2.78,0,0,0,.33-.42l.35.29c-.14.17-.19.24-.35.41.11.09.17.16.37.34l-.31.36-.37-.39a5.2,5.2,0,0,1-.57.44,1.44,1.44,0,0,0-.31-.33V9h1.63V8c0-.14,0-.33,0-.42h.54a2.62,2.62,0,0,0,0,.42v.54a5.58,5.58,0,0,0,.94-2.24l.6.16a3.91,3.91,0,0,0-.15.41c-.05.13-.11.3-.23.58h.67a4.78,4.78,0,0,0,.39-1.08l.57.15c0,.08-.08.18-.14.34s-.18.42-.27.59H406a3,3,0,0,0,.7,0V8a5.37,5.37,0,0,0-.7,0h-.22v.86h.18a2.89,2.89,0,0,0,.6,0v.59a4.54,4.54,0,0,0-.6,0h-.18v.85h.18a4.43,4.43,0,0,0,.6,0v.59a4.86,4.86,0,0,0-.6,0h-.18v1h.33a4.59,4.59,0,0,0,.65,0v.63a5.67,5.67,0,0,0-.7-.05h-1.51v.33h-.59a5.62,5.62,0,0,0,0-.77V9.13a4.33,4.33,0,0,1,0-.53,2.88,2.88,0,0,1-.31.46,2.88,2.88,0,0,0-.28-.38V9c0,.14,0,.33,0,.44l-.51,0h-.51l0,.08c0,.22-.05.24-.06.29H403a5.28,5.28,0,0,0,.63,0,4.62,4.62,0,0,0,0,.58V12c0,.29-.06.44-.23.51a1.5,1.5,0,0,1-.7.09h-.35a2.1,2.1,0,0,0-.13-.55,4.08,4.08,0,0,0,.65.05c.18,0,.22,0,.22-.17v-.29Zm-.47-1.5c-.11.41-.18.66-.24.84l.49-.08a3.38,3.38,0,0,0-.19-.39l.39-.16a5.92,5.92,0,0,1,.41,1V10.3Zm3-2.31h-.7v.86h.7Zm-.7,1.39v.85h.7V9.38Zm0,2.41h.7v-1h-.7Z"/><path class="cls-1" d="M410.75,11.79c1.37-.39,2-1.14,2-2.19a1.86,1.86,0,0,0-1.85-1.9,7.33,7.33,0,0,1-.77,3.25,1.44,1.44,0,0,1-1.32.94c-.71,0-1.3-.66-1.3-1.92a3,3,0,0,1,3.15-2.91,2.57,2.57,0,0,1,2.81,2.54,2.89,2.89,0,0,1-2.31,2.83ZM408.19,10c0,.9.34,1.22.63,1.22s.47-.11.69-.53a6.59,6.59,0,0,0,.68-2.93A2.22,2.22,0,0,0,408.19,10Z"/><path class="cls-1" d="M388.61,19.6a4,4,0,0,0,0,.55h-.55v-.32h-.58v.67h-.6a4,4,0,0,0,.05-.68V18.34c0-.2,0-.4,0-.61a3.41,3.41,0,0,1-.4.69,2.9,2.9,0,0,0-.27-.63,5.34,5.34,0,0,0,1-2.62h-.19a3.27,3.27,0,0,0-.59,0v-.63a3.69,3.69,0,0,0,.64.05h.86a3.48,3.48,0,0,0,.63-.05v.62a2.94,2.94,0,0,0-.44,0h-.33a10.71,10.71,0,0,1-.43,1.62h.72a2.58,2.58,0,0,0,.42,0,4.19,4.19,0,0,0,0,.53v.2a5.1,5.1,0,0,0,1.33-1.94h-.56v.73h-.58a2.81,2.81,0,0,0,0-.43v-.52c0-.14,0-.16,0-.34a3,3,0,0,0,.53,0h.77a4.79,4.79,0,0,0,.17-.71l.63.08c-.08.27-.14.45-.19.63H392a5.25,5.25,0,0,0,.64,0,2.91,2.91,0,0,0,0,.48v.38a2.49,2.49,0,0,0,0,.42h-.6v-.71h-1.54a5.87,5.87,0,0,1-.49,1h.76a3.47,3.47,0,0,0,.28-.76l.57.12a5.15,5.15,0,0,1-.27.64h.54a4.37,4.37,0,0,0,.59,0v.56c-.17,0-.37,0-.58,0h-.68v.59h.56a3.17,3.17,0,0,0,.6,0v.56a5.15,5.15,0,0,0-.59,0h-.57v.58h.56a4.54,4.54,0,0,0,.6,0v.56a4.91,4.91,0,0,0-.59,0h-.57v.61H392a5.07,5.07,0,0,0,.66,0v.6a4.54,4.54,0,0,0-.66-.05h-2.2v.33h-.61a4.94,4.94,0,0,0,0-.75V18.16c0-.29,0-.48,0-.56a3,3,0,0,1-.35.44,3.39,3.39,0,0,0-.28-.48Zm-1.11-.32h.58v-2h-.58Zm3.21-1.63v-.59h-.92v.59Zm-.92,1.08h.92v-.58h-.92Zm0,1.11h.92v-.61h-.92Z"/><path class="cls-1" d="M394.2,17.79c0-.32,0-.45,0-.79a3.74,3.74,0,0,1-.61.81,3.3,3.3,0,0,0-.31-.65,5.5,5.5,0,0,0,1.49-2.85l.65.2-.13.38a7.48,7.48,0,0,1-.52,1.24v3.72c0,.33,0,.55,0,.8h-.67a6.34,6.34,0,0,0,0-.81Zm2.9-.94h-.73a6.79,6.79,0,0,0-.72,0,3.91,3.91,0,0,0,0-.65v-.95a3.89,3.89,0,0,0,0-.62,5.12,5.12,0,0,0,.77,0h2.11a5,5,0,0,0,.76,0,5.55,5.55,0,0,0,0,.65v.94a4.74,4.74,0,0,0,0,.63h-1.58v.63H399a7,7,0,0,0,.71,0v.65c-.19,0-.5-.05-.7-.05H398a5,5,0,0,0,1.95,1.57,4.59,4.59,0,0,0-.4.61,5,5,0,0,1-1.81-1.72c0,.27,0,.52,0,.74V20a3.75,3.75,0,0,0,0,.64h-.7a4.4,4.4,0,0,0,.05-.65v-.76c0-.15,0-.4,0-.75a5,5,0,0,1-1.82,1.77,1.79,1.79,0,0,0-.4-.57A5.16,5.16,0,0,0,396.84,18h-.94a6.42,6.42,0,0,0-.73.05v-.65a6.62,6.62,0,0,0,.73,0h1.2Zm-.82-.56h2.36v-1h-2.36Z"/><path class="cls-1" d="M406,28.11a1.46,1.46,0,1,0-1.46-1.46A1.45,1.45,0,0,0,406,28.11Z"/><path class="cls-1" d="M408.21,28.75a12,12,0,0,0-4.37,0,2.39,2.39,0,0,0-2,2.49l.27,5h1.18V31.46h.36V44.87h1.61l.58-8.3h.29l.59,8.3h1.6V31.46h.36v4.81h1.19l.27-5A2.4,2.4,0,0,0,408.21,28.75Z"/><path class="cls-1" d="M380.18,28.11a1.46,1.46,0,1,0-1.45-1.46A1.46,1.46,0,0,0,380.18,28.11Z"/><path class="cls-1" d="M382.37,28.75a12.09,12.09,0,0,0-4.38,0,2.4,2.4,0,0,0-2,2.49l.27,5h1.19V31.46h.36V44.87h1.6l.59-8.3h.29l.58,8.3h1.61V31.46h.36v4.81h1.18l.27-5A2.39,2.39,0,0,0,382.37,28.75Z"/><polygon class="cls-1" points="386.63 35.05 388.6 37.02 387.36 37.02 384.9 34.56 387.36 32.1 388.6 32.1 386.63 34.07 399.58 34.07 397.61 32.1 398.85 32.1 401.31 34.56 398.85 37.02 397.61 37.02 399.58 35.05 386.63 35.05"/><rect class="cls-2" x="475.86" width="51.39" height="51.02"/><path class="cls-1" d="M488.43,9.29a7.07,7.07,0,0,0,.72-1.46l.6.21a8,8,0,0,1-.66,1.25h.84a5.91,5.91,0,0,0,.77,0V9.9a7.42,7.42,0,0,0-.79,0h-1.66a5.81,5.81,0,0,0,2.57,1.94,2.33,2.33,0,0,0-.4.6,6.16,6.16,0,0,1-2.55-2.19c0,.37,0,.47,0,.69V12a4.21,4.21,0,0,0,.05.68h-.72a5.5,5.5,0,0,0,0-.68V10.91c0-.21,0-.38,0-.68a6.17,6.17,0,0,1-2.39,2.16,2.64,2.64,0,0,0-.4-.57,6.06,6.06,0,0,0,2.41-2h-1.54c-.31,0-.56,0-.78,0V9.25a7.52,7.52,0,0,0,.78,0h1.89V7.68h-1.59a5.22,5.22,0,0,0-.74,0V7.06a4,4,0,0,0,.77.05h1.56V6.9a4.33,4.33,0,0,0,0-.55h.7a2.86,2.86,0,0,0,0,.56v.2h1.68a3.61,3.61,0,0,0,.79-.05v.66a5,5,0,0,0-.76,0h-1.71V9.29ZM486,7.8A6.54,6.54,0,0,1,486.62,9l-.55.25a5.86,5.86,0,0,0-.6-1.23Z"/><path class="cls-1" d="M494.31,10.48a4.06,4.06,0,0,1-.86.65,2.39,2.39,0,0,0-.25-.32l-.39.18-.49.22-.27.11-.4.17-.13-.68a4.24,4.24,0,0,0,.8-.23V8.64h-.23a4.32,4.32,0,0,0-.56,0V8.06a4.39,4.39,0,0,0,.56,0h.23V7.2a4.75,4.75,0,0,0,0-.76H493a6.9,6.9,0,0,0,0,.76v.89h.14a3.45,3.45,0,0,0,.52,0v.61a4.05,4.05,0,0,0-.52,0h-.14v1.7l.49-.22v.42a2.94,2.94,0,0,0,1-.92h-.27a4.28,4.28,0,0,0-.62,0V9.07a4.05,4.05,0,0,0,.63,0h3a3.63,3.63,0,0,0,.7,0v.59a5.48,5.48,0,0,0-.7,0H495a4.05,4.05,0,0,1-.25.38H497a5.77,5.77,0,0,0,.68,0,3.34,3.34,0,0,0,0,.41,5.5,5.5,0,0,1-.31,1.88c-.13.26-.33.33-.84.33-.19,0-.39,0-.6,0a1.51,1.51,0,0,0-.2-.61,5.75,5.75,0,0,0,.82.07c.19,0,.29,0,.33-.12a5.25,5.25,0,0,0,.21-1.43h-.33a4.52,4.52,0,0,1-.66,1.06,5.24,5.24,0,0,1-1.45,1.15,1.76,1.76,0,0,0-.42-.44,3.81,3.81,0,0,0,1.94-1.77h-.52a4.55,4.55,0,0,1-1.9,1.59,1.52,1.52,0,0,0-.38-.44,3.91,3.91,0,0,0,1.65-1.15Zm.2-1.73a4,4,0,0,0-.62,0c0-.16,0-.37,0-.65v-1a5,5,0,0,0,0-.61,4,4,0,0,0,.68,0h1.92a5.78,5.78,0,0,0,.73,0,5.39,5.39,0,0,0,0,.66v.91a4.92,4.92,0,0,0,0,.64l-.62,0Zm0-1.29h2.1V7.09h-2.1Zm0,.83h2.1V7.91h-2.1Z"/><path class="cls-1" d="M499.43,9a5.79,5.79,0,0,0-.8,0V8.34a5.16,5.16,0,0,0,.81,0h1.63v-.7H500a4.9,4.9,0,0,0-.75,0V7.1a6.29,6.29,0,0,0,.77,0h1.05V7a4.68,4.68,0,0,0,0-.62h.7a4.21,4.21,0,0,0,0,.62v.17h.55a6.56,6.56,0,0,0,.77,0v.6a5.47,5.47,0,0,0,.86-1.09l.57.37-.21.26a10.22,10.22,0,0,1-1.14,1.14H504a4.9,4.9,0,0,0,.77,0V9a6,6,0,0,0-.82,0h-1.52c-.25.18-.63.42-.89.58h1.69a6.91,6.91,0,0,0,.73,0,4.62,4.62,0,0,0,0,.75v1.64a4.32,4.32,0,0,0,0,.74h-.67v-.31h-2.63v.31H500a5,5,0,0,0,0-.74v-1.1c0-.21,0-.27,0-.43-.37.18-.67.32-1.19.53a2,2,0,0,0-.35-.57,12.68,12.68,0,0,0,3-1.37Zm1.19,1.69h2.63V10h-2.63Zm0,1.16h2.63v-.64h-2.63Zm1.61-3.42a5.67,5.67,0,0,0,.76-.67,4.26,4.26,0,0,0-.7,0h-.6v.7Z"/><path class="cls-1" d="M506.64,7.39a4.26,4.26,0,0,1-.73.82,1.55,1.55,0,0,0-.44-.41,2.89,2.89,0,0,0,1.09-1.46l.62.13c-.13.24-.16.29-.21.4h.94a3.86,3.86,0,0,0,.68,0v.6a4,4,0,0,0-.56,0h-.38a4.77,4.77,0,0,1,.29.57l-.56.18a3.76,3.76,0,0,0-.32-.75Zm2.68,0a3.82,3.82,0,0,1-.43.53,1.75,1.75,0,0,0,0,.4h1.59a6.29,6.29,0,0,0,.73,0v.58a6,6,0,0,0-.72,0h-1.6v.55H511a4.69,4.69,0,0,0,.75,0V10a4.81,4.81,0,0,0-.75,0h-.69v.54h.65a5.17,5.17,0,0,0,.76,0V11a6.79,6.79,0,0,0-.76,0h-.65V12c0,.47-.2.59-1,.59h-.63a1.86,1.86,0,0,0-.17-.6,8.19,8.19,0,0,0,.85,0c.28,0,.33,0,.33-.16V11h-3.24a6.5,6.5,0,0,0-.76,0v-.6a5,5,0,0,0,.75,0h3.25V9.9h-3.27a5.05,5.05,0,0,0-.76,0V9.34a4.61,4.61,0,0,0,.75,0h1.89V8.83h-1.35a5.78,5.78,0,0,0-.73,0V8.29a6.49,6.49,0,0,0,.74,0h1.34a3.33,3.33,0,0,0,0-.41h.49a1.53,1.53,0,0,0-.36-.27,2.87,2.87,0,0,0,.89-1.31l.58.16c-.07.15-.11.23-.19.38H511a4.53,4.53,0,0,0,.75,0v.61a4.59,4.59,0,0,0-.72,0h-.63a6.26,6.26,0,0,1,.31.55l-.56.19a5.68,5.68,0,0,0-.37-.74Zm-2,3.59a7.68,7.68,0,0,1,1,.94l-.5.41a5.07,5.07,0,0,0-1-1Z"/><path class="cls-1" d="M515.83,11.79c1.37-.39,2-1.14,2-2.19A1.86,1.86,0,0,0,516,7.7,7.33,7.33,0,0,1,515.2,11a1.44,1.44,0,0,1-1.32.94c-.71,0-1.3-.66-1.3-1.92a3,3,0,0,1,3.15-2.91,2.57,2.57,0,0,1,2.81,2.54,2.89,2.89,0,0,1-2.32,2.83ZM513.27,10c0,.9.34,1.22.63,1.22s.47-.11.69-.53a6.6,6.6,0,0,0,.67-2.93A2.22,2.22,0,0,0,513.27,10Z"/><path class="cls-1" d="M495.81,15.09a4.25,4.25,0,0,0,0-.69h.69a4,4,0,0,0,0,.68v.6h.21a2.49,2.49,0,0,0,.42,0v.6l-.41,0h-.22v1.17l.67-.28v.57a6.16,6.16,0,0,1-.67.28v2c0,.45-.19.59-.84.59l-.45,0A2,2,0,0,0,495,20a4.86,4.86,0,0,0,.58.05c.2,0,.24,0,.24-.21V18.21l-.3.11-.13,0-.1,0-.09,0-.08,0-.06,0-.14-.64a3.61,3.61,0,0,0,.9-.23V16.24h-.36a4,4,0,0,0-.5,0v-.63a2.45,2.45,0,0,0,.51,0h.35Zm1.48.27c0-.36,0-.47,0-.65a5.74,5.74,0,0,0,.66,0h2.36a5.54,5.54,0,0,0,.68,0,4.4,4.4,0,0,0,0,.64v1.71a5.18,5.18,0,0,0,0,.7,5.43,5.43,0,0,0-.68,0h-2.4v1.89c0,.29.08.31,1.33.31.81,0,1.1-.06,1.21-.25a2.76,2.76,0,0,0,.16-1.09,2.41,2.41,0,0,0,.62.23,4.19,4.19,0,0,1-.15,1,.7.7,0,0,1-.57.57,5.63,5.63,0,0,1-1.28.1,7.94,7.94,0,0,1-1.38-.06.56.56,0,0,1-.54-.63Zm.6,0v1.87h.9V15.31Zm1.49,1.87h.95V15.31h-.95Z"/><path class="cls-1" d="M502.4,16.25a2.59,2.59,0,0,0-.48,0v-.63a3.11,3.11,0,0,0,.49,0h.25v-.6a4.23,4.23,0,0,0,0-.7h.67a6,6,0,0,0,0,.7v.6h.15l.37,0v.59l-.37,0h-.15v1.22l.57-.24v.56c-.27.13-.3.14-.57.25V20c0,.49-.16.62-.74.62l-.47,0a1.74,1.74,0,0,0-.13-.58,4,4,0,0,0,.55,0c.16,0,.19,0,.19-.17V18.25l-.71.26-.1-.63a3.31,3.31,0,0,0,.81-.2V16.25ZM506,17.38c-.07.13-.12.23-.24.42.52,0,.92-.05,1.28-.09a3.72,3.72,0,0,0-.36-.39l.43-.22a9.77,9.77,0,0,1,1,1.16l-.49.29c-.11-.19-.16-.26-.26-.41-.34,0-.53.07-.87.09v.58h.77a4.14,4.14,0,0,0,.6,0v.57a5.21,5.21,0,0,0-.6,0h-.77v.61h1a4,4,0,0,0,.69,0v.6a5.35,5.35,0,0,0-.73,0H505a6.62,6.62,0,0,0-.71,0v-.59a2.32,2.32,0,0,0,.52,0h1.14v-.61h-.65a4.56,4.56,0,0,0-.57,0v-.57a3.67,3.67,0,0,0,.57,0h.65v-.53l-.27,0c-.69,0-.72,0-.93.07l-.06-.57.39,0h.12a3.92,3.92,0,0,0,.37-.74h-.94a6.48,6.48,0,0,1-.78,3.46,2.53,2.53,0,0,0-.5-.42,3.64,3.64,0,0,0,.56-1.47A9.76,9.76,0,0,0,504,17.1c0-.44,0-1.17,0-1.58s0-.72,0-.91a7.1,7.1,0,0,0,.72,0h2.57a6.13,6.13,0,0,0,.68,0c0,.16,0,.28,0,.51v.56c0,.19,0,.39,0,.51a4.21,4.21,0,0,0-.56,0H504.6v.4h2.9a4.73,4.73,0,0,0,.6,0v.56a2.92,2.92,0,0,0-.55,0h-1.43Zm1.38-1.7v-.53h-2.75v.2c0,.12,0,.24,0,.33Z"/><polygon class="cls-5" points="508.1 41.22 504.98 43.98 494.29 43.98 494.29 27.12 508.1 27.12 508.1 41.22 508.1 41.22"/><line class="cls-9" x1="496.55" y1="29.91" x2="505.85" y2="29.91"/><line class="cls-9" x1="496.55" y1="31.9" x2="505.85" y2="31.9"/><line class="cls-9" x1="496.55" y1="33.89" x2="505.85" y2="33.89"/><line class="cls-9" x1="496.55" y1="35.88" x2="505.85" y2="35.88"/><line class="cls-9" x1="496.55" y1="37.87" x2="505.85" y2="37.87"/><line class="cls-9" x1="496.55" y1="39.86" x2="502.69" y2="39.86"/><rect class="cls-5" x="507.22" y="30.31" width="7.79" height="3.98" transform="translate(156.4 401.71) rotate(-49.78)"/><polygon class="cls-5" points="510.12 36.56 506.61 37.69 507.08 33.99 507.08 33.99 510.12 36.56 510.12 36.56"/><polygon class="cls-1" points="506.98 36.01 508.15 36.99 506.64 37.72 506.98 36.01"/><line class="cls-10" x1="513.03" y1="29.02" x2="508.11" y2="34.84"/><line class="cls-10" x1="513.99" y1="29.84" x2="509.07" y2="35.65"/><polygon class="cls-5" points="504.98 43.98 508.1 41.22 504.98 41.22 504.98 43.98"/><rect class="cls-2" x="421.63" width="51.39" height="51.02"/><path class="cls-1" d="M428,7.09a3.12,3.12,0,0,0-.05-.7h.69a4,4,0,0,0,0,.7v.59a3,3,0,0,0,.48,0v.6c-.17,0-.2,0-.48,0V9.37c.28-.12.34-.14.63-.29v.35a1.54,1.54,0,0,0,1.16-1.75h-.63V8.5h-.56c0-.09,0-.28,0-.43v-.5c0-.19,0-.31,0-.46a5.28,5.28,0,0,0,.66,0h1V6.87a2.21,2.21,0,0,0,0-.48h.69a3.53,3.53,0,0,0,0,.48v.27h1.24a5.32,5.32,0,0,0,.65,0,3.62,3.62,0,0,0,0,.48V8a2.31,2.31,0,0,0,0,.41h-.58V7.68H432V9c0,.13,0,.14.38.14.54,0,.56,0,.56-.5a.46.46,0,0,0,0-.1,2.1,2.1,0,0,0,.54.15c-.06.9-.16,1-1.15,1-.67,0-.86-.1-.86-.46V7.68h-.5a2.16,2.16,0,0,1-1.4,2.27,2,2,0,0,0-.32-.47v.17l-.64.3V12c0,.27-.05.4-.18.48a1.22,1.22,0,0,1-.63.11h-.42a2,2,0,0,0-.13-.59,4.4,4.4,0,0,0,.58.05c.14,0,.18,0,.18-.17V10.21l-.23.08-.3.11-.16.07-.14-.64A4.74,4.74,0,0,0,428,9.6V8.24h-.31a3.44,3.44,0,0,0-.46,0V7.65a2.18,2.18,0,0,0,.47,0h.3Zm2.22,3.6a7.07,7.07,0,0,0-.75,0V10.1a4.69,4.69,0,0,0,.75,0h2.17a4.55,4.55,0,0,0,.74,0v.62a6.29,6.29,0,0,0-.73,0h-.89v1.15h1.15a5.45,5.45,0,0,0,.79,0v.64c-.2,0-.47,0-.78,0H429.8c-.31,0-.58,0-.78,0V11.8a4.66,4.66,0,0,0,.77,0h1.07V10.69Z"/><path class="cls-1" d="M437.32,8.77c-.75.1-1.45.18-2.24.24a2,2,0,0,1-.08-.53.76.76,0,0,1,0-.15c1-.05,2.1-.13,3.15-.25a1.54,1.54,0,0,1,.24.54c-.53.5-1,1-1.5,1.42l0,0a1,1,0,0,1,.36-.07c.49,0,.74.31.74.89V11c0,.56.16.68.59.68a5.08,5.08,0,0,0,1.32-.18,1.92,1.92,0,0,1,.09.59v.11a5.77,5.77,0,0,1-1.42.16c-1,0-1.26-.43-1.26-1.24V11c0-.41-.14-.53-.39-.53a1.59,1.59,0,0,0-1,.58c-.41.4-.83.84-1.22,1.26a1.28,1.28,0,0,1-.49-.49l3.06-3ZM438.47,7a2.07,2.07,0,0,1-.12.65,18.75,18.75,0,0,1-2.46-.48,2,2,0,0,1,.2-.63A18.59,18.59,0,0,0,438.47,7Z"/><path class="cls-1" d="M444.3,11.88c1.14-.4,1.7-1.1,1.7-2a1.61,1.61,0,0,0-1.4-1.54,7.4,7.4,0,0,1-1.07,2.42,7.56,7.56,0,0,0,.44.71,1.17,1.17,0,0,1-.56.39l-.36-.6a1.6,1.6,0,0,1-1.2.58,1.06,1.06,0,0,1-1.07-1.16A2.87,2.87,0,0,1,442,8.47,14.13,14.13,0,0,1,441.68,7a1.13,1.13,0,0,1,.56-.14h.07c.06.43.13.85.22,1.26a3.69,3.69,0,0,1,1.56-.37c.07-.35.12-.72.16-1.12h.12a1.28,1.28,0,0,1,.57.13c-.05.36-.11.7-.18,1a2.17,2.17,0,0,1,1.93,2.14,2.68,2.68,0,0,1-2,2.52Zm-2.86-1.21c0,.36.18.54.43.54a1.19,1.19,0,0,0,.88-.49,9.69,9.69,0,0,1-.6-1.61A2.22,2.22,0,0,0,441.44,10.67ZM444,8.35a2.68,2.68,0,0,0-1.27.36,9,9,0,0,0,.53,1.45A6.51,6.51,0,0,0,444,8.35Z"/><path class="cls-1" d="M449.28,6.42h.05a1.68,1.68,0,0,1,.62.13,10.62,10.62,0,0,1-.29,1.07l.94-.1a2.34,2.34,0,0,1,0,.39,1.5,1.5,0,0,1,0,.22c-.37.06-.76.1-1.16.14a16.79,16.79,0,0,1-1.32,2.92,1.53,1.53,0,0,1-.61-.34,12.48,12.48,0,0,0,1.22-2.54c-.37,0-.73,0-1.09,0a1.79,1.79,0,0,1,0-.34c0-.1,0-.21,0-.31H448l1,0C449.09,7.26,449.19,6.84,449.28,6.42Zm4.09,4.9a1.28,1.28,0,0,1-.38.58,5.34,5.34,0,0,0-1.23-.76c0,.1,0,.19,0,.26,0,.75-.51,1.1-1.33,1.1s-1.32-.39-1.32-1,.53-1.11,1.48-1.11a3.25,3.25,0,0,1,.44,0A16.47,16.47,0,0,1,451,8.66l.33,0a1.76,1.76,0,0,1,.33,0,16.71,16.71,0,0,0,.09,1.85A5.25,5.25,0,0,1,453.37,11.32Zm-2.75-.38c-.63,0-.87.27-.87.53s.23.42.68.42.7-.21.7-.6c0-.08,0-.18,0-.29A2.34,2.34,0,0,0,450.62,10.94Zm2.83-2.63a1.58,1.58,0,0,1-.38.57,5.76,5.76,0,0,0-1.58-1,2,2,0,0,1,.32-.53A6.44,6.44,0,0,1,453.45,8.31Z"/><path class="cls-1" d="M455.64,8.53a8.21,8.21,0,0,1-1.16.65,1.83,1.83,0,0,0-.35-.58A6,6,0,0,0,457,6.4h.68a6.37,6.37,0,0,0,3,2.17,2.45,2.45,0,0,0-.34.63,7.7,7.7,0,0,1-1.23-.67v.55a4.43,4.43,0,0,0-.6,0H456.2a4.39,4.39,0,0,0-.56,0Zm-.4,1.8a7,7,0,0,0-.8,0V9.69a5.45,5.45,0,0,0,.8.05h4.25a5.11,5.11,0,0,0,.79-.05v.68a7.27,7.27,0,0,0-.79,0h-2.41a8.76,8.76,0,0,1-.77,1.46l.82-.06c.73-.06.89-.07,1.56-.16-.26-.29-.45-.49-.74-.78l.52-.28a15.17,15.17,0,0,1,1.61,1.82l-.54.38c-.2-.3-.31-.46-.44-.63-1,.13-1.79.21-3.46.35a8.51,8.51,0,0,0-1,.11l-.09-.71.37,0,.65,0a7.68,7.68,0,0,0,.79-1.49Zm3.22-1.87H459A6.32,6.32,0,0,1,457.34,7a6.74,6.74,0,0,1-1.58,1.49h2.7Z"/><path class="cls-1" d="M461.26,7.52a2.73,2.73,0,0,0,.56,0h1.35a3.54,3.54,0,0,0,.55,0v.58a3,3,0,0,0-.51,0h-1.39a4,4,0,0,0-.56,0Zm.23-.94a2.87,2.87,0,0,0,.55,0h1a2.87,2.87,0,0,0,.55,0v.58a3.82,3.82,0,0,0-.55,0h-1a4.11,4.11,0,0,0-.55,0Zm0,1.92a2.91,2.91,0,0,0,.47,0h1.15a2.64,2.64,0,0,0,.45,0v.56a2.9,2.9,0,0,0-.45,0H462a3.25,3.25,0,0,0-.47,0Zm0,1c.13,0,.22,0,.47,0h1.14a4.48,4.48,0,0,0,.46,0V10l-.47,0H462l-.47,0Zm.61,3.18h-.59a5.43,5.43,0,0,0,0-.65V11a3,3,0,0,0,0-.55,4,4,0,0,0,.54,0h1a3.93,3.93,0,0,0,.48,0,3.63,3.63,0,0,0,0,.51V12a4.44,4.44,0,0,0,0,.54H463V12.3h-.9Zm0-.84h.9v-.86h-.9Zm3.11-4.41c-.47.08-.56.09-1.27.16a2.18,2.18,0,0,0-.22-.56,9,9,0,0,0,3.17-.65l.37.55-.13,0L467,7c-.39.11-.84.23-1.14.29V8.38h.81a4.69,4.69,0,0,0,.75,0V9a5,5,0,0,0-.75,0h-.81v1h.79a3.45,3.45,0,0,0,.52,0,3.11,3.11,0,0,0,0,.6v1.39a6.37,6.37,0,0,0,0,.71h-.65v-.33h-1.87v.33H464a5.51,5.51,0,0,0,0-.69V10.48c0-.26,0-.4,0-.56a3.73,3.73,0,0,0,.5,0h.73v-1h-.66a5.32,5.32,0,0,0-.77,0V8.34a5.15,5.15,0,0,0,.77,0h.66Zm-.6,4.36h1.87V10.49h-1.87Z"/><path class="cls-1" d="M441.61,24.8a.23.23,0,0,0,.17.07.22.22,0,0,0,.13,0l1.09-.67a3.92,3.92,0,0,0,1.67.37c1.81,0,3.28-1.19,3.28-2.66s-1.47-2.67-3.28-2.67-3.28,1.2-3.28,2.67a2.37,2.37,0,0,0,.7,1.64l-.53,1A.24.24,0,0,0,441.61,24.8Zm0-2.93c0-1.31,1.36-2.37,3-2.37s3,1.06,3,2.37-1.36,2.36-3,2.36a3.66,3.66,0,0,1-1.71-.41.27.27,0,0,0-.12,0,.28.28,0,0,0-.15,0l-.46.29.2-.38a.26.26,0,0,0-.06-.33A2.08,2.08,0,0,1,441.63,21.87Z"/><path class="cls-1" d="M443.28,22.29A.34.34,0,1,0,443,22,.33.33,0,0,0,443.28,22.29Z"/><path class="cls-1" d="M444.7,22.29a.34.34,0,0,0,0-.67.34.34,0,0,0,0,.67Z"/><path class="cls-1" d="M446.11,22.29a.34.34,0,1,0-.33-.33A.34.34,0,0,0,446.11,22.29Z"/><path class="cls-1" d="M448.88,24.7c-1.75,0-3.18,1.15-3.18,2.57s1.43,2.57,3.18,2.57a3.77,3.77,0,0,0,1.68-.39l1.14.71.08,0a.21.21,0,0,0,.1,0,.16.16,0,0,0,0-.18l-.57-1.06a2.29,2.29,0,0,0,.73-1.63C452.07,25.85,450.64,24.7,448.88,24.7Zm-1.44,3a.33.33,0,1,1,.33-.33A.33.33,0,0,1,447.44,27.69Zm1.42,0a.33.33,0,0,1,0-.66.33.33,0,1,1,0,.66Zm1.42,0a.33.33,0,1,1,.33-.33A.34.34,0,0,1,450.28,27.69Z"/><path class="cls-11" d="M437.59,32.6l1.32,1.14,1.08.94.38-.43,2-2.37a1.44,1.44,0,0,1,2.08-.1,1.49,1.49,0,0,1,0,2l-2.61,3-.51.59a1.32,1.32,0,0,1-1.85.13l-3.77-3.26"/><path class="cls-12" d="M438.69,35.23a3.71,3.71,0,0,0-7.41,0l.06,9h7Z"/><path class="cls-11" d="M434.12,35.67v4.21l0,4a1.44,1.44,0,0,1-1.51,1.43,1.5,1.5,0,0,1-1.35-1.51V35.67"/><path class="cls-1" d="M436.15,22.92a4.15,4.15,0,1,0,4.15,4.15A4.15,4.15,0,0,0,436.15,22.92Z"/><path class="cls-13" d="M436.15,22.92a4.15,4.15,0,1,0,4.15,4.15A4.15,4.15,0,0,0,436.15,22.92Z"/><path class="cls-14" d="M440.42,27.3A4.17,4.17,0,0,1,437,31.25l-2.26-1.06s.34-.26.57-1.45,0-1.44,0-1.44A13.41,13.41,0,0,0,440.42,27.3Z"/><path class="cls-2" d="M440.42,27.3A4.17,4.17,0,0,1,437,31.25l-2.26-1.06s.34-.26.57-1.45,0-1.44,0-1.44A13.41,13.41,0,0,0,440.42,27.3Z"/><path class="cls-15" d="M440.42,27.3A4.17,4.17,0,0,1,437,31.25l-2.26-1.06s.34-.26.57-1.45,0-1.44,0-1.44A13.41,13.41,0,0,0,440.42,27.3Z"/><path class="cls-15" d="M434.77,30.19l-1.27-2c-.69-1.08-.56-1.72.29-1.44l1.55.51"/><path class="cls-11" d="M456.78,33.77l-.13,1.73-.1,1.43-.58,0-3.1-.26a1.44,1.44,0,0,0-1.54,1.4,1.5,1.5,0,0,0,1.41,1.46l4,.3.77.06a1.32,1.32,0,0,0,1.41-1.21l.37-5"/><path class="cls-12" d="M456,35.42a3.71,3.71,0,0,1,7.41,0l-.05,9h-7Z"/><path class="cls-11" d="M460.53,35.86v4.21l0,4a1.43,1.43,0,0,0,1.5,1.43A1.5,1.5,0,0,0,463.37,44V35.86"/><path class="cls-1" d="M458.5,23.11a4.15,4.15,0,1,0,4.15,4.15A4.15,4.15,0,0,0,458.5,23.11Z"/><path class="cls-13" d="M458.5,23.11a4.15,4.15,0,1,0,4.15,4.15A4.15,4.15,0,0,0,458.5,23.11Z"/><path class="cls-14" d="M454.24,27.49a4.17,4.17,0,0,0,3.38,4l2.27-1.06s-.34-.26-.58-1.45,0-1.44,0-1.44A13.36,13.36,0,0,1,454.24,27.49Z"/><path class="cls-2" d="M454.24,27.49a4.17,4.17,0,0,0,3.38,4l2.27-1.06s-.34-.26-.58-1.45,0-1.44,0-1.44A13.36,13.36,0,0,1,454.24,27.49Z"/><path class="cls-15" d="M454.24,27.49a4.17,4.17,0,0,0,3.38,4l2.27-1.06s-.34-.26-.58-1.45,0-1.44,0-1.44A13.36,13.36,0,0,1,454.24,27.49Z"/><path class="cls-15" d="M459.89,30.38l1.26-2c.7-1.08.57-1.73-.29-1.44l-1.55.51"/></g></g></svg>