<svg xmlns="http://www.w3.org/2000/svg" viewBox="0 0 213.36 192.01"><defs><style>.cls-1{fill:#fff;}</style></defs><g id="Layer_2" data-name="Layer 2"><g id="Layer_1-2" data-name="Layer 1"><g id="Layer_2-2" data-name="Layer 2"><g id="レイヤー_1" data-name="レイヤー 1"><rect class="cls-1" x="86" y="60.9" width="6.8" height="38.14"/><path class="cls-1" d="M39.78,41A13.14,13.14,0,0,0,52.92,27.86V14.17a13.15,13.15,0,0,0-26.29,0V27.82A13.14,13.14,0,0,0,39.73,41ZM32.87,14.17a6.91,6.91,0,0,1,13.81,0V27.82a6.91,6.91,0,1,1-13.81.53,4.69,4.69,0,0,1,0-.53Z"/><path class="cls-1" d="M71.57,40.66A13.14,13.14,0,0,0,84.71,27.52V1.91H78.47V27.52a6.91,6.91,0,0,1-13.81.53,4.69,4.69,0,0,1,0-.53V1.91H58.43V27.52A13.14,13.14,0,0,0,71.57,40.66Z"/><path class="cls-1" d="M62.77,79.13l3.9,2.53,4.88,3.17a4.91,4.91,0,0,1-5,8.44l-.73-.45-4.48-2.91L58,95l4.42,2.87s.91.58,1.15.7A11,11,0,0,0,74.84,79.76L70,76.59l-3.91-2.53a4.38,4.38,0,0,1,4.5-7.52l.73.46,3.45,2.24L78,64.17l-3.52-2.28-1-.64A10.42,10.42,0,0,0,62.77,79.13Z"/><polygon class="cls-1" points="0.58 158.01 6.73 158.01 6.73 145.07 19.72 145.07 19.72 138.94 6.73 138.94 6.73 125.99 22.36 125.99 22.36 119.87 0.58 119.87 0.58 158.01"/><polygon class="cls-1" points="197.29 151.55 197.29 119.87 190.49 119.87 190.49 158.01 192.65 158.01 197.29 158.01 213.36 158.01 213.36 151.55 197.29 151.55"/><rect class="cls-1" x="110.99" y="119.87" width="6.8" height="38.14"/><polygon class="cls-1" points="94.83 158.01 94.83 126.06 105.12 126.06 105.12 119.87 94.83 119.87 88.03 119.87 77.75 119.87 77.75 126.06 88.03 126.06 88.03 158.01 94.83 158.01"/><polygon class="cls-1" points="53 67.08 53 60.9 33.22 60.9 33.22 99.03 53 99.03 53 92.87 39.37 92.87 39.37 86.14 51.6 86.14 51.6 79.97 39.37 79.97 39.37 67.08 53 67.08"/><path class="cls-1" d="M11.38,61c-.59-.06-2.83-.08-2.83-.08h-8V99h10C20.53,98.5,27,90.17,27,80,27,70.05,20.88,61.9,11.38,61ZM10.32,92.86H6.73V67h3.62c6.65.5,10.47,6.12,10.47,13S17,92.47,10.32,92.86Z"/><path class="cls-1" d="M125.9,86.74V80H113.06v6.1h6.68v.64a6.8,6.8,0,0,1-13.59,0V73.25A6.79,6.79,0,1,1,119.73,73h0v1.37h6.16V73a13,13,0,0,0-25.9.28V86.74a13,13,0,0,0,25.91,0Z"/><polygon class="cls-1" points="47.92 126.06 47.92 119.87 28.14 119.87 28.14 158.01 47.92 158.01 47.92 151.85 34.29 151.85 34.29 145.11 46.53 145.11 46.53 138.94 34.29 138.94 34.29 126.06 47.92 126.06"/><polygon class="cls-1" points="148.76 119.87 139.32 148.91 129.88 119.87 123.15 119.87 135.81 158.01 136.09 158.01 142.55 158.01 142.83 158.01 155.49 119.87 148.76 119.87"/><path class="cls-1" d="M70.3,138.73l-4.88-3.16L61.51,133a4.38,4.38,0,1,1,4.5-7.52h0l.73.46,3.45,2.24,3.29-5.07L70,120.86l-1-.63a10.42,10.42,0,0,0-10.69,17.88l3.9,2.53L67,143.81a4.91,4.91,0,0,1-5,8.44c-.12-.06-.73-.46-.73-.46l-4.48-2.9L53.5,154l4.42,2.86s.92.59,1.15.71a11,11,0,0,0,11.23-18.8Z"/><path class="cls-1" d="M8.61,34.52l-.74-.46L3.35,31.13,0,36.25l4.5,2.89s.92.59,1.16.71A11.06,11.06,0,0,0,17,20.87l-4.93-3.2-4-2.55a4.43,4.43,0,0,1,4.55-7.59,5.16,5.16,0,0,1,.73.46l3.49,2.26,3.32-5.13L16.6,2.82l-1-.64A10.53,10.53,0,0,0,4.81,20.24L8.75,22.8,13.68,26a5,5,0,0,1-5.07,8.53Z"/><path class="cls-1" d="M158.85,40.06h1.77c10-.51,16.41-8.84,16.41-19,0-9.92-6.08-18.07-15.59-19C160.86,2,158.62,2,158.62,2h-8V40.06h8.23Zm-2-32h3.66c6.62.43,10.42,6,10.42,12.9s-3.83,12.51-10.49,12.9H156.8Z"/><path class="cls-1" d="M106.08,7.76c3.38,0,6.1,8.56,7.73,13.23l.45,1.3C117.62,32,121.09,42,129.77,42s12.12-10,15.48-19.59v-.1c.11-.28.22-.6.32-.91l.13-.38h-8.25c-1.49,4.34-4.28,13.22-7.71,13.22S123.64,25.69,122,21l-.45-1.3C118.24,10,114.76,0,106.08,0S94,10,90.6,19.59v.1c-.11.29-.21.6-.32.92l-.13.38h8.26C99.87,16.64,102.66,7.76,106.08,7.76Z"/><path class="cls-1" d="M133,78.57v.1c-.1.29-.21.6-.31.92l-.13.37h8.25c1.49-4.34,4.28-13.22,7.71-13.22s6.1,8.56,7.72,13.22l.45,1.31c3.36,9.67,6.84,19.68,15.51,19.68s12.13-10,15.49-19.59v-.1c.11-.29.21-.6.32-.92l.13-.38h-8.26c-1.49,4.35-4.28,13.23-7.71,13.23s-6.09-8.56-7.72-13.23l-.45-1.3C160.67,69,157.2,59,148.52,59S136.4,68.94,133,78.57Z"/><path class="cls-1" d="M176.41,151.26l2.25,6.75h6.73l-12.95-38.14h-7l-13,38.14h6.74l2.24-6.75Zm-7.48-22.47,5.44,16.35H163.5Z"/><path class="cls-1" d="M.21,171.35H3.45v3H.21Zm.05,5.57H3.42v14.9H.26Z"/><path class="cls-1" d="M14.33,191.82v-9c0-2-1.1-2.71-2.09-2.71s-2.12.68-2.12,2.71v9H7v-14.9h3v1.38a4.08,4.08,0,0,1,3.17-1.55,3.79,3.79,0,0,1,3,1.32,6,6,0,0,1,1.29,4.23v9.52Z"/><polygon class="cls-1" points="36.05 191.82 36.05 183.3 30.18 183.3 30.18 191.82 26.8 191.82 26.8 171.46 30.18 171.46 30.18 179.78 36.05 179.78 36.05 171.46 39.43 171.46 39.43 191.82 36.05 191.82"/><path class="cls-1" d="M49.73,191.82v-1.29A3.59,3.59,0,0,1,46.62,192a4,4,0,0,1-3.24-1.32,5.28,5.28,0,0,1-1.05-3.34A4,4,0,0,1,46,183a4.09,4.09,0,0,1,.7,0h3v-.74c0-1.63-.68-2.34-2.36-2.34a2.58,2.58,0,0,0-2.44,1.22l-2-2.31a5,5,0,0,1,4.58-2.06c3.55,0,5.4,1.77,5.4,5.26v9.81Zm-.07-6.29H47.15a1.58,1.58,0,0,0-1.77,1.36,1.71,1.71,0,0,0,0,.32,1.61,1.61,0,0,0,1.48,1.73,1.37,1.37,0,0,0,.35,0,2.31,2.31,0,0,0,2-.71,2.76,2.76,0,0,0,.46-1.89Z"/><path class="cls-1" d="M71,191.82v-9c0-2-1.1-2.71-2.09-2.71s-2.12.68-2.12,2.63v9.09H63.61v-9c0-2-1.09-2.71-2.09-2.71s-2.12.68-2.12,2.71v9H56.23v-14.9h3.1v1.38a4.08,4.08,0,0,1,3.16-1.55,3.76,3.76,0,0,1,3.36,1.89,4.53,4.53,0,0,1,3.8-1.89,4.1,4.1,0,0,1,3.12,1.32,6.19,6.19,0,0,1,1.38,4.23v9.52Z"/><path class="cls-1" d="M84.06,191.82v-1.29A3.58,3.58,0,0,1,81,192a4,4,0,0,1-3.24-1.32,5.27,5.27,0,0,1-1-3.34A4,4,0,0,1,81,183h3v-.74c0-1.63-.68-2.34-2.36-2.34a2.58,2.58,0,0,0-2.44,1.22l-2-2.31a5,5,0,0,1,4.58-2.06c3.56,0,5.41,1.77,5.41,5.26v9.81ZM84,185.53H81.48a1.57,1.57,0,0,0-1.76,1.35,1.22,1.22,0,0,0,0,.33,1.6,1.6,0,0,0,1.46,1.73,1.45,1.45,0,0,0,.36,0,2.31,2.31,0,0,0,2-.71,2.76,2.76,0,0,0,.46-1.89Z"/><path class="cls-1" d="M105.32,191.82v-9c0-2-1.1-2.71-2.09-2.71s-2.12.68-2.12,2.63v9.09H97.94v-9c0-2-1.09-2.71-2.09-2.71s-2.12.68-2.12,2.71v9H90.57v-14.9h3.09v1.38a4.08,4.08,0,0,1,3.16-1.55,3.76,3.76,0,0,1,3.36,1.89,4.53,4.53,0,0,1,3.8-1.89,4.1,4.1,0,0,1,3.12,1.32,6.19,6.19,0,0,1,1.38,4.23v9.52Z"/><path class="cls-1" d="M118.4,191.82v-1.29a3.62,3.62,0,0,1-3.12,1.43,4,4,0,0,1-3.24-1.32,5.27,5.27,0,0,1-1-3.34,4,4,0,0,1,4.34-4.32h3v-.74c0-1.63-.68-2.34-2.36-2.34a2.56,2.56,0,0,0-2.43,1.22l-2-2.31a5,5,0,0,1,4.58-2.06c3.56,0,5.41,1.77,5.41,5.26v9.81Zm-.08-6.29h-2.51a1.57,1.57,0,0,0-1.76,1.35,1.22,1.22,0,0,0,0,.33,1.6,1.6,0,0,0,1.46,1.73,1.45,1.45,0,0,0,.36,0,2.31,2.31,0,0,0,2-.71,2.76,2.76,0,0,0,.46-1.89Z"/><path class="cls-1" d="M128.87,191.82c-2.59,0-3.68-2.15-3.68-4.26v-7.38h-1.34v-2.83h1.34V173h3.16v4.4h2.24v2.83h-2.24v7.15c0,.86.34,1.34,1.1,1.34h1.14v3.15Z"/><path class="cls-1" d="M137.63,192c-2,0-3.8-.26-5.41-2.15l2.08-2.43a4.18,4.18,0,0,0,3.38,1.4c1.1,0,2.24-.42,2.24-1.54,0-.74-.34-1.26-1.34-1.37l-2-.23c-2.28-.26-3.7-1.43-3.7-4.17a4.62,4.62,0,0,1,4.48-4.76h.42a6.09,6.09,0,0,1,4.84,1.75l-1.94,2.31a4,4,0,0,0-3-1c-1.27,0-1.8.69-1.8,1.43,0,.54.19,1.17,1.31,1.29l2,.22c2.51.29,3.77,1.86,3.77,4.38,0,3.29-2.38,4.86-5.38,4.86"/><path class="cls-1" d="M153,191.82v-1.37a4.1,4.1,0,0,1-3.16,1.54,3.82,3.82,0,0,1-3-1.32,6.14,6.14,0,0,1-1.29-4.23v-9.52h3.16v9c0,2,1.1,2.71,2.1,2.71s2.12-.68,2.12-2.71v-9h3.16v14.9Z"/><path class="cls-1" d="M164.93,191.82v-3.35l6.47-8.83a3.82,3.82,0,0,0,.9-2.46c0-1.51-.75-2.54-2.09-2.54-1.05,0-2.12.63-2.12,2.6h-3.16c0-3.72,2.31-6,5.28-6s5.26,2.26,5.26,5.92c0,2-.66,3-1.85,4.66l-4.85,6.6h6.7v3.35Z"/><path class="cls-1" d="M183.33,192c-2.82,0-5.28-2.17-5.28-6.06v-8.58c0-3.88,2.46-6.06,5.28-6.06s5.26,2.18,5.26,6.06v8.58c0,3.89-2.43,6.06-5.26,6.06m2.1-14.58c0-1.72-.85-2.77-2.1-2.77s-2.12,1-2.12,2.77v8.49c0,1.71.88,2.74,2.12,2.74s2.1-1,2.1-2.74Z"/><path class="cls-1" d="M191.37,191.82v-3.35l6.48-8.83a3.82,3.82,0,0,0,.9-2.46c0-1.51-.76-2.54-2.1-2.54-1.05,0-2.12.63-2.12,2.6h-3.16c0-3.72,2.31-6,5.28-6s5.26,2.26,5.26,5.92c0,2-.66,3-1.85,4.66l-4.84,6.6h6.69v3.35Z"/><polygon class="cls-1" points="209.19 191.82 209.19 175.47 205.66 179.07 205.66 175.07 209.19 171.46 212.36 171.46 212.36 191.82 209.19 191.82"/></g></g></g></g></svg>