<svg xmlns="http://www.w3.org/2000/svg" viewBox="0 0 437.12 61.28"><defs><style>.cls-1{fill:#fff;}.cls-2{fill:#2b90bf;}.cls-3{fill:#58a946;}</style></defs><g id="レイヤー_2" data-name="レイヤー 2"><g id="レイヤー"><polygon class="cls-1" points="289.62 6.93 300.74 6.92 300.74 1.86 284.54 1.88 284.57 29.73 289.66 29.72 289.64 18.45 298.88 18.43 298.87 13.37 289.63 13.38 289.62 6.93"/><polygon class="cls-1" points="340.07 6.91 347.39 6.9 347.43 29.64 352.97 29.63 352.94 6.89 360.26 6.88 360.25 1.77 340.07 1.8 340.07 6.91"/><path class="cls-1" d="M28.74,1.62a9.7,9.7,0,0,0-9.69,9.72v9.71a9.71,9.71,0,0,0,19.41,0V11.31A9.72,9.72,0,0,0,28.74,1.62Zm-4.55,9.71a4.56,4.56,0,1,1,9.12,0l0,9.71a4.57,4.57,0,1,1-9.13,0Z"/><path class="cls-1" d="M56,20.78a4.56,4.56,0,0,1-9.12,0l0-18.59H41.66l0,18.58a9.71,9.71,0,1,0,19.42,0l0-18.59H55.93Z"/><path class="cls-1" d="M12.74,15.81,6.42,11.73a2.79,2.79,0,0,1-.83-3.87,2.81,2.81,0,0,1,3.69-.93l.5.32L12.56,9,15.3,4.8,12.47,3l-.76-.47A7.85,7.85,0,0,0,3.68,16L10,20.06a3.12,3.12,0,0,1,1.38,2,3.18,3.18,0,0,1-4.62,3.47l-.5-.31L2.74,22.94,0,27.18l3.48,2.24s.67.43.84.52a8.23,8.23,0,0,0,10.86-2.75h0A8.17,8.17,0,0,0,16.32,21,8.27,8.27,0,0,0,12.74,15.81Z"/><path class="cls-1" d="M115.36,2.18h0c-.43,0-2-.05-2-.05h-6l0,27.85h6.19s1,0,1.28,0c7-.36,12-6.22,12-13.92C126.78,8.52,122.08,2.82,115.36,2.18ZM121.71,16c0,5-2.86,8.58-7.12,8.84h-2.18l0-17.69h2.23C118.85,7.49,121.7,11,121.71,16Z"/><rect class="cls-1" x="199.76" y="2" width="5.55" height="27.85" transform="translate(-0.02 0.29) rotate(-0.08)"/><rect class="cls-1" x="364.66" y="2" width="5.55" height="27.85" transform="translate(-0.02 0.53) rotate(-0.08)"/><path class="cls-1" d="M192.36,15.49l-6.26-4a2.77,2.77,0,0,1-.82-3.83,2.78,2.78,0,0,1,3.65-.92l.5.31,2.75,1.78,2.72-4.2-2.81-1.82-.75-.46A7.78,7.78,0,0,0,180,10.76a7.72,7.72,0,0,0,3.38,4.89l6.26,4a3.09,3.09,0,0,1,1.37,2,3.16,3.16,0,0,1-4.57,3.44l-.5-.31-3.48-2.26-2.72,4.21L183.19,29l.83.52a8.15,8.15,0,0,0,8.34-14Z"/><polygon class="cls-1" points="162.21 29.9 177 29.88 176.99 24.79 167.29 24.8 167.28 18.65 175.99 18.64 175.98 13.54 167.27 13.56 167.26 7.15 176.97 7.14 176.96 2.04 162.17 2.06 162.21 29.9"/><path class="cls-1" d="M335.09,15.52l-6.25-4a2.77,2.77,0,0,1,2.83-4.75l.5.31,2.75,1.79,2.72-4.21-2.81-1.81-.76-.47a7.79,7.79,0,0,0-10.26,2.6,7.68,7.68,0,0,0-1.07,5.85,7.77,7.77,0,0,0,3.38,4.9l6.26,4a3.15,3.15,0,0,1,.93,4.34,3.16,3.16,0,0,1-4.13,1.07l-.5-.31-3.49-2.25-2.71,4.2L325.93,29s.66.42.83.51a8,8,0,0,0,3.9,1,8.14,8.14,0,0,0,4.43-15Z"/><polygon class="cls-1" points="304.95 29.94 319.73 29.91 319.73 24.82 310.02 24.83 310.02 18.68 318.73 18.67 318.72 13.58 310.01 13.59 310 7.18 319.7 7.17 319.69 2.07 304.91 2.09 304.95 29.94"/><path class="cls-1" d="M147,2.14h0c-.43,0-2-.06-2.05-.06h-6l0,27.85h6.19l1.27,0c7-.37,12-6.22,12-13.92C158.44,8.47,153.74,2.78,147,2.14ZM153.37,16c0,5-2.86,8.58-7.13,8.84l-.92,0h-1.26l0-17.69h1.28l1,0C150.51,7.45,153.36,11,153.37,16Z"/><path class="cls-1" d="M219,20.62h4.76v.1a4.49,4.49,0,0,1-9,0V11.13a4.48,4.48,0,0,1,9-.22v1.33h5.09V10.9a9.57,9.57,0,0,0-19.14.23l0,9.6a9.57,9.57,0,0,0,19.14,0V15.53l-9.84,0Z"/><path class="cls-1" d="M424.89,2.32l0,22.53h12.19v4.32l-17.05,0,0-26.85Z"/><path class="cls-1" d="M402.42,1.83l-9.37,27.74h5.51l2.4-7.25h8.45l2.42,7.24h5.52L407.89,1.82Zm0,16.14,2.77-8.36L408,18Z"/><path class="cls-1" d="M391,2.08l-6.6,20L377.77,2.1h-5.52l9.45,27.72h5.48l9.37-27.74H391"/><path class="cls-2" d="M64.32,18a2.57,2.57,0,0,0,.09.29l0,.08c2.52,8.34,5.62,13,11.67,13,6.22,0,9.22-5.92,11.72-14.31,0,0,.32-1.07.33-1.12l.24-.8c1-3.56,3.08-8.49,5.47-8.5s3.81,3.69,4.79,7h6.73l-.09-.28,0-.09C102.74,5,99.73.26,93.45.27S84.31,6.19,81.81,14.59l-.33,1.11-.24.79c-1,3.57-2.9,8.57-5.34,8.57S72.12,21.31,71.14,18Z"/><path class="cls-1" d="M98.65,15.81l-.17.49c-1,2.84-2.61,8.73-5.07,8.74s-4-5.63-5-8.66l-.24-.66s-.32-1-.33-1C85.33,7.64,82.76.29,76.23.3S67.17,7.64,64.7,14.74l0,.06c-.07.19-.13.39-.2.59l-.16.47h6.81l.17-.5c1-3,2.86-8.71,4.94-8.72s4,5.63,5,8.66l.23.67.33.94c2.48,7.12,5,14.48,11.59,14.47S102.53,24,105,16.93l0-.07.23-.67.13-.39Z"/><path class="cls-3" d="M235.86,17.72A2.34,2.34,0,0,0,236,18l0,.08c2.52,8.35,5.62,13,11.67,13,6.22,0,9.22-5.92,11.72-14.32l.33-1.11.24-.8c1.05-3.56,3.08-8.5,5.47-8.5s3.81,3.69,4.79,7h6.73l-.09-.27,0-.09C274.28,4.69,271.27,0,265,0s-9.14,5.92-11.64,14.32L253,15.43l-.24.79c-1.05,3.56-2.9,8.56-5.34,8.57s-3.79-3.75-4.77-7.08Z"/><path class="cls-1" d="M270.19,15.53,270,16c-.95,2.84-2.61,8.73-5.07,8.73s-4-5.62-5-8.65l-.24-.67s-.32-.94-.33-.95C256.87,7.37,254.3,0,247.77,0s-9.06,7.35-11.53,14.45l0,.06c-.07.18-.14.39-.21.59l-.15.47h6.81l.17-.5c1-3.05,2.86-8.72,4.94-8.72s4,5.63,5,8.66l.23.67.33.94c2.48,7.12,5.05,14.48,11.58,14.47s9.12-7.35,11.58-14.44l0-.07.23-.67.13-.4Z"/><path class="cls-1" d="M1.85,45.6V42.9H4.73v2.7Zm0,15.53V47.87H4.71V61.13Z"/><path class="cls-1" d="M14.42,61.13v-8c0-1.81-1-2.42-1.86-2.42s-1.89.61-1.89,2.42v8H7.85V47.87h2.76v1.22a3.61,3.61,0,0,1,2.82-1.38,3.37,3.37,0,0,1,2.66,1.18,5.37,5.37,0,0,1,1.15,3.76v8.48Z"/><path class="cls-1" d="M33.77,61.13V53.54H28.54v7.59h-3V43h3v7.41h5.23V43h3V61.13Z"/><path class="cls-1" d="M46,61.13V60a3.2,3.2,0,0,1-2.78,1.27,3.52,3.52,0,0,1-2.88-1.17,4.7,4.7,0,0,1-.94-3,3.58,3.58,0,0,1,3.86-3.85h2.67V52.6c0-1.45-.61-2.09-2.1-2.09a2.29,2.29,0,0,0-2.17,1.1l-1.8-2.06a4.41,4.41,0,0,1,4.08-1.84c3.16,0,4.81,1.58,4.81,4.69v8.73Zm-.07-5.6H43.66A1.4,1.4,0,0,0,42.08,57a1.43,1.43,0,0,0,1.62,1.53,2,2,0,0,0,1.78-.64,2.45,2.45,0,0,0,.41-1.68Z"/><path class="cls-1" d="M64.89,61.13v-8c0-1.81-1-2.42-1.87-2.42s-1.88.61-1.88,2.35v8.09H58.32v-8c0-1.81-1-2.42-1.87-2.42s-1.88.61-1.88,2.42v8H51.75V47.87H54.5v1.22a3.7,3.7,0,0,1,2.82-1.38,3.34,3.34,0,0,1,3,1.68,4.06,4.06,0,0,1,3.39-1.68,3.62,3.62,0,0,1,2.77,1.18,5.48,5.48,0,0,1,1.24,3.76v8.48Z"/><path class="cls-1" d="M76.53,61.13V60a3.17,3.17,0,0,1-2.77,1.27,3.55,3.55,0,0,1-2.89-1.17,4.75,4.75,0,0,1-.93-3,3.58,3.58,0,0,1,3.86-3.85h2.67V52.6c0-1.45-.61-2.09-2.1-2.09a2.28,2.28,0,0,0-2.17,1.1l-1.8-2.06a4.4,4.4,0,0,1,4.07-1.84c3.17,0,4.82,1.58,4.82,4.69v8.73Zm-.06-5.6H74.24A1.41,1.41,0,0,0,72.65,57a1.43,1.43,0,0,0,1.63,1.53,2,2,0,0,0,1.78-.64,2.45,2.45,0,0,0,.41-1.68Z"/><path class="cls-1" d="M95.47,61.13v-8c0-1.81-1-2.42-1.87-2.42s-1.88.61-1.88,2.35v8.09H88.9v-8c0-1.81-1-2.42-1.87-2.42s-1.89.61-1.89,2.42v8H82.33V47.87h2.75v1.22a3.7,3.7,0,0,1,2.82-1.38,3.34,3.34,0,0,1,3,1.68,4,4,0,0,1,3.38-1.68,3.63,3.63,0,0,1,2.78,1.18,5.48,5.48,0,0,1,1.24,3.76v8.48Z"/><path class="cls-1" d="M107.11,61.13V60a3.18,3.18,0,0,1-2.77,1.27,3.54,3.54,0,0,1-2.89-1.17,4.75,4.75,0,0,1-.93-3,3.58,3.58,0,0,1,3.86-3.85h2.67V52.6c0-1.45-.61-2.09-2.11-2.09a2.28,2.28,0,0,0-2.16,1.1L101,49.55a4.4,4.4,0,0,1,4.07-1.84c3.17,0,4.82,1.58,4.82,4.69v8.73Zm-.06-5.6h-2.24a1.4,1.4,0,0,0-1.58,1.5,1.43,1.43,0,0,0,1.63,1.53,2,2,0,0,0,1.78-.64,2.45,2.45,0,0,0,.41-1.68Z"/><path class="cls-1" d="M116.44,61.13c-2.3,0-3.28-1.91-3.28-3.79V50.77H112V48.25h1.19V44.33H116v3.92h2v2.52h-2v6.36c0,.77.31,1.2,1,1.2h1v2.8Z"/><path class="cls-1" d="M124.24,61.28a5.57,5.57,0,0,1-4.81-1.91l1.84-2.16a3.74,3.74,0,0,0,3,1.25c1,0,2-.38,2-1.38,0-.66-.3-1.12-1.19-1.22l-1.78-.2c-2-.23-3.29-1.28-3.29-3.72a4.11,4.11,0,0,1,4.35-4.23,5.42,5.42,0,0,1,4.32,1.56L127,51.33a3.54,3.54,0,0,0-2.63-.89c-1.13,0-1.6.61-1.6,1.27,0,.49.17,1,1.17,1.15l1.78.2A3.52,3.52,0,0,1,129,57C129,59.88,126.91,61.28,124.24,61.28Z"/><path class="cls-1" d="M137.91,61.13V59.91a3.59,3.59,0,0,1-2.82,1.37,3.38,3.38,0,0,1-2.67-1.17,5.43,5.43,0,0,1-1.15-3.76V47.87h2.82v8c0,1.8,1,2.42,1.87,2.42s1.88-.62,1.88-2.42v-8h2.82V61.13Z"/><path class="cls-1" d="M148.55,61.13v-3l5.77-7.86a3.39,3.39,0,0,0,.81-2.19c0-1.35-.68-2.27-1.87-2.27-.93,0-1.89.56-1.89,2.32h-2.82c0-3.31,2.07-5.3,4.71-5.3s4.69,2,4.69,5.27a6.25,6.25,0,0,1-1.65,4.15L152,58.15h6v3Z"/><path class="cls-1" d="M165,61.28c-2.52,0-4.71-1.93-4.71-5.39V48.25c0-3.46,2.19-5.4,4.71-5.4s4.68,1.94,4.68,5.4v7.64C169.63,59.35,167.47,61.28,165,61.28Zm1.86-13c0-1.53-.75-2.47-1.86-2.47s-1.89.94-1.89,2.47v7.56c0,1.53.78,2.45,1.89,2.45s1.86-.92,1.86-2.45Z"/><path class="cls-1" d="M172.11,61.13v-3l5.77-7.86a3.43,3.43,0,0,0,.8-2.19c0-1.35-.67-2.27-1.87-2.27-.93,0-1.88.56-1.88,2.32h-2.82c0-3.31,2.06-5.3,4.7-5.3s4.69,2,4.69,5.27a6.25,6.25,0,0,1-1.65,4.15l-4.32,5.88h6v3Z"/><path class="cls-1" d="M188,61.13V46.57l-3.14,3.21V46.21L188,43h2.82V61.13Z"/></g></g></svg>