<svg xmlns="http://www.w3.org/2000/svg" viewBox="0 0 227.71 109.93"><defs><style>.cls-1,.cls-2{fill:none;stroke-miterlimit:10;stroke-width:12px;}.cls-1{stroke:#2ea7e0;}.cls-2{stroke:#231815;}</style></defs><g id="Layer_2" data-name="Layer 2"><g id="レイヤー_1" data-name="レイヤー 1"><path class="cls-1" d="M227.71,42.55h-68c-9.91,0-11.53-5.65-12.55-8.34-3.72-9.79-8-17.83-15.14-17.83-18.13,0-18.13,52.34-36.25,52.34-7.1,0-11.42-8-15.14-17.82-1-2.7-2.64-8.35-12.55-8.35H0"/><path class="cls-2" d="M227.71,51.93h-68c-9.91,0-11.53,5.65-12.55,8.35-3.72,9.78-8,43.65-16.66,43.65C112.38,103.93,115.76,6,97.64,6c-10.52,0-13.33,27.8-17,37.59-1,2.69-2.64,8.34-12.55,8.34H0"/></g></g></svg>