<svg xmlns="http://www.w3.org/2000/svg" width="35.5" height="8.375" viewBox="0 0 35.5 8.375">
  <defs>
    <style>
      .cls-1 {
        fill: #fff;
        fill-rule: evenodd;
      }
    </style>
  </defs>
  <path id="CLOSE" class="cls-1" d="M1329.44,42.453a2.4,2.4,0,0,1-1.87.876,2.768,2.768,0,0,1-.06-5.533,2.566,2.566,0,0,1,1.93.9V36.872a4,4,0,0,0-1.96-.492,4.089,4.089,0,0,0-2.94,1.056,4.166,4.166,0,0,0-1.29,3.133,3.975,3.975,0,0,0,1.29,3.061,3.929,3.929,0,0,0,2.92,1.116,4.126,4.126,0,0,0,1.98-.468V42.453Zm2.22-5.893v8.005h4.03V43.221h-2.47V36.56h-1.56Zm9.39-.18a4.184,4.184,0,1,0,4.27,4.189A4.06,4.06,0,0,0,1341.05,36.38Zm0,6.949a2.768,2.768,0,1,1,2.67-2.761A2.6,2.6,0,0,1,1341.05,43.329Zm10.94-6.013a3.092,3.092,0,0,0-2.27-.936,2.327,2.327,0,0,0-2.57,2.352,1.845,1.845,0,0,0,.64,1.488,3.859,3.859,0,0,0,1.33.7,3.573,3.573,0,0,1,1.24.588,0.949,0.949,0,0,1,.31.72,1.125,1.125,0,0,1-1.24,1.1,1.887,1.887,0,0,1-1.68-1.068l-1.02.972a3.3,3.3,0,0,0,2.76,1.512,2.579,2.579,0,0,0,2.79-2.629,2.18,2.18,0,0,0-.69-1.68,4.622,4.622,0,0,0-1.62-.8,2.747,2.747,0,0,1-.96-0.456,0.678,0.678,0,0,1-.25-0.54,0.953,0.953,0,0,1,1.1-.936,1.566,1.566,0,0,1,1.31.684Zm6.75-.756h-4.44v8.005h4.44V43.221h-2.88V41.037h2.76V39.693h-2.76V37.9h2.88V36.56Z" transform="translate(-1323.25 -36.375)"/>
</svg>
