<svg xmlns="http://www.w3.org/2000/svg" width="34.59" height="8.188" viewBox="0 0 34.59 8.188">
  <defs>
    <style>
      .cls-1 {
        fill-rule: evenodd;
      }
    </style>
  </defs>
  <path id="MENU" class="cls-1" d="M1323.53,42.565h1.58l0.82-4.933,2.05,4.933h0.53l2.15-4.933,0.72,4.933h1.58l-1.34-8.005h-1.13l-2.22,5.089-2.12-5.089h-1.13Zm15.91-8.005H1335v8.005h4.44V41.221h-2.88V39.037h2.76V37.693h-2.76V35.9h2.88V34.56Zm3.82,8.005V37.212l4.88,5.353h1.08V34.56h-1.56V39.9l-4.88-5.341h-1.08v8.005h1.56Zm8.44-8.005v4.9a3.37,3.37,0,0,0,.6,2.136,3.254,3.254,0,0,0,2.61,1.152,3.288,3.288,0,0,0,2.62-1.152,3.37,3.37,0,0,0,.6-2.136v-4.9h-1.56v5.029a1.739,1.739,0,0,1-.39,1.188,1.584,1.584,0,0,1-1.27.552,1.616,1.616,0,0,1-1.27-.552,1.743,1.743,0,0,1-.38-1.188V34.56h-1.56Z" transform="translate(-1323.53 -34.563)"/>
</svg>
