<svg xmlns="http://www.w3.org/2000/svg" viewBox="0 0 242.91 98.54"><defs><style>.cls-1{fill:#fff;}.cls-2{fill:#202020;}</style></defs><g id="レイヤー_2" data-name="レイヤー 2"><g id="レイヤー_1-2" data-name="レイヤー 1"><path class="cls-1" d="M120.11,73.12h120v-22h-120ZM7.21,84.5a7,7,0,1,0,0,13.94,7,7,0,1,0,0-13.94Zm0,11.58a4.61,4.61,0,0,1,0-9.22,4.61,4.61,0,0,1,0,9.22ZM20.89,84.8H17V98.14h2.6V93.2h1.68A4.57,4.57,0,0,0,24.67,92a4.54,4.54,0,0,0-.26-6.2A4.78,4.78,0,0,0,20.89,84.8Zm1.48,5.74a2.66,2.66,0,0,1-1.7.42H19.61V87h.9a3.13,3.13,0,0,1,1.84.42A1.84,1.84,0,0,1,23.09,89,2,2,0,0,1,22.37,90.54Zm5.51,7.6h7.4V95.9h-4.8V92.26h4.6V90h-4.6V87h4.8V84.8h-7.4ZM48.16,93.7,40,84.8h-1.8V98.14h2.6V89.22L49,98.14h1.8V84.8h-2.6Zm7.15,1.58a1.56,1.56,0,1,0,1.56,1.56A1.54,1.54,0,0,0,55.31,95.28ZM59.38,87H61.3v11.1h2.6V84.8H59.38ZM73,84.5c-2.66,0-5.16,2.38-5.16,7s2.5,7,5.16,7,5.16-2.38,5.16-7S75.63,84.5,73,84.5Zm0,11.7c-1.14,0-2.56-1.26-2.56-4.74s1.44-4.72,2.56-4.72,2.56,1.26,2.56,4.72S74.11,96.2,73,96.2Zm8.75-.9a1.56,1.56,0,1,0,1.56,1.56A1.54,1.54,0,0,0,81.72,95.3Zm0-6.1a1.56,1.56,0,1,0,1.56,1.56A1.54,1.54,0,0,0,81.72,89.2Zm8.74-4.7c-2.66,0-5.16,2.38-5.16,7s2.5,7,5.16,7,5.16-2.38,5.16-7S93.12,84.5,90.46,84.5Zm0,11.7c-1.14,0-2.56-1.26-2.56-4.74s1.44-4.72,2.56-4.72S93,88,93,91.46,91.6,96.2,90.46,96.2Zm12.13-11.7c-2.66,0-5.16,2.38-5.16,7s2.5,7,5.16,7,5.16-2.38,5.16-7S105.25,84.5,102.59,84.5Zm0,11.7c-1.14,0-2.56-1.26-2.56-4.74s1.44-4.72,2.56-4.72,2.56,1.26,2.56,4.72S103.73,96.2,102.59,96.2Zm11.74-1.54h5.2V92.42h-5.2Zm14.28-8.4a7,7,0,0,0-2.14,5.22,6.65,6.65,0,0,0,2.14,5.1,6.58,6.58,0,0,0,4.88,1.86,6.91,6.91,0,0,0,3.3-.78v-3a4,4,0,0,1-3.12,1.46,4.61,4.61,0,0,1-.1-9.22,4.29,4.29,0,0,1,3.22,1.5v-3a6.71,6.71,0,0,0-3.28-.82A6.83,6.83,0,0,0,128.61,86.26Zm13.66-1.46h-2.6V98.14h6.72V95.9h-4.12Zm12.24-.3a7,7,0,1,0,7.12,7A6.77,6.77,0,0,0,154.51,84.5Zm0,11.58a4.61,4.61,0,1,1,4.44-4.6A4.34,4.34,0,0,1,154.51,96.08Zm14.05-6.16a4.55,4.55,0,0,1-1.6-.76,1.12,1.12,0,0,1-.42-.9c0-.68.44-1.56,1.84-1.56a2.61,2.61,0,0,1,2.18,1.14l1.36-1.78a5.13,5.13,0,0,0-3.78-1.56c-3,0-4.28,2-4.28,3.92a3.1,3.1,0,0,0,1.06,2.48,6.42,6.42,0,0,0,2.22,1.16,6,6,0,0,1,2.06,1,1.55,1.55,0,0,1,.52,1.2,1.87,1.87,0,0,1-2.06,1.84,3.13,3.13,0,0,1-2.8-1.78l-1.7,1.62a5.49,5.49,0,0,0,4.6,2.52,4.29,4.29,0,0,0,4.64-4.38,3.63,3.63,0,0,0-1.14-2.8A7.76,7.76,0,0,0,168.56,89.92Zm6.4,8.22h7.4V95.9h-4.8V92.26h4.6V90h-4.6V87h4.8V84.8H175Zm11.67-2.86a1.56,1.56,0,1,0,1.56,1.56A1.54,1.54,0,0,0,186.63,95.28ZM190.69,87h1.92v11.1h2.6V84.8h-4.52Zm8.4,0h6.2l-6.14,10.52,2.2,1,8-13.74H199.09ZM211,89.2a1.56,1.56,0,1,0,1.56,1.56A1.54,1.54,0,0,0,211,89.2Zm0,6.1a1.56,1.56,0,1,0,1.56,1.56A1.54,1.54,0,0,0,211,95.3Zm8.74-10.8c-2.66,0-5.16,2.38-5.16,7s2.5,7,5.16,7,5.16-2.38,5.16-7S222.42,84.5,219.76,84.5Zm0,11.7c-1.14,0-2.56-1.26-2.56-4.74s1.44-4.72,2.56-4.72,2.56,1.26,2.56,4.72S220.9,96.2,219.76,96.2Zm12.13-11.7c-2.66,0-5.16,2.38-5.16,7s2.5,7,5.16,7,5.16-2.38,5.16-7S234.55,84.5,231.89,84.5Zm0,11.7c-1.14,0-2.56-1.26-2.56-4.74s1.44-4.72,2.56-4.72,2.56,1.26,2.56,4.72S233,96.2,231.89,96.2ZM8.63,20.2,0,30H21.3V25.08H10.69l5.06-5.5c2.29-2.46,5.33-5.72,5.33-10.25S17.56,0,10.74,0C4.93,0,.7,3.83.44,9.81h5.9C6.43,7.31,8,4.93,11,4.93a4.25,4.25,0,0,1,4.36,4.44,9.23,9.23,0,0,1-1.72,4.71C12.59,15.67,9.15,19.58,8.63,20.2Zm27.9,10.47c5.85,0,11.35-5.23,11.35-15.31S42.38,0,36.53,0,25.17,5.24,25.17,15.31,30.67,30.67,36.53,30.67Zm0-25.74c2.46,0,5.63,2.77,5.63,10.38S39,25.74,36.53,25.74,30.89,23,30.89,15.31,34.06,4.93,36.53,4.93ZM58.63,20.2,50,30h21.3V25.08H60.7l5.06-5.5c2.29-2.46,5.33-5.72,5.33-10.25S67.56,0,60.74,0c-5.81,0-10,3.83-10.29,9.81h5.89C56.43,7.31,58,4.93,61,4.93a4.25,4.25,0,0,1,4.35,4.44,9.23,9.23,0,0,1-1.71,4.71C62.59,15.67,59.16,19.58,58.63,20.2ZM81,30h5.72V.66H76.82V5.59H81Zm17.89.57a3.43,3.43,0,1,0-3.44-3.43A3.38,3.38,0,0,0,98.93,30.58ZM111.34,30h5.72V.66h-10V5.59h4.23Zm21.08-9.81L123.8,30h21.3V25.08H134.49l5.06-5.5c2.29-2.46,5.33-5.72,5.33-10.25S141.36,0,134.54,0c-5.81,0-10,3.83-10.3,9.81h5.9c.08-2.5,1.67-4.88,4.66-4.88a4.26,4.26,0,0,1,4.36,4.44,9.23,9.23,0,0,1-1.72,4.71C136.38,15.67,133,19.58,132.42,20.2Zm21.76,10.38a3.43,3.43,0,1,0-3.43-3.43A3.37,3.37,0,0,0,154.18,30.58ZM166.59,30h5.73V.66h-9.95V5.59h4.22Zm19.34,0h5.72V.66h-9.94V5.59h4.22Zm19.6-2.88a4.37,4.37,0,0,1-3.92-2.49l-2.38,2.27a7.69,7.69,0,0,0,6.44,3.52c3.86,0,6.49-2.49,6.49-6.13a5.09,5.09,0,0,0-1.59-3.92,10.79,10.79,0,0,0-3.78-1.87,6.33,6.33,0,0,1-2.24-1.07,1.56,1.56,0,0,1-.59-1.26c0-.95.62-2.18,2.58-2.18a3.65,3.65,0,0,1,3.05,1.59l1.9-2.49a7.16,7.16,0,0,0-5.29-2.18c-4.14,0-6,2.74-6,5.49a4.36,4.36,0,0,0,1.48,3.47,8.86,8.86,0,0,0,3.11,1.62,8.56,8.56,0,0,1,2.88,1.37,2.16,2.16,0,0,1,.73,1.68A2.62,2.62,0,0,1,205.53,27.13Zm13.12-1h7.53L227.83,30h3.92l-7.81-18.67h-2.86l-8,18.67H217Zm3.81-9.68,2.66,6.72H219.8Zm8.41-5.07v3.13h4.2V30h3.64V14.47h4.2V11.34Zm-218,53V59.43H1.41v4.93Zm4.8-16.77h4.22V72h5.72V42.66H17.65ZM43,62.2,34.33,72h21.3V67.08H45l5.06-5.5c2.29-2.46,5.32-5.72,5.32-10.25S51.89,42,45.07,42c-5.81,0-10,3.83-10.3,9.81h5.9c.09-2.5,1.67-4.88,4.66-4.88a4.25,4.25,0,0,1,4.36,4.44A9.23,9.23,0,0,1,48,56.08C46.92,57.67,43.49,61.58,43,62.2Zm29.4,4.1a5.09,5.09,0,0,0-1.6-3.92A10.7,10.7,0,0,0,67,60.51a6.43,6.43,0,0,1-2.24-1.07,1.56,1.56,0,0,1-.59-1.26c0-1,.62-2.18,2.58-2.18a3.65,3.65,0,0,1,3,1.59l1.91-2.49a7.19,7.19,0,0,0-5.3-2.18c-4.14,0-6,2.74-6,5.49a4.33,4.33,0,0,0,1.49,3.47A8.82,8.82,0,0,0,65,63.5a8.53,8.53,0,0,1,2.89,1.37,2.19,2.19,0,0,1,.73,1.68,2.63,2.63,0,0,1-2.89,2.58,4.39,4.39,0,0,1-3.92-2.49l-2.38,2.27a7.71,7.71,0,0,0,6.44,3.52C69.73,72.43,72.36,69.94,72.36,66.3Zm10.58,6.13A7.6,7.6,0,0,0,89,69.74a7.82,7.82,0,0,0,1.4-5V53.34H86.8V65.07a4,4,0,0,1-.89,2.77,4.06,4.06,0,0,1-5.94,0,4,4,0,0,1-.89-2.77V53.34H75.44V64.76a7.82,7.82,0,0,0,1.4,5A7.6,7.6,0,0,0,82.94,72.43Zm25.71-6.63L97.28,53.34H94.76V72H98.4V59.53L109.77,72h2.52V53.34h-3.64Z"/><path class="cls-2" d="M134,55.61h-6.37v12h2.34V62.33h3.78v-2h-3.78V57.63h4Z"/><path class="cls-2" d="M136,55.61v12h2.34V62.8h.29l3.21,4.82h2.91L141,62.56a3.22,3.22,0,0,0,1.31-.52,3.28,3.28,0,0,0,1.41-2.83,3.41,3.41,0,0,0-1.19-2.7,4.4,4.4,0,0,0-3.06-.9Zm2.34,1.91H139c.43,0,2.27,0,2.27,1.8s-1.86,1.82-2.31,1.82h-.67Z"/><path class="cls-2" d="M152.91,55.61h-6.67v12h6.67v-2h-4.33V62.33h4.15v-2h-4.15V57.63h4.33Z"/><path class="cls-2" d="M162,55.61h-6.66v12H162v-2h-4.32V62.33h4.14v-2h-4.14V57.63H162Z"/></g></g></svg>