<svg xmlns="http://www.w3.org/2000/svg" viewBox="0 0 501 336.97"><defs><style>.cls-1{fill:#0d0d0d;}</style></defs><g id="レイヤー_2" data-name="レイヤー 2"><g id="レイヤー_1-2" data-name="レイヤー 1"><path class="cls-1" d="M23.53,124l1.91-2.8c.74-1,1.63-2.25,2.36-3.3a22.55,22.55,0,0,0-5.06-3.3c-.51.8-1.81,2.73-2.32,3.53l-1.68,2.46c-2.34-1.64-4.65-3.31-6.44-4.57-1.1,1.35-3.15,4.06-4.22,5.58,1.31.72,2.83,1.73,3.59,2.22s2.05,1.34,3.34,2.24L10.22,133c-2.85-2-5.26-3.75-6.11-4.34C3,129.93,1,132.59,0,134c1.09.61,2.46,1.47,3.6,2.22l3,2-2.21,3.15c-.88,1.11-1.62,2.16-2.4,3.13a28.82,28.82,0,0,0,5.34,3.14c.6-.94,1.47-2.26,2.23-3.34l1.88-2.68c1.49,1.05,2.95,2.07,4,2.87s2.87,2.17,3.32,2.53a31.74,31.74,0,0,0,3.78-5.38L15,136.41l4.81-7c6.44,4.58,8.41,8.33,7.6,14.24a20.81,20.81,0,0,1-1.77,5.48,21.1,21.1,0,0,0,7.79-1.3C35.89,136.61,32.39,130.36,23.53,124Zm27-38.89a18.91,18.91,0,0,0-4.93.9,20.58,20.58,0,0,1-2.23,2.68c-.63.72-2.09,2.24-3.87,4.1-1.67-1.61-3.34-3.27-4.54-4.54a32.81,32.81,0,0,0-5.22,5c.92.72,3,2.46,4,3.44l1.08,1-5.47,5.71c-1.18,1.22-2.21,2.24-3.33,3.29a36.57,36.57,0,0,1,3.13,2.72c1.31,1.2,4,3.75,5.26,5,.92.94,1.31,1.37,2.12,2.32a50.23,50.23,0,0,0,4.64-5c-1.16-1-1.7-1.51-2.33-2.11l-3.67-3.53C38,103,44.79,95.78,47.54,92.91c2.37,2.73,4.65,6.7,5.07,10.32.8,5.82-1.14,10.9-5.26,16.87a20.59,20.59,0,0,0,8,.13c3.39-6,5.39-14.06,3.09-21.84C56.79,92.89,52.94,88,50.51,85.14Zm28.1-23.86c1.82,7.87,1.89,15-1.45,22.89a38.59,38.59,0,0,1-7.52,11.3,19.13,19.13,0,0,0,7.64,2.61,57,57,0,0,0,6.44-11.41A43.88,43.88,0,0,0,86.2,62.61,19.81,19.81,0,0,0,78.61,61.28ZM55.19,72.21a69.94,69.94,0,0,0,.85,7.1,67.49,67.49,0,0,1,13-1.59,26.05,26.05,0,0,0-.87-7.46A69,69,0,0,0,55.19,72.21Zm45.38-20.28c-2.52-4.28-4.72-8.08-5.45-9.57a56.6,56.6,0,0,0-6.62,3.53A52.57,52.57,0,0,1,91.92,51C94,54.43,101.86,68,104,71.81c.87,1.55,2,3.81,2.59,5a43.79,43.79,0,0,0,6.74-3.73c-1.1-1.62-2.45-3.75-3.06-4.78-1-1.64-3.45-5.76-6.12-10.29A87.94,87.94,0,0,1,117,56.52a23.3,23.3,0,0,0-.92-7.19A143.14,143.14,0,0,0,100.57,51.93Zm12.25-14.26a39.28,39.28,0,0,0-5.23-3.25,19,19,0,0,0-2,2.93,53.76,53.76,0,0,1,5.32,3.39A11.56,11.56,0,0,0,112.82,37.67Zm-3.13,4.55a41.54,41.54,0,0,0-5.19-3.43,24.24,24.24,0,0,0-2,2.89c1.46.92,3.73,2.42,5.2,3.52A10.51,10.51,0,0,0,109.69,42.22Zm41.79-17.65a10.4,10.4,0,0,0,2.39-2.13,21.94,21.94,0,0,0-3.92-4,15.15,15.15,0,0,0-2.34,2.11A31.79,31.79,0,0,1,151.48,24.57Zm-3.55,3.2a9.6,9.6,0,0,0,2.37-2.16,25.37,25.37,0,0,0-3.92-4.1A22.94,22.94,0,0,0,144,23.63,25.33,25.33,0,0,1,147.93,27.77Zm-20.63,6c2.6-1.19,15.83-6.89,17.62-7.65a37.82,37.82,0,0,0-2.71-5.6c-.89.47-1.79,1-3.11,1.58-1.95.91-12.27,5.44-14.7,6.37-1.39.54-2.06.78-3.35,1.23a42.48,42.48,0,0,0,2.81,5.61C124.87,34.87,126.69,34.06,127.3,33.81Zm27.76-.63a28.24,28.24,0,0,0-2.57-5.67c-.9.43-2.9,1.32-3.78,1.69-2,.87-21.94,9.55-24.26,10.44-1.31.5-2.5,1-3.67,1.41a38.41,38.41,0,0,0,2.91,5.65c1-.49,2.52-1.16,3.71-1.66s4.9-2.11,9.2-4c1.34,3.3,2,5.89.91,9.1-1,3-3.89,5.82-6.26,7.67a20.09,20.09,0,0,0,7.1,2.45,21,21,0,0,0,6.25-10.54c.73-3.73-.07-7.12-1.74-11.41l8.55-3.69C152.64,34.15,153.87,33.67,155.06,33.18Zm41-24.28a21.6,21.6,0,0,0-3.14-4.46A17.71,17.71,0,0,0,190.41,6a44.66,44.66,0,0,1,3.13,4.59A9.42,9.42,0,0,0,196.06,8.9Zm-3.77,2.46a25,25,0,0,0-3.14-4.63,14.82,14.82,0,0,0-2.54,1.63A31.34,31.34,0,0,1,189.76,13,8.85,8.85,0,0,0,192.29,11.36ZM167.89,26.1c.45,1.77.89,3.49,1.18,4.79s.77,3.52.87,4.09a31.53,31.53,0,0,0,6.38-1.63l-2.27-8.91,8.16-2.17c1.92,7.68.95,11.77-3.5,15.77a22.29,22.29,0,0,1-4.91,3,21.28,21.28,0,0,0,6.81,4.08c9.14-6.87,10.54-13.94,7.93-24.52l3.32-.89c1.24-.31,2.7-.64,3.94-1a22.88,22.88,0,0,0-1.7-5.85c-.92.28-3.18.94-4.07,1.16l-2.91.79c-.71-2.77-1.38-5.55-1.87-7.64-1.72.26-5,1-6.85,1.45.53,1.4,1,3.16,1.29,4s.65,2.4,1.07,3.87l-8.13,2.12c-.86-3.37-1.56-6.27-1.82-7.27-1.69.21-4.95,1-6.6,1.42.43,1.18.91,2.72,1.29,4l.92,3.44-3.77,1c-1.38.31-2.63.59-3.81.8a25.87,25.87,0,0,0,2,5.9c1.08-.31,2.59-.74,3.87-1.07Zm38.55-.93a80.51,80.51,0,0,0,10.17-6.12c.58,4.68,1,8.88,1.39,13.34.16,2.11.23,3.77.28,5a40,40,0,0,0,7.65-.87c-.19-1.23-.58-3.6-.74-5l-2-17.78a42.83,42.83,0,0,0,7.31-8.87A23.62,23.62,0,0,0,225,0c-1.69,3.86-5.64,8.64-9.6,11.89A45.33,45.33,0,0,1,201,19.66,25.7,25.7,0,0,0,206.44,25.17ZM254.67,7.36A68.81,68.81,0,0,0,243.35.76a70.27,70.27,0,0,0-3.78,6.08,68,68,0,0,1,11.11,6.87A25.92,25.92,0,0,0,254.67,7.36ZM240.08,28a19.12,19.12,0,0,0,4.32,6.81,56.33,56.33,0,0,0,12.16-4.87,43.77,43.77,0,0,0,17-17.21,19.83,19.83,0,0,0-5.08-5.8c-3.51,7.28-7.94,12.93-15.45,17A39,39,0,0,1,240.08,28Zm63.69-14.16a23.67,23.67,0,0,1-6.31,10c-4.82,4.26-10.07,5.94-16.38,6.51a19.86,19.86,0,0,0,5,6.9A34.21,34.21,0,0,0,303.91,27a48.19,48.19,0,0,0,8.64-15.63A17.5,17.5,0,0,0,309,7.69a21.49,21.49,0,0,1-3.15-.2C303.16,7.15,289.2,5.35,286.5,5c-1.39-.2-3.55-.63-5.45-1.06a47.56,47.56,0,0,0-.36,7C284.23,11.3,299.58,13.26,303.77,13.81Zm37.11,26.75c-.81-.18-1.9-.43-2.66-.64s-4.09-1.07-7.9-2.06L333,28.18l3.72,1c1.4.38,3.48,1,4.82,1.36.24-.88,1.21-4.44,1.41-5.63-.81-.18-1.9-.43-2.7-.65-1.73-.43-14.64-3.77-16.74-4.38-1.12-.31-2.47-.72-3.45-1.07-.3,1.12-1,4.37-1.18,5.77.92.25,1.65.41,2.94.72.92.25,2.87.78,5.12,1.35l-2.62,9.63c-3.36-.87-6.16-1.63-7-1.85-1.16-.31-2.43-.7-3.4-1-.3,1.08-1,4.41-1.23,5.76.88.24,1.68.46,3,.77,2.53.64,17.38,4.56,19.06,5,1.36.37,3.47,1,4.73,1.38C339.69,45.39,340.69,41.71,340.88,40.56Zm43.38-5.33a14.74,14.74,0,0,0-1.88-4.58,26.11,26.11,0,0,1-3-.94c-2.48-.92-13.85-5.5-15.87-6.36-1.22-.51-2.71-1.24-3.88-1.87a44.45,44.45,0,0,0-1.81,6.3c2.79,1,12,4.62,16.61,6.53a29,29,0,0,1-8.94,5.84,40.15,40.15,0,0,1-19.35,3.37,29,29,0,0,0,2.43,7.33,48.59,48.59,0,0,0,18.14-4.11,72.59,72.59,0,0,1,4.75,14.06,16.26,16.26,0,0,0,6.72-2.73,81.85,81.85,0,0,0-5.63-14.3A70.06,70.06,0,0,0,384.26,35.23Zm33.2,19.82a38.39,38.39,0,0,0,2.88-5.51c-.9-.44-1.85-.86-3.12-1.56-1.89-1-13.22-7.57-15.42-9-1.23-.77-1.81-1.17-2.94-1.94A40.61,40.61,0,0,0,396,42.63c1,.54,2.71,1.52,3.28,1.85C401.77,45.87,415.78,54.06,417.46,55.05Zm-1.8,4c-1.83-1-20.72-12-22.81-13.31-1.16-.74-2.26-1.39-3.28-2.1a39.26,39.26,0,0,0-2.85,5.69c1,.55,2.43,1.34,3.53,2l8.66,5c-1.81,3-3.48,5.06-6.73,6.07-3,.92-6.93.32-9.86-.51a22.26,22.26,0,0,0,2.23,7.21,21,21,0,0,0,12.21-1.28c3.4-1.59,5.63-4.21,8.07-8.07l8.08,4.71c1.11.66,2.22,1.37,3.33,2a29.49,29.49,0,0,0,3.05-5.47C418.41,60.58,416.48,59.53,415.66,59Zm28.06,16.15a26.63,26.63,0,0,1-11.59,1.2,34.33,34.33,0,0,1-12.58-3.86,22.93,22.93,0,0,0,0,6.87,57.38,57.38,0,0,0,8.24,2.21c-2.06,2.65-4,5-6,7.47-1,1.24-2.22,2.52-2.48,2.85a46,46,0,0,0,5.22,4.15c.53-.74,1.66-2.23,2.31-3l8.47-10.66a33.89,33.89,0,0,0,8.85-.9A23.43,23.43,0,0,0,443.72,75.19ZM473,101.05a54.94,54.94,0,0,0-6.37-2.58,44.74,44.74,0,0,1-3.31,10.26,54.33,54.33,0,0,1-6.69,11.42,20.24,20.24,0,0,0,7.19,3.3,70.38,70.38,0,0,0,5.81-11.61A65.79,65.79,0,0,0,473,101.05Zm-13.61-14a43,43,0,0,1-10.63,6.12,32.43,32.43,0,0,1-12,2.55,22,22,0,0,0,2.36,7.48,45.45,45.45,0,0,0,12.37-3.55,72.9,72.9,0,0,0,11.44-6A36.26,36.26,0,0,0,459.34,87.09Zm21.85,21.43a28.07,28.07,0,0,0,2.07-5.59,15.84,15.84,0,0,0-2.94-1.25,34.56,34.56,0,0,1-2.1,5.63A10.87,10.87,0,0,0,481.19,108.52Zm-2.32-7.62A27.92,27.92,0,0,0,476,99.69a34.28,34.28,0,0,1-2.25,5.71,10.32,10.32,0,0,0,3,1.21A26.71,26.71,0,0,0,478.87,100.9Zm10.9,15.65a39.36,39.36,0,0,1-4.91,4c-7.52,5.28-11.28,7.42-16.78,6.57a10.89,10.89,0,0,1-3.5-1,20.22,20.22,0,0,0-.51,7.64c11.36,2.65,16.5-2.07,29.36-11.11A65.66,65.66,0,0,0,489.77,116.55Zm-6.88,27.89c4.34-3,15.5-10.63,18.11-12.16a62.85,62.85,0,0,0-3.52-6c-.9.73-2.06,1.6-3.18,2.38-5.14,3.76-13.91,9.72-17.53,12.11a12,12,0,0,1-2.66,1.41,37.18,37.18,0,0,0-.27,5.09c.65.41,1.22.72,1.72,1.08a28,28,0,0,0,19.47,4,23.59,23.59,0,0,0,2.17-7C492.13,146.66,486.12,146.52,482.89,144.44ZM156.57,121.51a3,3,0,1,0,3.05,3A3.06,3.06,0,0,0,156.57,121.51ZM154,150.28h5.09V132.2H154Zm27.81,0V138.92a7.65,7.65,0,0,0-1.42-5.1,6.92,6.92,0,0,0-5.34-2.21,6.65,6.65,0,0,0-5.59,2.92V132.2H164.4v18.08h5.09v-9.23a6.23,6.23,0,0,1,.79-3.51,3.47,3.47,0,0,1,3.13-1.59,3.28,3.28,0,0,1,2.38.92,5.18,5.18,0,0,1,1,3.55v9.86ZM204,132.76a25.7,25.7,0,0,0-6.13-3.15l-2.42,3.47a25.39,25.39,0,0,1,5.95,3.5Zm2-8.49a23.2,23.2,0,0,0-6.07-3.21l-2.51,3.4a24.69,24.69,0,0,1,5.88,3.56Zm16.05,27.13,4.23-2.58a37.42,37.42,0,0,0-5.88-5.75l-3.94,2.29A36.74,36.74,0,0,1,222.08,151.4Zm4.07-13h-4.26v-4.8h3.43v-4.29H211.94v-1.88a99.81,99.81,0,0,0,11.6-2.35c.48,0,.76,0,1-.16l-3.6-3.79a74.83,74.83,0,0,1-10.07,2.52L207.3,123v15.48h-2.48v2.26L201.23,138a89.58,89.58,0,0,1-5,10.11l4.64,3.06a.86.86,0,0,0,.19-.55,1.2,1.2,0,0,0-.28-.73,95.24,95.24,0,0,0,4-8.87v1.75h21.33Zm-8.84,0h-5.37v-4.8h5.37Zm-13.44,9.9a30.88,30.88,0,0,1,3.65,3.05,31.62,31.62,0,0,0,6.55-5.85.81.81,0,0,0,.92-.32l-5.24-2A19.08,19.08,0,0,1,203.87,148.35ZM251.8,135.5a1.13,1.13,0,0,0,1.08-.58L247,133.37a72.13,72.13,0,0,1-3.46,12.15c-1.18,0-2.26,0-3.15,0l1.4,5.28a.74.74,0,0,0,.67-.54c3.11-.19,7.69-.58,12.3-1a16,16,0,0,1,.57,2l4.39-2.26a53.44,53.44,0,0,0-4.58-10l-4,1.94c.7,1.33,1.39,2.8,2.06,4.29l-5,.13A77.13,77.13,0,0,0,251.8,135.5ZM255,121l-4.19,1.27A48.48,48.48,0,0,0,256,135.56a18.17,18.17,0,0,1,3.75-3.78A35.86,35.86,0,0,1,255,121Zm-25.36,10.65h3.49a28.58,28.58,0,0,1-4.32,9.92,25.84,25.84,0,0,1,2.1,4.33,23.55,23.55,0,0,0,2.61-5.25v10.53h4.35V138.65c.6,1.24,1.18,2.48,1.56,3.43l2.51-3.53c-.54-.89-3.15-4.61-4.07-5.72v-1.15h3.18a12.7,12.7,0,0,1-.8,1.21,27.73,27.73,0,0,1,3.6,3c2.28-3.21,4.16-8.27,5.3-12.88.48,0,.8-.16.89-.45l-5.4-1.4a35.64,35.64,0,0,1-3.53,10.4v-4.13h-3.24V122c.6-.13.89-.32.92-.67l-5.27-.29v6.43h-3.88Zm34.19-.57h5.59c.09-2.38,1.59-4.63,4.43-4.63a4,4,0,0,1,4.13,4.21,8.77,8.77,0,0,1-1.63,4.47c-1,1.5-4.25,5.22-4.76,5.8l-8.17,9.32h20.19V145.6H273.57l4.79-5.22c2.17-2.34,5.05-5.43,5.05-9.73s-3.34-8.85-9.8-8.85C268.1,121.8,264.09,125.43,263.84,131.11Zm24,5.22c0,9.6,5.22,14.57,10.77,14.57s10.76-5,10.76-14.53-5.21-14.57-10.76-14.57S287.86,126.77,287.86,136.33Zm16.11,0c0,7.26-3,9.9-5.34,9.9s-5.34-2.64-5.34-9.9,3-9.85,5.34-9.85S304,129.11,304,136.33Zm23,4C329.1,138,332,135,332,130.65s-3.34-8.85-9.81-8.85c-5.5,0-9.51,3.63-9.76,9.31H318c.08-2.38,1.59-4.63,4.42-4.63a4,4,0,0,1,4.13,4.21,8.76,8.76,0,0,1-1.62,4.47c-1,1.5-4.26,5.22-4.76,5.8L312,150.28h20.2V145.6H322.13Zm10.95-13.28h4v23.18h5.42V122.43h-9.43Zm-40.76,93.53c2.24,0,3.67-.64,4.31-1.92l-8.95-2.56h25.43v-17H262.73v-8.64c3-.48,4.16-1.44,4.32-3l-24.63-1.44v13.12H189.65v17h29.1l-8.63,1.76a72.19,72.19,0,0,1,7,18.73H179.73v17.12H326.54V236.64H289A170,170,0,0,0,297.12,220.63Zm-23.19,16H229.79l7.52-1.77c-1-5.12-3.84-12.64-7.2-18.72h46.54A160.27,160.27,0,0,1,269.29,235ZM204.2,337h18.87v-5.28h62.21v5.12h20V262.88H204.2Zm18.87-58.25h62.21v11H223.07Zm0,25.61h62.21v11.52H223.07Z"/></g></g></svg>