<svg xmlns="http://www.w3.org/2000/svg" viewBox="0 0 20.19 24.82"><defs><style>.cls-1{fill:#0d0d0d;}</style></defs><g id="Layer_2" data-name="Layer 2"><g id="_2" data-name="2"><path class="cls-1" d="M16,0H7.14L6.69.45.45,6.69,0,7.15v13.5a4.17,4.17,0,0,0,4.16,4.17H16a4.17,4.17,0,0,0,4.16-4.17V4.16A4.17,4.17,0,0,0,16,0Zm2.62,20.65A2.62,2.62,0,0,1,16,23.27H4.16a2.62,2.62,0,0,1-2.62-2.62V7.78H5.6A2.17,2.17,0,0,0,7.78,5.6V1.54H16a2.62,2.62,0,0,1,2.62,2.62Z"/><path class="cls-1" d="M6,11.8H4.42a.44.44,0,0,0-.47.48v4a.54.54,0,1,0,1.08,0V15.05s0,0,0,0H6A1.61,1.61,0,1,0,6,11.8Zm-.07,2.28H5.07s0,0,0-.05V12.78s0,0,0,0h.82a.68.68,0,1,1,0,1.35Z"/><path class="cls-1" d="M10.19,11.8H9a.44.44,0,0,0-.47.48v4a.43.43,0,0,0,.47.47h1.18c1.06,0,1.72-.34,2-1.15a4.34,4.34,0,0,0,.14-1.34A4.37,4.37,0,0,0,12.18,13C11.91,12.14,11.25,11.8,10.19,11.8Zm1,3.46c-.12.4-.48.57-1,.57h-.5a0,0,0,0,1-.05,0v-3a0,0,0,0,1,.05-.05h.5c.5,0,.86.17,1,.57a3.66,3.66,0,0,1,.09,1A3.56,3.56,0,0,1,11.14,15.26Z"/><path class="cls-1" d="M16.18,11.8H13.76a.44.44,0,0,0-.47.48v4a.54.54,0,1,0,1.08,0V14.84s0-.05,0-.05h1.41a.46.46,0,1,0,0-.92H14.41s0,0,0,0V12.78s0,0,0,0h1.77a.47.47,0,1,0,0-.93Z"/></g></g></svg>