<svg xmlns="http://www.w3.org/2000/svg" viewBox="0 0 278.47 221.29"><defs><style>.cls-1{fill:#0d0d0d;}</style></defs><g id="レイヤー_2" data-name="レイヤー 2"><g id="レイヤー_1-2" data-name="レイヤー 1"><path class="cls-1" d="M13.08,68.89l1.06-1.55c.41-.59.9-1.25,1.31-1.83a12.47,12.47,0,0,0-2.81-1.84c-.29.45-1,1.52-1.29,2L10.42,67,6.83,64.46c-.61.75-1.75,2.25-2.34,3.1.73.4,1.57,1,2,1.24s1.14.74,1.85,1.24L5.68,73.87c-1.58-1.11-2.92-2.08-3.4-2.41-.63.71-1.73,2.19-2.28,3,.6.34,1.36.82,2,1.23L3.65,76.8,2.42,78.55c-.48.62-.89,1.2-1.33,1.74a16.18,16.18,0,0,0,3,1.74c.33-.52.82-1.25,1.24-1.85l1-1.49c.83.58,1.64,1.15,2.23,1.59l1.85,1.41a17.89,17.89,0,0,0,2.1-3L8.34,75.77,11,71.88c3.58,2.54,4.67,4.63,4.22,7.91a11.43,11.43,0,0,1-1,3,11.67,11.67,0,0,0,4.33-.73C20,75.88,18,72.41,13.08,68.89Zm15-21.6a10.67,10.67,0,0,0-2.74.5,11.47,11.47,0,0,1-1.23,1.49c-.35.4-1.17,1.25-2.15,2.28-.93-.9-1.86-1.82-2.53-2.52a18.3,18.3,0,0,0-2.9,2.79c.51.4,1.65,1.37,2.22,1.91l.6.57-3.05,3.17c-.65.68-1.22,1.25-1.84,1.83a21.68,21.68,0,0,1,1.74,1.51c.73.67,2.2,2.09,2.92,2.77.51.53.73.77,1.18,1.29a29.54,29.54,0,0,0,2.58-2.78c-.65-.56-.95-.85-1.3-1.18l-2-2c1.61-1.77,5.36-5.76,6.89-7.35a11.61,11.61,0,0,1,2.82,5.73c.45,3.23-.63,6-2.92,9.37a11.33,11.33,0,0,0,4.46.07,15.91,15.91,0,0,0,1.71-12.13A22.13,22.13,0,0,0,28.07,47.29Zm2.6-7.18c0,.74.29,3,.48,3.94a37.5,37.5,0,0,1,7.21-.88A14.45,14.45,0,0,0,37.87,39,38.14,38.14,0,0,0,30.67,40.11ZM43.7,34a19.47,19.47,0,0,1-.81,12.71A21.66,21.66,0,0,1,38.71,53,10.56,10.56,0,0,0,43,54.48a31.53,31.53,0,0,0,3.58-6.34,24.26,24.26,0,0,0,1.38-13.36A10.76,10.76,0,0,0,43.7,34Zm12.2-5.19c-1.4-2.38-2.62-4.49-3-5.32a32,32,0,0,0-3.68,2,29.45,29.45,0,0,1,1.9,2.86c1.15,1.89,5.53,9.39,6.74,11.54.48.86,1.11,2.12,1.44,2.8A24.74,24.74,0,0,0,63,40.62c-.61-.9-1.36-2.08-1.7-2.66-.54-.91-1.91-3.19-3.4-5.71A50.54,50.54,0,0,1,65,31.39a13,13,0,0,0-.52-4A79.19,79.19,0,0,0,55.9,28.85ZM61,23.45a22.81,22.81,0,0,0-2.89-1.9A13.5,13.5,0,0,0,57,23.15c.81.51,2.07,1.34,2.89,2A6,6,0,0,0,61,23.45Zm1.74-2.52a21.38,21.38,0,0,0-2.91-1.81,11.42,11.42,0,0,0-1.12,1.62,32.76,32.76,0,0,1,3,1.89A6.5,6.5,0,0,0,62.71,20.93Zm8.05-2.15c1.44-.66,8.79-3.83,9.79-4.25A20.42,20.42,0,0,0,79,11.42c-.49.26-1,.55-1.72.88-1.09.51-6.82,3-8.18,3.54-.77.3-1.14.43-1.86.68a24.34,24.34,0,0,0,1.56,3.11C69.41,19.37,70.42,18.92,70.76,18.78Zm11.47-3.35a5.38,5.38,0,0,0,1.31-1.21A14,14,0,0,0,81.36,12,12.25,12.25,0,0,0,80,13.13,14.24,14.24,0,0,1,82.23,15.43Zm4,3a15.94,15.94,0,0,0-1.42-3.15c-.5.24-1.61.73-2.1.94-1.1.48-12.2,5.3-13.49,5.8-.73.28-1.38.55-2,.78a22,22,0,0,0,1.62,3.14c.59-.27,1.4-.64,2.06-.92l5.12-2.2c.74,1.83,1.12,3.27.5,5.05A10.42,10.42,0,0,1,73,32.13a11.19,11.19,0,0,0,4,1.36,11.58,11.58,0,0,0,3.47-5.85c.41-2.07,0-4-1-6.34l4.75-2.05Zm-2-4.78a6,6,0,0,0,1.32-1.18,11.91,11.91,0,0,0-2.17-2.21A9,9,0,0,0,82,11.43,16.81,16.81,0,0,1,84.2,13.65ZM91.56,15l1.76-.45c.25,1,.49,1.94.65,2.66s.43,1.95.49,2.27a17.73,17.73,0,0,0,3.54-.9l-1.26-5,4.54-1.21c1.06,4.27.53,6.54-2,8.76A12.27,12.27,0,0,1,96.6,22.8a11.9,11.9,0,0,0,3.79,2.27c5.08-3.82,5.86-7.74,4.41-13.62l1.84-.49,2.19-.54a12.46,12.46,0,0,0-1-3.25c-.5.15-1.76.52-2.25.65L104,8.26c-.39-1.54-.76-3.09-1-4.25-1,.15-2.81.55-3.81.8.29.78.57,1.76.71,2.24s.37,1.34.6,2.15L96,10.38c-.48-1.87-.86-3.48-1-4-.94.12-2.75.56-3.67.79.24.66.51,1.51.72,2.24l.51,1.92-2.1.53c-.76.17-1.46.33-2.11.45a14.22,14.22,0,0,0,1.12,3.27C90,15.37,90.84,15.13,91.56,15Zm15.32-8.64a13.44,13.44,0,0,0-1.75-2.57,8,8,0,0,0-1.41.91,15.8,15.8,0,0,1,1.75,2.57A5.05,5.05,0,0,0,106.88,6.31ZM109,4.94a11.82,11.82,0,0,0-1.75-2.47,9.7,9.7,0,0,0-1.4.85,25.5,25.5,0,0,1,1.75,2.55A5.24,5.24,0,0,0,109,4.94Zm5.76,9a44.53,44.53,0,0,0,5.66-3.4c.32,2.6.56,4.94.77,7.41.09,1.17.13,2.09.16,2.76a22.6,22.6,0,0,0,4.25-.48c-.1-.69-.32-2-.41-2.78L124,7.62a23.79,23.79,0,0,0,4.07-4.93,13.07,13.07,0,0,0-3-2.69,20.15,20.15,0,0,1-5.33,6.6,25.18,25.18,0,0,1-8,4.32A14.77,14.77,0,0,0,114.74,14Zm18.7,1.55a10.67,10.67,0,0,0,2.41,3.79,31.65,31.65,0,0,0,6.75-2.7A24.34,24.34,0,0,0,152,7.05a11.1,11.1,0,0,0-2.82-3.22,19.43,19.43,0,0,1-8.59,9.42A21.49,21.49,0,0,1,133.44,15.53Zm8.11-11.44A38.76,38.76,0,0,0,135.26.42a38.73,38.73,0,0,0-2.1,3.38,37.47,37.47,0,0,1,6.18,3.82A14.74,14.74,0,0,0,141.55,4.09Zm27.29,3.58a13.19,13.19,0,0,1-3.5,5.57,14.89,14.89,0,0,1-9.11,3.61A11.14,11.14,0,0,0,159,20.68,18.87,18.87,0,0,0,168.92,15a26.61,26.61,0,0,0,4.8-8.68,9.74,9.74,0,0,0-2-2.07A13.11,13.11,0,0,1,170,4.16c-1.5-.19-9.26-1.19-10.77-1.4-.77-.11-2-.35-3-.59A24.82,24.82,0,0,0,156,6C158,6.27,166.52,7.36,168.84,7.67Zm17.21,17.27c.75.2,1.93.52,2.63.76.13-.49.69-2.53.79-3.17-.45-.1-1.06-.24-1.48-.36L183.6,21l1.47-5.38,2.07.54c.77.22,1.93.53,2.68.76.13-.49.67-2.47.78-3.13-.45-.1-1.06-.24-1.5-.36-1-.24-8.14-2.09-9.31-2.44-.62-.17-1.37-.39-1.91-.59-.17.62-.54,2.43-.66,3.21.51.14.92.22,1.63.4l2.85.75-1.45,5.35c-1.88-.49-3.43-.91-3.87-1-.65-.18-1.35-.39-1.9-.59-.16.6-.54,2.45-.68,3.2.49.14.94.26,1.65.43C176.86,22.51,185.11,24.68,186.05,24.94Zm27.53-5.37a8,8,0,0,0-1-2.54,15.92,15.92,0,0,1-1.66-.53c-1.38-.51-7.7-3.05-8.82-3.53-.68-.29-1.51-.69-2.16-1a25.54,25.54,0,0,0-1,3.5c1.55.58,6.66,2.57,9.23,3.63a16.14,16.14,0,0,1-5,3.24,22.34,22.34,0,0,1-10.76,1.87,16.09,16.09,0,0,0,1.36,4.07A26.85,26.85,0,0,0,203.84,26a40.4,40.4,0,0,1,2.64,7.81,9.17,9.17,0,0,0,3.74-1.51,45.81,45.81,0,0,0-3.14-7.95A38,38,0,0,0,213.58,19.57Zm18.45,11a21,21,0,0,0,1.61-3.06c-.5-.25-1-.48-1.73-.87-1.06-.57-7.36-4.21-8.58-5-.68-.43-1-.65-1.63-1.07a22.34,22.34,0,0,0-1.6,3.09c.55.3,1.51.84,1.82,1C223.31,25.48,231.1,30,232,30.58Zm-1,2.22c-1-.58-11.52-6.66-12.68-7.4-.64-.41-1.26-.77-1.83-1.16A21.08,21.08,0,0,0,215,27.39c.57.31,1.35.75,2,1.11l4.82,2.81c-1,1.65-1.94,2.81-3.75,3.37a10.59,10.59,0,0,1-5.47-.28,12.42,12.42,0,0,0,1.23,4,11.72,11.72,0,0,0,6.79-.71c1.89-.88,3.13-2.34,4.48-4.48l4.5,2.61L231.36,37a16.64,16.64,0,0,0,1.69-3C232.57,33.65,231.49,33.07,231,32.8Zm15.59,9a14.59,14.59,0,0,1-6.44.67,19.19,19.19,0,0,1-7-2.14,12.48,12.48,0,0,0,0,3.81,31.53,31.53,0,0,0,4.58,1.23c-1.14,1.47-2.22,2.79-3.36,4.15-.57.69-1.23,1.4-1.37,1.58a24,24,0,0,0,2.9,2.31c.3-.41.92-1.24,1.28-1.69l4.71-5.92a19.15,19.15,0,0,0,4.92-.5A13,13,0,0,0,246.63,41.76Zm19.54,14.29a16.19,16.19,0,0,0-1.62-.68,18.36,18.36,0,0,1-1.25,3.17,6,6,0,0,0,1.65.68A14.83,14.83,0,0,0,266.17,56.05Zm-3.29.08a29.7,29.7,0,0,0-3.54-1.43,25.62,25.62,0,0,1-1.84,5.7,30.29,30.29,0,0,1-3.72,6.34,11.17,11.17,0,0,0,4,1.83A38.38,38.38,0,0,0,261,62.12,36.5,36.5,0,0,0,262.88,56.13Zm-7.57-7.75a23.87,23.87,0,0,1-5.9,3.39,17.83,17.83,0,0,1-6.68,1.42A12.12,12.12,0,0,0,244,57.34a24.83,24.83,0,0,0,6.88-2,40.27,40.27,0,0,0,6.36-3.32A19.63,19.63,0,0,0,255.31,48.38Zm12.15,11.9a15.72,15.72,0,0,0,1.15-3.11,9.18,9.18,0,0,0-1.63-.69,19.32,19.32,0,0,1-1.17,3.12A6.08,6.08,0,0,0,267.46,60.28Zm4.77,4.46a22,22,0,0,1-2.73,2.19c-4.18,2.94-6.27,4.12-9.33,3.65a5.92,5.92,0,0,1-1.94-.57,10.92,10.92,0,0,0-.28,4.24c6.31,1.47,9.16-1.15,16.32-6.17C273.74,67.1,272.86,65.64,272.23,64.74ZM268.4,80.23c2.41-1.69,8.62-5.9,10.07-6.75a35.68,35.68,0,0,0-2-3.35c-.51.41-1.15.89-1.77,1.32-2.86,2.09-7.73,5.4-9.75,6.73a6.25,6.25,0,0,1-1.47.78,19.59,19.59,0,0,0-.15,2.83c.35.23.67.4.95.6a15.57,15.57,0,0,0,10.82,2.21,13.18,13.18,0,0,0,1.21-3.88C273.54,81.46,270.2,81.39,268.4,80.23ZM85.33,66.41a1.7,1.7,0,1,0,1.7-1.7A1.7,1.7,0,0,0,85.33,66.41Zm.28,14.28h2.83v-10H85.61Zm15.46,0v-6.3a4.19,4.19,0,0,0-.79-2.83,3.81,3.81,0,0,0-3-1.23A3.68,3.68,0,0,0,94.21,72v-1.3H91.38v10h2.83V75.57a3.44,3.44,0,0,1,.44-1.95,1.91,1.91,0,0,1,1.74-.88,1.83,1.83,0,0,1,1.32.51,2.86,2.86,0,0,1,.53,2v5.47Zm22.37.63,2.35-1.43a20.75,20.75,0,0,0-3.27-3.2L120.33,78A20.52,20.52,0,0,1,123.44,81.32Zm2.26-7.19h-2.37V71.46h1.91V69.08H117.8V68a55.91,55.91,0,0,0,6.45-1.3c.27,0,.43,0,.53-.09l-2-2.11a40.36,40.36,0,0,1-5.6,1.4l-2-.41v8.61h-1.37v1.25l-2-1.52a48.5,48.5,0,0,1-2.76,5.62l2.58,1.7a.5.5,0,0,0,.11-.3.65.65,0,0,0-.16-.41c.71-1.34,1.5-3.11,2.23-4.93v1H125.7Zm-4.91,0h-3V71.46h3ZM113.39,71A14.15,14.15,0,0,0,110,69.22l-1.35,1.92a14.17,14.17,0,0,1,3.31,2Zm-.07,8.65a17.57,17.57,0,0,1,2,1.7A17.83,17.83,0,0,0,119,78.07a.45.45,0,0,0,.51-.18l-2.92-1.11A10.51,10.51,0,0,1,113.32,79.62Zm1.2-13.37a13,13,0,0,0-3.38-1.79l-1.39,1.89a14.16,14.16,0,0,1,3.27,2Zm27.22-1.8-2.33.7a26.93,26.93,0,0,0,2.9,7.37,10.36,10.36,0,0,1,2.08-2.1A20.07,20.07,0,0,1,141.74,64.45Zm-1.78,8a.65.65,0,0,0,.6-.32l-3.25-.87a39.81,39.81,0,0,1-1.93,6.75l-1.75,0,.78,2.93a.41.41,0,0,0,.37-.3c1.73-.11,4.28-.32,6.84-.55a8.21,8.21,0,0,1,.32,1.1L144.38,80a30,30,0,0,0-2.55-5.54l-2.22,1.07c.38.75.77,1.56,1.14,2.39l-2.81.07A42.89,42.89,0,0,0,140,72.49Zm-12.31-2.12h1.94a16.1,16.1,0,0,1-2.4,5.51,14.37,14.37,0,0,1,1.16,2.4,12.41,12.41,0,0,0,1.45-2.92v5.85h2.42v-7c.34.69.65,1.38.87,1.91l1.39-2c-.3-.49-1.75-2.56-2.26-3.18v-.63H134c-.14.24-.3.47-.44.67a15.36,15.36,0,0,1,2,1.66,22.71,22.71,0,0,0,3-7.16.45.45,0,0,0,.5-.25l-3-.77a19.5,19.5,0,0,1-2,5.77V68h-1.8V65c.34-.07.5-.18.51-.37l-2.93-.16V68h-2.15Zm19-.32h3.11a2.48,2.48,0,0,1,2.46-2.58,2.24,2.24,0,0,1,2.29,2.35,4.85,4.85,0,0,1-.9,2.48c-.56.83-2.37,2.9-2.64,3.22l-4.55,5.17h11.22V78.1h-5.58l2.66-2.9c1.21-1.3,2.81-3,2.81-5.41s-1.86-4.91-5.45-4.91A5.16,5.16,0,0,0,146.65,70.05ZM160,73c0,5.33,2.9,8.09,6,8.09s6-2.76,6-8.07-2.9-8.09-6-8.09S160,67.64,160,73ZM169,73c0,4-1.64,5.49-3,5.49S163,77,163,73s1.67-5.48,3-5.48S169,68.94,169,73Zm9,2.57-4.55,5.17h11.23V78.1h-5.59l2.67-2.9c1.2-1.3,2.8-3,2.8-5.41s-1.85-4.91-5.45-4.91a5.15,5.15,0,0,0-5.42,5.17h3.1a2.48,2.48,0,0,1,2.46-2.58,2.25,2.25,0,0,1,2.3,2.35,4.86,4.86,0,0,1-.91,2.48C180.05,73.13,178.24,75.2,178,75.52ZM193,80.69V65.22H187.8v2.6H190V80.69ZM173.17,134q2.52,0,3.24-1.44l-6.72-1.92h19.08V118h-41.4v-6.48c2.28-.36,3.12-1.08,3.24-2.28l-18.48-1.08V118H92.53v12.72h21.84L107.89,132a54.19,54.19,0,0,1,5.28,14H85.09v12.84H195.25V146h-28.2A126.5,126.5,0,0,0,173.17,134Zm-17.4,12H122.65l5.64-1.32a53.1,53.1,0,0,0-5.4-14h34.92a120.2,120.2,0,0,1-5.52,14.16Zm-52.32,75.25h14.16v-4h46.68v3.85h15V165.72H103.45Zm14.16-43.69h46.68v8.28H117.61Zm0,19.2h46.68v8.64H117.61Z"/></g></g></svg>