<svg xmlns="http://www.w3.org/2000/svg" viewBox="0 0 267.37 173.55"><defs><style>.cls-1{fill:#0d0d0d;}</style></defs><g id="レイヤー_2" data-name="レイヤー 2"><g id="レイヤー_1-2" data-name="レイヤー 1"><path class="cls-1" d="M80.19,52.52H83v-10H80.19Zm1.42-16a1.69,1.69,0,1,0,1.69,1.69A1.69,1.69,0,0,0,81.61,36.55Zm7.18,5.93H86v10h2.83V47.4a3.44,3.44,0,0,1,.44-1.95A1.93,1.93,0,0,1,91,44.57a1.82,1.82,0,0,1,1.32.51,2.86,2.86,0,0,1,.53,2v5.47h2.83v-6.3a4.24,4.24,0,0,0-.78-2.83,3.83,3.83,0,0,0-3-1.23,3.68,3.68,0,0,0-3.11,1.62Zm19.27.16a14.47,14.47,0,0,0-3.47-1.79l-1.37,2a14.34,14.34,0,0,1,3.37,2ZM118.3,53.18l2.4-1.46a21.94,21.94,0,0,0-3.33-3.25l-2.23,1.29A21.16,21.16,0,0,1,118.3,53.18ZM108,51.46a17.33,17.33,0,0,1,2.07,1.72,17.67,17.67,0,0,0,3.71-3.31.43.43,0,0,0,.52-.18l-3-1.13A10.84,10.84,0,0,1,108,51.46Zm-3.63-13.52a14.12,14.12,0,0,1,3.33,2l1.52-2.12A13.23,13.23,0,0,0,105.78,36Zm16.25,7.92H118.2V43.14h1.94V40.71h-7.58V39.65a57.49,57.49,0,0,0,6.57-1.33c.27,0,.43,0,.54-.09l-2-2.15a41.94,41.94,0,0,1-5.71,1.43l-2-.42v8.77h-1.4v1.28l-2-1.55a49.42,49.42,0,0,1-2.81,5.72L106.32,53a.51.51,0,0,0,.11-.31.66.66,0,0,0-.17-.41c.72-1.37,1.53-3.17,2.27-5v1h12.08Zm-5,0h-3V43.14h3Zm19.53-1.68a.65.65,0,0,0,.62-.32L132.43,43a40,40,0,0,1-2,6.87l-1.78,0,.79,3a.42.42,0,0,0,.38-.31c1.76-.11,4.36-.32,7-.56a8.89,8.89,0,0,1,.32,1.12l2.48-1.28A30.13,30.13,0,0,0,137,46.18l-2.27,1.1c.4.76.8,1.58,1.17,2.43l-2.86.07A41.13,41.13,0,0,0,135.13,44.18ZM122.59,42h2a16.47,16.47,0,0,1-2.45,5.62,14.22,14.22,0,0,1,1.19,2.45,13.47,13.47,0,0,0,1.48-3v6h2.46V46c.34.7.67,1.4.88,1.94l1.42-2c-.3-.5-1.78-2.61-2.3-3.24V42h1.8a6.89,6.89,0,0,1-.45.69,14.56,14.56,0,0,1,2,1.69,23.1,23.1,0,0,0,3-7.29c.27,0,.45-.09.5-.25l-3.06-.79a20.14,20.14,0,0,1-2,5.88V39.61h-1.84V36.52c.34-.08.51-.18.52-.38l-3-.16v3.63h-2.2ZM137,36l-2.37.72a27.06,27.06,0,0,0,2.95,7.51,10.49,10.49,0,0,1,2.12-2.14A20.14,20.14,0,0,1,137,36Zm8.1,5.89a2.46,2.46,0,0,1,2.46-2.57,2.24,2.24,0,0,1,2.29,2.34,4.85,4.85,0,0,1-.9,2.48c-.56.83-2.37,2.9-2.65,3.22l-4.54,5.17h11.22V49.93h-5.59L150,47c1.21-1.3,2.81-3,2.81-5.41s-1.86-4.91-5.45-4.91a5.17,5.17,0,0,0-5.43,5.17Zm10.24,2.9c0,5.33,2.9,8.09,6,8.09s6-2.76,6-8.07-2.9-8.09-6-8.09S155.29,39.47,155.29,44.78Zm6-5.47c1.3,0,3,1.46,3,5.47s-1.64,5.49-3,5.49-3-1.46-3-5.49S160,39.31,161.27,39.31Zm18.54,2.31c0-2.45-1.85-4.91-5.45-4.91a5.15,5.15,0,0,0-5.42,5.17H172a2.47,2.47,0,0,1,2.46-2.57,2.24,2.24,0,0,1,2.3,2.34,4.86,4.86,0,0,1-.91,2.48c-.55.83-2.36,2.9-2.64,3.22l-4.55,5.17h11.23V49.93h-5.59L177,47C178.21,45.73,179.81,44,179.81,41.62Zm3.28-2h2.23V52.52h3V37.06h-5.24ZM14.79,4.35l-1.37,0c0-1.31,0-2.62,0-3.63-.8-.06-2.36-.11-3.21-.11.07.68.09,1.52.11,1.93s0,1.12,0,1.85l-3.86,0c0-1.6,0-3,0-3.44C5.76.89,4.24.85,3.45.85c0,.57.09,1.31.11,1.94l0,1.65H1.81c-.64,0-1.23,0-1.8-.07A13,13,0,0,0,.24,7.2c.51,0,1.23,0,1.84,0h1.5c0,.84,0,1.65,0,2.26s-.06,1.65-.08,1.92a14.57,14.57,0,0,0,3,0V7.12l3.89,0c0,3.62-.91,5.35-3.34,6.61a10.19,10.19,0,0,1-2.53.78,9.63,9.63,0,0,0,2.55,2.58c4.86-2,6.28-5,6.32-10l1.56,0,1.86,0a10.29,10.29,0,0,0-.09-2.78ZM31.12,3.1H28.53c0-1.06,0-2.14.06-2.94A14.93,14.93,0,0,0,25.26,0c.06.53.14,1.76.14,2.41v.68H21.77c-.78,0-1.45,0-2.15,0a15.42,15.42,0,0,1,.1,1.9c0,.81,0,2.5,0,3.32,0,.61,0,.87-.1,1.44a24.83,24.83,0,0,0,3.14-.05c0-.71,0-1,0-1.45V5.91c2-.06,6.49-.1,8.32-.1a9.56,9.56,0,0,1-1.81,5c-1.67,2.11-4,3.08-7.25,3.61a9.44,9.44,0,0,0,2.5,2.7,13.12,13.12,0,0,0,8.21-5.91,18.11,18.11,0,0,0,1.86-6.84A8.81,8.81,0,0,0,32.71,3,8.78,8.78,0,0,1,31.12,3.1Zm19.76.76a16.09,16.09,0,0,1-7,7.88,17.8,17.8,0,0,1-5.9,2,8.63,8.63,0,0,0,2,3.09,25.77,25.77,0,0,0,5.55-2.32,20.11,20.11,0,0,0,7.67-8A9.16,9.16,0,0,0,50.88,3.86Zm-6.33.3a31.22,31.22,0,0,0-5.24-2.94A32,32,0,0,0,37.62,4,32.3,32.3,0,0,1,42.77,7.1,11.9,11.9,0,0,0,44.55,4.16ZM66.65,1A27.4,27.4,0,0,1,68,3.63a5.7,5.7,0,0,0,1.48-.76A18.66,18.66,0,0,0,68.14.36,9.57,9.57,0,0,0,66.65,1ZM61.35.59A24.08,24.08,0,0,0,57.92.44a26,26,0,0,1,.15,2.83c0,1.82,0,9-.06,11,0,.82-.09,2-.15,2.61a19.84,19.84,0,0,0,3.53.09c0-.89-.09-2.05-.09-2.6,0-.87,0-3.08,0-5.49a39.45,39.45,0,0,1,5.41,2.37,10.5,10.5,0,0,0,1.31-3,65.33,65.33,0,0,0-6.72-2.59C61.28,3.36,61.3,1.35,61.35.59Zm5.8,3.34a18.44,18.44,0,0,0-1.26-2.56A11.5,11.5,0,0,0,64.41,2c.36.7.91,1.83,1.24,2.6A4.76,4.76,0,0,0,67.15,3.93Zm21.65,0a9.71,9.71,0,0,0-1-2.37A6.56,6.56,0,0,0,86.48,2a13.71,13.71,0,0,1,.94,2.38A4.83,4.83,0,0,0,88.8,3.93ZM75.54,4c1.31,0,7.92-.1,8.82-.1a17.44,17.44,0,0,0-.16-2.85c-.45,0-.93.1-1.59.12-1,0-6.16.11-7.35.07-.69,0-1,0-1.64-.07a21.15,21.15,0,0,0,.19,2.87ZM81.32,8.7l4.27,0,1.81,0a13.74,13.74,0,0,0-.08-2.85c-.46,0-1.46,0-1.9,0-1,0-11,.13-12.12.09-.65,0-1.23,0-1.8,0a18,18,0,0,0,.22,2.9l1.87,0,4.59,0a5.47,5.47,0,0,1-1.23,4,8.67,8.67,0,0,1-4,2.12,9,9,0,0,0,2.56,2.3A9.64,9.64,0,0,0,80,13.83,9.16,9.16,0,0,0,81.32,8.7Zm5.41-4.07A11.69,11.69,0,0,0,85.8,2.2a12.2,12.2,0,0,0-1.39.48,11.23,11.23,0,0,1,.93,2.45A4.37,4.37,0,0,0,86.73,4.63Zm19.69-1.15a11.19,11.19,0,0,0-.87-2.42,6.72,6.72,0,0,0-1.31.44,14.31,14.31,0,0,1,.87,2.41A3.87,3.87,0,0,0,106.42,3.48Zm2-.67a10.13,10.13,0,0,0-.89-2.34,7.9,7.9,0,0,0-1.29.4,20.7,20.7,0,0,1,.87,2.4A4.55,4.55,0,0,0,108.38,2.81Zm-16,4.45h1.5c0,.83,0,1.65,0,2.26s0,1.65-.07,1.92a15.2,15.2,0,0,0,3,0V7.22l3.87,0c0,3.63-.91,5.34-3.34,6.61a10.35,10.35,0,0,1-2.53.78,9.68,9.68,0,0,0,2.57,2.58c4.84-2,6.27-5,6.31-10l1.57,0,1.86,0a10.36,10.36,0,0,0-.09-2.79c-.44,0-1.52.06-1.94.06h-1.38c0-1.31,0-2.62,0-3.6C103,.76,101.41.7,100.55.7c.08.69.1,1.52.12,1.94s0,1.14,0,1.84l-3.85,0c0-1.59,0-3,0-3.44C96.09,1,94.55,1,93.77,1c.06.57.1,1.31.11,1.94l0,1.63H92.12c-.65,0-1.24,0-1.79-.08a12.51,12.51,0,0,0,.23,2.85Zm19.14,3.53a35.79,35.79,0,0,0,5-2.26c0,2.16,0,4.1-.06,6.15,0,1-.09,1.73-.13,2.28a17.32,17.32,0,0,0,3.53,0c0-.57-.07-1.67-.07-2.31V6.44a19.74,19.74,0,0,0,3.8-3.67A11.11,11.11,0,0,0,121.32.28a16.62,16.62,0,0,1-5,4.92,20.82,20.82,0,0,1-7,2.8A11.78,11.78,0,0,0,111.54,10.79Zm16,2.93a8.63,8.63,0,0,0,2,3.09,25.77,25.77,0,0,0,5.55-2.32,20.11,20.11,0,0,0,7.67-8,9.16,9.16,0,0,0-2.37-2.62,16.09,16.09,0,0,1-7,7.88A17.8,17.8,0,0,1,127.53,13.72Zm6.55-9.56a31.22,31.22,0,0,0-5.24-2.94A32,32,0,0,0,127.15,4a31.75,31.75,0,0,1,5.14,3.07A11.63,11.63,0,0,0,134.08,4.16Zm22.39,1a10.88,10.88,0,0,1-2.23,5,12.32,12.32,0,0,1-7,4A9.14,9.14,0,0,0,149.93,17a15.66,15.66,0,0,0,7.45-5.77,22.16,22.16,0,0,0,2.92-7.66,7.92,7.92,0,0,0-1.84-1.46A11.16,11.16,0,0,1,157,2.2c-1.26,0-7.72.1-9,.1-.65,0-1.65-.06-2.55-.14a22.34,22.34,0,0,0,.29,3.2C147.42,5.32,154.53,5.22,156.47,5.2Zm8.21,8.1c-.55,0-1.16,0-1.63-.06,0,.51.09,2.07.15,2.7.42,0,.8,0,1.4,0l9.05-.08c.64,0,1.65,0,2.26,0,0-.42,0-2.16-.06-2.7-.38,0-.89,0-1.25,0l-3.75,0V8.66l1.77,0c.67,0,1.65,0,2.3,0,0-.42,0-2.11-.06-2.66-.38,0-.89,0-1.27,0-.82,0-6.93.1-7.94.08-.53,0-1.18,0-1.65-.06,0,.53.09,2.05.17,2.7.43,0,.78,0,1.38,0,.44,0,1.37,0,2.44,0v4.58C166.39,13.3,165.06,13.3,164.68,13.3Zm25.87-4.11A32.33,32.33,0,0,0,194,3.49a6.8,6.8,0,0,0-1.62-1.59,11.76,11.76,0,0,1-1.42.13c-1.22.06-6.84.15-7.85.15-.61,0-1.37,0-2-.09a19.73,19.73,0,0,0,.37,3c1.36-.06,5.88-.19,8.18-.21a13.3,13.3,0,0,1-2.73,4.07,18.51,18.51,0,0,1-7.58,4.88,13.19,13.19,0,0,0,2.33,2.66,22.15,22.15,0,0,0,6.94-5,33.63,33.63,0,0,1,4.52,5.09,7.56,7.56,0,0,0,2.36-2.35A37.47,37.47,0,0,0,190.55,9.19Zm20.77-3.28c-1,0-11,.13-12.12.09-.63,0-1.22,0-1.79,0a18,18,0,0,0,.21,2.9c.53,0,1.27,0,1.86,0l4.6,0a5.43,5.43,0,0,1-1.23,4,8.84,8.84,0,0,1-4,2.11,10.08,10.08,0,0,0,2.56,2.31,9.59,9.59,0,0,0,4.52-3.36,8.88,8.88,0,0,0,1.3-5.07l4.29,0,1.78,0a13.27,13.27,0,0,0-.07-2.87C212.76,5.87,211.76,5.91,211.32,5.91ZM201.44,4c1.31,0,8.76-.1,9.65-.1a17.47,17.47,0,0,0-.15-2.85c-.46,0-.93.1-1.6.12-1,0-7,.11-8.19.07-.66,0-1,0-1.61-.07a19.78,19.78,0,0,0,.17,2.87Zm24.29.07a12.12,12.12,0,0,1-3.82,3.75,15.77,15.77,0,0,1-5.62,2.2,10.32,10.32,0,0,0,2,2.47,25.23,25.23,0,0,0,3.59-1.56c0,1.54,0,3,0,4.41,0,.74-.08,1.54-.08,1.73a22.31,22.31,0,0,0,3.06,0c0-.42,0-1.28,0-1.75V9.08a15.68,15.68,0,0,0,2.93-2.85A11,11,0,0,0,225.73,4.08ZM246.2,4A12.07,12.07,0,0,0,245,1.42c-.38.14-.87.35-1.33.57a15.33,15.33,0,0,1,1.16,2.57A4.6,4.6,0,0,0,246.2,4Zm-3-.55a24,24,0,0,0-2.89,1.27,20.44,20.44,0,0,1,2.32,4.37,25,25,0,0,1,1.61,5.85,9.31,9.31,0,0,0,3.39-1.31,32.34,32.34,0,0,0-2-5.62A31,31,0,0,0,243.18,3.42Zm2.56-2.22a14.87,14.87,0,0,1,1.18,2.48,5,5,0,0,0,1.35-.58A12.64,12.64,0,0,0,247.09.63,6.77,6.77,0,0,0,245.74,1.2ZM232.85,8.89a15.08,15.08,0,0,1-3,4.77,10.08,10.08,0,0,0,3.21,1.61,20.85,20.85,0,0,0,2.8-5.2,34.28,34.28,0,0,0,1.69-5.68,16,16,0,0,0-3.31-.95A19.81,19.81,0,0,1,232.85,8.89Zm32.47-2c-.84,2.26-2.47,4.49-4.11,5.15,0-2.43.1-8.62.21-10a28.75,28.75,0,0,0-3.19-.26c0,.53.06,1.19.06,1.82.06,2.92,0,7.79-.08,9.78a5.16,5.16,0,0,1-.17,1.37,17,17,0,0,0,1.85,1.44c.32-.13.58-.26.85-.36a12.83,12.83,0,0,0,6.63-6.27A11.26,11.26,0,0,0,265.32,6.91ZM252.55,2.13A17.31,17.31,0,0,1,252.74,5c0,4.22-.19,6.2-2,8a5.23,5.23,0,0,1-1.32,1,9.26,9.26,0,0,0,2.74,2.2c4-3.57,3.57-6.75,3.57-14A29.19,29.19,0,0,0,252.55,2.13ZM162.62,97.21c1.47,0,2.42-.42,2.84-1.26l-5.88-1.68h16.69V83.13H140V77.46c2-.31,2.73-.94,2.84-2l-16.17-1v8.61H92.05V94.27h19.12l-5.68,1.15a47.52,47.52,0,0,1,4.62,12.29H85.54v11.23H182V107.71H157.27A111.19,111.19,0,0,0,162.62,97.21Zm-15.22,10.5h-29l4.94-1.16a46.29,46.29,0,0,0-4.73-12.28h30.56a104.65,104.65,0,0,1-4.83,12.39Zm-45.79,65.84H114v-3.46h40.85v3.36H168V124.93H101.61ZM114,135.33h40.85v7.24H114Zm0,16.8h40.85v7.56H114Z"/></g></g></svg>