<svg xmlns="http://www.w3.org/2000/svg" viewBox="0 0 339.88 175.43"><defs><style>.cls-1{fill:#0d0d0d;}</style></defs><g id="レイヤー_2" data-name="レイヤー 2"><g id="レイヤー_1-2" data-name="レイヤー 1"><path class="cls-1" d="M103.74,41.46a2.15,2.15,0,1,0,2.15,2.15A2.16,2.16,0,0,0,103.74,41.46Zm-1.8,20.31h3.6V49h-3.6Zm14.88-13.18a4.7,4.7,0,0,0-3.95,2.06V49h-3.6V61.77h3.6V55.25a4.38,4.38,0,0,1,.56-2.47,2.44,2.44,0,0,1,2.21-1.12,2.31,2.31,0,0,1,1.68.65,3.62,3.62,0,0,1,.68,2.5v7h3.6v-8a5.36,5.36,0,0,0-1-3.6A4.86,4.86,0,0,0,116.82,48.59Zm20.55.61A18.48,18.48,0,0,0,133,46.93l-1.73,2.5a18.29,18.29,0,0,1,4.27,2.51Zm13,13.41,3-1.86a26.88,26.88,0,0,0-4.23-4.14l-2.84,1.65A26.42,26.42,0,0,1,150.39,62.61ZM132.66,43.23a17.75,17.75,0,0,1,4.23,2.56l1.94-2.7a16.54,16.54,0,0,0-4.37-2.31Zm4.62,17.18a22.53,22.53,0,0,1,2.63,2.2,22.78,22.78,0,0,0,4.71-4.21.6.6,0,0,0,.67-.23l-3.78-1.44A13.7,13.7,0,0,1,137.28,60.41Zm16-7.12h-3.07V49.84h2.47V46.75h-9.63V45.4a71.7,71.7,0,0,0,8.35-1.69c.34,0,.55,0,.69-.12l-2.59-2.72a53.87,53.87,0,0,1-7.25,1.81l-2.54-.53V53.29H138v1.63l-2.59-2a64.56,64.56,0,0,1-3.57,7.28l3.34,2.19a.62.62,0,0,0,.14-.39.83.83,0,0,0-.21-.52A68.88,68.88,0,0,0,138,55.12v1.26h15.35Zm-6.36,0h-3.87V49.84H147Zm8.88-4.87h2.51a20.58,20.58,0,0,1-3.11,7.14,18.63,18.63,0,0,1,1.51,3.11,16.55,16.55,0,0,0,1.88-3.77v7.57h3.13v-9c.44.89.85,1.79,1.12,2.47l1.81-2.54c-.39-.64-2.26-3.32-2.93-4.12v-.82h2.29a9.39,9.39,0,0,1-.57.87,19.35,19.35,0,0,1,2.58,2.15,29.24,29.24,0,0,0,3.82-9.27c.35,0,.58-.11.64-.32l-3.88-1a26,26,0,0,1-2.54,7.48v-3h-2.34V41.42c.44-.09.64-.23.67-.48l-3.8-.21v4.62h-2.79Zm15.94,2.75c.42,0,.69-.19.78-.42l-4.21-1.12a51.76,51.76,0,0,1-2.49,8.74c-.85,0-1.63,0-2.27,0l1,3.79a.51.51,0,0,0,.48-.39c2.24-.13,5.54-.41,8.85-.7a10.88,10.88,0,0,1,.42,1.41l3.15-1.62a38.29,38.29,0,0,0-3.29-7.18l-2.88,1.39c.5,1,1,2,1.48,3.09l-3.63.09A53.46,53.46,0,0,0,171.78,51.17Zm2.31-10.41-3,.91a35,35,0,0,0,3.76,9.54,12.9,12.9,0,0,1,2.7-2.72A25.61,25.61,0,0,1,174.09,40.76Zm10.3,7.48A3.14,3.14,0,0,1,187.51,45a2.85,2.85,0,0,1,2.92,3,6.21,6.21,0,0,1-1.15,3.16c-.71,1.06-3,3.68-3.36,4.09l-5.78,6.58h14.27v-3.3h-7.1l3.39-3.69c1.53-1.65,3.56-3.83,3.56-6.87s-2.36-6.25-6.93-6.25a6.56,6.56,0,0,0-6.89,6.58Zm13,3.68c0,6.78,3.68,10.29,7.6,10.29s7.61-3.51,7.61-10.26S208.93,41.66,205,41.66,197.41,45.17,197.41,51.92Zm7.6-7c1.65,0,3.78,1.86,3.78,7s-2.1,7-3.78,7-3.77-1.86-3.77-7S203.36,45,205,45Zm20,9.82c1.53-1.65,3.57-3.83,3.57-6.87s-2.36-6.25-6.93-6.25a6.57,6.57,0,0,0-6.9,6.58h3.95A3.15,3.15,0,0,1,221.83,45a2.85,2.85,0,0,1,2.92,3,6.21,6.21,0,0,1-1.15,3.16c-.71,1.06-3,3.68-3.37,4.09l-5.77,6.58h14.27v-3.3h-7.11Zm7.74-9.37h2.83V61.77h3.83V42.1h-6.66ZM18.8,5.53l-1.74,0c0-1.66,0-3.33,0-4.61-1-.07-3-.14-4.08-.14.1.87.12,1.93.15,2.46s0,1.42,0,2.34l-4.91,0c0-2,0-3.77,0-4.38-1-.12-2.92-.16-3.94-.16.07.72.12,1.66.15,2.46l0,2.1H2.3C1.48,5.6.74,5.6,0,5.55A16.3,16.3,0,0,0,.3,9.15c.65,0,1.57-.05,2.34-.05H4.55c0,1.07,0,2.1,0,2.88s-.08,2.1-.1,2.44a18.89,18.89,0,0,0,3.84,0V9.06l5-.05c0,4.61-1.16,6.81-4.25,8.4a12.25,12.25,0,0,1-3.21,1A12.51,12.51,0,0,0,9,21.69C15.18,19.1,17,15.33,17,9l2,0,2.36,0a12.89,12.89,0,0,0-.12-3.52ZM39.55,3.94C39,4,37.77,4,36.27,4c0-1.35,0-2.73.07-3.74A18.77,18.77,0,0,0,32.12.05c.07.67.16,2.24.16,3.06V4H27.67c-1,0-1.83,0-2.73-.07a20.1,20.1,0,0,1,.12,2.42c0,1,0,3.18,0,4.22,0,.78-.05,1.11-.12,1.84a30.47,30.47,0,0,0,4-.07c-.05-.9-.05-1.33-.05-1.84v-3c2.52-.07,8.26-.12,10.58-.12a12.24,12.24,0,0,1-2.29,6.3c-2.13,2.68-5,3.91-9.23,4.59a12,12,0,0,0,3.19,3.43A16.68,16.68,0,0,0,41.58,14.2,23.09,23.09,0,0,0,44,5.51a10.94,10.94,0,0,0-2.37-1.72A11.85,11.85,0,0,1,39.55,3.94ZM56.63,5.29A40.3,40.3,0,0,0,50,1.54a40.73,40.73,0,0,0-2.15,3.58A39.28,39.28,0,0,1,54.36,9,14.9,14.9,0,0,0,56.63,5.29Zm8-.39c-2,4.28-4.51,7.61-8.86,10a22.42,22.42,0,0,1-7.51,2.51,11,11,0,0,0,2.59,3.94,33.23,33.23,0,0,0,7-2.95A25.57,25.57,0,0,0,67.69,8.23,11.43,11.43,0,0,0,64.67,4.9ZM85.36,5a24.61,24.61,0,0,0-1.59-3.26,14.32,14.32,0,0,0-1.89.84c.46.9,1.16,2.32,1.57,3.31A6.18,6.18,0,0,0,85.36,5Zm-.63-3.67A32.58,32.58,0,0,1,86.4,4.61a7.19,7.19,0,0,0,1.88-1A21.92,21.92,0,0,0,86.62.46,11.53,11.53,0,0,0,84.73,1.33ZM78,.75a32.85,32.85,0,0,0-4.37-.2,30.86,30.86,0,0,1,.2,3.6c0,2.32,0,11.45-.08,14,0,1-.12,2.52-.19,3.31a25,25,0,0,0,4.49.12c-.07-1.13-.12-2.61-.12-3.31,0-1.11,0-3.91,0-7a52.06,52.06,0,0,1,6.88,3,13.72,13.72,0,0,0,1.67-3.88A84.45,84.45,0,0,0,77.9,7.17C77.9,4.27,77.92,1.71,78,.75Zm32.26,5.14a15.07,15.07,0,0,0-1.18-3.09,15.33,15.33,0,0,0-1.76.6,15.22,15.22,0,0,1,1.18,3.12A5.43,5.43,0,0,0,110.25,5.89ZM112.89,5a13.06,13.06,0,0,0-1.21-3,8.59,8.59,0,0,0-1.74.6,18,18,0,0,1,1.18,3A6.11,6.11,0,0,0,112.89,5ZM96,5.09c1.67,0,10.07-.12,11.2-.12A21.18,21.18,0,0,0,107,1.35c-.58,0-1.18.12-2,.15-1.25,0-7.82.14-9.34.09-.87,0-1.28-.05-2.08-.09a24.17,24.17,0,0,0,.24,3.64Zm15,2.32c-.58,0-1.86,0-2.41,0-1.26,0-14,.17-15.41.12-.82,0-1.57,0-2.29-.07a21.82,21.82,0,0,0,.29,3.69c.67,0,1.61,0,2.36,0l5.85-.05c0,2.07-.25,3.62-1.57,5.09a11,11,0,0,1-5.1,2.71A11.75,11.75,0,0,0,96,21.83a12.23,12.23,0,0,0,5.75-4.25c1.23-1.84,1.57-3.84,1.64-6.52L108.8,11c.78,0,1.55,0,2.3,0A16.5,16.5,0,0,0,111,7.41ZM131.83,9.1l2,0,2.36,0a13.13,13.13,0,0,0-.12-3.55c-.55,0-1.93.08-2.46.08l-1.76,0c0-1.67,0-3.33,0-4.59-1-.09-3-.17-4.08-.17.1.87.12,1.93.15,2.47s0,1.44.05,2.34l-4.91,0c0-2,0-3.76,0-4.37-1-.12-3-.14-3.94-.14.07.72.12,1.66.15,2.46l0,2.08H117.1c-.82,0-1.57,0-2.27-.1a15.34,15.34,0,0,0,.29,3.62c.65,0,1.57,0,2.34,0h1.91c0,1.07,0,2.11,0,2.88s-.08,2.1-.1,2.44a18.9,18.9,0,0,0,3.84,0V9.18l4.93,0c0,4.61-1.16,6.78-4.25,8.4a13,13,0,0,1-3.22,1,12.73,12.73,0,0,0,3.26,3.29C130,19.25,131.78,15.45,131.83,9.1Zm3.46-4.68a14.08,14.08,0,0,0-1.12-3.07,8.53,8.53,0,0,0-1.66.56A18.56,18.56,0,0,1,133.62,5,5,5,0,0,0,135.29,4.42Zm2.48-.85a13,13,0,0,0-1.13-3,9.58,9.58,0,0,0-1.64.51,27.44,27.44,0,0,1,1.11,3A5.65,5.65,0,0,0,137.77,3.57Zm4,10.15a45.42,45.42,0,0,0,6.3-2.88c0,2.76,0,5.22-.07,7.83-.05,1.23-.12,2.19-.17,2.89a22.41,22.41,0,0,0,4.49,0c0-.72-.09-2.12-.09-2.94V8.19a25.22,25.22,0,0,0,4.83-4.67A14,14,0,0,0,154.23.36a21.2,21.2,0,0,1-6.35,6.26A26.71,26.71,0,0,1,139,10.17,15.33,15.33,0,0,0,141.79,13.72Zm20.32,3.71a11,11,0,0,0,2.59,3.94,33.23,33.23,0,0,0,7.05-2.95A25.57,25.57,0,0,0,181.5,8.23a11.53,11.53,0,0,0-3-3.33c-2,4.28-4.52,7.61-8.87,10A22.34,22.34,0,0,1,162.11,17.43Zm8.33-12.14a40.3,40.3,0,0,0-6.66-3.75,40.73,40.73,0,0,0-2.15,3.58A39.28,39.28,0,0,1,168.17,9,14.9,14.9,0,0,0,170.44,5.29ZM198.9,6.62a13.86,13.86,0,0,1-2.83,6.3A15.58,15.58,0,0,1,187.14,18a11.71,11.71,0,0,0,3.45,3.58,20,20,0,0,0,9.47-7.34,28.19,28.19,0,0,0,3.72-9.73,10.17,10.17,0,0,0-2.34-1.86,14.18,14.18,0,0,1-1.84.14c-1.59,0-9.8.12-11.4.12-.82,0-2.1-.07-3.23-.17a27.71,27.71,0,0,0,.36,4.06C187.4,6.76,196.44,6.64,198.9,6.62ZM209.34,16.9c-.7,0-1.47,0-2.07-.07,0,.65.12,2.63.19,3.43.53,0,1,0,1.79,0,1.52,0,10.48-.1,11.49-.1.82,0,2.1,0,2.88.05,0-.53,0-2.76-.08-3.43-.48,0-1.13,0-1.59,0l-4.76.05V11l2.25,0c.84,0,2.1,0,2.92,0,0-.53,0-2.68-.07-3.38-.49,0-1.14,0-1.62,0-1,0-8.82.12-10.1.1-.67,0-1.49,0-2.1-.08,0,.68.12,2.61.22,3.43.56,0,1,0,1.76-.05.56,0,1.74,0,3.09,0v5.82C211.52,16.9,209.83,16.9,209.34,16.9Zm32.88-5.21a40.07,40.07,0,0,0,4.35-7.25,9,9,0,0,0-2-2,13.46,13.46,0,0,1-1.81.17c-1.55.08-8.7.2-10,.2-.77,0-1.74,0-2.51-.12a26.19,26.19,0,0,0,.46,3.79c1.74-.08,7.49-.24,10.41-.27a17.07,17.07,0,0,1-3.48,5.17A23.48,23.48,0,0,1,228,17.56a16.58,16.58,0,0,0,3,3.38,28.39,28.39,0,0,0,8.81-6.33,42.48,42.48,0,0,1,5.75,6.47,9.48,9.48,0,0,0,3-3A47.37,47.37,0,0,0,242.22,11.69Zm13.85-6.6c1.67,0,11.13-.12,12.27-.12a22.25,22.25,0,0,0-.19-3.62c-.58,0-1.19.12-2,.15-1.26,0-8.89.14-10.41.09-.85,0-1.26-.05-2.05-.09a24.37,24.37,0,0,0,.21,3.64Zm12.56,2.42c-1.23,0-14,.17-15.41.12-.8,0-1.54,0-2.27-.07a21.94,21.94,0,0,0,.27,3.69c.67,0,1.62-.05,2.36-.05l5.85,0c0,2-.24,3.57-1.57,5a11,11,0,0,1-5.1,2.68A12.78,12.78,0,0,0,256,21.83a12.26,12.26,0,0,0,5.75-4.27c1.23-1.82,1.57-3.8,1.64-6.45l5.46,0,2.27,0a16.63,16.63,0,0,0-.1-3.64C270.46,7.46,269.18,7.51,268.63,7.51ZM287,5.19A15.55,15.55,0,0,1,282.1,10a20,20,0,0,1-7.15,2.8,13.21,13.21,0,0,0,2.49,3.14,34.28,34.28,0,0,0,4.56-2c0,2,0,3.74-.05,5.6,0,.94-.09,2-.09,2.2a25.11,25.11,0,0,0,3.88,0c0-.53,0-1.62,0-2.22V11.54a20.14,20.14,0,0,0,3.72-3.62A13.85,13.85,0,0,0,287,5.19Zm26-.14a15.11,15.11,0,0,0-1.5-3.24,15.76,15.76,0,0,0-1.69.72,20,20,0,0,1,1.48,3.26A5.93,5.93,0,0,0,313,5.05ZM296,11.3a18.81,18.81,0,0,1-3.81,6.06,12.83,12.83,0,0,0,4.08,2.06,26.48,26.48,0,0,0,3.55-6.62A42.52,42.52,0,0,0,302,5.58a21.09,21.09,0,0,0-4.2-1.21A24.74,24.74,0,0,1,296,11.3Zm16.4-9.78a20.35,20.35,0,0,1,1.5,3.16,6.19,6.19,0,0,0,1.71-.74A16,16,0,0,0,314.11.8,8.93,8.93,0,0,0,312.39,1.52Zm-3.26,2.83A31.31,31.31,0,0,0,305.46,6a26.62,26.62,0,0,1,3,5.56,32.16,32.16,0,0,1,2,7.44,11.86,11.86,0,0,0,4.3-1.67,40.85,40.85,0,0,0-2.49-7.15A38.19,38.19,0,0,0,309.13,4.35Zm28.14,4.44c-1.06,2.87-3.14,5.7-5.21,6.54,0-3.09.12-11,.26-12.72a34.85,34.85,0,0,0-4.05-.34c0,.68.07,1.52.07,2.32.07,3.72,0,9.9-.1,12.43a6.36,6.36,0,0,1-.22,1.74,21.1,21.1,0,0,0,2.35,1.84c.41-.17.75-.34,1.08-.46a16.28,16.28,0,0,0,8.43-8A13.71,13.71,0,0,0,337.27,8.79ZM321.05,2.7a23.78,23.78,0,0,1,.24,3.67c0,5.37-.24,7.88-2.49,10.22a6.4,6.4,0,0,1-1.67,1.33,11.67,11.67,0,0,0,3.48,2.8c5.07-4.54,4.54-8.57,4.54-17.75A37.79,37.79,0,0,0,321.05,2.7ZM195.77,107.31c1.31,0,2.15-.38,2.53-1.13l-5.25-1.5H208V94.75H175.62V89.69c1.78-.28,2.44-.84,2.53-1.78l-14.43-.84v7.68H132.8v9.93h17l-5.06,1a41.71,41.71,0,0,1,4.12,11H127v10h86v-10H191A100.41,100.41,0,0,0,195.77,107.31Zm-13.59,9.37H156.32l4.4-1a41.63,41.63,0,0,0-4.21-11h27.26a92.12,92.12,0,0,1-4.31,11.06Zm-40.86,58.75h11.06v-3.09h36.45v3h11.72V132.05H141.32Zm11.06-34.11h36.45v6.47H152.38Zm0,15h36.45v6.74H152.38Z"/></g></g></svg>