<svg xmlns="http://www.w3.org/2000/svg" viewBox="0 0 55.61 41.97"><defs><style>.cls-1{fill:#fff;}</style></defs><g id="Layer_2" data-name="Layer 2"><g id="レイヤー_1" data-name="レイヤー 1"><path class="cls-1" d="M16,7.76c3.38,0,6.1,8.56,7.73,13.23,0,0,.44,1.3.44,1.3C27.5,32,31,42,39.65,42S51.77,32,55.13,22.38l0-.1c.11-.28.21-.6.32-.91l.13-.38H47.36c-1.49,4.34-4.28,13.22-7.71,13.22S33.55,25.66,31.93,21l-.45-1.3C28.12,10,24.64,0,16,0S3.84,10,.48,19.59l0,.1c-.11.29-.21.6-.32.92L0,21H8.26C9.74,16.64,12.53,7.76,16,7.76Z"/></g></g></svg>