<svg xmlns="http://www.w3.org/2000/svg" viewBox="0 0 20.65 14.55"><defs><style>.cls-1{fill:#fff;}</style></defs><g id="Layer_2" data-name="Layer 2"><g id="Layer_1-2" data-name="Layer 1"><path class="cls-1" d="M20.22,2.27A2.61,2.61,0,0,0,18.39.43C16.78,0,10.33,0,10.33,0S3.87,0,2.26.43A2.61,2.61,0,0,0,.43,2.27a27.37,27.37,0,0,0-.43,5,27.28,27.28,0,0,0,.43,5,2.61,2.61,0,0,0,1.83,1.84c1.61.43,8.07.43,8.07.43s6.45,0,8.06-.43a2.61,2.61,0,0,0,1.83-1.84,27.28,27.28,0,0,0,.43-5A27.37,27.37,0,0,0,20.22,2.27Zm-12,8.08V4.2l5.4,3.08Z"/></g></g></svg>