<svg xmlns="http://www.w3.org/2000/svg" viewBox="0 0 49.2 45"><defs><style>.cls-1{fill:#fff;}</style></defs><g id="Layer_2" data-name="Layer 2"><g id="レイヤー_1" data-name="レイヤー 1"><rect class="cls-1" x="9.63" y="2.06" width="5.92" height="2.58"/><rect class="cls-1" x="27.54" y="2.06" width="5.92" height="2.58"/><rect class="cls-1" x="18.59" y="2.06" width="5.92" height="2.58"/><path class="cls-1" d="M8.11,6.77A1.28,1.28,0,0,1,6.83,5.48V1.29a1.29,1.29,0,1,1,2.57,0V5.48A1.29,1.29,0,0,1,8.11,6.77Z"/><path class="cls-1" d="M17.07,6.77a1.29,1.29,0,0,1-1.29-1.29V1.29a1.29,1.29,0,1,1,2.58,0V5.48A1.29,1.29,0,0,1,17.07,6.77Z"/><path class="cls-1" d="M26,6.77a1.28,1.28,0,0,1-1.28-1.29V1.29a1.29,1.29,0,1,1,2.57,0V5.48A1.29,1.29,0,0,1,26,6.77Z"/><path class="cls-1" d="M35,6.77a1.29,1.29,0,0,1-1.29-1.29V1.29a1.29,1.29,0,1,1,2.58,0V5.48A1.29,1.29,0,0,1,35,6.77Z"/><rect class="cls-1" x="5.21" y="10.06" width="5.81" height="5.81" rx="1.62"/><rect class="cls-1" x="14.16" y="10.06" width="5.81" height="5.81" rx="1.62"/><rect class="cls-1" x="23.12" y="10.06" width="5.81" height="5.81" rx="1.62"/><rect class="cls-1" x="32.07" y="10.06" width="5.81" height="5.81" rx="1.62"/><rect class="cls-1" x="5.21" y="19.01" width="5.81" height="5.81" rx="1.62"/><rect class="cls-1" x="14.16" y="19.01" width="5.81" height="5.81" rx="1.62"/><rect class="cls-1" x="23.12" y="19.01" width="5.81" height="5.81" rx="1.62"/><rect class="cls-1" x="5.21" y="27.97" width="5.81" height="5.81" rx="1.62"/><rect class="cls-1" x="14.16" y="27.97" width="5.81" height="5.81" rx="1.62"/><path class="cls-1" d="M42.28,23A11.09,11.09,0,0,0,41,22.59l-.45-.12V6.2A1.56,1.56,0,0,0,39,4.64H36.5V2.06H39A4.14,4.14,0,0,1,43.09,6.2V23.33Z"/><path class="cls-1" d="M4.14,39.8A4.15,4.15,0,0,1,0,35.66V6.2A4.15,4.15,0,0,1,4.14,2.06H6.6V4.64H4.14A1.56,1.56,0,0,0,2.58,6.2V35.66a1.56,1.56,0,0,0,1.56,1.56H26.92l.14.41a11.93,11.93,0,0,0,.53,1.31l.42.86Z"/><path class="cls-1" d="M38.07,35.15a1.29,1.29,0,0,1-1.29-1.29V28a1.29,1.29,0,1,1,2.57,0v4.59h4.11a1.29,1.29,0,1,1,0,2.58Z"/><path class="cls-1" d="M38.07,45A11.14,11.14,0,1,1,49.2,33.86,11.16,11.16,0,0,1,38.07,45Zm0-19.69a8.56,8.56,0,1,0,8.55,8.55A8.57,8.57,0,0,0,38.07,25.31Z"/></g></g></svg>