<svg xmlns="http://www.w3.org/2000/svg" viewBox="0 0 154.25 135.2"><defs><style>.cls-1{fill:#fff;}.cls-2{fill:#2d91c0;}.cls-3{fill:#58a947;}</style></defs><g id="Layer_2" data-name="Layer 2"><g id="レイヤー"><polygon class="cls-1" points="5.13 86.05 16.36 86.05 16.36 80.94 0 80.94 0 109.06 5.13 109.06 5.13 97.67 14.46 97.67 14.46 92.56 5.13 92.56 5.13 86.05"/><polygon class="cls-1" points="56.07 86.09 63.46 86.09 63.46 109.06 69.06 109.06 69.06 86.09 76.45 86.09 76.45 80.94 56.07 80.94 56.07 86.09"/><path class="cls-1" d="M29.06,1.26a9.82,9.82,0,0,0-9.8,9.81v9.8a9.8,9.8,0,0,0,19.6,0v-9.8A9.81,9.81,0,0,0,29.06,1.26Zm-4.6,9.81a4.61,4.61,0,1,1,9.21,0v9.8a4.61,4.61,0,1,1-9.21,0Z"/><path class="cls-1" d="M56.52,20.66a4.61,4.61,0,0,1-9.22,0V1.89H42.11V20.66a9.8,9.8,0,0,0,19.6,0V1.89H56.52Z"/><path class="cls-1" d="M12.89,15.58,6.51,11.44A2.82,2.82,0,0,1,9.41,6.6l.51.32,2.8,1.82,2.77-4.28L12.63,2.6l-.76-.47A7.93,7.93,0,0,0,.3,10.73a7.84,7.84,0,0,0,3.44,5l6.38,4.14a3.2,3.2,0,0,1,1.39,2,3.16,3.16,0,0,1-.45,2.41,3.22,3.22,0,0,1-4.23,1.08l-.5-.31-3.55-2.3L0,27l3.51,2.28s.68.43.85.52a8.21,8.21,0,0,0,4,1,8.33,8.33,0,0,0,7-3.79h0a8.31,8.31,0,0,0-2.45-11.48Z"/><path class="cls-1" d="M116.53,2h0c-.43,0-2-.06-2.07-.06h-6.08V30h6.25l1.29,0c7-.36,12.13-6.26,12.13-14C128.05,8.37,123.31,2.62,116.53,2Zm6.39,14c0,5.08-2.9,8.66-7.21,8.91l-.93,0h-1.27V7h1.3l1,0C120,7.33,122.92,10.91,122.92,16Z"/><rect class="cls-1" x="61.39" y="41.76" width="5.6" height="28.12"/><rect class="cls-1" x="80.88" y="81.18" width="5.6" height="28.12"/><path class="cls-1" d="M53.92,55.37,47.6,51.28a2.79,2.79,0,0,1,2.87-4.79l.5.32,2.78,1.8,2.75-4.24-2.84-1.84s-.59-.38-.75-.47a7.88,7.88,0,0,0-10.37,2.61,7.84,7.84,0,0,0,2.32,10.85l6.31,4.1a3.07,3.07,0,0,1,1.37,2,3.18,3.18,0,0,1-4.61,3.46l-.51-.31-3.51-2.28-2.75,4.24L44.64,69s.67.43.84.52a8,8,0,0,0,3.93,1,8.23,8.23,0,0,0,4.51-15.13Z"/><polygon class="cls-1" points="23.46 69.88 38.39 69.88 38.39 64.74 28.59 64.74 28.59 58.53 37.38 58.53 37.38 53.38 28.59 53.38 28.59 46.92 38.39 46.92 38.39 41.76 23.46 41.76 23.46 69.88"/><path class="cls-1" d="M51,94.79,44.72,90.7a2.74,2.74,0,0,1-1.21-1.76,2.79,2.79,0,0,1,4.07-3l.51.32L50.87,88l2.74-4.24-2.83-1.84s-.6-.38-.76-.46a7.88,7.88,0,0,0-10.37,2.6A7.85,7.85,0,0,0,42,94.94L48.28,99a3.17,3.17,0,0,1,.94,4.39A3.2,3.2,0,0,1,45,104.49l-.5-.32L41,101.89l-2.75,4.24,3.48,2.26.85.52a8.16,8.16,0,0,0,3.93,1A8.23,8.23,0,0,0,51,94.79Z"/><polygon class="cls-1" points="20.57 109.09 35.5 109.09 35.5 103.94 25.7 103.94 25.7 97.73 34.5 97.73 34.5 92.59 25.7 92.59 25.7 86.12 35.5 86.12 35.5 80.97 20.57 80.97 20.57 109.09"/><path class="cls-1" d="M8.15,41.82h0c-.43,0-2-.06-2.06-.06H0V69.88H6.26s1,0,1.29,0c7-.36,12.13-6.26,12.13-14C19.68,48.23,14.94,42.48,8.15,41.82Zm6.4,14c0,5.08-2.9,8.66-7.21,8.92H5.14V46.89h1.3l.95,0C11.67,47.19,14.55,50.77,14.55,55.82Z"/><path class="cls-1" d="M80.84,60.59h4.8v.1a4.53,4.53,0,0,1-9.06,0V51a4.53,4.53,0,0,1,9-.21v1.35h5.14V50.78A9.66,9.66,0,0,0,71.45,51v9.69a9.67,9.67,0,0,0,19.33,0V55.47H80.84Z"/><path class="cls-1" d="M141.72,81.59v22.75H154v4.36H136.82V81.59Z"/><path class="cls-1" d="M119,81.05l-9.5,28h5.57l2.43-7.32h8.53l2.44,7.32h5.56l-9.5-28Zm0,16.31,2.81-8.45,2.81,8.45Z"/><path class="cls-1" d="M107.54,81.3l-6.7,20.14L94.14,81.3H88.57l9.5,28h5.53l9.51-28h-5.57"/><path class="cls-2" d="M65,17.85a2.57,2.57,0,0,0,.09.29l0,.08c2.53,8.43,5.65,13.17,11.76,13.17,6.29,0,9.32-6,11.86-14.44L89,15.83l.24-.81c1.07-3.6,3.13-8.58,5.54-8.58s3.84,3.74,4.83,7.1h6.79l-.09-.28,0-.08C103.79,4.75,100.75,0,94.41,0S85.17,6,82.63,14.44l-.33,1.12-.24.8C81,20,79.12,25,76.65,25s-3.82-3.79-4.8-7.15Z"/><path class="cls-1" d="M99.64,15.69l-.17.51c-1,2.85-2.65,8.8-5.14,8.8s-4-5.68-5.07-8.74L89,15.59s-.33-1-.34-1C86.2,7.43,83.61,0,77,0S67.86,7.4,65.36,14.57l0,.06q-.11.28-.21.6L65,15.7h6.88l.17-.51c1-3.07,2.91-8.79,5-8.79s4,5.69,5.07,8.74l.23.69.33.94C85.15,24,87.73,31.4,94.33,31.4S103.54,24,106,16.84l0-.07c.08-.21.16-.44.24-.68l.13-.4Z"/><path class="cls-3" d="M97.84,57.68a2,2,0,0,0,.09.29l0,.08c2.53,8.44,5.65,13.18,11.76,13.18,6.29,0,9.33-6,11.86-14.44,0,0,.32-1.08.33-1.13l.25-.8c1.06-3.6,3.12-8.58,5.53-8.58s3.84,3.73,4.83,7.1h6.79l-.09-.28,0-.09c-2.53-8.42-5.57-13.17-11.91-13.17s-9.24,6-11.78,14.43l-.33,1.12-.24.8c-1.07,3.6-2.94,8.65-5.41,8.65s-3.81-3.79-4.8-7.16Z"/><path class="cls-1" d="M132.51,55.53l-.17.5c-1,2.86-2.65,8.81-5.14,8.81s-4-5.69-5.07-8.74l-.23-.68s-.33-1-.34-1c-2.49-7.19-5.08-14.62-11.67-14.62s-9.16,7.4-11.66,14.56l0,.06-.21.6-.16.47h6.88l.17-.5c1-3.08,2.91-8.8,5-8.8s4,5.69,5.07,8.75l.23.68.33,1c2.5,7.19,5.08,14.63,11.68,14.63s9.21-7.41,11.71-14.56l0-.07.24-.68.13-.4Z"/><path class="cls-1" d="M0,122.39v-2.2H2.36v2.2Zm0,12.68V124.24H2.35v10.83Z"/><path class="cls-1" d="M10.28,135.07v-6.55c0-1.47-.8-2-1.53-2s-1.54.5-1.54,2v6.55H4.91V124.24H7.16v1a2.93,2.93,0,0,1,2.3-1.12,2.75,2.75,0,0,1,2.18,1,4.45,4.45,0,0,1,.94,3.07v6.92Z"/><path class="cls-1" d="M26.07,135.07v-6.19H21.8v6.19H19.34v-14.8H21.8v6h4.27v-6h2.46v14.8Z"/><path class="cls-1" d="M36,135.07v-.93a2.64,2.64,0,0,1-2.27,1,2.91,2.91,0,0,1-2.36-1,3.87,3.87,0,0,1-.76-2.43,2.92,2.92,0,0,1,3.15-3.14H36v-.54c0-1.19-.49-1.7-1.72-1.7a1.86,1.86,0,0,0-1.77.89L31,125.62a3.58,3.58,0,0,1,3.32-1.5c2.59,0,3.93,1.29,3.93,3.82v7.13ZM36,130.5H34.14a1.15,1.15,0,0,0-1.29,1.23A1.16,1.16,0,0,0,34.17,133a1.66,1.66,0,0,0,1.46-.52,2,2,0,0,0,.33-1.37Z"/><path class="cls-1" d="M51.47,135.07v-6.55c0-1.47-.8-2-1.52-2s-1.54.5-1.54,1.91v6.61h-2.3v-6.55c0-1.47-.8-2-1.53-2s-1.54.5-1.54,2v6.55h-2.3V124.24H43v1a3,3,0,0,1,2.3-1.12,2.72,2.72,0,0,1,2.44,1.37,3.29,3.29,0,0,1,2.77-1.37,2.92,2.92,0,0,1,2.26,1,4.5,4.5,0,0,1,1,3.07v6.92Z"/><path class="cls-1" d="M61,135.07v-.93a2.64,2.64,0,0,1-2.27,1,2.88,2.88,0,0,1-2.35-1,3.82,3.82,0,0,1-.77-2.43,2.92,2.92,0,0,1,3.15-3.14h2.18v-.54c0-1.19-.49-1.7-1.71-1.7a1.84,1.84,0,0,0-1.77.89L56,125.62a3.58,3.58,0,0,1,3.32-1.5c2.59,0,3.93,1.29,3.93,3.82v7.13Zm-.06-4.57H59.1a1.15,1.15,0,0,0-1.29,1.23A1.16,1.16,0,0,0,59.13,133a1.66,1.66,0,0,0,1.46-.52,2,2,0,0,0,.33-1.37Z"/><path class="cls-1" d="M76.43,135.07v-6.55c0-1.47-.8-2-1.52-2s-1.54.5-1.54,1.91v6.61h-2.3v-6.55c0-1.47-.8-2-1.53-2s-1.54.5-1.54,2v6.55H65.7V124.24H68v1a3,3,0,0,1,2.3-1.12,2.72,2.72,0,0,1,2.44,1.37,3.3,3.3,0,0,1,2.77-1.37,2.92,2.92,0,0,1,2.26,1,4.45,4.45,0,0,1,1,3.07v6.92Z"/><path class="cls-1" d="M85.94,135.07v-.93a2.64,2.64,0,0,1-2.27,1,2.88,2.88,0,0,1-2.35-1,3.82,3.82,0,0,1-.77-2.43,2.92,2.92,0,0,1,3.16-3.14h2.17v-.54c0-1.19-.49-1.7-1.71-1.7a1.84,1.84,0,0,0-1.77.89l-1.47-1.68a3.58,3.58,0,0,1,3.32-1.5c2.59,0,3.93,1.29,3.93,3.82v7.13Zm-.06-4.57H84.06a1.15,1.15,0,0,0-1.29,1.23A1.16,1.16,0,0,0,84.09,133a1.66,1.66,0,0,0,1.46-.52,2,2,0,0,0,.33-1.37Z"/><path class="cls-1" d="M93.55,135.07c-1.88,0-2.68-1.56-2.68-3.1v-5.36h-1v-2h1v-3.21h2.31v3.21H94.8v2H93.18v5.2c0,.62.24,1,.79,1h.83v2.28Z"/><path class="cls-1" d="M99.92,135.2A4.58,4.58,0,0,1,96,133.64l1.51-1.77a3.06,3.06,0,0,0,2.46,1c.79,0,1.62-.31,1.62-1.12,0-.54-.24-.92-1-1l-1.45-.17a2.69,2.69,0,0,1-2.69-3,3.35,3.35,0,0,1,3.56-3.45,4.43,4.43,0,0,1,3.52,1.27l-1.42,1.68a2.88,2.88,0,0,0-2.14-.73c-.92,0-1.31.5-1.31,1s.14.85,1,.94l1.45.16a2.87,2.87,0,0,1,2.74,3.18C103.83,134.05,102.1,135.2,99.92,135.2Z"/><path class="cls-1" d="M111.07,135.07v-1a2.94,2.94,0,0,1-2.3,1.13,2.79,2.79,0,0,1-2.18-1,4.46,4.46,0,0,1-.93-3.08v-6.92H108v6.55c0,1.48.79,2,1.52,2s1.54-.49,1.54-2v-6.55h2.3v10.83Z"/><path class="cls-1" d="M119.76,135.07v-2.43l4.71-6.42a2.8,2.8,0,0,0,.66-1.79c0-1.1-.55-1.85-1.52-1.85-.77,0-1.54.46-1.54,1.89h-2.31c0-2.7,1.69-4.32,3.85-4.32s3.82,1.64,3.82,4.3a5.09,5.09,0,0,1-1.35,3.39l-3.52,4.8h4.87v2.43Z"/><path class="cls-1" d="M133.15,135.2c-2.06,0-3.84-1.58-3.84-4.41v-6.23c0-2.83,1.78-4.41,3.84-4.41s3.82,1.58,3.82,4.41v6.23C137,133.62,135.2,135.2,133.15,135.2Zm1.52-10.6c0-1.25-.62-2-1.52-2s-1.54.77-1.54,2v6.17c0,1.25.63,2,1.54,2s1.52-.74,1.52-2Z"/><path class="cls-1" d="M139,135.07v-2.43l4.71-6.42a2.79,2.79,0,0,0,.65-1.79c0-1.1-.55-1.85-1.52-1.85-.76,0-1.54.46-1.54,1.89H139c0-2.7,1.68-4.32,3.84-4.32s3.82,1.64,3.82,4.3a5.08,5.08,0,0,1-1.34,3.39l-3.52,4.8h4.86v2.43Z"/><path class="cls-1" d="M152,135.07V123.18l-2.57,2.62v-2.91l2.57-2.62h2.3v14.8Z"/></g></g></svg>