<svg xmlns="http://www.w3.org/2000/svg" viewBox="0 0 198.43 184.27"><defs><style>.cls-1,.cls-10,.cls-7,.cls-8,.cls-9{fill:#515151;}.cls-2,.cls-5,.cls-6{fill:#fff;}.cls-11,.cls-12,.cls-13,.cls-3,.cls-4{fill:none;}.cls-11,.cls-12,.cls-3,.cls-5,.cls-6,.cls-7,.cls-8{stroke:#515151;}.cls-11,.cls-12,.cls-13,.cls-3,.cls-5,.cls-6,.cls-7,.cls-8,.cls-9{stroke-linecap:round;}.cls-11,.cls-12,.cls-13,.cls-3,.cls-5,.cls-7,.cls-8{stroke-linejoin:round;}.cls-3,.cls-5,.cls-6{stroke-width:0.62px;}.cls-10,.cls-13,.cls-4,.cls-9{stroke:#fff;}.cls-10,.cls-4,.cls-6,.cls-9{stroke-miterlimit:10;}.cls-4{stroke-width:2.04px;}.cls-7{stroke-width:1.16px;}.cls-8{stroke-width:0.81px;}.cls-10,.cls-9{stroke-width:0.52px;}.cls-11,.cls-13{stroke-width:0.6px;}.cls-12{stroke-width:1.45px;}</style></defs><g id="レイヤー_2" data-name="レイヤー 2"><g id="レイヤー_1-2" data-name="レイヤー 1"><rect class="cls-1" width="198.43" height="51.23"/><path class="cls-2" d="M26.88,17.82a4,4,0,0,0-.77.05v-.8a5,5,0,0,0,.78,0h1.5a5,5,0,0,0,.55-1.37l.72.23a8,8,0,0,1-.55,1.14h.34a5,5,0,0,0,.78,0v.8a4.17,4.17,0,0,0-.78-.05h-.82v.76h.79a5.1,5.1,0,0,0,.77,0v.8a3.86,3.86,0,0,0-.77,0H28.9a3.5,3.5,0,0,0,1,.9,4.7,4.7,0,0,0-.39.69,3.89,3.89,0,0,1-1-1.07,5.8,5.8,0,0,1,0,.73v1a5.28,5.28,0,0,0,0,.75h-.85a5,5,0,0,0,.05-.72v-1a4.94,4.94,0,0,1,0-.67,4.91,4.91,0,0,1-1.56,1.78,2.48,2.48,0,0,0-.4-.74,4.79,4.79,0,0,0,1.63-1.66h-.69a4,4,0,0,0-.78,0v-.8a3.9,3.9,0,0,0,.8,0h1v-.76ZM29.35,15a4,4,0,0,0,.79,0v.8a5.82,5.82,0,0,0-.79,0H27.08a5.61,5.61,0,0,0-.8,0V15a5,5,0,0,0,.82,0h.75v-.17a3.73,3.73,0,0,0,0-.65h.89a2.75,2.75,0,0,0-.05.64V15ZM27.2,17.09A3.76,3.76,0,0,0,26.78,16l.67-.22a5,5,0,0,1,.43,1.12ZM33.42,17a4.85,4.85,0,0,0,.81-.05v.83a4.63,4.63,0,0,0-.74,0h-.26v3.67a5.6,5.6,0,0,0,.05,1H32.4a6.77,6.77,0,0,0,.05-1V17.69H31.33a7.75,7.75,0,0,1-1.14,4.66,2.83,2.83,0,0,0-.72-.5c.87-1.05,1.09-2.21,1.09-5.6a12.3,12.3,0,0,0,0-1.28,6.77,6.77,0,0,0,3-.77l.61.72-.31.1a10.87,10.87,0,0,1-2.45.63V17Z"/><path class="cls-2" d="M36.2,15.25a5.35,5.35,0,0,0-.8,0V14.5a7.27,7.27,0,0,0,.91.05h2.41a5,5,0,0,0,.9-.05v.79a5.11,5.11,0,0,0-.79,0h0v1H39a4.63,4.63,0,0,0,.85,0V17A6.15,6.15,0,0,0,39,17h-.19v1.05a6.43,6.43,0,0,0,0,.65h.7a2.34,2.34,0,0,0,0,.6v.28h1.83a7.25,7.25,0,0,0,1,0v.81a7.61,7.61,0,0,0-1-.05H39.46v1H42a8,8,0,0,0,1,0v.84A7.55,7.55,0,0,0,42,22H36.28a7.39,7.39,0,0,0-1.06.06v-.84a7.57,7.57,0,0,0,1,0h2.43v-1H37a8,8,0,0,0-1,.05v-.81a5.08,5.08,0,0,0,.92,0h1.75V19.3c0-.15,0-.19,0-.34H38c0-.18,0-.56,0-.91V17H37a3.18,3.18,0,0,1-1.24,2.32,2.59,2.59,0,0,0-.59-.6A2.27,2.27,0,0,0,36.23,17H36a4.81,4.81,0,0,0-.84,0v-.8a6.58,6.58,0,0,0,.86,0h.25c0-.27,0-.56,0-1Zm.88,0c0,.52,0,.82,0,1h1v-1Zm3,2.53a4.53,4.53,0,0,0,0-.75v-1.6a4.77,4.77,0,0,0,0-.76H41a5.93,5.93,0,0,0,0,.71v1.71a4.1,4.1,0,0,0,0,.69Zm2.64.43c0,.66-.23.82-1.11.82a7.83,7.83,0,0,1-.81,0,2.32,2.32,0,0,0-.21-.8,6.56,6.56,0,0,0,1,.08c.24,0,.29,0,.29-.2v-3a5.2,5.2,0,0,0-.05-.79h.9a5.11,5.11,0,0,0,0,.84Z"/><path class="cls-2" d="M49.7,20.17V16.35h-5v-.86h5.88v6.22H49.7V21h-5v-.87Z"/><path class="cls-2" d="M54,20.91v.77H53.1V15.44h6.07v6.14h-.91v-.67Zm4.25-4.65H54v3.83h4.25Z"/><path class="cls-2" d="M64.23,14.61h.93v2.26h3v.83h-3A4.47,4.47,0,0,1,62.44,22l-.59-.76a3.63,3.63,0,0,0,2.37-3.51H61.08v-.83h3.15Z"/><path class="cls-2" d="M75.67,15.83l.52.5c-.32,3-1.68,4.77-4.33,5.67l-.49-.8a5,5,0,0,0,3.83-4.56H70.65v1.9h-.93V15.83h2.62V14.45h.94v1.38Z"/><path class="cls-2" d="M81.86,22h-1V17.74A15.55,15.55,0,0,1,78,19.17l-.54-.73a13.41,13.41,0,0,0,5.74-3.87l.81.57a16,16,0,0,1-2.17,2Z"/><path class="cls-2" d="M87.55,15.07v2a5.51,5.51,0,0,1-2,4.66l-.67-.63A4.57,4.57,0,0,0,86.63,17v-2ZM90,14.82v5.73a6.68,6.68,0,0,0,2.56-2.08l.53.76a8.31,8.31,0,0,1-3.53,2.5l-.49-.4V14.82Z"/><path class="cls-2" d="M100.05,21.86a16.18,16.18,0,0,0-2.46-2.68,10.61,10.61,0,0,1-3.52,2.61l-.57-.72a9.2,9.2,0,0,0,5-5.06H94.34v-.85h4.73l.52.6a11.36,11.36,0,0,1-1.47,2.77,15.3,15.3,0,0,1,2.72,2.68Z"/><path class="cls-2" d="M106.26,18.67c0,.1,0,.14,0,.33a5.72,5.72,0,0,0,1-.86,7.58,7.58,0,0,1-.67-2.43h-3.33c0,2.37-.2,3.37-.78,4.28a1.94,1.94,0,0,0-.67-.54,3.12,3.12,0,0,0,.51-1.17,9.49,9.49,0,0,0,.19-2,9.33,9.33,0,0,0-.05-1.27,10.54,10.54,0,0,0,1.06,0h3c0-.17,0-.26,0-.28v-.33a1.12,1.12,0,0,0,0-.22h.85c0,.12,0,.28,0,.42s0,.27,0,.41h1.17a6.55,6.55,0,0,0-.81-.51l.55-.37a5.12,5.12,0,0,1,.91.6l-.39.28a6,6,0,0,0,1,0v.77a9.72,9.72,0,0,0-1,0h-1.32a7.58,7.58,0,0,0,.43,1.79,5.34,5.34,0,0,0,.67-1.39l.7.29c-.09.16-.09.16-.2.39a7.61,7.61,0,0,1-.83,1.39,4.43,4.43,0,0,0,.42.54,1,1,0,0,0,.4.26c.15,0,.27-.39.35-1.08a2.24,2.24,0,0,0,.61.48c-.2,1-.46,1.37-.92,1.37a2,2,0,0,1-1.34-1,5.92,5.92,0,0,1-1.14,1,2.65,2.65,0,0,0-.48-.53h-1.86a4,4,0,0,0-.57,0,.62.62,0,0,0,0-.19c0-.24,0-.31,0-.34v-.86a3.42,3.42,0,0,0,0-.53,4.2,4.2,0,0,0,.58,0h1.54a4.8,4.8,0,0,0,.59,0,3,3,0,0,0,0,.52Zm-2.7,1.43a4.65,4.65,0,0,1-1,2l-.66-.47a3.6,3.6,0,0,0,1-1.81Zm2.9-3.23a3.54,3.54,0,0,0-.6,0h-1.78a3.25,3.25,0,0,0-.6,0v-.69a4.54,4.54,0,0,0,.6,0h1.78a4.64,4.64,0,0,0,.6,0Zm-1.71,4.41c0,.12,0,.15.19.18s.65,0,1,0a5.47,5.47,0,0,0,1-.08c.16-.05.22-.12.25-.32a2.35,2.35,0,0,0,0-.5,3.15,3.15,0,0,0,.75.27,2.21,2.21,0,0,1-.2.87c-.09.2-.29.31-.62.37a14,14,0,0,1-1.59.08c-1.36,0-1.64-.12-1.64-.7v-1a3.48,3.48,0,0,0,0-.63h.85a4.29,4.29,0,0,0,0,.55Zm-.48-2.7h1.32V17.9h-1.32Zm2.1,2.4a5.44,5.44,0,0,0-1.26-1l.51-.41a6.8,6.8,0,0,1,1.29,1Zm2.24-1.1a9.77,9.77,0,0,1,1.17,1.72l-.68.37A8.6,8.6,0,0,0,108,20.16Z"/><path class="cls-2" d="M117.65,18.9a6.4,6.4,0,0,0,1-.06v.8a8.89,8.89,0,0,0-1-.05h-1.94A7.16,7.16,0,0,0,119,21.25a3.84,3.84,0,0,0-.48.73,7.15,7.15,0,0,1-3.31-2.07c0,.43,0,.64,0,.88v.65a4.89,4.89,0,0,0,0,.91h-.92a4.15,4.15,0,0,0,.07-.92V20.8c0-.39,0-.63,0-.88a7.39,7.39,0,0,1-3.16,2,2.79,2.79,0,0,0-.5-.72,7.35,7.35,0,0,0,3.1-1.66H112a9,9,0,0,0-1,.05v-.8a5.87,5.87,0,0,0,1,.06h2.41v-.27a2.45,2.45,0,0,0,0-.58h.9a3.15,3.15,0,0,0,0,.58v.27Zm-6.29-3.34a6.42,6.42,0,0,1,1.41.72l-.45.58a5,5,0,0,0-1.42-.76Zm2.17,1.54a11.55,11.55,0,0,1-1.9,1.34l-.24.14-.39-.7a6.92,6.92,0,0,0,2.31-1.45ZM112,14.33a5.76,5.76,0,0,1,1.44.77l-.44.56a6.32,6.32,0,0,0-1.46-.81Zm4.53.86a7.22,7.22,0,0,0,.75,0,4.84,4.84,0,0,0,0,.72v1.36c0,.22,0,.23.39.23s.42,0,.46-.13a4.42,4.42,0,0,0,.07-1,2.09,2.09,0,0,0,.68.28c-.09,1.41-.17,1.5-1.34,1.5-.49,0-.66,0-.81-.14s-.18-.22-.18-.5V15.88h-.84a3.26,3.26,0,0,1-2.2,2.62,1.93,1.93,0,0,0-.46-.62,2.55,2.55,0,0,0,1.91-2h-.41a6.33,6.33,0,0,0-.89,0v-.77a6.24,6.24,0,0,0,.89,0h.5c0-.17,0-.27,0-.44a2.86,2.86,0,0,0,0-.53h.84a3.33,3.33,0,0,0,0,.44c0,.17,0,.42,0,.52Z"/><path class="cls-2" d="M123.5,16.37a3.62,3.62,0,0,0-.72.05v-.76a10.36,10.36,0,0,1-.76,1.55,2.86,2.86,0,0,1,.86,2,.91.91,0,0,1-.47.89,2.27,2.27,0,0,1-.88.14h-.18a1.65,1.65,0,0,0-.17-.74c.21,0,.35,0,.5,0,.31,0,.43-.13.43-.46a2.7,2.7,0,0,0-.87-1.85,8.34,8.34,0,0,0,.89-2.06h-1.19v6.16c0,.39,0,.64,0,.93h-.87a5.63,5.63,0,0,0,0-.94v-6.1c0-.32,0-.62,0-.77l.66,0h1.34a3.54,3.54,0,0,0,.55,0l.37.5v0s0,0,0,.05l0,.07,0,.08-.06.16a1.8,1.8,0,0,1-.08.21,6.1,6.1,0,0,0,.8.05h1.14V15a3,3,0,0,0-.06-.68h.89a5.63,5.63,0,0,0,0,.68v.68H127a5.18,5.18,0,0,0,.94-.06v.84a7,7,0,0,0-.93-.05h-2.22a2,2,0,0,0,0,.23v.22c0,.12,0,.28,0,.64h1.83a7,7,0,0,0,.79,0,4.47,4.47,0,0,0,0,.64,10.17,10.17,0,0,1-.46,3.62c-.2.36-.48.46-1.16.46h-.4l-.68,0a2.91,2.91,0,0,0-.17-.81,9,9,0,0,0,1.16.1c.43,0,.52-.05.62-.36a11.75,11.75,0,0,0,.28-2.85h-1.84a5.51,5.51,0,0,1-2.3,4.12,2.14,2.14,0,0,0-.63-.64c1.63-1,2.24-2.44,2.25-5.29Z"/><path class="cls-2" d="M135.74,21.15a9.55,9.55,0,0,0,1,0V22a8.38,8.38,0,0,0-1-.06H130a9.13,9.13,0,0,0-1.08.06V21.1a7.87,7.87,0,0,0,1.08,0h.37V16.94a7.38,7.38,0,0,0-.05-1h1a9,9,0,0,0-.05,1v4.21h1.61V15.33a7.64,7.64,0,0,0-.05-1h.95a8.24,8.24,0,0,0,0,1v1.85h1.65a6.81,6.81,0,0,0,1-.06V18a9.31,9.31,0,0,0-1-.05h-1.65v3.2Z"/><path class="cls-2" d="M139.56,15.13a4.47,4.47,0,0,0-.05-.86h.88a4.73,4.73,0,0,0-.06.85v.54h.72a4.79,4.79,0,0,0,.82-.05v.8a4.49,4.49,0,0,0-.73,0,8.8,8.8,0,0,1-.61,2.72,20.29,20.29,0,0,1,1.25,1.76l-.58.63a11.12,11.12,0,0,0-1-1.6,8,8,0,0,1-1.83,2.24,2.62,2.62,0,0,0-.58-.66,6.44,6.44,0,0,0,1.91-2.26,18.5,18.5,0,0,0-1.54-1.7l.55-.53c.83.87.87.92,1.32,1.46a8.71,8.71,0,0,0,.39-2.06h-1.73a4.73,4.73,0,0,0-.81.05v-.81a5.3,5.3,0,0,0,.86.05h.87Zm2.78,2.37a10.21,10.21,0,0,1,1.27,2l-.67.45a8,8,0,0,0-1.25-2.1Zm.52-.62a6.09,6.09,0,0,0-.83,0v-.81a7.83,7.83,0,0,0,.83,0h1.23v-.82a5.26,5.26,0,0,0-.06-1h.9a8.38,8.38,0,0,0-.05,1v.82H145a5.67,5.67,0,0,0,.84,0v.83l-.09,0h-.1a5.21,5.21,0,0,0-.65,0h-.15v4.37c0,.44,0,.6-.21.73s-.43.2-1,.2l-.94,0a2.5,2.5,0,0,0-.24-.82,10.48,10.48,0,0,0,1.12.1c.42,0,.48,0,.48-.21V16.88Z"/><path class="cls-2" d="M148.21,15.62a5.53,5.53,0,0,1-.91,1,2.5,2.5,0,0,0-.53-.55,4,4,0,0,0,1.39-1.87l.79.17-.09.16s-.07.12-.11.21l-.12.2h1.27a5.21,5.21,0,0,0,.87,0v.63a3.61,3.61,0,0,0,.7-1.32l.78.16c-.14.31-.18.39-.28.58h1.89a8.28,8.28,0,0,0,1,0v.76l-.93,0H153a5.78,5.78,0,0,1,.42.75l-.73.22a5.7,5.7,0,0,0-.47-1h-.68a4.51,4.51,0,0,1-.58.71h.18a3.8,3.8,0,0,0,0,.5h2.7a4.07,4.07,0,0,0,.91-.06v.79a7,7,0,0,0-.91,0h-2.7V18h2a7.28,7.28,0,0,0,.83,0,4.55,4.55,0,0,0,0,.74v.8c0,.48-.21.63-.85.63h-.6a2.2,2.2,0,0,0-.16-.66,3.17,3.17,0,0,0,.6.05c.2,0,.27,0,.27-.18V18.7h-2.07v.39a6.84,6.84,0,0,0,3.74,2.25,3.19,3.19,0,0,0-.54.72A7.06,7.06,0,0,1,151.11,20c0,.28,0,.51,0,.68v.77a3.84,3.84,0,0,0,.07.93h-.9a4.69,4.69,0,0,0,.07-.93v-.75c0-.17,0-.42,0-.66a7,7,0,0,1-3,2.07,2.93,2.93,0,0,0-.57-.7,6.9,6.9,0,0,0,3.53-2.27V18.7h-1.86v.86a6.51,6.51,0,0,0,0,.76h-.83c0-.18,0-.52,0-.83v-.76c0-.25,0-.55,0-.73.22,0,.49,0,.8,0h1.87v-.52h-2.48a6.86,6.86,0,0,0-.9,0v-.79a4.59,4.59,0,0,0,.9.06h2.48a2.77,2.77,0,0,0-.05-.5h.58a1.72,1.72,0,0,0-.52-.41l.29-.27a4.67,4.67,0,0,0-.62,0h-.54c.17.27.27.47.4.72l-.72.22a6.4,6.4,0,0,0-.43-.94Z"/><path class="cls-2" d="M157.83,16.49a1.1,1.1,0,0,1,.86-.51,1.16,1.16,0,0,1,.86.46,23.54,23.54,0,0,0,4.15,3.74,2,2,0,0,1-.7.89,30,30,0,0,1-4-3.95.33.33,0,0,0-.58,0,15.35,15.35,0,0,1-2,2.21,2.81,2.81,0,0,1-.59-.72A14.61,14.61,0,0,0,157.83,16.49Z"/><path class="cls-2" d="M168.79,21.19c1.76-.5,2.56-1.47,2.56-2.82A2.39,2.39,0,0,0,169,15.93a9.24,9.24,0,0,1-1,4.19,1.86,1.86,0,0,1-1.7,1.21c-.91,0-1.67-.86-1.67-2.48a3.82,3.82,0,0,1,4-3.74,3.31,3.31,0,0,1,3.61,3.26c0,1.85-1.1,3-3,3.64Zm-3.29-2.35c0,1.15.44,1.57.81,1.57s.6-.15.89-.68a8.5,8.5,0,0,0,.86-3.77A2.86,2.86,0,0,0,165.5,18.84Z"/><path class="cls-2" d="M75.59,36.41a9.2,9.2,0,0,1-3.12.47c-2.09,0-2.93-.73-2.94-2.21a1.53,1.53,0,0,1,.69-.17h.12c.06,1.07.55,1.48,2.12,1.48a8.39,8.39,0,0,0,2.89-.49A1.77,1.77,0,0,1,75.59,36.41ZM72.2,31.29a9.27,9.27,0,0,1-2-.17V31a1.7,1.7,0,0,1,.18-.76,9.22,9.22,0,0,0,1.78.15,14.53,14.53,0,0,0,2.45-.19,2,2,0,0,1,.15.74.81.81,0,0,1,0,.16A17.88,17.88,0,0,1,72.2,31.29Zm3-2a6,6,0,0,1,1,1.45l-.55.3a6.55,6.55,0,0,0-.92-1.47Zm1-.48a6.08,6.08,0,0,1,1,1.41l-.55.3a6.74,6.74,0,0,0-.93-1.44Z"/><path class="cls-2" d="M78.54,30.08a4.85,4.85,0,0,0-.06-.86h.91a4.2,4.2,0,0,0-.06.83v1.37h.1a3,3,0,0,0,.63,0v.81a5.11,5.11,0,0,0-.62,0h-.11v4.12a7.18,7.18,0,0,0,.06,1h-.91a6.93,6.93,0,0,0,.06-1.06v-4.1h-.13a7.25,7.25,0,0,0-.76,0v-.83a3.88,3.88,0,0,0,.76.05h.13Zm3.24,3.3c.35,0,.55,0,.77,0,0,.13,0,.3,0,.53a20.32,20.32,0,0,1-.17,2.27c-.1.57-.24.82-.51.91a2.79,2.79,0,0,1-.67.07h-.33a2.25,2.25,0,0,0-.15-.78,3.68,3.68,0,0,0,.64.07c.19,0,.25-.06.3-.24a11.28,11.28,0,0,0,.19-2.08H81.2A5.37,5.37,0,0,1,80,37.25a3.15,3.15,0,0,0-.54-.64,4,4,0,0,0,1.08-2.52h-.3a2.54,2.54,0,0,0-.46,0v-.77a3,3,0,0,0,.51,0h.3c0-.14,0-.21,0-.29,0-.23,0-.34,0-.46h.78c0,.14,0,.27,0,.52v.22ZM84.46,30a7.64,7.64,0,0,0,.77,0v.15s0,.06,0,.1v.15A4.43,4.43,0,0,1,84.9,32c-.17.29-.42.38-1.08.38-.28,0-.45,0-.85,0a2.23,2.23,0,0,0-.17-.74,6,6,0,0,0,1,.1c.39,0,.44-.11.51-1H82.69a3.66,3.66,0,0,1-2.12,1.94,2.62,2.62,0,0,0-.48-.64,3,3,0,0,0,1.79-1.3h-.77a5.73,5.73,0,0,0-.85,0V30a6.26,6.26,0,0,0,.89.05h.94a3.57,3.57,0,0,0,.08-.64.62.62,0,0,0,0-.18l.87,0v.07c0,.06,0,.19-.08.36a1.23,1.23,0,0,1,0,.18,1.2,1.2,0,0,1,0,.17Zm.43,3.38c.34,0,.54,0,.77,0,0,.21,0,.23,0,.55a8,8,0,0,1-.38,2.9c-.17.26-.4.34-1,.34a3.44,3.44,0,0,1-.4,0,2.4,2.4,0,0,0-.15-.78,4,4,0,0,0,.67.08c.19,0,.27-.05.31-.18a11,11,0,0,0,.21-2.15h-.75a5.4,5.4,0,0,1-1.27,3.17,2.13,2.13,0,0,0-.57-.59,3.87,3.87,0,0,0,1.13-2.58h-.13a2.85,2.85,0,0,0-.49,0v-.77a3.45,3.45,0,0,0,.55,0h.12c0-.13,0-.32,0-.42a3.28,3.28,0,0,0,0-.34h.78c0,.1,0,.25,0,.51,0,.1,0,.13,0,.24Z"/><path class="cls-2" d="M92.82,31a7.61,7.61,0,0,0,1.09,0c0,.3,0,.39,0,.69a35.44,35.44,0,0,1-.23,3.84,2.17,2.17,0,0,1-.38,1.2,1.28,1.28,0,0,1-1,.32,11,11,0,0,1-1.49-.12,4,4,0,0,0-.22-.91,7.31,7.31,0,0,0,1.59.2c.46,0,.58-.21.7-1.12A32,32,0,0,0,93,31.79H90.53c-.29,2.71-1.16,4.11-3.35,5.34a2.43,2.43,0,0,0-.64-.77A4.88,4.88,0,0,0,89,34.21a7.05,7.05,0,0,0,.64-2.42h-1.6a9.77,9.77,0,0,0-1.1.05V31a7.48,7.48,0,0,0,1.11.05H89.7c0-.37,0-.62,0-.93a4.44,4.44,0,0,0-.06-.88h1a6.69,6.69,0,0,0,0,.76c0,.44,0,.71,0,1.05Z"/><path class="cls-2" d="M99.57,36.19c1.76-.5,2.56-1.47,2.56-2.82a2.38,2.38,0,0,0-2.38-2.44,9.37,9.37,0,0,1-1,4.19,1.86,1.86,0,0,1-1.7,1.21c-.91,0-1.67-.86-1.67-2.48a3.82,3.82,0,0,1,4-3.74,3.31,3.31,0,0,1,3.61,3.26c0,1.85-1.1,3-3,3.64Zm-3.29-2.35c0,1.15.44,1.57.81,1.57s.6-.15.89-.68A8.49,8.49,0,0,0,98.85,31,2.86,2.86,0,0,0,96.28,33.84Z"/><path class="cls-2" d="M107.12,36.07c0,.69-.34,1-.87,1a2.24,2.24,0,0,1-1.19-.42c-.6-.38-.81-.75-.81-1.11,0-.53.4-1.3,2-2.06v-1.6c-.61.05-1.21.07-1.75.07a1.93,1.93,0,0,1,0-.42,1.7,1.7,0,0,1,0-.4h.22c.49,0,1,0,1.54-.07,0-.51,0-1,0-1.56a1.64,1.64,0,0,1,.4,0,3.34,3.34,0,0,1,.49,0c0,.52,0,1,0,1.49a13.19,13.19,0,0,0,1.42-.23,1.87,1.87,0,0,1,.12.64.81.81,0,0,1,0,.16,15.39,15.39,0,0,1-1.53.24v1.44a6,6,0,0,1,1.78-.3c1.47,0,2.35.78,2.35,1.83a1.88,1.88,0,0,1-2.12,2,4.68,4.68,0,0,1-.66,0l-.17-.88a3.4,3.4,0,0,0,.74.07c.81,0,1.32-.35,1.32-1.14,0-.6-.45-1-1.48-1a5.49,5.49,0,0,0-1.76.31Zm-.82-1.76c-1,.51-1.18.9-1.18,1.15s.09.3.38.47a1.26,1.26,0,0,0,.6.21c.13,0,.2-.06.2-.23Zm5.42-2.82a1.66,1.66,0,0,1-.55.69,6.2,6.2,0,0,0-1.8-1.35,1.57,1.57,0,0,1,.46-.65A6.43,6.43,0,0,1,111.72,31.49Z"/><path class="cls-2" d="M114.94,31.06a7.52,7.52,0,0,0,.26-.8h-1.42c0,4.19-.17,5.66-.81,6.94a3.58,3.58,0,0,0-.57-.65,5.36,5.36,0,0,0,.47-1.85,33.42,33.42,0,0,0,.18-4.15,9.21,9.21,0,0,0,0-1,7.75,7.75,0,0,0,.93,0h1.87a5.7,5.7,0,0,0,1-.06v.79c-.2,0-.44,0-.85,0a6.83,6.83,0,0,1-.27.8H116a6.26,6.26,0,0,0,.68,0,6,6,0,0,0,0,.68v1.88a5.07,5.07,0,0,0,0,.66l-.58,0h-.34v2.32c0,.56-.16.67-1,.67h-.25a2,2,0,0,0-.14-.74,3.13,3.13,0,0,0,.45.05c.21,0,.24,0,.24-.14V34.23h-.34l-.62,0a5.32,5.32,0,0,0,0-.65v-2a5.22,5.22,0,0,0,0-.62,6.75,6.75,0,0,0,.71,0Zm-1.46,5.55a5.15,5.15,0,0,0,.68-2.08l.61.18a7.79,7.79,0,0,1-.68,2.21Zm1.35-4.3H116v-.62h-1.2Zm0,1.29H116v-.68h-1.2Zm1.74.94A8.52,8.52,0,0,1,117,36l-.6.24a7.12,7.12,0,0,0-.32-1.49Zm1.87,1.58a5.6,5.6,0,0,1-1.69,1.28,2.7,2.7,0,0,0-.53-.61,4.08,4.08,0,0,0,1.67-1.11Zm-.63-5.86c-.34,0-.61,0-.82,0v-.8a4.13,4.13,0,0,0,.91.06h1.88a4.66,4.66,0,0,0,.91-.06v.8a6.39,6.39,0,0,0-.91,0h-.62a5.11,5.11,0,0,1-.31.75h.69a7.61,7.61,0,0,0,.83,0c0,.21,0,.43,0,.81v3c0,.39,0,.71,0,.88-.23,0-.49,0-.75,0h-1.79a6.7,6.7,0,0,0-.72,0c0-.26,0-.52,0-.8v-3c0-.39,0-.68,0-.83a6.61,6.61,0,0,0,.75,0h.23a5.07,5.07,0,0,0,.27-.75Zm0,2.1h1.79v-.69h-1.79Zm0,1.26h1.79V33h-1.79Zm0,1.3h1.79v-.66h-1.79Zm1.49.76a5,5,0,0,0,1.49,1.07,2.7,2.7,0,0,0-.5.65,6.9,6.9,0,0,1-1.53-1.29Z"/><path class="cls-2" d="M125.67,34.43a4.13,4.13,0,0,1-.7,1.68,1,1,0,0,1-.9.46c-.42,0-.88-.22-1.29-1-.49-1-.73-2.47-.73-5.33a1.86,1.86,0,0,1,.42-.05,2.16,2.16,0,0,1,.51.06c0,.38,0,.72,0,1a9,9,0,0,0,.59,3.8c.21.39.36.49.54.49a.33.33,0,0,0,.29-.17,4.45,4.45,0,0,0,.52-1.52Zm1.78-3.61a8.59,8.59,0,0,1,1.92,3.82,2,2,0,0,1-.9.35,8.69,8.69,0,0,0-1.76-3.81A1.43,1.43,0,0,1,127.45,30.82Z"/><rect class="cls-2" y="54.71" width="63.79" height="63.34"/><path class="cls-1" d="M13.88,66.17a8.91,8.91,0,0,1,1.37,1.18,9.11,9.11,0,0,0,2.36-2.55H12.07V64h6.25l.49.58a10.71,10.71,0,0,1-3,3.37,16.58,16.58,0,0,1,1,1.34l-.76.57a13.57,13.57,0,0,0-2.77-3.11Z"/><path class="cls-1" d="M26.23,70a16,16,0,0,0-2.38-2.59,10.27,10.27,0,0,1-3.4,2.52l-.55-.7a8.78,8.78,0,0,0,4.8-4.88h-4v-.82h4.57l.5.58a10.89,10.89,0,0,1-1.42,2.67A15,15,0,0,1,27,69.36Z"/><path class="cls-1" d="M33.82,64.14l.48.54a8.63,8.63,0,0,1-4.84,5.52l-.59-.73a7.73,7.73,0,0,0,4.39-4.57H30.65a9.14,9.14,0,0,1-1.86,1.91l-.62-.54a8.49,8.49,0,0,0,2.67-3.47l.88.27a11,11,0,0,1-.57,1.07Z"/><path class="cls-1" d="M36.91,64a6.19,6.19,0,0,0-.84,0v-.68a6.16,6.16,0,0,0,.84,0H38a3.84,3.84,0,0,0-.58-.74l.71-.2a7.08,7.08,0,0,1,.67.94h1.32a5,5,0,0,0,.66-.94l.76.2a5.71,5.71,0,0,1-.62.74h1.17a6.49,6.49,0,0,0,.86,0v.68a6.3,6.3,0,0,0-.86,0H39.84v.46h2a4.72,4.72,0,0,0,.78,0v.64a5.39,5.39,0,0,0-.78,0h-2v.46h2.61a6,6,0,0,0,.86,0v.69a4.48,4.48,0,0,0-.86-.06h-4.2c0,.16-.08.28-.13.45h3.66c.28,0,.57,0,.78,0a6.26,6.26,0,0,0,0,.76V69.6a6,6,0,0,0,0,.81h-.81v-.35H38.29v.35h-.8a5.5,5.5,0,0,0,0-.79V68.56c0-.39,0-.55,0-.76a7.09,7.09,0,0,1-1.42,2,2.52,2.52,0,0,0-.58-.66,5.15,5.15,0,0,0,1.93-3.05H36.6a4.49,4.49,0,0,0-.84.05v-.68a5.62,5.62,0,0,0,.84,0h2.49V65H37.26a5.13,5.13,0,0,0-.78,0v-.64a4.49,4.49,0,0,0,.78,0h1.83V64Zm1.38,3.11v.42h3.49v-.42Zm0,1v.43h3.49v-.43Zm0,1v.45h3.49V69Z"/><path class="cls-1" d="M48.53,69.16a9.29,9.29,0,0,0,0,1h-.84a6.87,6.87,0,0,0,.05-1V67.68H45.67a5.49,5.49,0,0,1-.89,2.73,3.78,3.78,0,0,0-.69-.55c.74-1,.9-2,.9-5.6,0-.72,0-.93,0-1.32.27,0,.5,0,.95,0h4.71c.44,0,.7,0,1,0a7,7,0,0,0,0,.91v5.64c0,.64-.22.8-1.16.8-.26,0-.72,0-1,0a2.47,2.47,0,0,0-.2-.75,11,11,0,0,0,1.13.08c.38,0,.45,0,.45-.24V67.68H48.53Zm-2.77-3.48c0,.25,0,.46,0,.54,0,.43,0,.48,0,.63V67h2.06v-1.3Zm2-2h-2V65h2Zm3,1.27V63.71H48.53V65Zm-2.24,2h2.24v-1.3H48.53Z"/><path class="cls-3" d="M21.6,93c0,9.79-2.6,7.41-5.31,6.39S11,95.9,11,93A5.31,5.31,0,0,1,21.6,93Z"/><path class="cls-3" d="M42.19,93c0,9.79,2.61,7.41,5.31,6.39S52.81,95.9,52.81,93a5.31,5.31,0,0,0-10.62,0Z"/><polygon class="cls-2" points="31.9 103.43 42.84 101.82 44.12 95.06 42.84 88.3 31.9 87.02 20.95 88.3 19.67 95.06 20.95 101.82 31.9 103.43"/><polygon class="cls-4" points="31.9 103.43 42.84 101.82 44.12 95.06 42.84 88.3 31.9 87.02 20.95 88.3 19.67 95.06 20.95 101.82 31.9 103.43"/><polygon class="cls-3" points="31.9 103.43 42.84 101.82 44.12 95.06 42.84 88.3 31.9 87.02 20.95 88.3 19.67 95.06 20.95 101.82 31.9 103.43"/><polyline class="cls-3" points="40.26 91.2 31.9 90.23 23.53 91.2"/><line class="cls-3" x1="23.53" y1="95.06" x2="40.26" y2="95.06"/><polyline class="cls-3" points="40.26 99.24 31.9 100.21 23.53 99.24"/><rect class="cls-2" x="67.31" y="54.71" width="63.79" height="63.34"/><path class="cls-1" d="M75.08,63.92l-.28,0-.26,0c-.47.05-1.21.09-1.77.11a2.85,2.85,0,0,0-.23-.74h.26A18.39,18.39,0,0,0,76,63.05a5,5,0,0,0,1.42-.44l.52.71a14.33,14.33,0,0,1-2.2.51v1.24h1.6A4.43,4.43,0,0,0,78.2,65v.82a6,6,0,0,0-.84,0H75.75v1.15h1.94a4.49,4.49,0,0,0,.84-.05v.82a5.77,5.77,0,0,0-.84,0H75.75v1.79c0,.59-.21.78-.88.78a10.94,10.94,0,0,1-1.12-.06,2.45,2.45,0,0,0-.18-.79,7.48,7.48,0,0,0,1.24.13c.2,0,.27-.06.27-.26V67.65H73a5.61,5.61,0,0,0-.83,0v-.82a4.44,4.44,0,0,0,.83.05h2.11V65.78h-1.7a7,7,0,0,0-.85,0V65a4.31,4.31,0,0,0,.84.06h1.71Z"/><path class="cls-1" d="M79.72,64.76A7.38,7.38,0,0,1,81,65.86l-.37.66a6.41,6.41,0,0,0-1.28-1.18ZM81,67.62a13.8,13.8,0,0,1-.85,2.28c0,.08-.07.16-.08.18l0,.12s0,0-.05.1l-.58-.59a7.63,7.63,0,0,0,1.07-2.54Zm-.94-5a6.91,6.91,0,0,1,1.19,1.11l-.42.62a6.29,6.29,0,0,0-1.19-1.17ZM84.92,64a3.3,3.3,0,0,0,.76-.05v.78a7.42,7.42,0,0,0-.76,0H83.84V66h1.44a4.17,4.17,0,0,0,.71,0v.8a3.12,3.12,0,0,0-.7,0h-.91v2.7c0,.17.08.21.4.21s.54,0,.59-.17a3.87,3.87,0,0,0,.1-1.21,2,2,0,0,0,.61.24c0,1-.1,1.38-.27,1.59s-.44.26-1,.26a1.53,1.53,0,0,1-.88-.15.57.57,0,0,1-.18-.47v-3H83c-.08,2-.57,2.94-1.9,3.68a2.32,2.32,0,0,0-.45-.67c1.24-.59,1.69-1.38,1.72-3h-.49a4,4,0,0,0-.75,0v-.8a4.34,4.34,0,0,0,.71,0H83.2V64.64h-1a5.4,5.4,0,0,1-.66,1.19,2,2,0,0,0-.52-.51,5.13,5.13,0,0,0,1-2.44l.65.2a.63.63,0,0,0,0,.12l0,.15a6,6,0,0,1-.18.6h.76v-.47a5.86,5.86,0,0,0,0-.85h.72a6.32,6.32,0,0,0,0,.85V64Z"/><path class="cls-1" d="M90.15,67.64a4.51,4.51,0,0,1-.57,1.62.82.82,0,0,1-.74.45c-.35,0-.73-.21-1.06-.94-.4-.92-.6-2.38-.6-5.15a1.86,1.86,0,0,1,.34,0,1.93,1.93,0,0,1,.42.05c0,.37,0,.7,0,1a10.06,10.06,0,0,0,.48,3.67c.17.38.29.48.44.48s.16,0,.24-.17a4.72,4.72,0,0,0,.43-1.47Zm1.46-3.49a9,9,0,0,1,1.58,3.7,1.57,1.57,0,0,1-.74.33A9.29,9.29,0,0,0,91,64.5,1.22,1.22,0,0,1,91.61,64.15Z"/><path class="cls-1" d="M96.08,66.51a.74.74,0,1,1-.73-.86A.8.8,0,0,1,96.08,66.51Z"/><path class="cls-1" d="M100.62,63.92l-.27,0-.27,0c-.47.05-1.21.09-1.77.11a2.85,2.85,0,0,0-.23-.74h.26a18.3,18.3,0,0,0,3.21-.31,5.06,5.06,0,0,0,1.43-.44l.51.71a14.07,14.07,0,0,1-2.2.51v1.24h1.6a4.36,4.36,0,0,0,.85-.06v.82a6,6,0,0,0-.84,0h-1.61v1.15h1.94a4.49,4.49,0,0,0,.84-.05v.82a5.77,5.77,0,0,0-.84,0h-1.94v1.79c0,.59-.21.78-.88.78a10.6,10.6,0,0,1-1.11-.06,2.76,2.76,0,0,0-.19-.79,7.48,7.48,0,0,0,1.24.13c.2,0,.27-.06.27-.26V67.65H98.51a5.61,5.61,0,0,0-.83,0v-.82a4.44,4.44,0,0,0,.83.05h2.11V65.78h-1.7a7,7,0,0,0-.85,0V65a4.31,4.31,0,0,0,.84.06h1.71Z"/><path class="cls-1" d="M106.05,63.47a6.64,6.64,0,0,0,0-.86h.74a6.51,6.51,0,0,0,0,.85v.77h.2a3.4,3.4,0,0,0,.57,0V65a5,5,0,0,0-.57,0h-.2v1.5l.77-.3,0,.7a8.37,8.37,0,0,1-.79.33v2.47c0,.54-.21.7-.9.7-.21,0-.32,0-.57,0a3,3,0,0,0-.14-.77,3.51,3.51,0,0,0,.73.08c.18,0,.23,0,.23-.22v-2l-.66.21-.26.1-.12-.83a1.88,1.88,0,0,0,.33,0l.71-.2v-1.7h-.4a3.6,3.6,0,0,0-.58,0v-.79a3.39,3.39,0,0,0,.58,0h.4Zm2.34.17a6.47,6.47,0,0,0,2.45-.83l.49.66a12.56,12.56,0,0,1-2.94.8v.49c0,.31.11.34,1.26.34.73,0,1,0,1.1-.17s.13-.34.15-.86a2.34,2.34,0,0,0,.63.26c-.07.78-.16,1.06-.4,1.23s-.57.23-1.81.23a3.85,3.85,0,0,1-1.23-.13c-.25-.12-.34-.31-.34-.66V63.45a6.18,6.18,0,0,0,0-.83h.72a7.52,7.52,0,0,0,0,.78Zm-.62,3.4c0-.32,0-.54,0-.7a3.53,3.53,0,0,0,.64,0h2.11a3.38,3.38,0,0,0,.65,0,6.09,6.09,0,0,0,0,.72v2.47a5.66,5.66,0,0,0,0,.87h-.68V70H108.4v.42h-.67a5.79,5.79,0,0,0,0-.84Zm.63.79h2.08V67H108.4Zm0,1.49h2.08v-.84H108.4Z"/><path class="cls-1" d="M112.77,64.75a8.08,8.08,0,0,1,1.28,1.12l-.39.65a5.82,5.82,0,0,0-1.27-1.2Zm1.3,2.88a14.84,14.84,0,0,1-.89,2.39,3.27,3.27,0,0,0-.14.3l-.59-.6a8.66,8.66,0,0,0,1.07-2.54Zm-.95-4.91a6.31,6.31,0,0,1,1.19,1.14l-.4.61a6.25,6.25,0,0,0-1.2-1.21Zm1.8.11a8.13,8.13,0,0,1,.79,1.59l-.58.35a6.69,6.69,0,0,0-.79-1.61Zm1.23.55a6.28,6.28,0,0,0,0-.83h.73a6.4,6.4,0,0,0,0,.82v1.55h1.06a3.62,3.62,0,0,0,.67,0c0,.13,0,.49,0,.85V69.6c0,.55-.19.72-.86.72-.16,0-.53,0-.78-.06a3.88,3.88,0,0,0-.15-.74,6.48,6.48,0,0,0,.88.08c.2,0,.26,0,.26-.19v-.85h-2.61v.84c0,.36,0,.81,0,1h-.72c0-.22,0-.55,0-1V65.68c0-.45,0-.68,0-.8a3.76,3.76,0,0,0,.67,0h.91Zm1.7,2.22h-2.61v.8h2.61Zm-2.61,2.29h2.61v-.82h-2.61Zm3.4-4.78a11.41,11.41,0,0,1-.78,1.69l-.55-.34a7,7,0,0,0,.7-1.66Z"/><path class="cls-1" d="M121.09,69.43c0,.18-.07.26-.16.55l-.69,0a13.41,13.41,0,0,0,.46-1.74h-.28a3.31,3.31,0,0,0-.68,0v-.73a4.67,4.67,0,0,0,.74,0h.33a7.47,7.47,0,0,0,.13-1.14v0c.12,0,.33,0,.67,0h3.09a5.42,5.42,0,0,0,.72,0c0,.12,0,.23,0,.46s0,.41,0,.72h.34a5,5,0,0,0,.68,0v.71a5.14,5.14,0,0,0-.71,0h-.36c0,.23,0,.4-.06.63h.15a3.46,3.46,0,0,0,.64,0v.67a6.13,6.13,0,0,0-.68,0h-.2c-.09.5-.15.66-.31.82a1,1,0,0,1-.76.21l-.6,0a2.23,2.23,0,0,0-.18-.72,4.25,4.25,0,0,0,.81.09c.27,0,.31,0,.4-.37Zm1.61-6.17a2.72,2.72,0,0,0,0-.68h.74a3.05,3.05,0,0,0,0,.68h1.9a3.81,3.81,0,0,0,.79-.06v.71a3.47,3.47,0,0,0-.73,0h-2v.48H125a4,4,0,0,0,.67,0V65a4.47,4.47,0,0,0-.67,0h-1.68v.49h2.24a5.84,5.84,0,0,0,.74,0v.69a4.87,4.87,0,0,0-.78,0h-5a5.15,5.15,0,0,0-.78,0v-.69a5.78,5.78,0,0,0,.75,0h2.13v-.49h-1.58a4.61,4.61,0,0,0-.68,0v-.66a4.27,4.27,0,0,0,.68,0h1.58v-.48h-1.83a3.32,3.32,0,0,0-.74,0V63.2a3.92,3.92,0,0,0,.8.06Zm-1.34,4.94a6.39,6.39,0,0,1-.13.63h1.29c0-.26.07-.4.11-.63Zm1.35-.63c0-.18,0-.29.06-.57h-1.22c0,.19,0,.38-.08.57Zm1.9,1.26c0-.22,0-.32.07-.63h-1.44c0,.33,0,.45-.08.63Zm.11-1.26c0-.22,0-.24,0-.57h-1.37l-.06.57Z"/><rect class="cls-5" x="112.01" y="83.87" width="1.63" height="4.48"/><polygon class="cls-5" points="103.03 84.48 101.79 83.59 104.12 80.34 110.23 80.34 110.23 81.86 104.9 81.86 103.03 84.48"/><rect class="cls-5" x="111.17" y="81.81" width="3.3" height="3.21"/><rect class="cls-5" x="110.69" y="87.53" width="4.26" height="7.32"/><path class="cls-5" d="M120,109.42V95.21a3.94,3.94,0,0,0-3.93-3.92h-6.52a3.93,3.93,0,0,0-3.92,3.92v14.21Z"/><line class="cls-3" x1="105.64" y1="107.1" x2="120.01" y2="107.1"/><rect class="cls-5" x="108.89" y="95.4" width="7.87" height="7.32"/><rect class="cls-5" x="110.17" y="79.46" width="5.3" height="3.49"/><path class="cls-5" d="M94.2,102.08l6.63-2.22a1.46,1.46,0,0,1,1.92,1.37,2.22,2.22,0,0,1-.32,1.36c-.73,1-9.76,6.53-9.76,6.53h-10l-1.07-6,2.56-1.51,2.3-1.25a3.1,3.1,0,0,1,2.08-.48l5,.73a1.11,1.11,0,0,1,.67,1V102a1.09,1.09,0,0,1-1.1,1.09H88.44"/><rect class="cls-5" x="79.87" y="101.82" width="3.77" height="9.37" transform="translate(-31.01 33.63) rotate(-19.62)"/><path class="cls-1" d="M103.07,88H103a.51.51,0,0,1-.38-.62c.08-.37.09-.4.1-.43a.52.52,0,0,1,.65-.32.51.51,0,0,1,.33.64s0,.08-.09.35A.5.5,0,0,1,103.07,88Z"/><path class="cls-1" d="M101.3,95.61h-.12a.51.51,0,0,1-.38-.61l.18-.8a.52.52,0,0,1,.62-.38.51.51,0,0,1,.38.61l-.18.8A.51.51,0,0,1,101.3,95.61Zm.59-2.53-.12,0a.49.49,0,0,1-.38-.61l.18-.79a.51.51,0,0,1,.61-.39.52.52,0,0,1,.39.62l-.18.79A.52.52,0,0,1,101.89,93.08Zm.58-2.54h-.11a.52.52,0,0,1-.39-.62l.19-.79a.5.5,0,0,1,.61-.38.51.51,0,0,1,.39.61l-.19.79A.5.5,0,0,1,102.47,90.54Z"/><path class="cls-1" d="M100.81,97.74h-.12a.52.52,0,0,1-.38-.62l.09-.38a.51.51,0,0,1,.61-.39.52.52,0,0,1,.39.62l-.09.38A.52.52,0,0,1,100.81,97.74Z"/><path class="cls-1" d="M101,88a.54.54,0,0,1-.27-.07.52.52,0,0,1-.16-.71l.21-.33a.5.5,0,0,1,.7-.17.52.52,0,0,1,.17.71l-.21.33A.5.5,0,0,1,101,88Z"/><path class="cls-1" d="M96,96a.47.47,0,0,1-.27-.08.5.5,0,0,1-.16-.7l.39-.63a.51.51,0,0,1,.7-.17.52.52,0,0,1,.17.71l-.39.63A.54.54,0,0,1,96,96Zm1.25-2a.53.53,0,0,1-.27-.08.52.52,0,0,1-.17-.71l.39-.63a.52.52,0,0,1,.88.54l-.39.63A.52.52,0,0,1,97.24,94Zm1.25-2a.51.51,0,0,1-.44-.78l.39-.63a.51.51,0,1,1,.87.54l-.39.63A.49.49,0,0,1,98.49,92Zm1.25-2a.52.52,0,0,1-.44-.78l.39-.63a.51.51,0,0,1,.71-.17.52.52,0,0,1,.16.71l-.39.63A.52.52,0,0,1,99.74,90Z"/><path class="cls-1" d="M94.92,97.74a.42.42,0,0,1-.26-.08.5.5,0,0,1-.17-.7l.21-.34a.51.51,0,0,1,.87.54l-.21.34A.52.52,0,0,1,94.92,97.74Z"/><path class="cls-1" d="M98.47,87.54a.5.5,0,0,1-.37-.86l.27-.29a.53.53,0,0,1,.73,0,.52.52,0,0,1,0,.72l-.27.29A.51.51,0,0,1,98.47,87.54Z"/><path class="cls-1" d="M90.31,96.26a.52.52,0,0,1-.35-.14.51.51,0,0,1,0-.73l.51-.54a.51.51,0,1,1,.74.7l-.51.54A.5.5,0,0,1,90.31,96.26Zm1.63-1.75a.49.49,0,0,1-.35-.14.5.5,0,0,1,0-.72l.51-.55a.52.52,0,0,1,.75.71l-.51.54A.51.51,0,0,1,91.94,94.51Zm1.64-1.74a.54.54,0,0,1-.36-.14.52.52,0,0,1,0-.72l.51-.55a.53.53,0,0,1,.73,0,.52.52,0,0,1,0,.72l-.51.55A.5.5,0,0,1,93.58,92.77ZM95.21,91a.52.52,0,0,1-.35-.14.51.51,0,0,1,0-.72l.51-.55a.51.51,0,0,1,.73,0,.5.5,0,0,1,0,.72l-.51.55A.52.52,0,0,1,95.21,91Zm1.63-1.74a.54.54,0,0,1-.35-.14.51.51,0,0,1,0-.73l.51-.54a.51.51,0,0,1,.72,0,.52.52,0,0,1,0,.73l-.51.54A.53.53,0,0,1,96.84,89.29Z"/><path class="cls-1" d="M88.92,97.74a.47.47,0,0,1-.35-.14.51.51,0,0,1,0-.72l.27-.29a.51.51,0,0,1,.75.7l-.27.29A.5.5,0,0,1,88.92,97.74Z"/><rect class="cls-2" x="134.62" y="54.71" width="63.79" height="63.34"/><path class="cls-1" d="M151.26,69.43c0,.43,0,.74,0,1h-.85a6.87,6.87,0,0,0,.05-1V66.92c0-.43,0-.65,0-1a5.88,5.88,0,0,1-.76,1,3.32,3.32,0,0,0-.35-.82,7.38,7.38,0,0,0,1.86-3.58l.82.23-.35.92a11.24,11.24,0,0,1-.49,1.09v3.41A7.35,7.35,0,0,0,153.69,65h-1.05a6.29,6.29,0,0,0-.88.06v-.81c.18,0,.61,0,.89,0H154v-.84a6.56,6.56,0,0,0,0-.82h.86a4.83,4.83,0,0,0-.06.82v.84h1.68a7.63,7.63,0,0,0,.93,0v.82a6.62,6.62,0,0,0-.91-.06h-1.38a7.47,7.47,0,0,0,2.55,3.21,3.2,3.2,0,0,0-.53.72,8.82,8.82,0,0,1-2.36-3.26c0,.45,0,.68,0,1v1.36h.68a5.51,5.51,0,0,0,.66,0v.75a6,6,0,0,0-.65,0h-.69v.75a6.07,6.07,0,0,0,.06.9H154a6.52,6.52,0,0,0,.06-.91v-.74h-.65a5.66,5.66,0,0,0-.63,0v-.75a5.74,5.74,0,0,0,.66,0H154V66.73c0-.42,0-.58,0-1a7.68,7.68,0,0,1-2.25,3.18,2.56,2.56,0,0,0-.52-.64Z"/><path class="cls-1" d="M158.33,64.07a4.17,4.17,0,0,0,.69,0h1.43a3.82,3.82,0,0,0,.68,0v.75a4.44,4.44,0,0,0-.63,0H159a6.21,6.21,0,0,0-.69,0Zm3.85.47c0,3.33-.18,4.74-.66,5.85a2.84,2.84,0,0,0-.62-.46c0,.14,0,.23,0,.3h-.66V70h-1v.46h-.71a6.21,6.21,0,0,0,0-.82V68.35a4.51,4.51,0,0,0,0-.67,3.6,3.6,0,0,0,.56,0h1.29l.51,0c0,.11,0,.25,0,.63v1.59a3.78,3.78,0,0,0,.35-1.12,26.45,26.45,0,0,0,.26-4.4,10.25,10.25,0,0,0-.06-1.51,6.35,6.35,0,0,0,.88,0H165a5.92,5.92,0,0,0,.87,0,7.33,7.33,0,0,0,0,.92v5.74c0,.58-.24.76-1,.76l-.81,0a2.63,2.63,0,0,0-.15-.74,7.67,7.67,0,0,0,.93.07c.27,0,.33,0,.33-.21V63.58h-2.93Zm-3.59.77a4,4,0,0,0,.56,0h1.23a3.73,3.73,0,0,0,.54,0V66a3.75,3.75,0,0,0-.54,0h-1.23a3.78,3.78,0,0,0-.56,0Zm0,1.18a3.88,3.88,0,0,0,.56,0h1.22a3.63,3.63,0,0,0,.55,0v.69a4.07,4.07,0,0,0-.56,0h-1.22a3.91,3.91,0,0,0-.55,0Zm0-3.62a2.89,2.89,0,0,0,.66.05h1a2.89,2.89,0,0,0,.66-.05v.73a4.08,4.08,0,0,0-.66,0h-1a4,4,0,0,0-.66,0Zm.64,6.46h1v-1h-1ZM163,65a4,4,0,0,0-.54,0V64.4a3.12,3.12,0,0,0,.54,0h.32v0a3.05,3.05,0,0,0,0-.6H164a3.13,3.13,0,0,0,0,.64h.35a3,3,0,0,0,.55,0v.66a3.63,3.63,0,0,0-.55,0h-.35v.73h.43a4,4,0,0,0,.55,0v.67a2.46,2.46,0,0,0-.54,0h-1.49a2.66,2.66,0,0,0-.53,0v-.67a3.79,3.79,0,0,0,.53,0h.41V65Zm1.66,3.58a4.4,4.4,0,0,0,0,.45h-.18l-.41,0h-.95v.58h-.64a5.43,5.43,0,0,0,0-.68V67.4a4.54,4.54,0,0,0,0-.57,4.62,4.62,0,0,0,.58,0h1a4.27,4.27,0,0,0,.59,0c0,.12,0,.33,0,.55Zm-1.52-.18H164v-1h-.91Z"/><path class="cls-1" d="M168.35,63.83a4.24,4.24,0,0,1-.81.83,2.07,2.07,0,0,0-.54-.52,3.51,3.51,0,0,0,1.32-1.63l.76.16c-.12.23-.16.32-.29.53h1.27a4.06,4.06,0,0,0,.74-.05v.7a2.81,2.81,0,0,0,.8-1.33l.74.14a3.68,3.68,0,0,1-.26.54h1.85a3.6,3.6,0,0,0,.8-.05v.73a5.39,5.39,0,0,0-.78,0H173a7,7,0,0,1,.36.63l-.7.23a4.88,4.88,0,0,0-.42-.86h-.58a4.28,4.28,0,0,1-.51.57c0,.12,0,.18,0,.3v.11h2.45c.45,0,.62,0,.9,0a3.66,3.66,0,0,0,0,.54v.53a2.79,2.79,0,0,0,0,.56h-.77v-1h-5.69v1h-.77a2.69,2.69,0,0,0,0-.55v-.54a2.46,2.46,0,0,0,0-.54c.26,0,.43,0,.88,0h2.24v-.11a2.57,2.57,0,0,0,0-.44H171a2,2,0,0,0-.4-.26l.18-.14a2.77,2.77,0,0,0-.58,0h-.61a3.78,3.78,0,0,1,.33.63l-.68.25a4,4,0,0,0-.36-.88Zm.05,6.58a8.17,8.17,0,0,0,0-.91V66.43a3,3,0,0,0,0-.58q.33,0,.78,0h3.28a7.82,7.82,0,0,0,.79,0,4.62,4.62,0,0,0,0,.58V67a5.55,5.55,0,0,0,0,.65c-.19,0-.46,0-.76,0h-3.32v.47h3.69a7,7,0,0,0,.73,0,5.07,5.07,0,0,0,0,.73v.78c0,.29,0,.58,0,.79h-.77V70h-3.65v.38Zm.78-3.34h3.33v-.59h-3.33Zm0,2.35h3.65v-.67h-3.65Z"/><path class="cls-1" d="M176.33,63.74a3,3,0,0,0-.66,0V63a3.55,3.55,0,0,0,.76.06h1.23a3.53,3.53,0,0,0,.74-.06v.78a3.82,3.82,0,0,0-.64,0h-.33v1.81h.26a2.88,2.88,0,0,0,.55,0v.74a3.24,3.24,0,0,0-.55,0h-.26v1.88c.3-.13.48-.21.91-.42l0,.75a23.08,23.08,0,0,1-2.4,1l-.15.07-.21-.81a8.17,8.17,0,0,0,1.1-.34V66.21h-.35a2.45,2.45,0,0,0-.58.05v-.75a3.27,3.27,0,0,0,.59,0h.34V63.74Zm4.16,4.67h-1a4.34,4.34,0,0,0-.86,0V67.7a5.67,5.67,0,0,0,.86,0h1v-.81h-.85a8.16,8.16,0,0,0-1,0c0-.12,0-.16,0-.28V64.06c0-.58,0-.9,0-1.12a10,10,0,0,0,1.13,0H182a7.62,7.62,0,0,0,1.1,0,11,11,0,0,0,0,1.13v1.77a8.4,8.4,0,0,0,0,1.11c-.21,0-.5,0-1,0h-1v.81h1.15a6.18,6.18,0,0,0,.87,0v.76a4.54,4.54,0,0,0-.86,0H181.2v1h1.45a8.26,8.26,0,0,0,.87,0v.77a5.53,5.53,0,0,0-.91,0h-3.68a5.87,5.87,0,0,0-.92,0V69.4a5.79,5.79,0,0,0,.84,0h1.64Zm-1.13-4.76v1h1.13v-1Zm0,1.63v1h1.13v-1Zm1.84-.64h1.17v-1H181.2Zm0,1.63h1.17v-1H181.2Z"/><path class="cls-1" d="M180.65,102.84a2.23,2.23,0,0,1-.44.43h3.59a12.46,12.46,0,0,0-.61-3.78Z"/><path class="cls-1" d="M165.69,83.87l1.19-.52a12.78,12.78,0,0,1,3-.88l2-.33,2.42-1.87a5.28,5.28,0,0,0-9.78,3.47Z"/><path class="cls-1" d="M173.41,86.05l.53.06a5.3,5.3,0,0,0,.86-4.59,5.76,5.76,0,0,0-.33-.85l-2.11,1.63Z"/><path class="cls-1" d="M164.58,84.19a1.62,1.62,0,0,0,0,.19,5.17,5.17,0,0,0,1.28,2.23c0-.06.09-.1.13-.15l-.61-2.18Z"/><path class="cls-1" d="M171.14,88a5.24,5.24,0,0,0,2.46-1.53l-.6-.06-3.19,1.13a2,2,0,0,1,0,.65,5.46,5.46,0,0,0,1.31-.19"/><path class="cls-1" d="M184.9,93.83l-5.64-4.28-2-1.5a4.08,4.08,0,0,0-4.16-.43l-2.22.93a1.51,1.51,0,0,0-.28.15h0a7.34,7.34,0,0,0-.89.77l-.37.32-.85.73.69-2.08a1.55,1.55,0,0,0,.06-.23,1.46,1.46,0,0,0,0-.51A1.63,1.63,0,0,0,168,86.34a1.68,1.68,0,0,0-1.9,1.15l-2.51,7.57a1.67,1.67,0,0,0,.9,2.09,1.63,1.63,0,0,0,1.87-.48l1-.87,2.69-2.33a.37.37,0,0,1,.54,0,9.91,9.91,0,0,1,2,3.21,15.7,15.7,0,0,1,.59,4.26v2.28h4.41a2.19,2.19,0,0,1-.85-1.45,2.16,2.16,0,0,1,.43-1.63L181,95.12l-3.54-2.67a.29.29,0,1,1,.35-.47l2.7,2,1.3,1-.39.52-3.84,5a1.62,1.62,0,0,0,.39,2.32,1.69,1.69,0,0,0,2.26-.44L183,98.83l2.21-2.92a1.48,1.48,0,0,0-.28-2.08"/><path class="cls-1" d="M162.18,88l3.35-1.35-4.78.45s0,0,0,0a.69.69,0,0,0,0-.2,1.37,1.37,0,0,0-2.69.28,2.87,2.87,0,0,0-.41,0,1.65,1.65,0,0,0,.53,3.25.76.76,0,0,0,0,.15.67.67,0,0,0,.83.48.7.7,0,0,0,.43-.34,1.35,1.35,0,0,0,1.16.23,1.37,1.37,0,0,0,1-1.67,1.07,1.07,0,0,0-.07-.19s0,0,0,0l2.15-1Z"/><path class="cls-1" d="M160.48,83.55l2.62.53L160,82.41s0,0,0,0l.06-.14a1,1,0,0,0-1.78-.92,1.46,1.46,0,0,0-.28-.14,1.23,1.23,0,0,0-1,2.23.41.41,0,0,0,0,.09.5.5,0,0,0,.31.64.48.48,0,0,0,.41,0,1,1,0,0,0,1.91,0,.83.83,0,0,0,0-.15s0,0,0,0l1.75.24Z"/><polygon class="cls-1" points="164.6 77.65 164.06 77.86 164.5 78.25 163.91 78.26 164.19 78.77 163.64 78.58 163.73 79.16 163.28 78.79 163.16 79.37 162.86 78.87 162.56 79.37 162.44 78.79 161.99 79.16 162.08 78.58 161.52 78.77 161.81 78.26 161.22 78.25 161.66 77.86 161.12 77.65 161.66 77.44 161.22 77.05 161.81 77.04 161.52 76.53 162.08 76.72 161.99 76.14 162.44 76.51 162.56 75.93 162.86 76.43 163.16 75.93 163.28 76.51 163.73 76.14 163.64 76.72 164.19 76.53 163.91 77.04 164.5 77.05 164.06 77.44 164.6 77.65"/><polygon class="cls-1" points="153.51 85.58 152.96 85.86 153.38 86.32 152.76 86.4 153 86.97 152.4 86.84 152.43 87.46 151.9 87.12 151.72 87.72 151.34 87.22 150.96 87.72 150.78 87.12 150.25 87.46 150.28 86.84 149.68 86.97 149.91 86.4 149.3 86.32 149.72 85.86 149.17 85.58 149.72 85.29 149.3 84.83 149.91 84.75 149.68 84.18 150.28 84.32 150.25 83.7 150.78 84.03 150.96 83.44 151.34 83.93 151.72 83.44 151.9 84.03 152.43 83.7 152.4 84.32 153 84.18 152.76 84.75 153.38 84.83 152.96 85.29 153.51 85.58"/><polygon class="cls-1" points="181.95 83.25 181.39 83.59 181.8 84.1 181.16 84.23 181.37 84.85 180.72 84.75 180.71 85.4 180.13 85.09 179.9 85.7 179.47 85.21 179.03 85.7 178.79 85.09 178.22 85.4 178.21 84.75 177.56 84.85 177.77 84.23 177.13 84.1 177.54 83.59 176.98 83.25 177.54 82.91 177.13 82.4 177.77 82.27 177.56 81.66 178.21 81.75 178.22 81.1 178.79 81.41 179.03 80.81 179.47 81.3 179.9 80.81 180.13 81.41 180.71 81.1 180.72 81.75 181.37 81.66 181.16 82.27 181.8 82.4 181.39 82.91 181.95 83.25"/><path class="cls-6" d="M184.11,106.93s0-.09,0-.13h0a.8.8,0,0,0-.84-.46s-11-.47-13.19-.75-6.42-1.74-9.45-1.74H150.07a3,3,0,0,0-3,3h0v.35h0a3,3,0,0,0,3,2.95H160.6c3,0,7.29-1.45,9.45-1.73s13.19-.76,13.19-.76c.4,0,.73-.13.84-.45h0c0-.05,0-.09,0-.14v-.08Z"/><rect class="cls-7" x="152.78" y="105.6" width="10.33" height="2.74"/><path class="cls-8" d="M150.48,103.93a2.93,2.93,0,0,0-2.93,2.87h0v.34h0a2.94,2.94,0,0,0,2.93,2.88h.33v-6.08Z"/><path class="cls-8" d="M183.58,107.14h0s0-.08,0-.13v-.08s0-.09,0-.13h0c-.09-.31-.42-.44-.81-.44l-3.47-.12v1.47l3.47-.13C183.16,107.58,183.49,107.46,183.58,107.14Z"/><path class="cls-2" d="M160.68,106.59a.57.57,0,0,1-.41.16.56.56,0,0,1-.41-.16.54.54,0,0,1-.16-.4.54.54,0,0,1,.16-.41.56.56,0,0,1,.41-.16.54.54,0,0,1,.4.16.55.55,0,0,1,.17.41A.54.54,0,0,1,160.68,106.59Zm-.41-.12a.23.23,0,0,0,.18-.08.28.28,0,0,0,.08-.2.29.29,0,0,0-.08-.21.23.23,0,0,0-.18-.07.25.25,0,0,0-.19.07.33.33,0,0,0-.07.21.32.32,0,0,0,.07.2A.26.26,0,0,0,160.27,106.47ZM163,108a1,1,0,0,1-.81.37,1.18,1.18,0,0,1-.87-.34,1.49,1.49,0,0,1,0-1.92,1.15,1.15,0,0,1,.86-.36,1,1,0,0,1,.42.09,1,1,0,0,1,.33.24l-.32.37a.61.61,0,0,0-.42-.18.55.55,0,0,0-.44.21.94.94,0,0,0-.17.57,1,1,0,0,0,.16.59.52.52,0,0,0,.43.21.62.62,0,0,0,.47-.22l.34.37Z"/><polygon class="cls-1" points="156.73 102.9 155.28 99.8 156.57 99.29 156.73 102.9"/><polygon class="cls-1" points="158.51 103.2 159.19 99.41 160.62 100.23 158.51 103.2"/><rect class="cls-2" y="120.93" width="97.57" height="63.34"/><rect class="cls-2" x="100.84" y="120.93" width="97.57" height="63.34"/><path class="cls-1" d="M17.72,129.82a6.73,6.73,0,0,0-.06-1h1a6.73,6.73,0,0,0-.06,1v2H21a7.37,7.37,0,0,0,1-.06v.91a8.84,8.84,0,0,0-1,0H18.57v2.95a10.4,10.4,0,0,0,.06,1.11h-1a11.06,11.06,0,0,0,.06-1.11v-2.95h-2.3a9.35,9.35,0,0,0-1,0v-.91a7.26,7.26,0,0,0,1,.06h2.3Z"/><path class="cls-1" d="M25.34,132.54a5.57,5.57,0,0,0-.78,0v-.69a8.71,8.71,0,0,1-1.13,1,2.71,2.71,0,0,0-.56-.68,6.29,6.29,0,0,0,2.62-3.34l.86.31a3.37,3.37,0,0,0-.23.44,8.66,8.66,0,0,1-1.47,2.17c.19,0,.47,0,.7,0h3a7.46,7.46,0,0,0,.78,0,8.55,8.55,0,0,1-1.52-2.23c-.05-.08-.14-.27-.19-.35l.8-.32a3.43,3.43,0,0,0,.33.73A6.83,6.83,0,0,0,31,132.16a3.4,3.4,0,0,0-.54.76,9.11,9.11,0,0,1-1.19-1c0,.15,0,.15,0,.53a10.68,10.68,0,0,1-.38,3.53c-.16.33-.43.44-1.07.44-.21,0-.48,0-1-.05a3.68,3.68,0,0,0-.21-.84,6.81,6.81,0,0,0,1.11.12c.31,0,.4,0,.47-.21a10.84,10.84,0,0,0,.26-2.64v-.24H26.64a4.68,4.68,0,0,1-2.83,4.07,2.28,2.28,0,0,0-.52-.69,3.75,3.75,0,0,0,2.54-3.38Z"/><path class="cls-1" d="M34,128.9H34a2,2,0,0,1,.77.16c-.1.44-.21.89-.35,1.33.39,0,.77-.08,1.15-.13a1.88,1.88,0,0,1,.06.49,2.28,2.28,0,0,1,0,.27c-.46.07-1,.13-1.45.17a20.67,20.67,0,0,1-1.64,3.63,1.74,1.74,0,0,1-.75-.42,16.18,16.18,0,0,0,1.52-3.15c-.46,0-.92,0-1.36,0a1.84,1.84,0,0,1,0-.41,2.55,2.55,0,0,1,0-.39h.4l1.23,0C33.72,130,33.85,129.42,34,128.9ZM39,135a1.53,1.53,0,0,1-.47.72,6.73,6.73,0,0,0-1.53-.94c0,.12,0,.23,0,.32,0,.93-.63,1.37-1.65,1.37s-1.63-.49-1.63-1.29.65-1.37,1.83-1.37l.54,0c-.06-.6-.1-1.28-.11-2.13a2,2,0,0,1,.41-.05,1.84,1.84,0,0,1,.41.05A19.16,19.16,0,0,0,37,134,6.49,6.49,0,0,1,39,135Zm-3.42-.47c-.77,0-1.07.33-1.07.65s.28.53.84.53.86-.26.86-.74a2.49,2.49,0,0,0,0-.37A3.42,3.42,0,0,0,35.62,134.51Zm3.52-3.26a2.09,2.09,0,0,1-.48.7,7.51,7.51,0,0,0-1.95-1.2,2.3,2.3,0,0,1,.39-.66A8.07,8.07,0,0,1,39.14,131.25Z"/><path class="cls-1" d="M41.7,131.9h-.59a5,5,0,0,0-.73,0,6.41,6.41,0,0,0,0-.86V130c0-.37,0-.72,0-.89a6.14,6.14,0,0,0,.81,0h1.35a6.61,6.61,0,0,0,.82,0,6.48,6.48,0,0,0,0,.85v1.11a7.4,7.4,0,0,0,0,.84,4.88,4.88,0,0,0-.69,0H42.4V133h.38a4,4,0,0,0,.7-.05v.75a4.45,4.45,0,0,0-.71,0H42.4v1.5c.45-.12.67-.19,1.12-.35v.72c-.92.29-1.69.52-2.8.79l-.64.17-.15-.83a2.55,2.55,0,0,0,.53-.06v-2.28a5.62,5.62,0,0,0,0-.76h.77a4.43,4.43,0,0,0-.05.71v2.2l.55-.13Zm-.57-.65h1.48v-1.42H41.13Zm3.49,4.25H47a7.77,7.77,0,0,0,.91-.05v.83a4.9,4.9,0,0,0-.9-.06H44.62v.46h-.81a8,8,0,0,0,.06-1V130c0-.48,0-.68,0-.86.18,0,.5,0,.85,0h2.18a7,7,0,0,0,.9-.05V130a7,7,0,0,0-.88,0H44.62v1.27h2a7.73,7.73,0,0,0,.78,0c0,.23,0,.43,0,.76v1.39c0,.46,0,.61,0,.79-.21,0-.47,0-.75,0h-2Zm2-2.15v-1.47h-2v1.47Z"/><path class="cls-1" d="M50.45,129.4a2.72,2.72,0,0,0,0-.57h.82a2.9,2.9,0,0,0,0,.56v.11h.9a4.51,4.51,0,0,0,.72,0v.7c-.2,0-.45,0-.71,0H49.5a5.89,5.89,0,0,0-.68,0v-.7a4.29,4.29,0,0,0,.71,0h.92Zm1.08,6.17a3.08,3.08,0,0,0-.1-.41c-.32.08-1,.22-1.31.27l-.27.06-.16-.65h.12l.21,0a8.77,8.77,0,0,0,.3-1.11h-.64v2a8.08,8.08,0,0,0,0,.9H49c0-.23,0-.48,0-.92V134c0-.39,0-.61,0-.86a6.12,6.12,0,0,0,.76,0h.73l0-.09,0-.31,0-.06H49.16a4.23,4.23,0,0,0,0-.6v-1.15c0-.17,0-.44,0-.61h.69a4,4,0,0,0,0,.53v.76a5,5,0,0,0,.68-.48,6.4,6.4,0,0,0-.56-.45l.37-.37.58.44a3.07,3.07,0,0,0,.4-.53l.44.37c-.17.22-.24.29-.43.51.13.11.2.19.45.42l-.38.45c-.22-.24-.29-.31-.47-.49a4.38,4.38,0,0,1-.7.54,2.63,2.63,0,0,0-.38-.41v.5h2v-1.26a3.67,3.67,0,0,0,0-.52h.68a2.62,2.62,0,0,0,0,.52v.67a6.61,6.61,0,0,0,1.17-2.78l.75.2c-.07.16-.13.33-.19.5s-.14.37-.28.73h.83a6.54,6.54,0,0,0,.48-1.35l.71.19-.17.42c-.1.24-.23.52-.33.74h.23a4.4,4.4,0,0,0,.87-.05v.76a5.74,5.74,0,0,0-.87,0h-.28v1.07h.23a4.1,4.1,0,0,0,.74,0v.74a4.53,4.53,0,0,0-.75-.05h-.22v1.06h.23a4.55,4.55,0,0,0,.74,0v.74a4.76,4.76,0,0,0-.74-.05h-.23v1.28h.41a5.24,5.24,0,0,0,.81,0v.77c-.16,0-.56,0-.87,0H53.83v.4h-.74a5.52,5.52,0,0,0,0-.95v-3.43c0-.29,0-.41,0-.65a2.88,2.88,0,0,1-.38.57,3,3,0,0,0-.35-.48v.45c0,.18,0,.41,0,.54H51.18l0,.09c0,.27-.06.3-.07.37h.85a5,5,0,0,0,.78,0,5.17,5.17,0,0,0,0,.72v2c0,.36-.08.54-.29.64a2,2,0,0,1-.87.1h-.44a2.3,2.3,0,0,0-.15-.69,4.91,4.91,0,0,0,.81.06c.21,0,.27,0,.27-.21v-.35ZM51,133.72c-.13.5-.22.82-.3,1l.61-.1a5.31,5.31,0,0,0-.24-.49l.49-.19a8.34,8.34,0,0,1,.51,1.23v-1.49Zm3.75-2.87h-.87v1.07h.87Zm-.87,1.72v1.06h.87v-1.06Zm0,3h.87v-1.28h-.87Z"/><path class="cls-1" d="M61.57,135.56c1.69-.48,2.47-1.41,2.47-2.72a2.3,2.3,0,0,0-2.31-2.35,9,9,0,0,1-.95,4,1.8,1.8,0,0,1-1.64,1.16c-.88,0-1.62-.82-1.62-2.39a3.69,3.69,0,0,1,3.92-3.61,3.19,3.19,0,0,1,3.48,3.15c0,1.78-1.06,2.93-2.87,3.51Zm-3.19-2.27c0,1.12.43,1.52.79,1.52s.58-.14.86-.66a8.25,8.25,0,0,0,.83-3.64A2.76,2.76,0,0,0,58.38,133.29Z"/><path class="cls-1" d="M69.16,135.22c0,.3,0,.54,0,.69h-.67v-.4h-.73v.84H67a4.93,4.93,0,0,0,.06-.86v-1.83c0-.24,0-.5,0-.76a4.58,4.58,0,0,1-.49.85,5.33,5.33,0,0,0-.34-.78,6.45,6.45,0,0,0,1.28-3.24h-.23a5,5,0,0,0-.73,0V129a5.66,5.66,0,0,0,.8.05h1.06a5.25,5.25,0,0,0,.78-.05v.76a4.44,4.44,0,0,0-.55,0h-.4a13.2,13.2,0,0,1-.54,2h.89a2.62,2.62,0,0,0,.52,0c0,.18,0,.41,0,.65v.26a6.41,6.41,0,0,0,1.65-2.41h-.7v.9H69.4a2.79,2.79,0,0,0,0-.53v-.64a3.47,3.47,0,0,0,0-.43,3.25,3.25,0,0,0,.67,0h1a7.49,7.49,0,0,0,.21-.89l.78.11-.24.78h1.62a7.27,7.27,0,0,0,.79,0,4.14,4.14,0,0,0,0,.6v.47a2.49,2.49,0,0,0,0,.52h-.76v-.88h-1.9a6.55,6.55,0,0,1-.61,1.25h.94a4.31,4.31,0,0,0,.35-.95l.71.16a7.13,7.13,0,0,1-.34.79h.67a6.65,6.65,0,0,0,.73,0v.69c-.21,0-.45,0-.71,0h-.85v.73h.7a4.55,4.55,0,0,0,.74,0v.69a5.25,5.25,0,0,0-.73,0h-.71v.73h.7a4.71,4.71,0,0,0,.74,0v.69a5.07,5.07,0,0,0-.73,0h-.71v.77h.93a4.88,4.88,0,0,0,.8-.05v.74a6.64,6.64,0,0,0-.81-.05H70.63v.4h-.76a7,7,0,0,0,0-.92v-2.21c0-.36,0-.6,0-.69a3.81,3.81,0,0,1-.45.54,3.05,3.05,0,0,0-.34-.6Zm-1.38-.39h.73v-2.42h-.73Zm4-2v-.73H70.63v.73Zm-1.14,1.34h1.14v-.73H70.63Zm0,1.38h1.14v-.77H70.63Z"/><path class="cls-1" d="M76.11,133c0-.39,0-.55,0-1a4.7,4.7,0,0,1-.75,1,3.42,3.42,0,0,0-.38-.81,6.89,6.89,0,0,0,1.85-3.54l.81.25a2.91,2.91,0,0,0-.16.47,11.37,11.37,0,0,1-.65,1.54v4.62a9.57,9.57,0,0,0,0,1h-.83a9.72,9.72,0,0,0,0-1Zm3.59-1.16h-.91c-.42,0-.68,0-.88,0,0-.22,0-.45,0-.81v-1.18c0-.32,0-.52,0-.77a7.17,7.17,0,0,0,1,0h2.62a7.38,7.38,0,0,0,.94,0,6.05,6.05,0,0,0,0,.81v1.16a5.28,5.28,0,0,0,0,.78h-2v.78h1.59c.27,0,.69,0,.88-.05v.81a8.1,8.1,0,0,0-.87-.06h-1.3a6.2,6.2,0,0,0,2.42,2,4.76,4.76,0,0,0-.5.76,6.38,6.38,0,0,1-2.25-2.14c0,.33,0,.64,0,.92v.95a4.47,4.47,0,0,0,.05.8h-.86a6.77,6.77,0,0,0,0-.81v-.95c0-.18,0-.48,0-.92A6.11,6.11,0,0,1,77.47,136a2.1,2.1,0,0,0-.5-.7,6.32,6.32,0,0,0,2.41-2.05H78.21a6.83,6.83,0,0,0-.9.06v-.8c.22,0,.53,0,.9,0H79.7Zm-1-.7h2.93v-1.29H78.69Z"/><path class="cls-1" d="M69,149.57a2.28,2.28,0,1,0-2.28-2.28A2.28,2.28,0,0,0,69,149.57Z"/><path class="cls-1" d="M72.42,150.57a18.44,18.44,0,0,0-6.84,0,3.75,3.75,0,0,0-3.07,3.89l.42,7.88h1.85v-7.53h.57v21h2.51l.91-13h.46l.91,13h2.51v-21h.57v7.53h1.85l.42-7.88A3.75,3.75,0,0,0,72.42,150.57Z"/><path class="cls-1" d="M28.57,149.57a2.28,2.28,0,1,0-2.28-2.28A2.29,2.29,0,0,0,28.57,149.57Z"/><path class="cls-1" d="M32,150.57a18.49,18.49,0,0,0-6.85,0,3.75,3.75,0,0,0-3.07,3.89l.43,7.88h1.85v-7.53h.57v21h2.5l.92-13h.45l.91,13h2.51v-21h.57v7.53h1.85l.43-7.88A3.76,3.76,0,0,0,32,150.57Z"/><polygon class="cls-1" points="38.66 160.43 41.73 163.51 39.81 163.51 35.96 159.66 39.81 155.81 41.73 155.81 38.66 158.89 58.92 158.89 55.84 155.81 57.77 155.81 61.61 159.66 57.77 163.51 55.84 163.51 58.92 160.43 38.66 160.43"/><path class="cls-1" d="M125.67,129.73a4.72,4.72,0,0,0,0-.87h.85a4.72,4.72,0,0,0,0,.87v.74a4.17,4.17,0,0,0,.59,0v.74a4.56,4.56,0,0,0-.59,0v1.39c.34-.13.41-.17.78-.34v.42a1.91,1.91,0,0,0,1.44-2.17h-.78v1h-.7a3.89,3.89,0,0,0,0-.53v-.62a4.67,4.67,0,0,0,0-.57c.2,0,.44,0,.82,0h1.27v-.34a4.55,4.55,0,0,0,0-.59h.85a3.73,3.73,0,0,0,0,.6v.33h1.54a8,8,0,0,0,.81,0,5.53,5.53,0,0,0,0,.6v.44a3.63,3.63,0,0,0,0,.51h-.72v-.85h-1V132c0,.16,0,.18.47.18.67,0,.7,0,.7-.62a.72.72,0,0,0,0-.13,2.62,2.62,0,0,0,.67.19c-.08,1.11-.2,1.23-1.44,1.23-.83,0-1.07-.13-1.07-.58v-1.85h-.61a2.71,2.71,0,0,1-1.74,2.82,2.82,2.82,0,0,0-.4-.58v.2l-.8.39v2.55c0,.33-.06.49-.22.59a1.52,1.52,0,0,1-.78.14l-.53,0a2.65,2.65,0,0,0-.16-.73,3.87,3.87,0,0,0,.72.06c.17,0,.22,0,.22-.2V133.6l-.29.1-.36.14-.2.09-.18-.79a6.33,6.33,0,0,0,1-.3v-1.68h-.38a3.76,3.76,0,0,0-.58,0v-.77a2.51,2.51,0,0,0,.58.05h.38Zm2.76,4.47c-.34,0-.77,0-.93,0v-.76a6.72,6.72,0,0,0,.93.05h2.69a6.65,6.65,0,0,0,.92-.05v.76c-.2,0-.49,0-.91,0H130v1.43h1.44a6.28,6.28,0,0,0,1,0v.79c-.24,0-.58,0-1,0h-3.54c-.38,0-.72,0-1,0v-.79a5.61,5.61,0,0,0,1,0h1.33V134.2Z"/><path class="cls-1" d="M137.26,131.82c-.93.13-1.8.21-2.78.29a2.51,2.51,0,0,1-.1-.66,1.09,1.09,0,0,1,0-.18c1.3-.06,2.62-.17,3.92-.31a1.85,1.85,0,0,1,.29.66c-.65.63-1.27,1.2-1.86,1.77l0,0a1,1,0,0,1,.45-.09c.61,0,.91.39.91,1.1v.13c0,.69.2.85.73.85a6.46,6.46,0,0,0,1.65-.23,2.53,2.53,0,0,1,.11.73v.14a7.11,7.11,0,0,1-1.77.2c-1.17,0-1.56-.53-1.56-1.54v-.12c0-.51-.17-.66-.48-.66a2,2,0,0,0-1.22.71c-.51.51-1,1.05-1.51,1.57a1.69,1.69,0,0,1-.62-.6l3.81-3.76Zm1.43-2.18a2.47,2.47,0,0,1-.15.81,24,24,0,0,1-3-.59,2.41,2.41,0,0,1,.24-.79A23.71,23.71,0,0,0,138.69,129.64Z"/><path class="cls-1" d="M145.93,135.68c1.42-.5,2.11-1.37,2.11-2.45a2,2,0,0,0-1.73-1.91,9.21,9.21,0,0,1-1.34,3,8.16,8.16,0,0,0,.56.88,1.35,1.35,0,0,1-.7.48c-.16-.23-.3-.47-.45-.73a2,2,0,0,1-1.49.72,1.32,1.32,0,0,1-1.33-1.45,3.57,3.57,0,0,1,1.47-2.78,17.74,17.74,0,0,1-.35-1.82,1.34,1.34,0,0,1,.69-.18h.1c.07.54.15,1.06.26,1.57a4.5,4.5,0,0,1,1.94-.46c.08-.44.15-.9.2-1.39H146a1.79,1.79,0,0,1,.72.15c-.07.46-.14.88-.23,1.29a2.69,2.69,0,0,1,2.4,2.65,3.34,3.34,0,0,1-2.44,3.13Zm-3.55-1.51c0,.45.22.68.54.68a1.5,1.5,0,0,0,1.09-.62,12.17,12.17,0,0,1-.75-2A2.73,2.73,0,0,0,142.38,134.17Zm3.11-2.88a3.24,3.24,0,0,0-1.56.46,10.76,10.76,0,0,0,.65,1.8A7.94,7.94,0,0,0,145.49,131.29Z"/><path class="cls-1" d="M152.11,128.9h.06a2.13,2.13,0,0,1,.78.16c-.11.44-.22.89-.36,1.33.39,0,.77-.08,1.16-.13a2.46,2.46,0,0,1,.05.49,2.28,2.28,0,0,1,0,.27c-.46.07-.95.13-1.44.17a20.68,20.68,0,0,1-1.65,3.63,1.7,1.7,0,0,1-.74-.42,16.76,16.76,0,0,0,1.51-3.15c-.46,0-.91,0-1.36,0a2.73,2.73,0,0,1,0-.41c0-.13,0-.26,0-.39h.4l1.23,0A14.23,14.23,0,0,0,152.11,128.9Zm5.08,6.08a1.46,1.46,0,0,1-.47.72,6.52,6.52,0,0,0-1.53-.94c0,.12,0,.23,0,.32,0,.93-.64,1.37-1.66,1.37s-1.63-.49-1.63-1.29.65-1.37,1.83-1.37c.19,0,.36,0,.54,0-.06-.6-.1-1.28-.11-2.13a2,2,0,0,1,.42-.05,1.84,1.84,0,0,1,.41.05,19.33,19.33,0,0,0,.11,2.28A6.4,6.4,0,0,1,157.19,135Zm-3.42-.47c-.77,0-1.07.33-1.07.65s.28.53.85.53.86-.26.86-.74a2.62,2.62,0,0,0,0-.37A3.42,3.42,0,0,0,153.77,134.51Zm3.52-3.26a2.06,2.06,0,0,1-.47.7,7.56,7.56,0,0,0-2-1.2,2.56,2.56,0,0,1,.39-.66A7.91,7.91,0,0,1,157.29,131.25Z"/><path class="cls-1" d="M160,131.52a9,9,0,0,1-1.43.8,2.15,2.15,0,0,0-.44-.71,7.54,7.54,0,0,0,3.54-2.73h.84a8,8,0,0,0,3.7,2.68,3.6,3.6,0,0,0-.42.79,9.23,9.23,0,0,1-1.53-.84v.69a4.55,4.55,0,0,0-.74,0h-2.81a6.85,6.85,0,0,0-.71,0Zm-.49,2.23a6,6,0,0,0-1,.06V133a6.35,6.35,0,0,0,1,.06h5.27a6.17,6.17,0,0,0,1-.06v.85a6.17,6.17,0,0,0-1-.06h-3a11.47,11.47,0,0,1-1,1.81l1-.08c.92-.06,1.12-.08,1.94-.19-.32-.35-.55-.61-.92-1l.65-.36a20,20,0,0,1,2,2.26l-.68.47c-.24-.37-.37-.56-.53-.78-1.2.16-2.23.27-4.31.44-.63,0-1,.09-1.23.13l-.12-.87.47,0,.8,0a10.53,10.53,0,0,0,1-1.86Zm4-2.32h.59a7.87,7.87,0,0,1-2-1.86,7.79,7.79,0,0,1-2,1.86h3.36Z"/><path class="cls-1" d="M167,130.27a4,4,0,0,0,.68,0h1.68a5.4,5.4,0,0,0,.69,0V131a3.19,3.19,0,0,0-.64,0h-1.73a4,4,0,0,0-.68,0Zm.28-1.17a4.2,4.2,0,0,0,.68,0h1.22a4.41,4.41,0,0,0,.69,0v.72a4.17,4.17,0,0,0-.69,0H168a4.2,4.2,0,0,0-.68,0Zm0,2.39.58,0h1.42l.57,0v.68a4.54,4.54,0,0,0-.57,0h-1.42a4.8,4.8,0,0,0-.58,0Zm0,1.18a4.3,4.3,0,0,0,.58,0h1.41a4.3,4.3,0,0,0,.58,0v.68l-.59,0h-1.41l-.57,0Zm.76,4h-.74a7.64,7.64,0,0,0,0-.8v-1.28a4.58,4.58,0,0,0,0-.69,4.22,4.22,0,0,0,.67,0h1.29a3.29,3.29,0,0,0,.59,0c0,.16,0,.36,0,.63v1.35c0,.28,0,.44,0,.67h-.71v-.31h-1.11Zm0-1.05h1.12v-1.06h-1.12Zm3.87-5.47a15.12,15.12,0,0,1-1.58.2,3.81,3.81,0,0,0-.27-.69,11.6,11.6,0,0,0,3.93-.81l.46.69a.53.53,0,0,0-.16,0l-.21.06c-.49.14-1,.29-1.42.37v1.38h1a6.89,6.89,0,0,0,.94-.05v.79a5.82,5.82,0,0,0-.94-.06h-1v1.26h1a3.53,3.53,0,0,0,.64,0,4.9,4.9,0,0,0,0,.75v1.73a6.46,6.46,0,0,0,0,.87h-.81v-.4h-2.32v.4h-.79a8.24,8.24,0,0,0,0-.85v-1.8c0-.32,0-.5,0-.7a3.74,3.74,0,0,0,.61,0h.92V132h-.83a6,6,0,0,0-1,.06v-.79a7.69,7.69,0,0,0,1,.05h.82Zm-.75,5.41h2.32V134h-2.32Z"/><path class="cls-1" d="M143.27,151.72a.34.34,0,0,0,.21.08.29.29,0,0,0,.16,0l1.36-.84a4.79,4.79,0,0,0,2.07.46c2.25,0,4.07-1.48,4.07-3.31s-1.82-3.3-4.07-3.3-4.07,1.48-4.07,3.3a3,3,0,0,0,.87,2.05l-.66,1.23A.32.32,0,0,0,143.27,151.72Zm0-3.65c0-1.62,1.69-2.94,3.77-2.94s3.78,1.32,3.78,2.94-1.7,2.94-3.78,2.94a4.46,4.46,0,0,1-2.12-.51.42.42,0,0,0-.16,0,.34.34,0,0,0-.17,0l-.58.36.25-.47a.35.35,0,0,0-.07-.41A2.59,2.59,0,0,1,143.3,148.07Z"/><path class="cls-1" d="M145.35,148.6a.42.42,0,1,0-.42-.42A.42.42,0,0,0,145.35,148.6Z"/><path class="cls-1" d="M147.1,148.6a.42.42,0,1,0-.41-.42A.42.42,0,0,0,147.1,148.6Z"/><path class="cls-1" d="M148.86,148.6a.42.42,0,0,0,0-.83.42.42,0,0,0,0,.83Z"/><path class="cls-1" d="M152.3,151.59c-2.18,0-4,1.43-4,3.19s1.77,3.19,4,3.19a4.68,4.68,0,0,0,2.08-.48l1.41.87.1,0a.21.21,0,0,0,.13,0,.19.19,0,0,0,0-.22l-.71-1.32a2.8,2.8,0,0,0,.91-2C156.26,153,154.48,151.59,152.3,151.59Zm-1.79,3.71a.41.41,0,0,1-.41-.41.41.41,0,0,1,.82,0A.41.41,0,0,1,150.51,155.3Zm1.76,0a.41.41,0,0,1-.41-.41.41.41,0,0,1,.82,0A.41.41,0,0,1,152.27,155.3Zm1.76,0a.41.41,0,0,1-.41-.41.41.41,0,0,1,.82,0A.41.41,0,0,1,154,155.3Z"/><path class="cls-9" d="M137.54,161.4l1.64,1.42,1.34,1.16.47-.54,2.5-2.94a1.78,1.78,0,0,1,2.58-.12,1.85,1.85,0,0,1,0,2.52l-3.23,3.73-.63.73a1.63,1.63,0,0,1-2.3.17l-4.68-4.05"/><path class="cls-10" d="M138.91,164.67a4.6,4.6,0,0,0-9.2,0l.07,11.14h8.66Z"/><path class="cls-9" d="M133.23,165.21v5.23l0,5a1.78,1.78,0,0,1-1.87,1.77,1.84,1.84,0,0,1-1.68-1.87V165.21"/><path class="cls-1" d="M135.75,149.39a5.15,5.15,0,1,0,5.16,5.15A5.15,5.15,0,0,0,135.75,149.39Z"/><path class="cls-11" d="M135.75,149.39a5.15,5.15,0,1,0,5.16,5.15A5.15,5.15,0,0,0,135.75,149.39Z"/><path class="cls-12" d="M141.05,154.82a5.17,5.17,0,0,1-4.2,4.9L134,158.4s.42-.32.71-1.79,0-1.79,0-1.79A16.61,16.61,0,0,0,141.05,154.82Z"/><path class="cls-2" d="M141.05,154.82a5.17,5.17,0,0,1-4.2,4.9L134,158.4s.42-.32.71-1.79,0-1.79,0-1.79A16.61,16.61,0,0,0,141.05,154.82Z"/><path class="cls-13" d="M141.05,154.82a5.17,5.17,0,0,1-4.2,4.9L134,158.4s.42-.32.71-1.79,0-1.79,0-1.79A16.61,16.61,0,0,0,141.05,154.82Z"/><path class="cls-13" d="M134,158.4,132.47,156c-.87-1.33-.71-2.14.35-1.79l1.93.64"/><path class="cls-9" d="M161.37,162.85,161.2,165l-.13,1.78-.71-.06-3.85-.32a1.79,1.79,0,0,0-1.91,1.74,1.84,1.84,0,0,0,1.74,1.81l4.93.37,1,.07a1.63,1.63,0,0,0,1.75-1.5l.46-6.17"/><path class="cls-10" d="M160.35,164.9a4.6,4.6,0,0,1,9.19,0L169.48,176h-8.67Z"/><path class="cls-9" d="M166,165.44v5.23l0,5a1.78,1.78,0,0,0,1.87,1.78,1.86,1.86,0,0,0,1.68-1.88V165.44"/><path class="cls-1" d="M163.5,149.62a5.15,5.15,0,1,0,5.15,5.15A5.16,5.16,0,0,0,163.5,149.62Z"/><path class="cls-11" d="M163.5,149.62a5.15,5.15,0,1,0,5.15,5.15A5.16,5.16,0,0,0,163.5,149.62Z"/><path class="cls-12" d="M158.21,155.06a5.16,5.16,0,0,0,4.2,4.9l2.81-1.32s-.42-.32-.72-1.79,0-1.79,0-1.79A16.79,16.79,0,0,1,158.21,155.06Z"/><path class="cls-2" d="M158.21,155.06a5.16,5.16,0,0,0,4.2,4.9l2.81-1.32s-.42-.32-.72-1.79,0-1.79,0-1.79A16.79,16.79,0,0,1,158.21,155.06Z"/><path class="cls-13" d="M158.21,155.06a5.16,5.16,0,0,0,4.2,4.9l2.81-1.32s-.42-.32-.72-1.79,0-1.79,0-1.79A16.79,16.79,0,0,1,158.21,155.06Z"/><path class="cls-13" d="M165.22,158.64l1.57-2.43c.86-1.34.7-2.14-.36-1.79l-1.93.64"/></g></g></svg>