<svg xmlns="http://www.w3.org/2000/svg" viewBox="0 0 335.33 47.18"><defs><style>.cls-1{fill:#fff;}</style></defs><g id="レイヤー_2" data-name="レイヤー 2"><g id="レイヤー_1-2" data-name="レイヤー 1"><path d="M268.33,1.32v22h67v-22ZM6.63,34.54a6.28,6.28,0,1,0,0,12.55,6.28,6.28,0,1,0,0-12.55ZM6.63,45a3.91,3.91,0,0,1-4-4.14,3.92,3.92,0,0,1,4-4.16,3.92,3.92,0,0,1,4,4.16A3.9,3.9,0,0,1,6.63,45ZM18.75,34.81h-3.5v12h2.34V42.38h1.52a4.11,4.11,0,0,0,3-1.07,4.09,4.09,0,0,0-.23-5.58A4.34,4.34,0,0,0,18.75,34.81ZM20.08,40a2.39,2.39,0,0,1-1.53.38h-1V36.83h.81a2.85,2.85,0,0,1,1.66.38,1.66,1.66,0,0,1,.67,1.37A1.79,1.79,0,0,1,20.08,40Zm4.76,6.84H31.5v-2H27.18V41.53h4.14v-2H27.18V36.83H31.5v-2H24.84Zm18.06-4-7.31-8H34v12h2.34v-8l7.31,8h1.62v-12H42.9Zm6.25,1.42a1.41,1.41,0,1,0,1.4,1.4A1.39,1.39,0,0,0,49.15,44.25Zm3.46-7.42h1.73v10h2.34v-12H52.61Zm12-2.29c-2.39,0-4.64,2.15-4.64,6.27s2.25,6.28,4.64,6.28,4.65-2.14,4.65-6.26S67,34.54,64.64,34.54Zm0,10.54c-1,0-2.3-1.14-2.3-4.27s1.29-4.25,2.3-4.25S67,37.69,67,40.81,65.67,45.08,64.64,45.08Zm7.69-6.31a1.41,1.41,0,1,0,1.4,1.41A1.39,1.39,0,0,0,72.33,38.77Zm0,5.5a1.4,1.4,0,1,0,1.4,1.4A1.38,1.38,0,0,0,72.33,44.27ZM80,34.54c-2.39,0-4.64,2.15-4.64,6.27s2.25,6.28,4.64,6.28,4.65-2.14,4.65-6.26S82.4,34.54,80,34.54Zm0,10.54c-1,0-2.3-1.14-2.3-4.27S79,36.56,80,36.56s2.31,1.13,2.31,4.25S81,45.08,80,45.08ZM90.73,34.54c-2.39,0-4.64,2.15-4.64,6.27s2.25,6.28,4.64,6.28,4.65-2.14,4.65-6.26S93.13,34.54,90.73,34.54Zm0,10.54c-1,0-2.3-1.14-2.3-4.27s1.29-4.25,2.3-4.25S93,37.69,93,40.81,91.76,45.08,90.73,45.08Zm10.21-1.39h4.68v-2h-4.68Zm12.49-7.56a6.26,6.26,0,0,0-1.93,4.7,6.15,6.15,0,0,0,6.32,6.26,6.18,6.18,0,0,0,3-.7V43.65A3.62,3.62,0,0,1,118,45a4.15,4.15,0,0,1-.1-8.3,3.84,3.84,0,0,1,2.9,1.35V35.28a6,6,0,0,0-3-.74A6.13,6.13,0,0,0,113.43,36.13Zm12.1-1.32h-2.34v12h6.05v-2h-3.71Zm10.82-.27a6.28,6.28,0,1,0,6.41,6.29A6.1,6.1,0,0,0,136.35,34.54Zm0,10.43a3.91,3.91,0,0,1-4-4.14,4,4,0,1,1,8,0A3.91,3.91,0,0,1,136.35,45Zm12.45-5.55a4.08,4.08,0,0,1-1.44-.68,1,1,0,0,1-.38-.81c0-.61.4-1.41,1.66-1.41a2.34,2.34,0,0,1,2,1l1.23-1.6a4.65,4.65,0,0,0-3.41-1.41,3.49,3.49,0,0,0-3.85,3.53,2.79,2.79,0,0,0,1,2.23,6,6,0,0,0,2,1.05,5.35,5.35,0,0,1,1.86.88,1.41,1.41,0,0,1,.46,1.08A1.68,1.68,0,0,1,148,45a2.81,2.81,0,0,1-2.52-1.6l-1.53,1.45a4.94,4.94,0,0,0,4.14,2.27,3.87,3.87,0,0,0,4.18-3.94,3.25,3.25,0,0,0-1-2.52A7,7,0,0,0,148.8,39.42Zm5.57,7.4H161v-2h-4.32V41.53h4.14v-2h-4.14V36.83H161v-2h-6.66Zm10.31-2.57a1.41,1.41,0,1,0,1.4,1.4A1.38,1.38,0,0,0,164.68,44.25Zm3.46-7.42h1.72v10h2.34v-12h-4.06Zm7.36-2v2h5.58l-5.53,9.47,2,.88,7.22-12.37Zm10.54,4a1.41,1.41,0,1,0,1.4,1.41A1.39,1.39,0,0,0,186,38.77Zm0,5.5a1.4,1.4,0,1,0,1.4,1.4A1.38,1.38,0,0,0,186,44.27Zm7.67-9.73c-2.4,0-4.65,2.15-4.65,6.27s2.25,6.28,4.65,6.28,4.64-2.14,4.64-6.26S196.1,34.54,193.71,34.54Zm0,10.54c-1,0-2.31-1.14-2.31-4.27s1.3-4.25,2.31-4.25,2.3,1.13,2.3,4.25S194.73,45.08,193.71,45.08Zm10.73-10.54c-2.4,0-4.65,2.15-4.65,6.27s2.25,6.28,4.65,6.28,4.64-2.14,4.64-6.26S206.83,34.54,204.44,34.54Zm0,10.54c-1,0-2.31-1.14-2.31-4.27s1.3-4.25,2.31-4.25,2.3,1.13,2.3,4.25S205.46,45.08,204.44,45.08ZM6.27,14.69,0,21.82H15.49V18.24H7.78l3.68-4c1.66-1.79,3.87-4.16,3.87-7.46S12.77,0,7.81,0A7.12,7.12,0,0,0,.32,7.14H4.61A3.4,3.4,0,0,1,8,3.58a3.1,3.1,0,0,1,3.17,3.24,6.67,6.67,0,0,1-1.25,3.42C9.15,11.39,6.66,14.24,6.27,14.69ZM26.57,0c-4.26,0-8.26,3.81-8.26,11.14s4,11.16,8.26,11.16,8.25-3.81,8.25-11.13S30.82,0,26.57,0Zm0,18.72c-1.82,0-4.1-2-4.1-7.58s2.31-7.56,4.1-7.56,4.09,2,4.09,7.56S28.39,18.72,26.57,18.72Zm21.27-4.48c1.66-1.79,3.87-4.16,3.87-7.46S49.15,0,44.19,0A7.13,7.13,0,0,0,36.7,7.14H41a3.42,3.42,0,0,1,3.39-3.56,3.1,3.1,0,0,1,3.17,3.24,6.67,6.67,0,0,1-1.25,3.42c-.76,1.15-3.26,4-3.64,4.45l-6.28,7.13H51.87V18.24H44.16Zm15.28,7.58V.48H55.89V4.06H59V21.82ZM72,17.25a2.5,2.5,0,1,0,2.49,2.49A2.46,2.46,0,0,0,72,17.25Zm6-13.19H81V21.82h4.16V.48H77.94ZM96.36,14.69l-6.27,7.13h15.48V18.24H97.86l3.68-4c1.67-1.79,3.87-4.16,3.87-7.46S102.85,0,97.89,0a7.12,7.12,0,0,0-7.48,7.14h4.28a3.42,3.42,0,0,1,3.4-3.56,3.09,3.09,0,0,1,3.16,3.24A6.75,6.75,0,0,1,100,10.24C99.24,11.39,96.74,14.24,96.36,14.69Zm18.32,5a2.5,2.5,0,1,0-2.49,2.5A2.45,2.45,0,0,0,114.68,19.74Zm10.7,2.08V.48h-7.23V4.06h3.07V21.82Zm9.91,0h4.16V.48h-7.23V4.06h3.07Zm15.07-8.22a4.55,4.55,0,0,1-1.6-.76,1.12,1.12,0,0,1-.42-.9c0-.68.44-1.56,1.84-1.56a2.61,2.61,0,0,1,2.18,1.14l1.36-1.78a5.13,5.13,0,0,0-3.78-1.56c-3,0-4.28,2-4.28,3.92a3.1,3.1,0,0,0,1.06,2.48,6.42,6.42,0,0,0,2.22,1.16,6,6,0,0,1,2.06,1,1.55,1.55,0,0,1,.52,1.2,1.87,1.87,0,0,1-2.06,1.84,3.13,3.13,0,0,1-2.8-1.78L145,19.6a5.49,5.49,0,0,0,4.6,2.52,4.29,4.29,0,0,0,4.64-4.38,3.63,3.63,0,0,0-1.14-2.8A7.76,7.76,0,0,0,150.36,13.6ZM158.84,19h5.38l1.18,2.8h2.8L162.62,8.48h-2l-5.74,13.34h2.82Zm2.72-6.92,1.9,4.8h-3.8Zm14.62-3.62h-8.6v2.24h3v11.1h2.6V10.72h3Zm14.69,4.19h-8.31v3.58h8.31Zm6.58,9.15h4.16V.48h-7.23V4.06h3.07ZM218,14.24c1.66-1.79,3.87-4.16,3.87-7.46S219.29,0,214.33,0a7.12,7.12,0,0,0-7.49,7.14h4.29a3.4,3.4,0,0,1,3.39-3.56,3.1,3.1,0,0,1,3.17,3.24,6.67,6.67,0,0,1-1.25,3.42c-.77,1.15-3.26,4-3.65,4.45l-6.27,7.13H222V18.24H214.3Zm12.19-.64a4.55,4.55,0,0,1-1.6-.76,1.12,1.12,0,0,1-.42-.9c0-.68.44-1.56,1.84-1.56a2.61,2.61,0,0,1,2.18,1.14l1.36-1.78a5.13,5.13,0,0,0-3.78-1.56c-3,0-4.28,2-4.28,3.92a3.1,3.1,0,0,0,1.06,2.48,6.42,6.42,0,0,0,2.22,1.16,6,6,0,0,1,2.06,1,1.55,1.55,0,0,1,.52,1.2,1.87,1.87,0,0,1-2.06,1.84,3.13,3.13,0,0,1-2.8-1.78l-1.7,1.62a5.49,5.49,0,0,0,4.6,2.52A4.29,4.29,0,0,0,234,17.74a3.63,3.63,0,0,0-1.14-2.8A7.76,7.76,0,0,0,230.17,13.6Zm14.16,3.26a2.9,2.9,0,0,1-.64,2,2.9,2.9,0,0,1-4.24,0,2.9,2.9,0,0,1-.64-2V8.48h-2.6v8.16a5.61,5.61,0,0,0,1,3.56,5.91,5.91,0,0,0,8.72,0,5.61,5.61,0,0,0,1-3.56V8.48h-2.6Zm15.61.52-8.12-8.9H250V21.82h2.6V12.9l8.12,8.92h1.8V8.48h-2.6Z"/><path class="cls-1" d="M280.17,5.81h-6.38v12h2.34V12.53h3.78v-2h-3.78V7.83h4Z"/><path class="cls-1" d="M282.18,5.81v12h2.34V13h.29l3.2,4.82h2.92l-3.74-5.06a3.34,3.34,0,0,0,1.31-.52,3.27,3.27,0,0,0,1.4-2.83,3.43,3.43,0,0,0-1.18-2.7,4.42,4.42,0,0,0-3.06-.9Zm2.34,1.91h.7c.44,0,2.27,0,2.27,1.8s-1.85,1.82-2.3,1.82h-.67Z"/><path class="cls-1" d="M299.12,5.81h-6.66v12h6.66v-2H294.8V12.53h4.14v-2H294.8V7.83h4.32Z"/><path class="cls-1" d="M308.26,5.81h-6.67v12h6.67v-2h-4.33V12.53h4.15v-2h-4.15V7.83h4.33Z"/></g></g></svg>