<svg xmlns="http://www.w3.org/2000/svg" viewBox="0 0 335.33 54.72"><defs><style>.cls-1{fill:#fff;}</style></defs><g id="レイヤー_2" data-name="レイヤー 2"><g id="レイヤー_1-2" data-name="レイヤー 1"><path d="M268.33,1.32v22h67v-22ZM11.46,14.24c1.66-1.79,3.87-4.16,3.87-7.46S12.77,0,7.81,0A7.12,7.12,0,0,0,.32,7.14H4.61A3.4,3.4,0,0,1,8,3.58a3.1,3.1,0,0,1,3.17,3.24,6.67,6.67,0,0,1-1.25,3.42c-.77,1.15-3.26,4-3.65,4.45L0,21.82H15.49V18.24H7.78ZM26.57,0c-4.26,0-8.26,3.81-8.26,11.14s4,11.16,8.26,11.16,8.25-3.81,8.25-11.13S30.82,0,26.57,0Zm0,18.72c-1.82,0-4.1-2-4.1-7.58s2.31-7.56,4.1-7.56,4.09,2,4.09,7.56S28.39,18.72,26.57,18.72Zm21.27-4.48c1.66-1.79,3.87-4.16,3.87-7.46S49.15,0,44.19,0A7.13,7.13,0,0,0,36.7,7.14H41a3.42,3.42,0,0,1,3.39-3.56,3.1,3.1,0,0,1,3.17,3.24,6.67,6.67,0,0,1-1.25,3.42c-.76,1.15-3.26,4-3.64,4.45l-6.28,7.13H51.87V18.24H44.16Zm8-10.18H59V21.82h4.16V.48H55.89ZM72,17.25a2.5,2.5,0,1,0,2.49,2.49A2.46,2.46,0,0,0,72,17.25Zm6-13.19H81V21.82h4.16V.48H77.94Zm23.6,10.18c1.67-1.79,3.87-4.16,3.87-7.46S102.85,0,97.89,0a7.12,7.12,0,0,0-7.48,7.14h4.28a3.42,3.42,0,0,1,3.4-3.56,3.09,3.09,0,0,1,3.16,3.24A6.75,6.75,0,0,1,100,10.24c-.77,1.15-3.27,4-3.65,4.45l-6.27,7.13h15.48V18.24H97.86Zm10.65,3a2.5,2.5,0,1,0,2.49,2.49A2.46,2.46,0,0,0,112.19,17.25Zm6-13.19h3.07V21.82h4.16V.48h-7.23Zm14.07,0h3.07V21.82h4.16V.48h-7.23Zm18.14,9.54a4.55,4.55,0,0,1-1.6-.76,1.12,1.12,0,0,1-.42-.9c0-.68.44-1.56,1.84-1.56a2.61,2.61,0,0,1,2.18,1.14l1.36-1.78a5.13,5.13,0,0,0-3.78-1.56c-3,0-4.28,2-4.28,3.92a3.1,3.1,0,0,0,1.06,2.48,6.42,6.42,0,0,0,2.22,1.16,6,6,0,0,1,2.06,1,1.55,1.55,0,0,1,.52,1.2,1.87,1.87,0,0,1-2.06,1.84,3.13,3.13,0,0,1-2.8-1.78L145,19.6a5.49,5.49,0,0,0,4.6,2.52,4.29,4.29,0,0,0,4.64-4.38,3.63,3.63,0,0,0-1.14-2.8A7.76,7.76,0,0,0,150.36,13.6Zm10.22-5.12-5.74,13.34h2.82l1.18-2.8h5.38l1.18,2.8h2.8L162.62,8.48Zm-.92,8.42,1.9-4.8,1.9,4.8Zm7.92-6.18h3v11.1h2.6V10.72h3V8.48h-8.6Zm15,5.53h8.31V12.67h-8.31ZM194.38,4.06h3.07V21.82h4.16V.48h-7.23ZM218,14.24c1.66-1.79,3.87-4.16,3.87-7.46S219.29,0,214.33,0a7.12,7.12,0,0,0-7.49,7.14h4.29a3.4,3.4,0,0,1,3.39-3.56,3.1,3.1,0,0,1,3.17,3.24,6.67,6.67,0,0,1-1.25,3.42c-.77,1.15-3.26,4-3.65,4.45l-6.27,7.13H222V18.24H214.3Zm12.19-.64a4.55,4.55,0,0,1-1.6-.76,1.12,1.12,0,0,1-.42-.9c0-.68.44-1.56,1.84-1.56a2.61,2.61,0,0,1,2.18,1.14l1.36-1.78a5.13,5.13,0,0,0-3.78-1.56c-3,0-4.28,2-4.28,3.92a3.1,3.1,0,0,0,1.06,2.48,6.42,6.42,0,0,0,2.22,1.16,6,6,0,0,1,2.06,1,1.55,1.55,0,0,1,.52,1.2,1.87,1.87,0,0,1-2.06,1.84,3.13,3.13,0,0,1-2.8-1.78l-1.7,1.62a5.49,5.49,0,0,0,4.6,2.52A4.29,4.29,0,0,0,234,17.74a3.63,3.63,0,0,0-1.14-2.8A7.76,7.76,0,0,0,230.17,13.6Zm14.16,3.26a2.9,2.9,0,0,1-.64,2,2.9,2.9,0,0,1-4.24,0,2.9,2.9,0,0,1-.64-2V8.48h-2.6v8.16a5.61,5.61,0,0,0,1,3.56,5.91,5.91,0,0,0,8.72,0,5.61,5.61,0,0,0,1-3.56V8.48h-2.6Zm15.61.52-8.12-8.9H250V21.82h2.6V12.9l8.12,8.92h1.8V8.48h-2.6Z"/><path class="cls-1" d="M280.17,5.81h-6.38v12h2.34V12.53h3.78v-2h-3.78V7.83h4Z"/><path class="cls-1" d="M282.18,5.81v12h2.34V13h.29l3.2,4.82h2.92l-3.74-5.06a3.34,3.34,0,0,0,1.31-.52,3.27,3.27,0,0,0,1.4-2.83,3.43,3.43,0,0,0-1.18-2.7,4.42,4.42,0,0,0-3.06-.9Zm2.34,1.91h.7c.44,0,2.27,0,2.27,1.8s-1.85,1.82-2.3,1.82h-.67Z"/><path class="cls-1" d="M299.12,5.81h-6.66v12h6.66v-2H294.8V12.53h4.14v-2H294.8V7.83h4.32Z"/><path class="cls-1" d="M308.26,5.81h-6.67v12h6.67v-2h-4.33V12.53h4.15v-2h-4.15V7.83h4.33Z"/><path d="M10.45,34.54c-6,0-10.23,4.2-10.23,10s4.19,10,10.23,10,10.23-4.17,10.23-10S16.49,34.54,10.45,34.54Zm0,16.65c-3.74,0-6.38-2.73-6.38-6.62s2.64-6.64,6.38-6.64,6.38,2.76,6.38,6.64S14.19,51.19,10.45,51.19Z"/><path d="M24.22,35V54.15H28v-7.1h2.41a6.58,6.58,0,0,0,4.86-1.7,6.53,6.53,0,0,0-.37-8.91C33.45,35.2,32,35,29.8,35ZM28,38.19h1.29a4.5,4.5,0,0,1,2.65.61A2.65,2.65,0,0,1,33,41a2.83,2.83,0,0,1-1,2.24,3.82,3.82,0,0,1-2.45.61H28Z"/><path d="M50.16,35H39.53V54.15H50.16V50.93h-6.9V45.7h6.62V42.48H43.26V38.19h6.9Z"/><path d="M57.85,54.15V41.33L69.52,54.15H72.1V35H68.37v12.8L56.7,35H54.11V54.15Z"/><path d="M76.09,52.28A2.25,2.25,0,1,0,78.33,50,2.21,2.21,0,0,0,76.09,52.28Z"/><path d="M86.62,54.15h3.73V35H83.86v3.22h2.76Z"/><path d="M103.07,54.58c3.82,0,7.42-3.42,7.42-10s-3.6-10-7.42-10-7.41,3.42-7.41,10S99.25,54.58,103.07,54.58Zm0-16.82c1.61,0,3.68,1.81,3.68,6.79s-2,6.81-3.68,6.81-3.68-1.81-3.68-6.81S101.46,37.76,103.07,37.76Z"/><path d="M113.1,43.54a2.25,2.25,0,1,0,2.24-2.24A2.21,2.21,0,0,0,113.1,43.54Zm0,8.77a2.25,2.25,0,1,0,2.24-2.25A2.21,2.21,0,0,0,113.1,52.31Z"/><path d="M127.59,54.58c3.82,0,7.42-3.42,7.42-10s-3.6-10-7.42-10-7.42,3.42-7.42,10S123.77,54.58,127.59,54.58Zm0-16.82c1.61,0,3.68,1.81,3.68,6.79s-2,6.81-3.68,6.81-3.68-1.81-3.68-6.81S126,37.76,127.59,37.76Z"/><path d="M144.72,54.58c3.82,0,7.42-3.42,7.42-10s-3.6-10-7.42-10-7.41,3.42-7.41,10S140.9,54.58,144.72,54.58Zm0-16.82c1.61,0,3.68,1.81,3.68,6.79s-2,6.81-3.68,6.81S141,49.55,141,44.55,143.11,37.76,144.72,37.76Z"/><path d="M161,49.15h7.48V45.93H161Z"/><path d="M192.71,49.09a5.81,5.81,0,0,1-4.48,2.1,6.36,6.36,0,0,1-6.5-6.56,6.42,6.42,0,0,1,6.36-6.7,6.17,6.17,0,0,1,4.62,2.16V35.72A9.6,9.6,0,0,0,188,34.54a9.8,9.8,0,0,0-7,2.53,10,10,0,0,0-3.08,7.5A9.52,9.52,0,0,0,181,51.9a9.43,9.43,0,0,0,7,2.68,10,10,0,0,0,4.74-1.12Z"/><path d="M196.54,35V54.15h9.66V50.93h-5.92V35Z"/><path d="M217.55,34.54c-6,0-10.23,4.2-10.23,10s4.19,10,10.23,10,10.23-4.17,10.23-10S223.59,34.54,217.55,34.54Zm0,16.65c-3.74,0-6.38-2.73-6.38-6.62s2.64-6.64,6.38-6.64,6.38,2.76,6.38,6.64S221.29,51.19,217.55,51.19Z"/><path d="M242.25,36.78a7.36,7.36,0,0,0-5.43-2.24c-4.25,0-6.15,2.82-6.15,5.64a4.46,4.46,0,0,0,1.52,3.56,9.44,9.44,0,0,0,3.19,1.67,8.54,8.54,0,0,1,3,1.41,2.24,2.24,0,0,1,.74,1.72,2.69,2.69,0,0,1-3,2.65,4.49,4.49,0,0,1-4-2.56L229.66,51a7.92,7.92,0,0,0,6.62,3.62c4,0,6.66-2.56,6.66-6.3a5.21,5.21,0,0,0-1.63-4,11.29,11.29,0,0,0-3.88-1.93,6.52,6.52,0,0,1-2.3-1.09,1.61,1.61,0,0,1-.61-1.29c0-1,.63-2.25,2.65-2.25a3.75,3.75,0,0,1,3.13,1.64Z"/><path d="M257,35H246.31V54.15H257V50.93h-6.9V45.7h6.61V42.48h-6.61V38.19H257Z"/><path d="M260.53,52.28A2.24,2.24,0,1,0,262.77,50,2.21,2.21,0,0,0,260.53,52.28Z"/><path d="M271.05,54.15h3.74V35h-6.5v3.22h2.76Z"/><path d="M280.13,53.31l3.16,1.41L294.82,35H280v3.22H289Z"/><path d="M294.63,43.54a2.24,2.24,0,1,0,2.24-2.24A2.21,2.21,0,0,0,294.63,43.54Zm0,8.77a2.24,2.24,0,1,0,2.24-2.25A2.21,2.21,0,0,0,294.63,52.31Z"/><path d="M309.12,54.58c3.82,0,7.41-3.42,7.41-10s-3.59-10-7.41-10-7.42,3.42-7.42,10S305.29,54.58,309.12,54.58Zm0-16.82c1.61,0,3.68,1.81,3.68,6.79s-2.05,6.81-3.68,6.81-3.68-1.81-3.68-6.81S307.51,37.76,309.12,37.76Z"/><path d="M326.25,54.58c3.82,0,7.42-3.42,7.42-10s-3.6-10-7.42-10-7.42,3.42-7.42,10S322.43,54.58,326.25,54.58Zm0-16.82c1.61,0,3.68,1.81,3.68,6.79s-2,6.81-3.68,6.81-3.68-1.81-3.68-6.81S324.64,37.76,326.25,37.76Z"/></g></g></svg>