<svg xmlns="http://www.w3.org/2000/svg" viewBox="0 0 20.16 24.82"><defs><style>.cls-1{fill:#fff;}</style></defs><g id="レイヤー_2" data-name="レイヤー 2"><g id="レイヤー_1-2" data-name="レイヤー 1"><g id="Layer_2" data-name="Layer 2"><g id="_2" data-name=" 2"><path class="cls-1" d="M16,0H7.14L6.69.45.45,6.69,0,7.15v13.5a4.17,4.17,0,0,0,4.16,4.17H16a4.17,4.17,0,0,0,4.16-4.17V4.16A4.17,4.17,0,0,0,16,0Zm2.62,20.65A2.62,2.62,0,0,1,16,23.27H4.16a2.62,2.62,0,0,1-2.62-2.62V7.78H5.6A2.17,2.17,0,0,0,7.78,5.62V1.54H16a2.62,2.62,0,0,1,2.62,2.62Z"/><path class="cls-1" d="M6,11.8H4.42a.44.44,0,0,0-.47.41v4.07a.54.54,0,1,0,1.08,0V15.05H6A1.63,1.63,0,0,0,6,11.8Zm-.07,2.28H5.07v-1.3h.82a.68.68,0,1,1,.16,1.35H5.89Z"/><path class="cls-1" d="M10.19,11.8H9a.44.44,0,0,0-.47.41v4.07a.43.43,0,0,0,.39.47h1.26c1.06,0,1.72-.34,2-1.15a4.34,4.34,0,0,0,.14-1.34A4.47,4.47,0,0,0,12.18,13C11.91,12.14,11.25,11.8,10.19,11.8Zm1,3.46c-.12.4-.48.57-1,.57h-.5m0,0v-3m0-.05h.5a.93.93,0,0,1,1,.57,3.36,3.36,0,0,1,.09,1,3.52,3.52,0,0,1-.14.91Z"/><path class="cls-1" d="M16.18,11.8H13.76a.44.44,0,0,0-.47.41v4.07a.54.54,0,0,0,1.08,0h0V14.79h1.41a.46.46,0,0,0,0-.92H14.41V12.78h1.77a.46.46,0,0,0,.53-.4.47.47,0,0,0-.39-.53h-.14Z"/></g></g></g></g></svg>